<?xml version="1.0" encoding="UTF-8"?>
<svg width="240px" height="151px" viewBox="0 0 240 151" version="1.1" xmlns="http://www.w3.org/2000/svg" xmlns:xlink="http://www.w3.org/1999/xlink">
    <!-- Generator: Sketch 47.1 (45422) - http://www.bohemiancoding.com/sketch -->
    <title>Claims_Cashless</title>
    <desc>Created with Sketch.</desc>
    <defs>
        <path d="M5.61596293,23.9023372 L1.09299457,13.5933 C-0.453603261,10.0667 1.17011413,5.9178 4.70148913,4.3729 L14.5936772,0.0460246735 L14.5936772,23.9023372 L5.61596293,23.9023372 L5.61596293,23.9023372 Z" id="path-1"></path>
        <path d="M23.3598009,14.8157013 L18.8368043,4.5066 C17.6877228,1.8865 15.0986087,0.3178 12.3952174,0.3185 C11.4599674,0.3185 10.5099946,0.5061 9.60208696,0.903 L0.38501568,4.93457704 L0.38501568,14.8157013 L23.3598009,14.8157013 L23.3598009,14.8157013 Z" id="path-3"></path>
        <path d="M23.1388756,11.719011 L14.5966304,15.4553 C11.0638533,16.9995 6.90780978,15.379 5.36121196,11.8524 L0.163564267,0.00559079295 L23.1388756,0.00559079295 L23.1388756,11.719011 L23.1388756,11.719011 Z" id="path-5"></path>
        <path d="M9.49451484,0.019310793 L14.6919783,11.8657 C16.2392772,15.3916 14.6155598,19.5419 11.0834837,21.0861 L0.516871771,25.7078259 L0.516871771,0.019310793 L9.49451484,0.019310793 L9.49451484,0.019310793 Z" id="path-7"></path>
        <path d="M21.6568307,3.1812816 L12.618163,0.3248 C11.9205815,0.1043 11.2138859,0 10.5170054,0 C7.54019022,0 4.76108152,1.9124 3.81882065,4.8867 L0.623975278,14.9649942 L21.6568307,14.9649942 L21.6568307,3.1812816 L21.6568307,3.1812816 Z" id="path-9"></path>
        <path d="M0.0321177988,0.46074487 L9.57825,3.4776 C13.25475,4.6382 15.310337,8.5925 14.1465326,12.2626 L10.9517082,22.3416025 L0.0321177988,22.3416025 L0.0321177988,0.46074487 L0.0321177988,0.46074487 Z" id="path-11"></path>
        <path d="M15.5338912,24.0258337 L5.47969565,20.8488 C1.80389674,19.6868 -0.251690217,15.7332 0.910711957,12.0624 L4.61304785,0.383202376 L15.5338912,0.383202376 L15.5338912,24.0258337 L15.5338912,24.0258337 Z" id="path-13"></path>
        <path d="M21.251659,0.0598057565 L17.5496087,11.739 C16.3865054,15.4091 12.4260652,17.4622 8.75096739,16.3009 L0.218764927,13.6048022 L0.218764927,0.0598057565 L21.251659,0.0598057565 L21.251659,0.0598057565 Z" id="path-15"></path>
        <path d="M27.0047532,8.16154323 L17.3455924,1.8011 C16.1642609,1.0227 14.827288,0.651 13.5036359,0.651 C11.2208967,0.651 8.97671739,1.7563 7.63343478,3.7905 L0.494733593,14.5974679 L27.0047532,14.5974679 L27.0047532,8.16154323 L27.0047532,8.16154323 Z" id="path-17"></path>
        <path d="M0.000730990077,0.177615114 L10.585712,7.1477 C13.8037011,9.268 14.7003913,13.6318 12.5782011,16.8455 L5.43957341,27.6523566 L0.000730990077,27.6523566 L0.000730990077,0.177615114 L0.000730990077,0.177615114 Z" id="path-19"></path>
        <path d="M14.8216559,29.7495135 L3.31193478,22.1704 C0.0925434783,20.0501 -0.804146739,15.6863 1.31874457,12.4719 L9.38281304,0.264058976 L14.8216559,0.264058976 L14.8216559,29.7495135 L14.8216559,29.7495135 Z" id="path-21"></path>
        <path d="M26.9472804,0.0188533833 L18.8830761,12.2269 C16.7601848,15.4406 12.3896087,16.3366 9.17021739,14.2163 L0.43739841,8.46576743 L0.43739841,0.0188533833 L26.9472804,0.0188533833 L26.9472804,0.0188533833 Z" id="path-23"></path>
        <polygon id="path-25" points="0 167.3 257.699234 167.3 257.699234 0.5607 0 0.5607"></polygon>
    </defs>
    <g id="Page-1" stroke="none" stroke-width="1" fill="none" fill-rule="evenodd">
        <g id="claims_Car_web" transform="translate(-891.000000, -852.000000)">
            <g id="Claims_Cashless" transform="translate(891.000000, 835.000000)">
                <g id="Group-11" transform="translate(34.353261, 24.639300)">
                    <path d="M157.842437,142.79972 L9.85770326,142.79972 C4.28967065,130.84862 0.924453261,117.66692 0.295578261,103.77192 C2.51451848,60.16752 38.6289098,25.49372 82.8527739,25.49372 C128.508959,25.49372 165.52004,62.44742 165.52004,108.03072 C165.52004,120.45362 162.76547,132.23252 157.842437,142.79972" id="Fill-1" fill="#5E22E0"></path>
                    <path d="M154.105573,77.78582 L125.368019,90.35502 C121.835943,91.89992 117.679899,90.27872 116.133302,86.75282 L88.0281277,22.69302 C86.4808288,19.16712 88.1045462,15.01752 91.6359212,13.47262 L120.374177,0.90342 C123.906253,-0.64148 128.062296,0.97972 129.608894,4.50632 L157.713367,68.56542 C159.261367,72.09202 157.636948,76.24162 154.105573,77.78582" id="Fill-3" fill="#EC2C8E"></path>
                    <path d="M151.47173,74.35624 L124.628512,86.09664 C122.862474,86.86944 120.784453,86.05884 120.011154,84.29484 L92.4661484,21.51324 C91.6921484,19.74924 92.5047082,17.67444 94.2700451,16.90304 L121.113262,5.16194 C122.879301,4.38984 124.957322,5.20044 125.730621,6.96374 L153.275627,69.74604 C154.049627,71.50934 153.237768,73.58344 151.47173,74.35624" id="Fill-5" fill="#FF88CC"></path>
                    <path d="M135.191299,40.24083 C138.17162,47.03433 135.072114,54.95483 128.268065,57.93053 C121.464016,60.90623 113.531217,57.81223 110.550897,51.01803 C107.570576,44.22383 110.66938,36.30403 117.47413,33.32833 C124.27888,30.35193 132.210277,33.44733 135.191299,40.24083" id="Fill-7" fill="#EC2C8E"></path>
                    <path d="M116.054499,41.04611 L117.219005,43.69981 C116.793445,44.02811 116.423972,44.41311 116.122505,44.84081 L114.714722,41.63201 C114.431483,40.98521 113.675711,40.69121 113.029309,40.97401 C112.381505,41.25751 112.086347,42.01141 112.369586,42.65751 L118.019646,55.53401 C118.302885,56.18081 119.057956,56.47481 119.705059,56.19201 C120.352864,55.90851 120.648021,55.15461 120.364081,54.50851 L117.942527,48.99041 C117.521874,48.03001 117.698548,46.95551 118.309896,46.18691 L121.704559,53.92261 C121.987798,54.56871 122.742168,54.86341 123.389972,54.58061 C124.037777,54.29711 124.332934,53.54391 124.048293,52.89711 L120.655032,45.16071 C121.635853,45.23351 122.546565,45.83201 122.967217,46.79241 L125.388771,52.31121 C125.596293,52.78441 126.069527,53.08611 126.586929,53.07631 C127.105032,53.06581 127.564945,52.74451 127.753537,52.26291 L132.929662,39.03711 C133.058662,38.70811 133.041135,38.35811 132.910032,38.05851 C132.778228,37.75961 132.532847,37.50971 132.203336,37.38161 C131.545016,37.12401 130.802565,37.44881 130.545266,38.10681 L126.493684,48.45911 L125.312353,45.76691 C124.316108,43.49611 121.907173,42.27321 119.56344,42.67221 L118.399635,40.02061 C118.115695,39.37381 117.360624,39.07911 116.713521,39.36261 C116.066418,39.64611 115.77126,40.39931 116.054499,41.04611" id="Fill-9" fill="#FF88CC"></path>
                </g>
                <g id="Group-24" transform="translate(121.288043, 24.639300)">
                    <g id="Group-14" transform="translate(0.000000, 9.100000)">
                        <mask id="mask-2" fill="white">
                            <use xlink:href="#path-1"></use>
                        </mask>
                        <g id="Clip-13"></g>
                        <path d="M13.2473185,1.55148 C16.7871065,9.61898 13.1064,19.02418 5.02567174,22.55848 C-3.05365435,26.09208 -12.4741598,22.41708 -16.0125457,14.34888 C-19.5523337,6.28208 -15.8716272,-3.12312 -7.7916,-6.65742 C0.288427174,-10.19102 9.70823152,-6.51602 13.2473185,1.55148" id="Fill-12" fill="#EC2C8E" mask="url(#mask-2)"></path>
                    </g>
                    <g id="Group-17" transform="translate(23.836957, 0.000000)">
                        <mask id="mask-4" fill="white">
                            <use xlink:href="#path-3"></use>
                        </mask>
                        <g id="Clip-16"></g>
                        <path d="M30.9915489,-7.53557 C34.531337,0.53193 30.8506304,9.93713 22.7699022,13.47143 C14.689875,17.00573 5.27007065,13.33073 1.7309837,5.26253 C-1.80810326,-2.80497 1.87260326,-12.21017 9.95192935,-15.74447 C18.0326576,-19.27807 27.4517609,-15.60237 30.9915489,-7.53557" id="Fill-15" fill="#EC2C8E" mask="url(#mask-4)"></path>
                    </g>
                    <g id="Group-20" transform="translate(23.836957, 74.900000)">
                        <mask id="mask-6" fill="white">
                            <use xlink:href="#path-5"></use>
                        </mask>
                        <g id="Clip-19"></g>
                        <path d="M21.7925168,9.55836 C25.3323049,17.62586 21.6515984,27.03106 13.5708701,30.56536 C5.49084293,34.09966 -3.92896141,30.42466 -7.46804837,22.35646 C-11.0071353,14.28896 -7.3264288,4.88376 0.75359837,1.34946 C8.83362554,-2.18414 18.2527288,1.49086 21.7925168,9.55836" id="Fill-18" fill="#EC2C8E" mask="url(#mask-6)"></path>
                    </g>
                    <g id="Group-23" transform="translate(56.086957, 56.700000)">
                        <mask id="mask-8" fill="white">
                            <use xlink:href="#path-7"></use>
                        </mask>
                        <g id="Clip-22"></g>
                        <path d="M31.1237038,9.57208 C34.6634918,17.63888 30.9827853,27.04478 22.9020571,30.57908 C14.8220299,34.11268 5.40222554,30.43768 1.86313859,22.36948 C-1.67664946,14.30268 2.00475815,4.89678 10.0840842,1.36318 C18.1648125,-2.17042 27.5839158,1.50458 31.1237038,9.57208" id="Fill-21" fill="#EC2C8E" mask="url(#mask-8)"></path>
                    </g>
                </g>
                <g id="Group-33" transform="translate(140.918478, 17.639300)">
                    <path d="M35.3918511,89.80069 L5.47997609,80.34859 C1.80417717,79.18659 -0.25211087,75.23299 0.910992391,71.56219 L22.0466609,4.88649 C23.2097641,1.21569 27.1695033,-0.83671 30.8467043,0.32529 L60.7578783,9.77739 C64.4343783,10.93869 66.4892641,14.89229 65.3261609,18.56239 L44.1911935,85.23879 C43.0280902,88.90959 39.06765,90.96199 35.3918511,89.80069" id="Fill-25" fill="#EC2C8E"></path>
                    <path d="M35.6738984,85.48785 L7.73418098,76.65875 C5.89593098,76.07845 4.86883859,74.10095 5.45003967,72.26555 L26.1643549,6.91845 C26.7462571,5.08305 28.7254255,4.05685 30.5636755,4.63785 L58.5033929,13.46625 C60.3416429,14.04725 61.3694364,16.02475 60.7875342,17.85945 L40.073219,83.20655 C39.4920179,85.04195 37.5121484,86.06815 35.6738984,85.48785" id="Fill-27" fill="#FF88CC"></path>
                    <path d="M45.9423685,49.11522 C43.7009935,56.18662 36.142575,60.10452 29.0601946,57.86662 C21.9778141,55.62872 18.0538304,48.08132 20.2952054,41.01062 C22.5365804,33.93852 30.0949989,30.02132 37.1773793,32.25922 C44.2597598,34.49642 48.1837435,42.04312 45.9423685,49.11522" id="Fill-29" fill="#EC2C8E"></path>
                    <path d="M31.0162272,37.13045 L30.1405696,39.89265 C29.603537,39.85905 29.0728141,39.90595 28.5631239,40.02985 L29.6217652,36.68945 C29.8348957,36.01675 29.4619174,35.29855 28.7874717,35.08575 C28.1137272,34.87225 27.394412,35.24605 27.1812815,35.91875 L22.9333957,49.32095 C22.7195641,49.99365 23.0932435,50.71185 23.766988,50.92535 C24.4407326,51.13815 25.1600478,50.76575 25.3731783,50.09235 L27.1946022,44.34885 C27.5114935,43.34855 28.3527978,42.65765 29.3202978,42.48125 L26.7676402,50.53265 C26.5552109,51.20535 26.9281891,51.92425 27.6026348,52.13635 C28.2763793,52.34985 28.9956946,51.97745 29.208825,51.30405 L31.7607815,43.25195 C32.4506511,43.95265 32.7409011,45.00125 32.4240098,46.00085 L30.603287,51.74505 C30.4469446,52.23785 30.603988,52.77615 31.0001022,53.10865 C31.3962163,53.44115 31.9542815,53.50345 32.4134935,53.26475 L45.035863,46.72115 C45.3492489,46.55875 45.567988,46.28435 45.6661402,45.97285 C45.7649935,45.66135 45.745363,45.31205 45.5820098,44.99775 C45.2567054,44.37195 44.4841076,44.12765 43.8559337,44.45315 L33.9769174,49.57435 L34.8644935,46.77225 C35.6139554,44.40835 34.6085967,41.90375 32.5817543,40.66195 L33.4567109,37.90185 C33.6705424,37.22915 33.296863,36.51025 32.6231185,36.29815 C31.9493739,36.08465 31.2300587,36.45775 31.0162272,37.13045" id="Fill-31" fill="#FF88CC"></path>
                </g>
                <g id="Group-46" transform="translate(140.918478, 17.639300)">
                    <g id="Group-36" transform="translate(18.228261, 0.000000)">
                        <mask id="mask-10" fill="white">
                            <use xlink:href="#path-9"></use>
                        </mask>
                        <g id="Clip-35"></g>
                        <path d="M20.9079554,3.82508 C18.2466293,12.22228 9.27061304,16.87518 0.860373913,14.21728 C-7.54986522,11.56008 -12.2092891,2.59798 -9.54796304,-5.79922 C-6.88663696,-14.19642 2.08937935,-18.84932 10.4996185,-16.19142 C18.9098576,-13.53422 23.5699826,-4.57212 20.9079554,3.82508" id="Fill-34" fill="#EC2C8E" mask="url(#mask-10)"></path>
                    </g>
                    <g id="Group-39" transform="translate(51.179348, 6.300000)">
                        <mask id="mask-12" fill="white">
                            <use xlink:href="#path-11"></use>
                        </mask>
                        <g id="Clip-38"></g>
                        <path d="M31.2366489,11.20175 C28.5753228,19.59825 19.5993065,24.25185 11.1890674,21.59395 C2.77882826,18.93605 -1.88059565,9.97465 0.780730435,1.57745 C3.44205652,-6.81975 12.4180728,-11.47335 20.828312,-8.81545 C29.2385511,-6.15755 33.8986761,2.80455 31.2366489,11.20175" id="Fill-37" fill="#EC2C8E" mask="url(#mask-12)"></path>
                    </g>
                    <g id="Group-42" transform="translate(0.000000, 59.500000)">
                        <mask id="mask-14" fill="white">
                            <use xlink:href="#path-13"></use>
                        </mask>
                        <g id="Clip-41"></g>
                        <path d="M14.7850826,21.14735 C12.1230554,29.54455 3.14774022,34.19815 -5.26249891,31.54025 C-13.672738,28.88235 -18.332863,19.92025 -15.6708359,11.52375 C-13.0095098,3.12655 -4.03349348,-1.52705 4.37604457,1.13085 C12.7862837,3.78875 17.4471098,12.75015 14.7850826,21.14735" id="Fill-40" fill="#EC2C8E" mask="url(#mask-14)"></path>
                    </g>
                    <g id="Group-45" transform="translate(26.641304, 73.500000)">
                        <mask id="mask-16" fill="white">
                            <use xlink:href="#path-15"></use>
                        </mask>
                        <g id="Clip-44"></g>
                        <path d="M31.4235587,20.82402 C28.7615315,29.22122 19.7862163,33.87412 11.3759772,31.21622 C2.96573804,28.55902 -1.69438696,19.59692 0.967640217,11.19972 C3.6289663,2.80252 12.6042815,-1.85038 21.0145207,0.80752 C29.4247598,3.46472 34.0855859,12.42682 31.4235587,20.82402" id="Fill-43" fill="#EC2C8E" mask="url(#mask-16)"></path>
                    </g>
                </g>
                <g id="Group-55" transform="translate(160.548913, 23.239300)">
                    <path d="M29.5017391,89.11637 L3.31193478,71.86977 C0.0925434783,69.75017 -0.804146739,65.38637 1.31874457,62.17197 L39.8834348,3.79057 C42.0063261,0.57687 46.3769022,-0.31843 49.5955924,1.80117 L75.7867989,19.04777 C79.004788,21.16807 79.9021793,25.53187 77.778587,28.74557 L39.2145978,87.12697 C37.0917065,90.34067 32.7211304,91.23597 29.5017391,89.11637" id="Fill-47" fill="#EC2C8E"></path>
                    <path d="M30.9531995,85.04489 L6.48877011,68.93439 C4.87977554,67.87529 4.43107989,65.69269 5.49322663,64.08619 L43.2888245,6.86749 C44.349569,5.26029 46.5355582,4.81369 48.1445527,5.87279 L72.6089821,21.98259 C74.2186777,23.04309 74.6666723,25.22499 73.6052266,26.83149 L35.8096288,84.04949 C34.7474821,85.65669 32.562194,86.10469 30.9531995,85.04489" id="Fill-49" fill="#FF88CC"></path>
                    <path d="M50.7774147,52.85315 C46.6872734,59.04465 38.3450397,60.75335 32.1432245,56.66955 C25.9421103,52.58645 24.2307571,44.25645 28.3208984,38.06495 C32.4110397,31.87275 40.7532734,30.16475 46.9543875,34.24785 C53.1562027,38.33165 54.867556,46.66095 50.7774147,52.85315" id="Fill-51" fill="#EC2C8E"></path>
                    <path d="M39.6956136,37.25491 L38.0978364,39.67411 C37.5902495,39.49491 37.0665375,39.39551 36.5428255,39.37521 L38.4743201,36.45131 C38.8634234,35.86191 38.7007712,35.06881 38.110456,34.68031 C37.5201408,34.29181 36.7265103,34.45421 36.3374071,35.04361 L28.5854886,46.77841 C28.1963853,47.36781 28.3590375,48.16091 28.9493527,48.54941 C29.5396679,48.93791 30.3332984,48.77551 30.7224016,48.18611 L34.0441516,43.15661 C34.6232495,42.28161 35.6215973,41.84621 36.6010158,41.93931 L31.9436951,48.99041 C31.5545918,49.57911 31.717244,50.37221 32.3075592,50.76071 C32.8978745,51.14921 33.6915049,50.98681 34.0806082,50.39741 L38.7379288,43.34701 C39.2097603,44.20941 39.2020484,45.29651 38.6243527,46.17221 L35.3012005,51.20171 C35.0165592,51.63291 35.0200647,52.19361 35.3103147,52.62131 C35.6005647,53.04901 36.1200701,53.26111 36.6276571,53.15751 L50.5596571,50.30361 C50.905994,50.23221 51.1906353,50.02781 51.3708147,49.75481 C51.550994,49.48181 51.6274125,49.14021 51.5566027,48.79441 C51.4142821,48.10281 50.7377332,47.65691 50.0457603,47.79901 L39.1403527,50.03341 L40.7612658,47.57921 C42.1283853,45.51001 41.8458473,42.82621 40.2361516,41.07901 L41.8325266,38.66261 C42.222331,38.07321 42.0589777,37.28011 41.4686625,36.89161 C40.8783473,36.50311 40.0847168,36.66551 39.6956136,37.25491" id="Fill-53" fill="#FF88CC"></path>
                </g>
                <g id="Group-68" transform="translate(160.548913, 23.239300)">
                    <g id="Group-58" transform="translate(32.250000, 0.000000)">
                        <mask id="mask-18" fill="white">
                            <use xlink:href="#path-17"></use>
                        </mask>
                        <g id="Clip-57"></g>
                        <path d="M24.3641038,7.42833 C19.5069734,14.78113 9.59991359,16.80973 2.23639728,11.96153 C-5.12711902,7.11193 -7.1602712,-2.77977 -2.30314076,-10.13257 C2.55398967,-17.48537 12.4603484,-19.51397 19.8238647,-14.66507 C27.1880821,-9.81617 29.2212342,0.07553 24.3641038,7.42833" id="Fill-56" fill="#EC2C8E" mask="url(#mask-18)"></path>
                    </g>
                    <g id="Group-61" transform="translate(65.201087, 11.900000)">
                        <mask id="mask-20" fill="white">
                            <use xlink:href="#path-19"></use>
                        </mask>
                        <g id="Clip-60"></g>
                        <path d="M29.3086598,20.48291 C24.4515293,27.83571 14.5444696,29.86501 7.18095326,25.01611 C-0.182563043,20.16651 -2.21571522,10.27481 2.64141522,2.92201 C7.49854565,-4.43009 17.4049043,-6.45939 24.7691217,-1.61049 C32.132638,3.23911 34.1657902,13.13081 29.3086598,20.48291" id="Fill-59" fill="#EC2C8E" mask="url(#mask-20)"></path>
                    </g>
                    <g id="Group-64" transform="translate(0.000000, 49.700000)">
                        <mask id="mask-22" fill="white">
                            <use xlink:href="#path-21"></use>
                        </mask>
                        <g id="Clip-63"></g>
                        <path d="M12.1813158,24.99392 C7.32418533,32.34672 -2.58287446,34.37602 -9.94639076,29.52712 C-17.3106082,24.67752 -19.3430592,14.78582 -14.4859288,7.43302 C-9.62949946,0.08022 0.277560326,-1.94838 7.64107663,2.90052 C15.005294,7.74942 17.0377451,17.64112 12.1813158,24.99392" id="Fill-62" fill="#EC2C8E" mask="url(#mask-22)"></path>
                    </g>
                    <g id="Group-67" transform="translate(20.331522, 74.900000)">
                        <mask id="mask-24" fill="white">
                            <use xlink:href="#path-23"></use>
                        </mask>
                        <g id="Clip-66"></g>
                        <path d="M29.7455071,24.7485 C24.8883766,32.1013 14.9813168,34.1306 7.61780054,29.2817 C0.253583152,24.4321 -1.77886793,14.5404 3.0782625,7.1883 C7.93469185,-0.1645 17.8417516,-2.1938 25.2052679,2.6551 C32.5694853,7.5047 34.6026375,17.3964 29.7455071,24.7485" id="Fill-65" fill="#EC2C8E" mask="url(#mask-24)"></path>
                    </g>
                </g>
                <g id="Group-187" transform="translate(0.000000, 0.139300)">
                    <path d="M221.37704,153.36741 C221.37704,156.32841 219.717567,158.72871 217.671095,158.72871 C215.623921,158.72871 213.964448,156.32841 213.964448,153.36741 C213.964448,150.40711 215.623921,148.00681 217.671095,148.00681 C219.717567,148.00681 221.37704,150.40711 221.37704,153.36741 Z" id="Fill-69" fill="#1F7E17"></path>
                    <path d="M218.224252,163.79972 L217.117937,163.79972 L217.117937,155.72172 C217.117937,155.41582 217.36472,155.16942 217.671095,155.16942 C217.976067,155.16942 218.224252,155.41582 218.224252,155.72172 L218.224252,163.79972 Z" id="Fill-71" fill="#3D2626"></path>
                    <path d="M234.305434,153.36741 C234.305434,156.32841 232.645961,158.72871 230.598787,158.72871 C228.552315,158.72871 226.892842,156.32841 226.892842,153.36741 C226.892842,150.40711 228.552315,148.00681 230.598787,148.00681 C232.645961,148.00681 234.305434,150.40711 234.305434,153.36741" id="Fill-73" fill="#1F7E17"></path>
                    <path d="M231.151875,163.79972 L230.04556,163.79972 L230.04556,155.72172 C230.04556,155.41582 230.293043,155.16942 230.598717,155.16942 C230.904391,155.16942 231.151875,155.41582 231.151875,155.72172 L231.151875,163.79972 Z" id="Fill-75" fill="#3D2626"></path>
                    <path d="M30.1918891,156.45861 C30.1918891,158.54251 29.0238783,160.23161 27.5831446,160.23161 C26.143112,160.23161 24.9758022,158.54251 24.9758022,156.45861 C24.9758022,154.37471 26.143112,152.68561 27.5831446,152.68561 C29.0238783,152.68561 30.1918891,154.37471 30.1918891,156.45861" id="Fill-77" fill="#269C1C"></path>
                    <path d="M27.9729489,163.79972 L27.1947424,163.79972 L27.1947424,158.11502 C27.1947424,157.90012 27.368612,157.72582 27.5831446,157.72582 C27.7983783,157.72582 27.9729489,157.90012 27.9729489,158.11502 L27.9729489,163.79972 Z" id="Fill-79" fill="#5B3939"></path>
                    <path d="M227.295196,154.81865 C227.295196,157.01875 225.508826,158.80165 223.30531,158.80165 C221.101793,158.80165 219.315424,157.01875 219.315424,154.81865 C219.315424,152.61855 221.101793,150.83565 223.30531,150.83565 C225.508826,150.83565 227.295196,152.61855 227.295196,154.81865" id="Fill-81" fill="#269C1C"></path>
                    <path d="M223.890437,163.79972 L222.784122,163.79972 L222.784122,155.72172 C222.784122,155.41582 223.031605,155.16942 223.337279,155.16942 C223.642252,155.16942 223.890437,155.41582 223.890437,155.72172 L223.890437,163.79972 Z" id="Fill-83" fill="#5B3939"></path>
                    <path d="M215.101541,157.65694 C215.101541,159.16124 213.880247,160.38204 212.37291,160.38204 C210.866274,160.38204 209.64428,159.16124 209.64428,157.65694 C209.64428,156.15264 210.866274,154.93254 212.37291,154.93254 C213.880247,154.93254 215.101541,156.15264 215.101541,157.65694" id="Fill-85" fill="#269C1C"></path>
                    <path d="M212.773021,163.79972 L212.016548,163.79972 L212.016548,158.27392 C212.016548,158.06602 212.186211,157.89662 212.395135,157.89662 C212.604059,157.89662 212.773021,158.06602 212.773021,158.27392 L212.773021,163.79972 Z" id="Fill-87" fill="#5B3939"></path>
                    <path d="M229.380649,157.65694 C229.380649,159.16124 228.158654,160.38204 226.651317,160.38204 C225.144682,160.38204 223.922687,159.16124 223.922687,157.65694 C223.922687,156.15264 225.144682,154.93254 226.651317,154.93254 C228.158654,154.93254 229.380649,156.15264 229.380649,157.65694" id="Fill-89" fill="#269C1C"></path>
                    <path d="M227.051498,163.79972 L226.295025,163.79972 L226.295025,158.27392 C226.295025,158.06602 226.464688,157.89662 226.673612,157.89662 C226.882536,157.89662 227.051498,158.06602 227.051498,158.27392 L227.051498,163.79972 Z" id="Fill-91" fill="#5B3939"></path>
                    <path d="M167.393345,153.36741 C167.393345,156.32841 165.733872,158.72871 163.687399,158.72871 C161.640225,158.72871 159.980752,156.32841 159.980752,153.36741 C159.980752,150.40711 161.640225,148.00681 163.687399,148.00681 C165.733872,148.00681 167.393345,150.40711 167.393345,153.36741" id="Fill-93" fill="#1F7E17"></path>
                    <path d="M164.240557,163.79972 L163.134241,163.79972 L163.134241,155.72172 C163.134241,155.41582 163.381024,155.16942 163.687399,155.16942 C163.992372,155.16942 164.240557,155.41582 164.240557,155.72172 L164.240557,163.79972 Z" id="Fill-95" fill="#3D2626"></path>
                    <path d="M180.321739,153.36741 C180.321739,156.32841 178.662266,158.72871 176.615092,158.72871 C174.568619,158.72871 172.909146,156.32841 172.909146,153.36741 C172.909146,150.40711 174.568619,148.00681 176.615092,148.00681 C178.662266,148.00681 180.321739,150.40711 180.321739,153.36741" id="Fill-97" fill="#1F7E17"></path>
                    <path d="M177.168179,163.79972 L176.061864,163.79972 L176.061864,155.72172 C176.061864,155.41582 176.309348,155.16942 176.615022,155.16942 C176.920696,155.16942 177.168179,155.41582 177.168179,155.72172 L177.168179,163.79972 Z" id="Fill-99" fill="#3D2626"></path>
                    <path d="M173.3115,154.81865 C173.3115,157.01875 171.52513,158.80165 169.321614,158.80165 C167.118098,158.80165 165.331728,157.01875 165.331728,154.81865 C165.331728,152.61855 167.118098,150.83565 169.321614,150.83565 C171.52513,150.83565 173.3115,152.61855 173.3115,154.81865" id="Fill-101" fill="#269C1C"></path>
                    <path d="M169.906741,163.79972 L168.800426,163.79972 L168.800426,155.72172 C168.800426,155.41582 169.04791,155.16942 169.353584,155.16942 C169.658557,155.16942 169.906741,155.41582 169.906741,155.72172 L169.906741,163.79972 Z" id="Fill-103" fill="#5B3939"></path>
                    <path d="M161.117845,157.65694 C161.117845,159.16124 159.896552,160.38204 158.389215,160.38204 C156.882579,160.38204 155.660584,159.16124 155.660584,157.65694 C155.660584,156.15264 156.882579,154.93254 158.389215,154.93254 C159.896552,154.93254 161.117845,156.15264 161.117845,157.65694" id="Fill-105" fill="#269C1C"></path>
                    <path d="M158.789325,163.79972 L158.032852,163.79972 L158.032852,158.27392 C158.032852,158.06602 158.202515,157.89662 158.411439,157.89662 C158.620363,157.89662 158.789325,158.06602 158.789325,158.27392 L158.789325,163.79972 Z" id="Fill-107" fill="#5B3939"></path>
                    <path d="M175.396953,157.65694 C175.396953,159.16124 174.174959,160.38204 172.667622,160.38204 C171.160986,160.38204 169.938991,159.16124 169.938991,157.65694 C169.938991,156.15264 171.160986,154.93254 172.667622,154.93254 C174.174959,154.93254 175.396953,156.15264 175.396953,157.65694" id="Fill-109" fill="#269C1C"></path>
                    <path d="M173.067802,163.79972 L172.311329,163.79972 L172.311329,158.27392 C172.311329,158.06602 172.480992,157.89662 172.689916,157.89662 C172.89884,157.89662 173.067802,158.06602 173.067802,158.27392 L173.067802,163.79972 Z" id="Fill-111" fill="#5B3939"></path>
                    <path d="M11.5802038,153.36741 C11.5802038,156.32841 9.92073098,158.72871 7.87425815,158.72871 C5.82708424,158.72871 4.16761141,156.32841 4.16761141,153.36741 C4.16761141,150.40711 5.82708424,148.00681 7.87425815,148.00681 C9.92073098,148.00681 11.5802038,150.40711 11.5802038,153.36741" id="Fill-113" fill="#1F7E17"></path>
                    <path d="M8.42671467,163.79972 L7.32110054,163.79972 L7.32110054,155.72172 C7.32110054,155.41582 7.56788315,155.16942 7.87425815,155.16942 C8.17923098,155.16942 8.42671467,155.41582 8.42671467,155.72172 L8.42671467,163.79972 Z" id="Fill-115" fill="#3D2626"></path>
                    <path d="M24.5085277,153.36741 C24.5085277,156.32841 22.8490549,158.72871 20.801881,158.72871 C18.7554082,158.72871 17.0959353,156.32841 17.0959353,153.36741 C17.0959353,150.40711 18.7554082,148.00681 20.801881,148.00681 C22.8490549,148.00681 24.5085277,150.40711 24.5085277,153.36741" id="Fill-117" fill="#1F7E17"></path>
                    <path d="M21.3550386,163.79972 L20.2487234,163.79972 L20.2487234,155.72172 C20.2487234,155.41582 20.4962071,155.16942 20.801881,155.16942 C21.1068538,155.16942 21.3550386,155.41582 21.3550386,155.72172 L21.3550386,163.79972 Z" id="Fill-119" fill="#3D2626"></path>
                    <path d="M17.4983592,154.81865 C17.4983592,157.01875 15.7119897,158.80165 13.5084734,158.80165 C11.3049571,158.80165 9.5185875,157.01875 9.5185875,154.81865 C9.5185875,152.61855 11.3049571,150.83565 13.5084734,150.83565 C15.7119897,150.83565 17.4983592,152.61855 17.4983592,154.81865" id="Fill-121" fill="#269C1C"></path>
                    <path d="M14.0936005,163.79972 L12.9872853,163.79972 L12.9872853,155.72172 C12.9872853,155.41582 13.234769,155.16942 13.5404429,155.16942 C13.8454158,155.16942 14.0936005,155.41582 14.0936005,155.72172 L14.0936005,163.79972 Z" id="Fill-123" fill="#5B3939"></path>
                    <path d="M26.259913,157.65694 C26.259913,159.16124 25.0379185,160.38204 23.5305815,160.38204 C22.0239457,160.38204 20.8019511,159.16124 20.8019511,157.65694 C20.8019511,156.15264 22.0239457,154.93254 23.5305815,154.93254 C25.0379185,154.93254 26.259913,156.15264 26.259913,157.65694" id="Fill-125" fill="#269C1C"></path>
                    <path d="M23.9306918,163.79972 L23.174219,163.79972 L23.174219,158.27392 C23.174219,158.06602 23.3438821,157.89662 23.552806,157.89662 C23.7617299,157.89662 23.9306918,158.06602 23.9306918,158.27392 L23.9306918,163.79972 Z" id="Fill-127" fill="#5B3939"></path>
                    <path d="M38.6418799,161.81452 C38.6418799,162.72312 38.1125592,163.46022 37.4605484,163.46022 C36.8085375,163.46022 36.2799179,162.72312 36.2799179,161.81452 C36.2799179,160.90592 36.8085375,159.14262 37.4605484,159.14262 C38.1125592,159.14262 38.6418799,160.90592 38.6418799,161.81452" id="Fill-129" fill="#269C1C"></path>
                    <polygon id="Fill-131" fill="#E1DAAA" points="38.3844408 163.45994 36.5363755 163.45994 36.3155332 161.86604 38.6059842 161.86604"></polygon>
                    <path d="M34.3511576,161.81452 C34.3511576,162.72312 33.822538,163.46022 33.1705272,163.46022 C32.5185163,163.46022 31.9898967,162.72312 31.9898967,161.81452 C31.9898967,160.90592 32.5185163,159.14262 33.1705272,159.14262 C33.822538,159.14262 34.3511576,160.90592 34.3511576,161.81452" id="Fill-133" fill="#269C1C"></path>
                    <polygon id="Fill-135" fill="#E1DAAA" points="34.0944196 163.45994 32.2463543 163.45994 32.0248109 161.86604 34.315963 161.86604"></polygon>
                    <path d="M206.902749,161.81452 C206.902749,162.72312 206.373429,163.46022 205.721418,163.46022 C205.069407,163.46022 204.540788,162.72312 204.540788,161.81452 C204.540788,160.90592 205.069407,159.14262 205.721418,159.14262 C206.373429,159.14262 206.902749,160.90592 206.902749,161.81452" id="Fill-137" fill="#269C1C"></path>
                    <polygon id="Fill-139" fill="#E1DAAA" points="206.64531 163.45994 204.797245 163.45994 204.576403 161.86604 206.866854 161.86604"></polygon>
                    <path d="M202.612027,161.81452 C202.612027,162.72312 202.083408,163.46022 201.431397,163.46022 C200.779386,163.46022 200.250766,162.72312 200.250766,161.81452 C200.250766,160.90592 200.779386,159.14262 201.431397,159.14262 C202.083408,159.14262 202.612027,160.90592 202.612027,161.81452" id="Fill-141" fill="#269C1C"></path>
                    <polygon id="Fill-143" fill="#E1DAAA" points="202.355289 163.45994 200.507224 163.45994 200.28568 161.86604 202.576833 161.86604"></polygon>
                    <path d="M48.086012,153.36741 C48.086012,156.32841 46.4272402,158.72871 44.3800663,158.72871 C42.3328924,158.72871 40.6741207,156.32841 40.6741207,153.36741 C40.6741207,150.40711 42.3328924,148.00681 44.3800663,148.00681 C46.4272402,148.00681 48.086012,150.40711 48.086012,153.36741" id="Fill-145" fill="#269C1C"></path>
                    <path d="M44.9332239,163.79972 L43.8269087,163.79972 L43.8269087,155.72172 C43.8269087,155.41582 44.0743924,155.16942 44.3800663,155.16942 C44.6850391,155.16942 44.9332239,155.41582 44.9332239,155.72172 L44.9332239,163.79972 Z" id="Fill-147" fill="#5B3939"></path>
                    <path d="M238.444862,165.89972 C238.444862,166.67042 237.813884,167.29972 237.042688,167.29972 L1.40245435,167.29972 C0.631258696,167.29972 0.000280434783,166.67042 0.000280434783,165.89972 L0.000280434783,164.61942 C0.000280434783,163.84872 0.631258696,163.21942 1.40245435,163.21942 L237.042688,163.21942 C237.813884,163.21942 238.444862,163.84872 238.444862,164.61942 L238.444862,165.89972 Z" id="Fill-149" fill="#30274C"></path>
                    <path d="M220.283695,138.30439 C220.283695,140.03479 218.878016,141.43759 217.144228,141.43759 L134.748282,141.43759 C133.015195,141.43759 131.609516,140.03479 131.609516,138.30439 L131.609516,74.05699 C131.609516,72.32589 133.015195,70.92239 134.748282,70.92239 L217.144228,70.92239 C218.878016,70.92239 220.283695,72.32589 220.283695,74.05699 L220.283695,138.30439 Z" id="Fill-151" fill="#2B8259"></path>
                    <path d="M214.324456,138.30439 C214.324456,140.03479 212.918777,141.43759 211.184287,141.43759 L128.789043,141.43759 C127.055255,141.43759 125.650277,140.03479 125.650277,138.30439 L125.650277,74.05699 C125.650277,72.32589 127.055255,70.92239 128.789043,70.92239 L211.184287,70.92239 C212.918777,70.92239 214.324456,72.32589 214.324456,74.05699 L214.324456,138.30439 Z" id="Fill-153" fill="#37A977"></path>
                    <mask id="mask-26" fill="white">
                        <use xlink:href="#path-25"></use>
                    </mask>
                    <g id="Clip-156"></g>
                    <polygon id="Fill-155" fill="#FFFFFF" mask="url(#mask-26)" points="125.649505 74.9868 126.384946 74.9868 126.384946 74.6935 125.649505 74.6935"></polygon>
                    <path d="M127.850918,74.9868 L129.316891,74.9868 L129.316891,74.6935 L127.850918,74.6935 L127.850918,74.9868 Z M130.782163,74.9868 L132.248136,74.9868 L132.248136,74.6935 L130.782163,74.6935 L130.782163,74.9868 Z M133.713408,74.9868 L135.178679,74.9868 L135.178679,74.6935 L133.713408,74.6935 L133.713408,74.9868 Z M136.644652,74.9868 L138.110625,74.9868 L138.110625,74.6935 L136.644652,74.6935 L136.644652,74.9868 Z M139.575897,74.9868 L141.04187,74.9868 L141.04187,74.6935 L139.575897,74.6935 L139.575897,74.9868 Z M142.507141,74.9868 L143.972413,74.9868 L143.972413,74.6935 L142.507141,74.6935 L142.507141,74.9868 Z M145.438386,74.9868 L146.904359,74.9868 L146.904359,74.6935 L145.438386,74.6935 L145.438386,74.9868 Z M148.36963,74.9868 L149.835603,74.9868 L149.835603,74.6935 L148.36963,74.6935 L148.36963,74.9868 Z M151.300875,74.9868 L152.766848,74.9868 L152.766848,74.6935 L151.300875,74.6935 L151.300875,74.9868 Z M154.23212,74.9868 L155.698092,74.9868 L155.698092,74.6935 L154.23212,74.6935 L154.23212,74.9868 Z M157.164065,74.9868 L158.630038,74.9868 L158.630038,74.6935 L157.164065,74.6935 L157.164065,74.9868 Z M160.094609,74.9868 L161.55988,74.9868 L161.55988,74.6935 L160.094609,74.6935 L160.094609,74.9868 Z M163.025853,74.9868 L164.491826,74.9868 L164.491826,74.6935 L163.025853,74.6935 L163.025853,74.9868 Z M165.957799,74.9868 L167.423071,74.9868 L167.423071,74.6935 L165.957799,74.6935 L165.957799,74.9868 Z M168.888342,74.9868 L170.354315,74.9868 L170.354315,74.6935 L168.888342,74.6935 L168.888342,74.9868 Z M171.820288,74.9868 L173.28556,74.9868 L173.28556,74.6935 L171.820288,74.6935 L171.820288,74.9868 Z M174.752234,74.9868 L176.216804,74.9868 L176.216804,74.6935 L174.752234,74.6935 L174.752234,74.9868 Z M177.682777,74.9868 L179.148049,74.9868 L179.148049,74.6935 L177.682777,74.6935 L177.682777,74.9868 Z M180.614723,74.9868 L182.079995,74.9868 L182.079995,74.6935 L180.614723,74.6935 L180.614723,74.9868 Z M183.544565,74.9868 L185.011239,74.9868 L185.011239,74.6935 L183.544565,74.6935 L183.544565,74.9868 Z M186.47581,74.9868 L187.942484,74.9868 L187.942484,74.6935 L186.47581,74.6935 L186.47581,74.9868 Z M189.407054,74.9868 L190.873728,74.9868 L190.873728,74.6935 L189.407054,74.6935 L189.407054,74.9868 Z M192.339,74.9868 L193.804973,74.9868 L193.804973,74.6935 L192.339,74.6935 L192.339,74.9868 Z M195.269543,74.9868 L196.736217,74.9868 L196.736217,74.6935 L195.269543,74.6935 L195.269543,74.9868 Z M198.200788,74.9868 L199.667462,74.9868 L199.667462,74.6935 L198.200788,74.6935 L198.200788,74.9868 Z M201.132033,74.9868 L202.598005,74.9868 L202.598005,74.6935 L201.132033,74.6935 L201.132033,74.9868 Z M204.063978,74.9868 L205.529951,74.9868 L205.529951,74.6935 L204.063978,74.6935 L204.063978,74.9868 Z M208.45138,74.9924 C208.388283,74.9896 208.323082,74.9868 208.258582,74.9868 L206.995223,74.9868 L206.995223,74.6935 L208.258582,74.6935 C208.32869,74.6935 208.3995,74.6956 208.469609,74.6991 L208.45138,74.9924 Z M210.77338,76.356 C210.520288,75.9654 210.174652,75.6343 209.774332,75.3984 L209.923663,75.145 C210.363245,75.404 210.743234,75.7673 211.019462,76.1957 L210.77338,76.356 Z M211.543875,79.1049 L211.249418,79.1049 L211.249418,77.9744 C211.249418,77.868 211.244511,77.7616 211.233995,77.658 L211.526348,77.6272 C211.537565,77.7413 211.543875,77.8568 211.543875,77.9744 L211.543875,79.1049 Z M211.249418,82.0323 L211.543875,82.0323 L211.543875,80.5679 L211.249418,80.5679 L211.249418,82.0323 Z M211.249418,84.9597 L211.543875,84.9597 L211.543875,83.4953 L211.249418,83.4953 L211.249418,84.9597 Z M211.249418,87.8843 L211.543875,87.8843 L211.543875,86.4213 L211.249418,86.4213 L211.249418,87.8843 Z M211.249418,90.8117 L211.543875,90.8117 L211.543875,89.3487 L211.249418,89.3487 L211.249418,90.8117 Z M211.249418,93.7384 L211.543875,93.7384 L211.543875,92.2761 L211.249418,92.2761 L211.249418,93.7384 Z M211.249418,96.6651 L211.543875,96.6651 L211.543875,95.2021 L211.249418,95.2021 L211.249418,96.6651 Z M211.249418,99.5932 L211.543875,99.5932 L211.543875,98.1288 L211.249418,98.1288 L211.249418,99.5932 Z M211.249418,102.5199 L211.543875,102.5199 L211.543875,101.0562 L211.249418,101.0562 L211.249418,102.5199 Z M211.249418,105.4452 L211.543875,105.4452 L211.543875,103.9822 L211.249418,103.9822 L211.249418,105.4452 Z M211.249418,108.3726 L211.543875,108.3726 L211.543875,106.9096 L211.249418,106.9096 L211.249418,108.3726 Z M211.249418,111.2993 L211.543875,111.2993 L211.543875,109.8349 L211.249418,109.8349 L211.249418,111.2993 Z M211.249418,114.2253 L211.543875,114.2253 L211.543875,112.7623 L211.249418,112.7623 L211.249418,114.2253 Z M211.249418,117.1527 L211.543875,117.1527 L211.543875,115.6897 L211.249418,115.6897 L211.249418,117.1527 Z M211.249418,120.0794 L211.543875,120.0794 L211.543875,118.6164 L211.249418,118.6164 L211.249418,120.0794 Z M211.249418,123.0061 L211.543875,123.0061 L211.543875,121.5417 L211.249418,121.5417 L211.249418,123.0061 Z M211.249418,125.9328 L211.543875,125.9328 L211.543875,124.4691 L211.249418,124.4691 L211.249418,125.9328 Z M211.249418,128.8595 L211.543875,128.8595 L211.543875,127.3958 L211.249418,127.3958 L211.249418,128.8595 Z M211.249418,131.7862 L211.543875,131.7862 L211.543875,130.3225 L211.249418,130.3225 L211.249418,131.7862 Z M211.527049,134.7269 L211.234696,134.6968 C211.244511,134.5953 211.249418,134.4917 211.249418,134.386 L211.249418,133.2492 L211.543875,133.2492 L211.543875,134.386 C211.543875,134.5008 211.537565,134.6149 211.527049,134.7269 L211.527049,134.7269 Z M209.929973,137.2119 L209.779239,136.9599 C210.17956,136.7233 210.523793,136.3915 210.776886,136.0009 L211.023668,136.1598 C210.748141,136.5896 210.368152,136.9529 209.929973,137.2119 L209.929973,137.2119 Z M127.857228,137.6676 L129.323201,137.6676 L129.323201,137.3743 L127.857228,137.3743 L127.857228,137.6676 Z M130.788473,137.6676 L132.254446,137.6676 L132.254446,137.3743 L130.788473,137.3743 L130.788473,137.6676 Z M133.719717,137.6676 L135.184989,137.6676 L135.184989,137.3743 L133.719717,137.3743 L133.719717,137.6676 Z M136.650962,137.6676 L138.116935,137.6676 L138.116935,137.3743 L136.650962,137.3743 L136.650962,137.6676 Z M139.582908,137.6676 L141.048179,137.6676 L141.048179,137.3743 L139.582908,137.3743 L139.582908,137.6676 Z M142.513451,137.6676 L143.979424,137.6676 L143.979424,137.3743 L142.513451,137.3743 L142.513451,137.6676 Z M145.444696,137.6676 L146.910668,137.6676 L146.910668,137.3743 L145.444696,137.3743 L145.444696,137.6676 Z M148.375239,137.6676 L149.841212,137.6676 L149.841212,137.3743 L148.375239,137.3743 L148.375239,137.6676 Z M151.307185,137.6676 L152.773158,137.6676 L152.773158,137.3743 L151.307185,137.3743 L151.307185,137.6676 Z M154.238429,137.6676 L155.704402,137.6676 L155.704402,137.3743 L154.238429,137.3743 L154.238429,137.6676 Z M157.169674,137.6676 L158.635647,137.6676 L158.635647,137.3743 L157.169674,137.3743 L157.169674,137.6676 Z M160.100918,137.6676 L161.566891,137.6676 L161.566891,137.3743 L160.100918,137.3743 L160.100918,137.6676 Z M163.032864,137.6676 L164.498136,137.6676 L164.498136,137.3743 L163.032864,137.3743 L163.032864,137.6676 Z M165.963408,137.6676 L167.428679,137.6676 L167.428679,137.3743 L165.963408,137.3743 L165.963408,137.6676 Z M168.894652,137.6676 L170.360625,137.6676 L170.360625,137.3743 L168.894652,137.3743 L168.894652,137.6676 Z M171.825897,137.6676 L173.29187,137.6676 L173.29187,137.3743 L171.825897,137.3743 L171.825897,137.6676 Z M174.757141,137.6676 L176.223114,137.6676 L176.223114,137.3743 L174.757141,137.3743 L174.757141,137.6676 Z M177.688386,137.6676 L179.15506,137.6676 L179.15506,137.3743 L177.688386,137.3743 L177.688386,137.6676 Z M180.620332,137.6676 L182.087005,137.6676 L182.087005,137.3743 L180.620332,137.3743 L180.620332,137.6676 Z M183.550875,137.6676 L185.016147,137.6676 L185.016147,137.3743 L183.550875,137.3743 L183.550875,137.6676 Z M186.482821,137.6676 L187.948793,137.6676 L187.948793,137.3743 L186.482821,137.3743 L186.482821,137.6676 Z M189.414065,137.6676 L190.879337,137.6676 L190.879337,137.3743 L189.414065,137.3743 L189.414065,137.6676 Z M192.344609,137.6676 L193.810582,137.6676 L193.810582,137.3743 L192.344609,137.3743 L192.344609,137.6676 Z M195.276554,137.6676 L196.741826,137.6676 L196.741826,137.3743 L195.276554,137.3743 L195.276554,137.6676 Z M198.2085,137.6676 L199.673071,137.6676 L199.673071,137.3743 L198.2085,137.3743 L198.2085,137.6676 Z M201.139043,137.6676 L202.604315,137.6676 L202.604315,137.3743 L201.139043,137.3743 L201.139043,137.6676 Z M204.070288,137.6676 L205.536261,137.6676 L205.536261,137.3743 L204.070288,137.3743 L204.070288,137.6676 Z M208.258582,137.6676 L207.002234,137.6676 L207.002234,137.3743 L208.258582,137.3743 C208.325185,137.3743 208.391788,137.3715 208.45769,137.3673 L208.47662,137.6606 C208.404408,137.6662 208.332196,137.6676 208.258582,137.6676 L208.258582,137.6676 Z" id="Fill-157" fill="#FFFFFF" mask="url(#mask-26)"></path>
                    <polygon id="Fill-158" fill="#FFFFFF" mask="url(#mask-26)" points="125.649505 137.6676 126.384946 137.6676 126.384946 137.3743 125.649505 137.3743"></polygon>
                    <path d="M220.283695,115.36504 C220.283695,117.09544 219.04207,118.49964 217.510195,118.49964 L187.350836,118.49964 C185.819662,118.49964 184.578037,117.09544 184.578037,115.36504 L184.578037,100.73924 C184.578037,99.00884 185.819662,97.60604 187.350836,97.60604 L217.510195,97.60604 C219.04207,97.60604 220.283695,99.00884 220.283695,100.73924 L220.283695,115.36504 Z" id="Fill-159" fill="#2B8259" mask="url(#mask-26)"></path>
                    <path d="M217.731248,95.74383 L216.806514,95.74383 C216.791791,95.74383 216.78478,95.73613 216.778471,95.73613 L217.59103,95.73613 C217.640107,95.73613 217.689183,95.73613 217.731248,95.74383" id="Fill-160" fill="#5E22E0" mask="url(#mask-26)"></path>
                    <path d="M220.283695,95.74383 L220.283695,116.62483 L188.313429,116.62483 C186.827124,116.62483 185.621956,115.22483 185.621956,113.49513 L185.621956,98.86583 C185.621956,97.13613 186.827124,95.73613 188.313429,95.73613 L216.77826,95.73613 C216.785271,95.73613 216.792282,95.74383 216.806304,95.74383 L220.283695,95.74383 Z" id="Fill-161" fill="#5E22E0" mask="url(#mask-26)"></path>
                    <path d="M192.383168,97.7522 L193.85475,97.7522 L193.85475,97.4582 L192.383168,97.4582 L192.383168,97.7522 Z M195.326332,97.7522 L196.79581,97.7522 L196.79581,97.4582 L195.326332,97.4582 L195.326332,97.7522 Z M198.267391,97.7522 L199.738272,97.7522 L199.738272,97.4582 L198.267391,97.4582 L198.267391,97.7522 Z M201.209853,97.7522 L202.680734,97.7522 L202.680734,97.4582 L201.209853,97.4582 L201.209853,97.7522 Z M204.150913,97.7522 L205.622495,97.7522 L205.622495,97.4582 L204.150913,97.4582 L204.150913,97.7522 Z M207.092674,97.7522 L208.564255,97.7522 L208.564255,97.4582 L207.092674,97.4582 L207.092674,97.7522 Z M210.035837,97.7522 L211.506717,97.7522 L211.506717,97.4582 L210.035837,97.4582 L210.035837,97.7522 Z M212.977598,97.7522 L214.448478,97.7522 L214.448478,97.4582 L212.977598,97.4582 L212.977598,97.7522 Z M215.918658,97.7522 L217.390239,97.7522 L217.390239,97.4582 L215.918658,97.4582 L215.918658,97.7522 Z M218.86112,97.7522 L220.283625,97.7522 L220.283625,97.4582 L218.86112,97.4582 L218.86112,97.7522 Z M189.491886,97.8348 L189.408457,97.5527 C189.618783,97.4904 189.83612,97.4582 190.054859,97.4582 L190.912989,97.4582 L190.912989,97.7522 L190.054859,97.7522 C189.863462,97.7522 189.67487,97.7795 189.491886,97.8348 L189.491886,97.8348 Z M187.85625,99.8837 L187.564598,99.8438 C187.636109,99.3209 187.838723,98.833 188.149304,98.4319 L188.382065,98.6118 C188.102332,98.9716 187.921451,99.4119 187.85625,99.8837 L187.85625,99.8837 Z M187.535853,102.7999 L187.829609,102.7999 L187.829609,101.3313 L187.535853,101.3313 L187.535853,102.7999 Z M187.535853,105.7371 L187.829609,105.7371 L187.829609,104.2685 L187.535853,104.2685 L187.535853,105.7371 Z M187.535853,108.6743 L187.829609,108.6743 L187.829609,107.2057 L187.535853,107.2057 L187.535853,108.6743 Z M187.535853,111.6115 L187.829609,111.6115 L187.829609,110.1429 L187.535853,110.1429 L187.535853,111.6115 Z M188.117755,114.5193 C187.814886,114.1119 187.621386,113.6205 187.558288,113.0976 L187.850641,113.0619 C187.906728,113.5351 188.080598,113.9782 188.354022,114.3436 L188.117755,114.5193 Z M190.863913,115.5336 L190.054859,115.5336 C189.818592,115.5336 189.584429,115.4972 189.358679,115.4244 L189.448418,115.1444 C189.645424,115.2088 189.848739,115.2403 190.054859,115.2403 L190.863913,115.2403 L190.863913,115.5336 Z M192.334092,115.5336 L193.804973,115.5336 L193.804973,115.2403 L192.334092,115.2403 L192.334092,115.5336 Z M195.276554,115.5336 L196.747435,115.5336 L196.747435,115.2403 L195.276554,115.2403 L195.276554,115.5336 Z M198.218315,115.5336 L199.689196,115.5336 L199.689196,115.2403 L198.218315,115.2403 L198.218315,115.5336 Z M201.160777,115.5336 L202.631658,115.5336 L202.631658,115.2403 L201.160777,115.2403 L201.160777,115.5336 Z M204.103239,115.5336 L205.57412,115.5336 L205.57412,115.2403 L204.103239,115.2403 L204.103239,115.5336 Z M207.044299,115.5336 L208.51588,115.5336 L208.51588,115.2403 L207.044299,115.2403 L207.044299,115.5336 Z M209.98606,115.5336 L211.457641,115.5336 L211.457641,115.2403 L209.98606,115.2403 L209.98606,115.5336 Z M212.92712,115.5336 L214.399402,115.5336 L214.399402,115.2403 L212.92712,115.2403 L212.92712,115.5336 Z M215.870984,115.5336 L217.341864,115.5336 L217.341864,115.2403 L215.870984,115.2403 L215.870984,115.5336 Z M218.812043,115.5336 L220.283625,115.5336 L220.283625,115.2403 L218.812043,115.2403 L218.812043,115.5336 Z" id="Fill-162" fill="#FFFFFF" mask="url(#mask-26)"></path>
                    <path d="M203.139245,105.9198 C203.139245,109.0684 200.58238,111.6213 197.42819,111.6213 C194.273299,111.6213 191.716435,109.0684 191.716435,105.9198 C191.716435,102.7705 194.273299,100.2169 197.42819,100.2169 C200.58238,100.2169 203.139245,102.7705 203.139245,105.9198" id="Fill-163" fill="#EE9C20" mask="url(#mask-26)"></path>
                    <path d="M203.139245,105.9198 C203.139245,109.0684 200.58238,111.6213 197.42819,111.6213 C194.273299,111.6213 191.716435,109.0684 191.716435,105.9198 C191.716435,102.7705 194.273299,100.2169 197.42819,100.2169 C200.58238,100.2169 203.139245,102.7705 203.139245,105.9198" id="Fill-164" fill="#37A977" mask="url(#mask-26)"></path>
                    <path d="M58.2990261,152.36389 C58.2990261,152.36389 59.1038739,158.23619 59.5700967,158.27749 C60.0363196,158.32019 62.2398359,158.27749 62.2398359,158.27749 L62.6632924,152.18609 L58.2990261,152.36389 Z" id="Fill-165" fill="#363636" mask="url(#mask-26)"></path>
                    <path d="M97.5948098,128.03203 C96.3580924,128.03203 93.8944728,128.63753 91.6257554,130.33433 C91.2121141,130.64373 90.8685815,131.32763 90.477375,131.71263 C87.9352337,134.20813 83.261087,138.50613 82.1982391,138.50613 C81.1346902,138.50613 68.1288261,139.62333 63.8914565,142.62703 C59.654788,145.62933 59.7816848,146.77173 59.654788,147.82943 C59.5278913,148.88643 57.7057663,149.56403 57.7057663,150.62173 L57.7057663,152.83793 C57.7057663,153.25443 59.6232391,153.19073 60.3222228,153.88863 C61.0212065,154.58723 61.911587,156.71733 60.8936087,156.71733 L58.7651087,156.71733 C58.2890707,156.71733 58.033875,157.22763 58.033875,157.73163 C58.033875,158.23563 58.2890707,159.44103 60.4806685,159.44103 L64.943087,159.44103 C67.3008424,159.02103 70.5209348,159.02103 74.1721957,159.02103 C76.7879511,159.02103 79.6553967,159.02803 82.6104783,159.44103 L127.467424,159.44103 C130.779359,159.01963 132.701739,158.51073 132.701739,158.51073 C132.701739,158.51073 136.190348,156.36873 140.244033,156.36873 C142.664185,156.36873 144.231815,156.53953 145.132712,156.99523 L146.593076,156.99523 C147.651717,156.99523 149.473842,155.61273 149.473842,154.72443 L149.473842,149.44503 C149.473842,148.92913 147.439989,147.78743 147.439989,146.85713 L147.439989,140.51093 C147.439989,140.26033 146.896647,139.41823 146.093201,138.31153 C145.231565,137.12433 143.634489,135.81533 142.519761,134.41953 C141.070614,132.60443 140.134663,130.76833 139.606043,130.15513 C139.514902,130.04943 139.448299,129.97453 139.411842,129.93603 C138.839755,129.33263 140.333071,129.36413 140.333071,129.01483 C140.333071,128.66623 136.936304,128.03203 135.346239,128.03203 L97.5948098,128.03203 Z" id="Fill-166" fill="#EC2C8E" mask="url(#mask-26)"></path>
                    <path d="M60.9335707,145.08151 C59.7129783,146.38351 59.7396196,147.12551 59.654788,147.82971 C59.5278913,148.88671 57.7057663,149.56361 57.7057663,150.62131 L57.7057663,152.83751 C57.7057663,153.25471 59.6232391,153.19101 60.3222228,153.88891 C61.0212065,154.58681 61.911587,156.71691 60.8936087,156.71691 L58.7651087,156.71691 C58.2890707,156.71691 58.033875,157.22791 58.033875,157.73121 C58.033875,158.23591 58.2890707,159.44131 60.4806685,159.44131 L64.943087,159.44131 C66.8570543,158.61391 70.5244402,158.84351 74.2009402,158.84351 C76.8012717,158.84351 80.6579511,158.95411 82.6104783,159.44131 L127.467424,159.44131 C130.904152,159.44131 132.780261,159.02061 132.780261,159.02061 C132.780261,159.02061 136.409788,156.85481 140.463473,156.85481 C142.884326,156.85481 144.222,156.99551 145.132712,156.99551 L146.593076,156.99551 C147.651717,156.99551 149.473842,155.61301 149.473842,154.72401 L149.473842,149.44461 C149.473842,148.92871 147.439989,147.78701 147.439989,146.85671 L147.439989,145.08151 L60.9335707,145.08151 Z" id="Fill-167" fill="#EC2C8E" mask="url(#mask-26)"></path>
                    <path d="M140.354314,141.90694 C140.354314,140.81634 139.465335,139.92944 138.373743,139.92944 C137.281449,139.92944 136.393172,140.81634 136.393172,141.90694 C136.393172,142.99754 137.281449,143.88444 138.373743,143.88444 C139.465335,143.88444 140.354314,142.99754 140.354314,141.90694 L140.354314,141.90694 Z M140.544308,141.90694 C140.544308,143.10254 139.570498,144.07554 138.373743,144.07554 C137.176286,144.07554 136.201776,143.10254 136.201776,141.90694 C136.201776,140.71134 137.176286,139.73904 138.373743,139.73904 C139.570498,139.73904 140.544308,140.71134 140.544308,141.90694 L140.544308,141.90694 Z M119.190602,138.59174 C119.916227,142.89254 118.569439,153.57104 118.555417,153.67884 C118.255352,156.03784 116.384852,157.27264 115.791732,157.27264 L89.2703136,157.27264 C88.4570527,157.27264 88.2425201,156.46904 88.2425201,156.04344 L88.2425201,141.14534 C88.2425201,139.93014 92.8682918,136.11514 93.0645962,135.95344 L93.1858842,136.10044 C91.8636342,137.18684 88.4332158,140.21014 88.4332158,141.14534 L88.4332158,156.04344 C88.4332158,156.40324 88.6077864,157.08294 89.2703136,157.08294 L115.791732,157.08294 C116.230613,157.08294 118.064656,156.01964 118.366824,153.65434 C118.380145,153.54794 119.722727,142.89674 119.00271,138.62324 L119.190602,138.59174 Z" id="Fill-168" fill="#BDBDBD" mask="url(#mask-26)"></path>
                    <path d="M82.6111092,159.4411 L82.6111092,156.9953 C82.6111092,152.1324 78.6478647,148.1753 73.7767125,148.1753 C68.9062614,148.1753 64.9437179,152.1324 64.9437179,156.9953 L64.9437179,159.4411 L82.6111092,159.4411 Z" id="Fill-169" fill="#242424" mask="url(#mask-26)"></path>
                    <path d="M136.299086,148.17551 C131.428635,148.17551 127.465391,152.13191 127.465391,156.99551 L127.465391,159.44131 L132.971027,159.44131 C132.971027,159.44131 136.409858,156.99551 140.463543,156.99551 L145.132782,156.99551 C145.132782,152.13191 141.169537,148.17551 136.299086,148.17551" id="Fill-170" fill="#242424" mask="url(#mask-26)"></path>
                    <path d="M81.3397582,156.99523 C81.3397582,161.16653 77.9542092,164.54613 73.7771332,164.54613 C69.6000571,164.54613 66.2145082,161.16653 66.2145082,156.99523 C66.2145082,152.82463 69.6000571,149.44503 73.7771332,149.44503 C77.9542092,149.44503 81.3397582,152.82463 81.3397582,156.99523" id="Fill-171" fill="#15216D" mask="url(#mask-26)"></path>
                    <path d="M77.8815766,156.99523 C77.8815766,159.25903 76.0447288,161.09373 73.7774136,161.09373 C71.5093973,161.09373 69.6718484,159.25903 69.6718484,156.99523 C69.6718484,154.73213 71.5093973,152.89743 73.7774136,152.89743 C76.0447288,152.89743 77.8815766,154.73213 77.8815766,156.99523" id="Fill-172" fill="#EC2C8E" mask="url(#mask-26)"></path>
                    <path d="M74.7300505,156.99523 C74.7300505,157.52093 74.3037897,157.94723 73.7772734,157.94723 C73.2507571,157.94723 72.8237951,157.52093 72.8237951,156.99523 C72.8237951,156.47023 73.2507571,156.04393 73.7772734,156.04393 C74.3037897,156.04393 74.7300505,156.47023 74.7300505,156.99523" id="Fill-173" fill="#EC2C8E" mask="url(#mask-26)"></path>
                    <path d="M143.861782,156.99523 C143.861782,161.16653 140.476233,164.54613 136.299157,164.54613 C132.12208,164.54613 128.736532,161.16653 128.736532,156.99523 C128.736532,152.82463 132.12208,149.44503 136.299157,149.44503 C140.476233,149.44503 143.861782,152.82463 143.861782,156.99523" id="Fill-174" fill="#15216D" mask="url(#mask-26)"></path>
                    <path d="M140.30706,156.99523 C140.30706,159.25903 138.469511,161.09373 136.202897,161.09373 C133.934881,161.09373 132.097332,159.25903 132.097332,156.99523 C132.097332,154.73213 133.934881,152.89743 136.202897,152.89743 C138.469511,152.89743 140.30706,154.73213 140.30706,156.99523" id="Fill-175" fill="#EC2C8E" mask="url(#mask-26)"></path>
                    <path d="M136.299086,131.49031 C136.011641,131.10951 135.365239,130.14701 133.543114,130.14701 L100.179086,130.14701 C99.2901082,130.14701 98.5700918,130.14631 97.7435103,130.99261 C96.9169288,131.83891 91.6629832,137.10501 91.3145429,137.41231 C90.9647005,137.71891 90.9857332,139.15741 92.7440592,139.15741 L137.779782,139.15741 C138.881891,139.15741 139.316565,138.66041 139.125168,137.93031 C138.935173,137.20091 136.587233,131.87111 136.299086,131.49031" id="Fill-176" fill="#68665C" mask="url(#mask-26)"></path>
                    <path d="M139.606604,130.15597 C139.175436,130.19937 138.721132,130.40587 139.072376,131.01487 C139.475501,131.71277 143.20318,137.48707 143.435941,137.78317 C143.668702,138.07787 144.323517,138.31027 146.093061,138.31097 C144.110387,135.58237 140.541854,131.23957 139.606604,130.15597" id="Fill-177" fill="#68665C" mask="url(#mask-26)"></path>
                    <path d="M85.4353679,138.77675 C85.6898625,138.77675 86.1350527,138.56465 86.7281723,138.01515 C87.3205908,137.46565 93.0617918,131.86005 93.5700799,131.39525 C94.0783679,130.92975 94.3538951,130.33685 93.675944,130.33685 L91.6287701,130.33685 C91.2144277,130.64695 90.805694,130.98855 90.4137864,131.37425 C87.8716451,133.86975 83.2605962,138.50585 82.1984495,138.50585 C82.4003625,138.66895 82.5868516,138.77675 82.7242647,138.77675 L85.4353679,138.77675 Z" id="Fill-178" fill="#68665C" mask="url(#mask-26)"></path>
                    <polygon id="Fill-179" fill="#292929" mask="url(#mask-26)" points="119.095745 139.15748 122.418897 139.15748 121.40863 130.14708 119.095745 130.14708"></polygon>
                    <path d="M68.6791092,142.15026 C67.6085495,142.29166 64.6114027,142.91186 63.4048321,143.64126 C62.1968592,144.37066 60.1314571,148.01976 61.6563212,148.01976 L64.5798538,148.01976 C64.9612451,148.01976 67.0273484,147.35406 68.1077234,145.89386 C69.1880984,144.43506 69.8436147,141.99556 68.6791092,142.15026" id="Fill-180" fill="#FFFFFF" mask="url(#mask-26)"></path>
                    <path d="M64.5800641,148.01962 C64.9614554,148.01962 67.0268576,147.35392 68.1072326,145.89372 C69.1876076,144.43492 69.843825,141.99612 68.6793196,142.15012 C68.2670804,142.20472 67.5687978,142.33072 66.7983033,142.50572 C65.482363,143.63342 63.6511239,145.63402 63.6427109,148.01962 L64.5800641,148.01962 Z" id="Fill-181" fill="#FF7B4D" mask="url(#mask-26)"></path>
                    <path d="M147.439779,146.85685 L147.439779,141.20015 L145.689165,141.20015 C145.308474,141.20015 144.999996,141.50815 144.999996,141.88825 L144.999996,146.19325 C144.999996,146.57335 145.308474,146.88205 145.689165,146.88205 L147.443284,146.88205 C147.443284,146.87295 147.439779,146.86455 147.439779,146.85685" id="Fill-182" fill="#FF7B4D" mask="url(#mask-26)"></path>
                    <path d="M147.439779,146.85685 L147.439779,145.08165 L144.999996,145.08165 L144.999996,146.19325 C144.999996,146.57335 145.308474,146.88205 145.689165,146.88205 L147.443284,146.88205 C147.443284,146.87295 147.439779,146.86455 147.439779,146.85685" id="Fill-183" fill="#EC2C8E" mask="url(#mask-26)"></path>
                    <path d="M145.968478,80.04241 C145.968478,89.32091 138.435298,96.84241 129.142391,96.84241 C119.849483,96.84241 112.316304,89.32091 112.316304,80.04241 C112.316304,70.76391 119.849483,63.24241 129.142391,63.24241 C138.435298,63.24241 145.968478,70.76391 145.968478,80.04241" id="Fill-184" fill="#EC2C8E" mask="url(#mask-26)"></path>
                    <path d="M137.35275,88.24074 L137.35275,88.24074 C136.615207,88.97644 135.409337,88.97644 134.671793,88.24074 L120.93119,74.52144 C120.193647,73.78574 120.193647,72.58104 120.93119,71.84464 C121.668734,71.10824 122.875304,71.10824 123.612147,71.84464 L137.35275,85.56394 C138.090293,86.30034 138.090293,87.50434 137.35275,88.24074" id="Fill-185" fill="#FFFFFF" mask="url(#mask-26)"></path>
                    <path d="M137.35275,71.84471 L137.35275,71.84471 C138.090293,72.58111 138.090293,73.78511 137.35275,74.52151 L123.612147,88.24081 C122.875304,88.97651 121.668734,88.97651 120.93119,88.24081 C120.193647,87.50441 120.193647,86.29971 120.93119,85.56401 L134.671793,71.84471 C135.409337,71.10831 136.615207,71.10831 137.35275,71.84471" id="Fill-186" fill="#FFFFFF" mask="url(#mask-26)"></path>
                </g>
            </g>
        </g>
    </g>
</svg>