<?xml version="1.0" encoding="UTF-8"?>
<svg width="198px" height="148px" viewBox="0 0 198 148" version="1.1" xmlns="http://www.w3.org/2000/svg" xmlns:xlink="http://www.w3.org/1999/xlink">
    <!-- Generator: Sketch 47.1 (45422) - http://www.bohemiancoding.com/sketch -->
    <title>Claims_4Deliver</title>
    <desc>Created with Sketch.</desc>
    <defs>
        <polygon id="path-1" points="0 4.54069286 0 0 94.4659172 0 94.4659172 9.08138571 0 9.08138571"></polygon>
        <polygon id="path-3" points="0 148 197.738734 148 197.738734 0 0 0"></polygon>
    </defs>
    <g id="Page-1" stroke="none" stroke-width="1" fill="none" fill-rule="evenodd">
        <g id="claims_Car_web" transform="translate(-907.000000, -1463.000000)">
            <g id="Claims_4Deliver" transform="translate(907.000000, 1463.000000)">
                <path d="M133.250485,88.0952381 C133.250485,121.179698 106.498811,148 73.4990059,148 C40.4992012,148 13.7475266,121.179698 13.7475266,88.0952381 C13.7475266,55.0107778 40.4992012,28.1904762 73.4990059,28.1904762 C106.498811,28.1904762 133.250485,55.0107778 133.250485,88.0952381 Z" id="Fill-1" fill="#E5E5E5"></path>
                <path d="M89.5580947,6.60426508 C90.2024734,6.60426508 90.7296923,7.13283651 90.7296923,7.77886825 L90.7296923,124.468059 C90.7296923,125.11409 90.2024734,125.642662 89.5580947,125.642662 L5.5463432,125.642662 C4.9019645,125.642662 4.37474556,125.11409 4.37474556,124.468059 L4.37474556,7.77886825 C4.37474556,7.13283651 4.9019645,6.60426508 5.5463432,6.60426508 L89.5580947,6.60426508 Z" id="Fill-3" fill="#04A558"></path>
                <g id="Group-7">
                    <mask id="mask-2" fill="white">
                        <use xlink:href="#path-1"></use>
                    </mask>
                    <g id="Clip-6"></g>
                    <path d="M91.2440237,9.08138571 L3.22189349,9.08138571 C1.44985207,9.08138571 0,7.62722698 0,5.85122698 L0,3.2301 C0,1.4535127 1.44985207,-5.87301587e-05 3.22189349,-5.87301587e-05 L91.2440237,-5.87301587e-05 C93.0154793,-5.87301587e-05 94.4659172,1.4535127 94.4659172,3.2301 L94.4659172,5.85122698 C94.4659172,7.62722698 93.0154793,9.08138571 91.2440237,9.08138571" id="Fill-5" fill="#30274C" mask="url(#mask-2)"></path>
                </g>
                <path d="M81.3832722,51.7003349 C81.3832722,52.6693825 80.591858,53.4622397 79.6258757,53.4622397 L55.143,53.4622397 C54.1770178,53.4622397 53.3856036,52.6693825 53.3856036,51.7003349 L53.3856036,20.550446 C53.3856036,19.5819857 54.1770178,18.7885413 55.143,18.7885413 L79.6258757,18.7885413 C80.591858,18.7885413 81.3832722,19.5819857 81.3832722,20.550446 L81.3832722,51.7003349 Z" id="Fill-8" fill="#30274C"></path>
                <path d="M68.4138621,50.0783841 C68.4138621,50.7244159 68.9404953,51.2529873 69.5854598,51.2529873 L78.1223059,51.2529873 C78.7666846,51.2529873 79.2939036,50.7244159 79.2939036,50.0783841 L79.2939036,38.3323524 C79.2939036,37.6857333 78.7666846,37.1577492 78.1223059,37.1577492 L69.5854598,37.1577492 C68.9404953,37.1577492 68.4138621,37.6857333 68.4138621,38.3323524 L68.4138621,50.0783841 Z" id="Fill-10" fill="#ADD5F7"></path>
                <path d="M55.4747964,50.0783841 C55.4747964,50.7244159 56.0020154,51.2529873 56.6463941,51.2529873 L65.1832402,51.2529873 C65.8282047,51.2529873 66.3548379,50.7244159 66.3548379,50.0783841 L66.3548379,38.3323524 C66.3548379,37.6857333 65.8282047,37.1577492 65.1832402,37.1577492 L56.6463941,37.1577492 C56.0020154,37.1577492 55.4747964,37.6857333 55.4747964,38.3323524 L55.4747964,50.0783841 Z" id="Fill-12" fill="#ADD5F7"></path>
                <path d="M66.3550136,22.1729254 C66.3550136,21.5268937 65.8283805,20.9983222 65.183416,20.9983222 L56.6465698,20.9983222 C56.0021911,20.9983222 55.4749722,21.5268937 55.4749722,22.1729254 L55.4749722,33.9189571 C55.4749722,34.5649889 56.0021911,35.0935603 56.6465698,35.0935603 L65.183416,35.0935603 C65.8283805,35.0935603 66.3550136,34.5649889 66.3550136,33.9189571 L66.3550136,22.1729254 Z" id="Fill-14" fill="#ADD5F7"></path>
                <path d="M79.2940793,22.1729254 C79.2940793,21.5268937 78.7668604,20.9983222 78.1224817,20.9983222 L69.5856355,20.9983222 C68.940671,20.9983222 68.4140379,21.5268937 68.4140379,22.1729254 L68.4140379,33.9189571 C68.4140379,34.5649889 68.940671,35.0935603 69.5856355,35.0935603 L78.1224817,35.0935603 C78.7668604,35.0935603 79.2940793,34.5649889 79.2940793,33.9189571 L79.2940793,22.1729254 Z" id="Fill-16" fill="#ADD5F7"></path>
                <path d="M81.3832722,100.409073 C81.3832722,101.377533 80.591858,102.170978 79.6258757,102.170978 L55.143,102.170978 C54.1770178,102.170978 53.3856036,101.377533 53.3856036,100.409073 L53.3856036,69.2591841 C53.3856036,68.2901365 54.1770178,67.4972794 55.143,67.4972794 L79.6258757,67.4972794 C80.591858,67.4972794 81.3832722,68.2901365 81.3832722,69.2591841 L81.3832722,100.409073 Z" id="Fill-18" fill="#30274C"></path>
                <path d="M68.4138621,98.7865349 C68.4138621,99.4325667 68.9404953,99.9611381 69.5854598,99.9611381 L78.1223059,99.9611381 C78.7666846,99.9611381 79.2939036,99.4325667 79.2939036,98.7865349 L79.2939036,87.0405032 C79.2939036,86.3944714 78.7666846,85.8659 78.1223059,85.8659 L69.5854598,85.8659 C68.9404953,85.8659 68.4138621,86.3944714 68.4138621,87.0405032 L68.4138621,98.7865349 Z" id="Fill-20" fill="#ADD5F7"></path>
                <path d="M55.4747964,98.7865349 C55.4747964,99.4325667 56.0020154,99.9611381 56.6463941,99.9611381 L65.1832402,99.9611381 C65.8282047,99.9611381 66.3548379,99.4325667 66.3548379,98.7865349 L66.3548379,87.0405032 C66.3548379,86.3944714 65.8282047,85.8659 65.1832402,85.8659 L56.6463941,85.8659 C56.0020154,85.8659 55.4747964,86.3944714 55.4747964,87.0405032 L55.4747964,98.7865349 Z" id="Fill-22" fill="#ADD5F7"></path>
                <path d="M66.3550136,70.8811349 C66.3550136,70.2351032 65.8283805,69.7065317 65.183416,69.7065317 L56.6465698,69.7065317 C56.0021911,69.7065317 55.4749722,70.2351032 55.4749722,70.8811349 L55.4749722,82.6271667 C55.4749722,83.2737857 56.0021911,83.8017698 56.6465698,83.8017698 L65.183416,83.8017698 C65.8283805,83.8017698 66.3550136,83.2737857 66.3550136,82.6271667 L66.3550136,70.8811349 Z" id="Fill-24" fill="#ADD5F7"></path>
                <path d="M79.2940793,70.8811349 C79.2940793,70.2351032 78.7668604,69.7065317 78.1224817,69.7065317 L69.5856355,69.7065317 C68.940671,69.7065317 68.4140379,70.2351032 68.4140379,70.8811349 L68.4140379,82.6271667 C68.4140379,83.2737857 68.940671,83.8017698 69.5856355,83.8017698 L78.1224817,83.8017698 C78.7668604,83.8017698 79.2940793,83.2737857 79.2940793,82.6271667 L79.2940793,70.8811349 Z" id="Fill-26" fill="#ADD5F7"></path>
                <path d="M44.3280408,51.7003349 C44.3280408,52.6693825 43.5366266,53.4622397 42.5706444,53.4622397 L18.0877686,53.4622397 C17.1212006,53.4622397 16.3303722,52.6693825 16.3303722,51.7003349 L16.3303722,20.550446 C16.3303722,19.5819857 17.1212006,18.7885413 18.0877686,18.7885413 L42.5706444,18.7885413 C43.5366266,18.7885413 44.3280408,19.5819857 44.3280408,20.550446 L44.3280408,51.7003349 Z" id="Fill-28" fill="#30274C"></path>
                <path d="M31.3581036,50.0783841 C31.3581036,50.7244159 31.8853225,51.2529873 32.5297012,51.2529873 L41.0665473,51.2529873 C41.7115118,51.2529873 42.238145,50.7244159 42.238145,50.0783841 L42.238145,38.3323524 C42.238145,37.6857333 41.7115118,37.1577492 41.0665473,37.1577492 L32.5297012,37.1577492 C31.8853225,37.1577492 31.3581036,37.6857333 31.3581036,38.3323524 L31.3581036,50.0783841 Z" id="Fill-30" fill="#ADD5F7"></path>
                <path d="M18.4196237,50.0783841 C18.4196237,50.7244159 18.9462568,51.2529873 19.5912213,51.2529873 L28.1280675,51.2529873 C28.7724462,51.2529873 29.2996651,50.7244159 29.2996651,50.0783841 L29.2996651,38.3323524 C29.2996651,37.6857333 28.7724462,37.1577492 28.1280675,37.1577492 L19.5912213,37.1577492 C18.9462568,37.1577492 18.4196237,37.6857333 18.4196237,38.3323524 L18.4196237,50.0783841 Z" id="Fill-32" fill="#ADD5F7"></path>
                <path d="M29.2997822,22.1729254 C29.2997822,21.5268937 28.7725633,20.9983222 28.1281846,20.9983222 L19.5913385,20.9983222 C18.946374,20.9983222 18.4197408,21.5268937 18.4197408,22.1729254 L18.4197408,33.9189571 C18.4197408,34.5649889 18.946374,35.0935603 19.5913385,35.0935603 L28.1281846,35.0935603 C28.7725633,35.0935603 29.2997822,34.5649889 29.2997822,33.9189571 L29.2997822,22.1729254 Z" id="Fill-34" fill="#ADD5F7"></path>
                <path d="M42.2382621,22.1729254 C42.2382621,21.5268937 41.711629,20.9983222 41.0666645,20.9983222 L32.5298183,20.9983222 C31.8854396,20.9983222 31.3582207,21.5268937 31.3582207,22.1729254 L31.3582207,33.9189571 C31.3582207,34.5649889 31.8854396,35.0935603 32.5298183,35.0935603 L41.0666645,35.0935603 C41.711629,35.0935603 42.2382621,34.5649889 42.2382621,33.9189571 L42.2382621,22.1729254 Z" id="Fill-36" fill="#ADD5F7"></path>
                <path d="M45.5385355,124.405276 C45.5385355,125.374324 44.7477071,126.167181 43.7811391,126.167181 L15.478855,126.167181 C14.5117012,126.167181 13.7214586,125.374324 13.7214586,124.405276 L13.7214586,69.259419 C13.7214586,68.2897841 14.5117012,67.4975143 15.478855,67.4975143 L43.7811391,67.4975143 C44.7477071,67.4975143 45.5385355,68.2897841 45.5385355,69.259419 L45.5385355,124.405276 Z" id="Fill-38" fill="#30274C"></path>
                <path d="M43.3704355,124.992578 C43.3704355,125.63861 42.8438024,126.167181 42.1988379,126.167181 L17.0610391,126.167181 C16.4160746,126.167181 15.8894414,125.63861 15.8894414,124.992578 L15.8894414,70.8809587 C15.8894414,70.2355143 16.4160746,69.7063556 17.0610391,69.7063556 L42.1988379,69.7063556 C42.8438024,69.7063556 43.3704355,70.2355143 43.3704355,70.8809587 L43.3704355,124.992578 Z" id="Fill-40" fill="#EF9224"></path>
                <path d="M41.0998793,86.8328921 C41.0998793,87.4789238 40.5732462,88.0074952 39.9282817,88.0074952 L19.3315953,88.0074952 C18.6866308,88.0074952 18.1599976,87.4789238 18.1599976,86.8328921 L18.1599976,72.7993206 C18.1599976,72.1532889 18.6866308,71.6247175 19.3315953,71.6247175 L39.9282817,71.6247175 C40.5732462,71.6247175 41.0998793,72.1532889 41.0998793,72.7993206 L41.0998793,86.8328921 Z" id="Fill-42" fill="#F4CA19"></path>
                <path d="M41.0998793,105.102905 C41.0998793,105.748937 40.5732462,106.277508 39.9282817,106.277508 L19.3315953,106.277508 C18.6866308,106.277508 18.1599976,105.748937 18.1599976,105.102905 L18.1599976,91.0693333 C18.1599976,90.4238889 18.6866308,89.8947302 19.3315953,89.8947302 L39.9282817,89.8947302 C40.5732462,89.8947302 41.0998793,90.4238889 41.0998793,91.0693333 L41.0998793,105.102905 Z" id="Fill-44" fill="#F4CA19"></path>
                <mask id="mask-4" fill="white">
                    <use xlink:href="#path-3"></use>
                </mask>
                <g id="Clip-47"></g>
                <polygon id="Fill-46" fill="#F4CA19" mask="url(#mask-4)" points="18.1597633 124.547286 41.099645 124.547286 41.099645 108.164508 18.1597633 108.164508"></polygon>
                <path d="M39.5781497,97.6818794 C39.5781497,98.7936413 38.6795343,99.6939746 37.5706172,99.6939746 C36.4622858,99.6939746 35.5636704,98.7936413 35.5636704,97.6818794 C35.5636704,96.5701175 36.4622858,95.6691968 37.5706172,95.6691968 C38.6795343,95.6691968 39.5781497,96.5701175 39.5781497,97.6818794" id="Fill-48" fill="#402516" mask="url(#mask-4)"></path>
                <path d="M194.623749,125.651589 L3.66680769,125.153557 C1.94163018,125.149446 0.540399408,126.547224 0.535713018,128.277414 C0.531026627,130.00643 1.92581361,131.41243 3.65040533,131.416541 L194.607346,131.914573 C196.332524,131.919271 197.734926,130.520906 197.738441,128.791303 C197.743127,127.0617 196.34834,125.656287 194.623749,125.651589" id="Fill-49" fill="#2F3440" mask="url(#mask-4)"></path>
                <path d="M48.5911331,110.316322 C48.5911331,110.316322 49.8593876,119.428894 50.5799201,119.492322 C51.3004527,119.555751 54.706287,119.481163 54.706287,119.481163 L55.3371923,110.023259 L48.5911331,110.316322 Z" id="Fill-50" fill="#363636" mask="url(#mask-4)"></path>
                <path d="M109.246441,72.3843333 C107.33498,72.3890317 103.527873,73.3392857 100.02714,75.9827302 C99.3897905,76.4649048 98.8608142,77.5279206 98.2568556,78.126381 C94.3372757,82.011381 87.1272639,88.7025079 85.484684,88.706619 C83.8415183,88.7113175 63.736903,90.4973016 57.1976308,95.1775079 C50.6595302,99.8559524 50.861045,101.629603 50.6683172,103.271698 C50.4767609,104.913206 47.6625834,105.972111 47.666684,107.613619 C47.6707846,109.255127 47.6742994,110.407413 47.6760568,111.054619 C47.6772284,111.700651 50.6413704,111.595524 51.7250982,112.675571 C52.8082402,113.756794 54.1924828,117.05919 52.6201988,117.063302 C51.0479148,117.067413 50.0667018,117.070349 49.3291811,117.072111 C48.5922462,117.07446 48.2009325,117.867905 48.2032757,118.65019 C48.2050331,119.433063 48.6033763,121.303619 51.9933941,121.294222 C52.4620331,121.293048 54.9505065,121.287175 58.8905893,121.276603 C62.5354296,120.614127 67.5135479,120.601206 73.1583053,120.585937 C77.2032462,120.575952 81.6359858,120.577127 86.2063882,121.20554 C110.385234,121.142698 140.962175,121.062825 155.558524,121.024063 C160.677234,120.356889 163.646649,119.558746 163.646649,119.558746 C163.646649,119.558746 169.032483,116.219937 175.298773,116.203492 C179.041441,116.194095 181.465477,116.451921 182.859092,117.156095 C183.808672,117.153746 184.458323,117.152571 185.117347,117.15081 C186.754654,117.146698 189.565317,114.993063 189.561802,113.613492 C189.558873,112.235095 189.543057,106.217603 189.540714,105.417111 C189.53837,104.616619 186.389702,102.852365 186.386187,101.407016 C186.382672,99.962254 186.364512,93.0009683 186.360998,91.5562063 C186.359826,91.1662381 185.516862,89.8618413 184.26911,88.1463333 C182.932317,86.3080794 180.458489,84.2824762 178.729211,82.1194444 C176.480329,79.3068571 175.026962,76.4602063 174.20743,75.5117143 C174.065666,75.3472698 173.962566,75.2315714 173.905157,75.1710794 C173.018844,74.2372698 175.328063,74.2807302 175.326305,73.7386508 C175.325134,73.1971587 170.070518,72.2251746 167.611921,72.2316349 C165.152737,72.2380952 111.505867,72.377873 109.246441,72.3843333" id="Fill-51" fill="#EC2C8E" mask="url(#mask-4)"></path>
                <path d="M52.6350781,98.9999016 C50.7529065,101.026679 50.7962556,102.178378 50.6685515,103.271346 C50.4764095,104.912854 47.6628178,105.972346 47.6669183,107.613854 C47.6704331,109.255362 47.6739479,110.407648 47.6757053,111.054267 C47.6774627,111.700886 50.6416047,111.595171 51.7247467,112.675806 C52.8084746,113.757029 54.1921314,117.059425 52.6204331,117.063537 C51.0481491,117.067648 50.0663503,117.070584 49.3288296,117.071759 C48.5924805,117.074108 48.2011669,117.86814 48.2035101,118.650425 C48.2052675,119.433298 48.6030249,121.303854 51.9930426,121.294457 C52.4622675,121.293283 54.9507408,121.286822 58.8908237,121.276838 C61.8473503,119.984187 67.5178828,120.326584 73.2018888,120.312489 C77.2228118,120.301917 83.1850722,120.457552 86.2066225,121.205775 C110.385469,121.142346 140.961824,121.062473 155.558173,121.024298 C160.871368,121.01079 163.771072,120.350076 163.771072,120.350076 C163.771072,120.350076 169.373066,116.973679 175.640528,116.957235 C179.382611,116.947838 181.451066,117.160441 182.859327,117.15633 C183.808907,117.153981 184.457972,117.152219 185.116995,117.150457 C186.754303,117.146346 189.565551,114.992711 189.562037,113.613727 C189.558522,112.234743 189.543291,106.217838 189.540948,105.417346 C189.538605,104.616267 186.389936,102.8526 186.385836,101.407251 C186.384664,100.940933 186.381735,99.8967111 186.379392,98.6510444 L52.6350781,98.9999016 Z" id="Fill-52" fill="#EC2C8E" mask="url(#mask-4)"></path>
                <path d="M175.410836,93.7520095 C175.40615,92.0594063 174.029522,90.6851206 172.34125,90.689819 C170.652392,90.6945175 169.282795,92.0758508 169.286895,93.7678667 C169.291582,95.4610571 170.668209,96.8341683 172.357067,96.8294698 C174.045339,96.8253587 175.415522,95.4452 175.410836,93.7520095 L175.410836,93.7520095 Z M175.705493,93.7508349 C175.710765,95.6072952 174.208191,97.1207714 172.357653,97.1254698 C170.505943,97.1307556 168.996925,95.6249143 168.991653,93.768454 C168.986966,91.9131683 170.488954,90.3996921 172.340664,90.3944063 C174.190617,90.3897079 175.700807,91.8955492 175.705493,93.7508349 L175.705493,93.7508349 Z M142.676984,88.6900571 C143.815777,95.3647397 141.777197,111.947787 141.756694,112.115168 C141.300943,115.777581 138.414126,117.703343 137.497937,117.705692 L96.4931911,117.812581 C95.2366527,117.816105 94.9009899,116.568676 94.8998183,115.908549 L94.8400669,92.7800254 C94.8347947,90.8930254 101.970996,84.9518825 102.27444,84.6999302 L102.463067,84.9278032 C100.42273,86.619819 95.1312089,91.3276286 95.1353095,92.7794381 L95.1944751,115.907962 C95.1962325,116.465898 95.4692148,117.520105 96.4926053,117.517756 L137.496765,117.410279 C138.17512,117.408517 141.007457,115.751152 141.463795,112.078168 C141.484298,111.911962 143.518191,95.3723746 142.386428,88.7399778 L142.676984,88.6900571 Z" id="Fill-53" fill="#BDBDBD" mask="url(#mask-4)"></path>
                <path d="M86.2069154,121.20554 L86.1969568,117.408635 C86.1776254,109.858873 80.0343533,103.73273 72.5039095,103.752111 C64.9734657,103.771492 58.8618266,109.930524 58.8823296,117.479698 L58.8917024,121.276603 C65.1193296,121.260746 74.9718799,121.234905 86.2069154,121.20554" id="Fill-54" fill="#242424" mask="url(#mask-4)"></path>
                <path d="M169.166689,103.499865 C161.636831,103.519833 155.525778,109.678278 155.545109,117.22804 L155.555068,121.024357 C160.869435,121.010262 164.066725,121.002627 164.066725,121.002627 C164.066725,121.002627 169.374062,117.191627 175.641524,117.175183 C179.384192,117.165786 181.452062,117.1605 182.859737,117.156389 C182.840405,109.606627 176.697133,103.480484 169.166689,103.499865" id="Fill-55" fill="#242424" mask="url(#mask-4)"></path>
                <path d="M84.2316018,117.413862 C84.2480041,123.888862 79.0273651,129.14991 72.5701047,129.166941 C66.111087,129.183386 60.8635012,123.949941 60.8470988,117.474941 C60.8301107,110.999354 66.0507497,105.739481 72.5091817,105.722449 C78.9670278,105.705417 84.2151994,110.938862 84.2316018,117.413862" id="Fill-56" fill="#15216D" mask="url(#mask-4)"></path>
                <path d="M78.8856018,117.427605 C78.8949746,120.94143 76.0614657,123.798065 72.5554598,123.806875 C69.0500396,123.816271 66.2018858,120.974906 66.1930988,117.461081 C66.183726,113.946668 69.0166491,111.091208 72.5232408,111.081811 C76.0280751,111.073002 78.876229,113.913779 78.8856018,117.427605" id="Fill-57" fill="#EC2C8E" mask="url(#mask-4)"></path>
                <path d="M74.0132787,117.440232 C74.0150361,118.257168 73.3577698,118.920232 72.5435095,118.921994 C71.7292491,118.924343 71.068468,118.264216 71.0661249,117.448454 C71.0637817,116.632692 71.7216337,115.969041 72.5358941,115.966692 C73.3495686,115.964343 74.0109355,116.62447 74.0132787,117.440232" id="Fill-58" fill="#EC2C8E" mask="url(#mask-4)"></path>
                <path d="M180.894675,117.161498 C180.911077,123.636498 175.691024,128.897546 169.232592,128.914578 C162.774746,128.93161 157.52716,123.697578 157.510172,117.222578 C157.493769,110.747578 162.713822,105.487117 169.171669,105.470673 C175.630686,105.453054 180.878272,110.686498 180.894675,117.161498" id="Fill-59" fill="#15216D" mask="url(#mask-4)"></path>
                <path d="M175.398827,117.175829 C175.4082,120.690241 172.574691,123.546289 169.069271,123.555098 C165.563851,123.564495 162.715697,120.72313 162.706324,117.209305 C162.696951,113.694892 165.53046,110.839432 169.036466,110.830035 C172.541886,110.821225 175.389454,113.662003 175.398827,117.175829" id="Fill-60" fill="#EC2C8E" mask="url(#mask-4)"></path>
                <path d="M169.099205,77.5972222 C168.653998,77.0069841 167.649939,75.5152381 164.834004,75.522873 C162.017483,75.5299206 113.250904,75.6567778 113.250904,75.6567778 C111.875448,75.6608889 110.761844,75.6632381 109.487732,76.9799683 C108.21362,78.2966984 100.112022,86.494254 99.5736728,86.9723175 C99.0353237,87.4497937 99.0739864,89.682127 101.791507,89.6750794 C104.509614,89.668619 169.717809,89.4983016 171.420726,89.4936032 C173.123057,89.4894921 173.793211,88.7160159 173.495625,87.5842857 C173.197454,86.4519683 169.546756,78.186873 169.099205,77.5972222" id="Fill-61" fill="#68665C" mask="url(#mask-4)"></path>
                <path d="M174.208367,75.512419 C173.541142,75.5811333 172.840527,75.9035619 173.385905,76.8473556 C174.010953,77.9291651 179.798059,86.8784667 180.159497,87.3377365 C180.519763,87.7940698 181.533781,88.1523238 184.269462,88.1470381 C181.193432,83.9178794 175.658219,77.1903397 174.208367,75.512419" id="Fill-62" fill="#68665C" mask="url(#mask-4)"></path>
                <path d="M90.4905692,89.113854 C90.8836402,89.1126794 91.571368,88.7820286 92.4858,87.9263302 C93.4008178,87.0706317 102.253409,78.3456794 103.037208,77.6215365 C103.821593,76.8973937 104.24454,75.9765048 103.196546,75.978854 C102.737279,75.9800286 101.394043,75.9841397 100.031475,75.9870762 C99.392368,76.4692508 98.7626343,77.001346 98.1575041,77.600981 C94.2373385,81.4865683 87.1274982,88.7027429 85.4843325,88.706854 C85.7977349,88.9576317 86.0859479,89.1256 86.2991787,89.1250127 C87.1503444,89.1226635 90.098084,89.1150286 90.4905692,89.113854" id="Fill-63" fill="#68665C" mask="url(#mask-4)"></path>
                <path d="M142.533463,89.5692476 C144.2727,89.5645492 145.990262,89.5598508 147.671505,89.5557397 L146.072274,75.5715016 C144.898333,75.5750254 143.702132,75.5779619 142.497144,75.5808984 L142.533463,89.5692476 Z" id="Fill-64" fill="#292929" mask="url(#mask-4)"></path>
                <path d="M64.5976172,94.4184794 C62.9427355,94.6428286 58.3125817,95.6171619 56.4485698,96.7547651 C54.5851438,97.891781 51.4060136,103.564527 53.7644396,103.558654 C56.1222799,103.552781 57.6945639,103.548083 58.2844633,103.546908 C58.8737769,103.545146 62.0640373,102.503273 63.7288775,100.232178 C65.393132,97.9628444 66.3971911,94.1741619 64.5976172,94.4184794" id="Fill-65" fill="#FFFFFF" mask="url(#mask-4)"></path>
                <path d="M58.284229,103.546908 C58.8741284,103.545146 62.063803,102.503273 63.7286432,100.232178 C65.3934834,97.9628444 66.3975426,94.1741619 64.5973828,94.4184794 C63.9606195,94.5048127 62.8821639,94.7027333 61.6906491,94.9775905 C59.6620278,96.7342095 56.8378917,99.8469079 56.8349627,103.550432 C57.5174183,103.54867 58.0094893,103.547495 58.284229,103.546908" id="Fill-66" fill="#FF7B4D" mask="url(#mask-4)"></path>
                <path d="M186.385953,101.407016 C186.383024,100.193063 186.370136,95.084127 186.363692,92.6262698 L183.656716,92.6333175 C183.067988,92.6344921 182.591148,93.1149048 182.592905,93.7051429 L182.610479,100.38746 C182.612237,100.977698 183.090834,101.455175 183.679562,101.453413 L186.391225,101.446365 C186.391225,101.433444 186.385953,101.419349 186.385953,101.407016" id="Fill-67" fill="#FF7B4D" mask="url(#mask-4)"></path>
                <path d="M186.385953,101.407016 C186.384781,100.940698 186.381852,99.8970635 186.378923,98.6513968 L182.605793,98.6607937 L182.610479,100.38746 C182.612237,100.977698 183.090834,101.455175 183.679562,101.453413 L186.391225,101.446365 C186.391225,101.433444 186.385953,101.419349 186.385953,101.407016" id="Fill-68" fill="#EC2C8E" mask="url(#mask-4)"></path>
                <path d="M132.515366,87.0588857 C130.496704,82.1408222 124.633443,84.8441714 124.633443,84.8441714 L113.954917,87.805346 C113.954917,87.805346 113.363846,88.4866159 113.434727,89.4345206 L113.881692,89.7686952 L132.281047,89.0516 C132.754958,89.0792032 132.515366,87.0588857 132.515366,87.0588857" id="Fill-69" fill="#5E22E0" mask="url(#mask-4)"></path>
                <path d="M130.085238,84.4756397 C130.085238,84.4756397 127.048457,83.8624968 126.101807,86.0396238 C125.155156,88.2167508 123.871085,88.4322905 123.871085,88.4322905 C123.871085,88.4322905 121.068623,88.645481 120.923931,89.7501952 L123.851753,89.7431476 L125.506635,87.7915444 C125.506635,87.7915444 127.676434,85.2972746 128.338972,85.2438302 C128.338972,85.2438302 129.580866,84.3716873 130.913558,84.9366714 C130.913558,84.9366714 130.337718,84.513227 130.085238,84.4756397" id="Fill-70" fill="#5E22E0" mask="url(#mask-4)"></path>
                <path d="M125.595618,81.4789333 L118.816754,80.6285206 L118.237985,85.2611556 C118.004837,87.1305365 119.339286,88.8507429 121.203884,89.0844889 C123.068482,89.3188222 124.783701,87.9809492 125.017434,86.1121556 L125.595618,81.4789333 Z" id="Fill-71" fill="#E3754A" mask="url(#mask-4)"></path>
                <path d="M122.146024,70.5748571 C118.577924,69.875381 115.119953,72.2069683 114.421095,75.7842222 C113.722823,79.3608889 116.04903,82.8283175 119.617131,83.5289683 C123.18406,84.2290317 126.643202,81.8968571 127.341474,78.3201905 C128.040332,74.7429365 125.714125,71.2749206 122.146024,70.5748571" id="Fill-72" fill="#E3754A" mask="url(#mask-4)"></path>
                <path d="M121.611131,83.6124825 C124.393676,83.3023873 126.774948,81.2204032 127.341415,78.3197206 C127.907883,75.4196254 126.484978,72.5905937 124.024622,71.251546 C121.242078,71.5616413 118.860806,73.6436254 118.294924,76.5443079 C117.727871,79.4444032 119.150776,82.2734349 121.611131,83.6124825" id="Fill-73" fill="#FAAB77" mask="url(#mask-4)"></path>
                <path d="M127.844968,73.7516302 L126.361725,73.4609159 C126.200631,73.4292016 126.041293,73.4151063 125.883128,73.4168683 C125.559181,72.8148841 124.97924,72.3567889 124.261637,72.2158365 L122.778394,71.9251222 C121.504282,71.6749317 120.257702,72.5153603 120.008737,73.792154 L120.008151,73.792154 C119.759187,75.0695349 120.597465,76.3193127 121.871578,76.5695032 L123.35482,76.8602175 C123.514743,76.8919317 123.675252,76.906027 123.832246,76.9042651 C124.157364,77.5062492 124.736134,77.9643444 125.454323,78.1047095 L126.938151,78.3960111 C128.212264,78.6462016 129.458258,77.805773 129.707808,76.5289794 C129.956773,75.2515984 129.11908,74.0018206 127.844968,73.7516302" id="Fill-74" fill="#000000" mask="url(#mask-4)"></path>
                <path d="M122.040756,77.0328841 L122.04017,77.0328841 C121.817567,77.0240746 121.628354,77.2002651 121.620153,77.424027 L121.609608,77.7047571 C121.601407,77.9273444 121.777147,78.1176302 121.99975,78.1252651 L122.000336,78.1252651 C122.223525,78.1340746 122.412153,77.9578841 122.420354,77.7341222 L122.430898,77.4539794 C122.439099,77.2308048 122.26336,77.0411063 122.040756,77.0328841" id="Fill-75" fill="#000000" mask="url(#mask-4)"></path>
                <path d="M113.518672,79.9372667 C113.957436,83.4234889 116.959654,86.0187746 120.465075,85.9500603 C123.970495,85.8819333 126.869027,83.1703619 127.172471,79.6700444 C127.196489,79.3869651 127.109205,79.1332508 126.915891,78.925346 C126.721992,78.7180286 126.47537,78.6134889 126.191844,78.6187746 L114.457708,78.8484095 C114.173595,78.8542825 113.93166,78.968219 113.745962,79.1831714 C113.56085,79.3981238 113.482938,79.6553619 113.518672,79.9372667" id="Fill-76" fill="#000000" mask="url(#mask-4)"></path>
                <path d="M118.682137,80.4551492 C118.819214,81.5440063 119.757078,82.3550698 120.852522,82.333927 C121.94738,82.3121968 122.853611,81.4653079 122.947924,80.3717524 C122.95554,80.2830698 122.928593,80.2037841 122.868256,80.139181 C122.807333,80.0745778 122.730007,80.0416889 122.642137,80.0434508 L118.975037,80.1151016 C118.887167,80.1168635 118.811599,80.1521016 118.753019,80.2196413 C118.695025,80.2865937 118.671007,80.367054 118.682137,80.4551492" id="Fill-77" fill="#FFFFFF" mask="url(#mask-4)"></path>
                <path d="M116.027766,76.8865873 L116.02718,76.8865873 C115.803991,76.8783651 115.615363,77.0539683 115.607162,77.2777302 L115.597204,77.5584603 C115.588417,77.7816349 115.764156,77.9713333 115.987346,77.9795556 C116.210535,77.9877778 116.399162,77.8115873 116.407363,77.5884127 L116.417908,77.3076825 C116.426109,77.0845079 116.250369,76.8948095 116.027766,76.8865873" id="Fill-78" fill="#000000" mask="url(#mask-4)"></path>
                <path d="M127.349558,77.2026143 C126.527682,77.0416937 125.651327,77.5632175 125.392404,78.3678206 C125.133481,79.1724238 125.589818,79.9558841 126.411694,80.1179794 C127.234156,80.2789 128.110511,79.7573762 128.368848,78.9521857 C128.628357,78.1469952 128.171434,77.3641222 127.349558,77.2026143" id="Fill-79" fill="#FAAB77" mask="url(#mask-4)"></path>
                <path d="M127.088175,78.0153222 C126.724393,77.9442587 126.33718,78.174481 126.221778,78.530973 C126.107547,78.8868778 126.309648,79.2333857 126.673429,79.3050365 C126.738453,79.3179571 126.80582,79.3208937 126.870843,79.3150206 C126.624222,79.1822905 126.505305,78.8968619 126.599033,78.604973 C126.693346,78.3130841 126.971015,78.1051794 127.268015,78.0787508 C127.214121,78.0505603 127.153198,78.0276556 127.088175,78.0153222" id="Fill-80" fill="#E3754A" mask="url(#mask-4)"></path>
                <path d="M126.097296,74.8551698 L128.933734,74.7588524 C129.594515,74.7811698 129.425219,71.8828365 128.287012,69.611154 C127.160521,67.3659 124.987793,65.3350111 121.455426,65.1981698 C115.721627,64.972646 113.90155,69.0555667 113.573503,73.1731381 C113.573503,73.1731381 116.885024,74.1498206 118.020302,74.3324714 C120.017876,74.6537254 126.097296,74.8551698 126.097296,74.8551698" id="Fill-81" fill="#5E22E0" mask="url(#mask-4)"></path>
                <path d="M126.050432,74.8551698 C126.050432,74.8551698 122.636982,78.5451857 119.79,77.5479476 C117.463793,76.732773 113.376675,75.118281 110.874142,75.3714079 C110.539651,75.4048841 110.352781,75.0008206 110.594716,74.7688365 L113.56413,73.1608048 C114.90268,73.6582492 122.298391,74.8011381 126.050432,74.8551698" id="Fill-82" fill="#37A977" mask="url(#mask-4)"></path>
                <path d="M110.594833,74.7685429 C110.594833,74.7685429 110.653413,75.0369397 111.02188,74.987019 C111.390348,74.9365111 114.708898,74.8936381 119.951212,76.800019 C119.951212,76.800019 121.070673,77.2404952 121.36533,77.1165746 C121.36533,77.1165746 123.713212,76.8393683 122.088206,77.5124159 C122.088206,77.5124159 120.717437,77.9740349 119.394117,77.4078762 L115.142975,76.1346063 L113.2362,75.5602254 C113.2362,75.5602254 112.261431,75.259527 110.874259,75.3711143 C110.874259,75.3711143 110.621194,75.3887333 110.513993,75.1573365 C110.513993,75.1573365 110.409721,74.8689714 110.594833,74.7685429" id="Fill-83" fill="#37A977" mask="url(#mask-4)"></path>
                <path d="M117.686221,99.556781 L117.183605,99.0199873 C116.190676,97.9604952 116.243398,96.2796381 117.300179,95.2847492 L128.050759,85.1602571 C129.108126,84.1653683 130.784682,84.2182254 131.777611,85.2777175 L132.280227,85.8145111 C133.27257,86.8734159 133.220434,88.5548603 132.163653,89.5497492 L121.412487,99.673654 C120.355706,100.66913 118.678564,100.616273 117.686221,99.556781" id="Fill-84" fill="#5E22E0" mask="url(#mask-4)"></path>
                <path d="M113.673675,94.5658921 L113.673675,94.5658921 C114.360231,93.0600508 116.02097,92.3312095 117.364207,92.9467016 L120.956911,94.9458762 C122.299562,95.5619556 122.836154,97.2974317 122.149598,98.8038603 C121.462456,100.309702 119.801716,101.038543 118.459065,100.423051 L114.866361,98.4232889 C113.523124,97.8083841 112.986533,96.0717333 113.673675,94.5658921" id="Fill-85" fill="#5E22E0" mask="url(#mask-4)"></path>
                <path d="M114.516346,91.9454111 C114.341192,91.6711413 113.821003,90.048427 113.770038,89.6290937 C113.647021,88.6060143 114.035405,87.5753 114.489399,86.6802524 C114.812175,86.0430302 114.304873,85.224919 113.698571,85.0093794 C112.964565,84.745681 112.354163,85.1650143 112.031973,85.8004746 C111.597896,86.6579349 111.326086,87.5788238 111.220642,88.5232048 C109.964104,88.0750937 109.021553,86.9750778 107.807192,87.9359032 C106.459269,89.0018556 105.278885,92.7876016 105.630364,94.3421889 C106.059169,96.2421095 110.332571,95.6982683 112.945234,96.3865857 C113.457808,96.5210778 115.69966,94.8190778 115.190601,93.216919 C115.055281,92.7911254 115.055281,92.7911254 114.516346,91.9454111" id="Fill-86" fill="#E3754A" mask="url(#mask-4)"></path>
                <path d="M116.93962,92.8148524 L113.706596,97.9372968 C113.534957,98.2103921 113.170591,98.292027 112.89878,98.118773 L112.104437,97.6154556 C111.83204,97.4427889 111.750614,97.0780746 111.922839,96.8049794 L115.155277,91.6825349 C115.327502,91.410027 115.691283,91.3278048 115.963679,91.5010587 L116.757437,92.0043762 C117.029833,92.1770429 117.111845,92.5417571 116.93962,92.8148524" id="Fill-87" fill="#37A977" mask="url(#mask-4)"></path>
                <path d="M123.906291,70.9573667 L117.732557,70.027081 C116.930599,69.9066841 116.182534,70.4605095 116.061859,71.2639381 C115.94177,72.0685413 116.479534,72.7991444 117.281492,72.9201286 L123.45464,73.8504143 C124.257185,73.9708111 125.019309,73.4363667 125.139398,72.6323508 C125.260658,71.8283349 124.70825,71.0783508 123.906291,70.9573667" id="Fill-88" fill="#FFFFFF" mask="url(#mask-4)"></path>
                <path d="M123.468641,73.4861111 C122.871712,73.396254 122.459309,72.8365556 122.549522,72.2380952 C122.63915,71.6396349 123.197416,71.2255873 123.794345,71.3160317 C124.390688,71.4058889 124.803676,71.9655873 124.714049,72.5640476 C124.624422,73.1625079 124.066156,73.5759683 123.468641,73.4861111" id="Fill-89" fill="#5E22E0" mask="url(#mask-4)"></path>
                <path d="M124.369658,72.5122476 C124.308735,72.9210095 123.927966,73.2029143 123.520836,73.1406603 C123.112534,73.079581 122.831936,72.6984222 122.892859,72.2896603 C122.954368,71.8814857 123.334551,71.599581 123.742853,71.6612476 C124.149983,71.722327 124.430581,72.1034857 124.369658,72.5122476" id="Fill-90" fill="#37A977" mask="url(#mask-4)"></path>
                <path d="M117.46022,72.2237651 C117.055433,72.1626857 116.775421,71.7827016 116.836344,71.3774635 C116.897267,70.9710508 117.276279,70.6909079 117.68048,70.7519873 C118.085267,70.8130667 118.365279,71.1924635 118.30377,71.5982889 C118.243433,72.0041143 117.864421,72.2848444 117.46022,72.2237651 M118.651149,71.6505587 C118.741362,71.053273 118.328373,70.4935746 117.732616,70.4037175 C117.136273,70.3138603 116.578592,70.7267333 116.488965,71.3246063 C116.399338,71.9224794 116.81174,72.4815905 117.407498,72.5720349 C117.691024,72.6143206 117.965178,72.5438444 118.184853,72.3934952 L118.167864,72.508019 C118.153805,72.6043365 118.219415,72.6941937 118.315486,72.7082889 C118.410971,72.7229714 118.500598,72.6566063 118.515243,72.5602889 L118.645876,71.6852095 C118.646462,71.6816857 118.647048,71.6787492 118.647048,71.6752254 C118.648805,71.6675905 118.649977,71.658781 118.651149,71.6505587" id="Fill-91" fill="#5E22E0" mask="url(#mask-4)"></path>
                <path d="M119.804001,72.9338127 C119.204143,72.8433683 118.788811,72.280146 118.879024,71.6781619 C118.969237,71.0761778 119.531018,70.6603683 120.131462,70.7508127 C120.40093,70.7913365 120.644622,70.9299397 120.816847,71.1401937 C120.879527,71.2153683 120.868397,71.3275429 120.792829,71.3892095 C120.718433,71.4520508 120.606545,71.4408921 120.545036,71.3651302 C120.426705,71.2224159 120.261509,71.1284476 120.079326,71.1008444 C119.671024,71.0391778 119.289669,71.3222571 119.228746,71.731019 C119.167237,72.1391937 119.449007,72.5221143 119.856722,72.583781 C120.039492,72.6113841 120.225776,72.570273 120.379255,72.4680825 C120.461267,72.4140508 120.570811,72.4363683 120.624119,72.5185905 C120.678012,72.6002254 120.655752,72.7094635 120.57374,72.7634952 C120.347036,72.9144317 120.073468,72.9743365 119.804001,72.9338127" id="Fill-92" fill="#5E22E0" mask="url(#mask-4)"></path>
                <path d="M122.449234,73.007754 L121.630873,72.0780556 L122.682967,71.447881 C122.766151,71.397373 122.793098,71.2893095 122.742719,71.2059127 C122.692926,71.1225159 122.584553,71.0960873 122.501956,71.1460079 L121.360234,71.8372619 L121.466263,71.1272143 C121.480908,71.0314841 121.414713,70.9410397 121.318642,70.9269444 C121.223157,70.9128492 121.13353,70.978627 121.118885,71.0749444 L120.845317,72.902627 C120.830672,72.9983571 120.897453,73.0888016 120.992938,73.1028968 C121.089009,73.1175794 121.17805,73.0512143 121.192109,72.9548968 L121.298725,72.2448492 L122.187967,73.2415 C122.216086,73.2738016 122.253577,73.2925952 122.29224,73.2984683 C122.342033,73.3066905 122.394754,73.2920079 122.43576,73.2561825 C122.507814,73.1909921 122.513672,73.0799921 122.449234,73.007754" id="Fill-93" fill="#5E22E0" mask="url(#mask-4)"></path>
            </g>
        </g>
    </g>
</svg>