<?xml version="1.0" encoding="UTF-8"?>
<svg width="231px" height="114px" viewBox="0 0 231 114" version="1.1" xmlns="http://www.w3.org/2000/svg" xmlns:xlink="http://www.w3.org/1999/xlink">
    <!-- Generator: Sketch 47.1 (45422) - http://www.bohemiancoding.com/sketch -->
    <title>Claims_OneHourPickup</title>
    <desc>Created with Sketch.</desc>
    <defs>
        <polygon id="path-1" points="0.148354839 0.283313609 159.795097 0.283313609 159.795097 113.325309 0.148354839 113.325309"></polygon>
        <polygon id="path-3" points="0 0.115214201 0 4.04720237 230.394997 4.04720237 230.394997 0.115214201 4.5903721e-21 0.115214201"></polygon>
    </defs>
    <g id="Page-1" stroke="none" stroke-width="1" fill="none" fill-rule="evenodd">
        <g id="claims_Car_web" transform="translate(-159.000000, -889.000000)">
            <g id="Claims_OneHourPickup" transform="translate(159.000000, 889.000000)">
                <g id="Group-3" transform="translate(35.225806, 0.391243)">
                    <mask id="mask-2" fill="white">
                        <use xlink:href="#path-1"></use>
                    </mask>
                    <g id="Clip-2"></g>
                    <path d="M152.376677,113.325309 L9.38767742,113.325309 C4.0076129,101.808611 0.756,89.105368 0.148354839,75.7161018 C2.2923871,33.6959716 37.1869355,0.283178698 79.9185484,0.283178698 C124.033452,0.283178698 159.795097,35.8930012 159.795097,79.8201018 C159.795097,91.7907763 157.133516,103.142208 152.376677,113.325309" id="Fill-1" fill="#5E22E0" mask="url(#mask-2)"></path>
                </g>
                <path d="M93.6205065,54.7251941 C93.6205065,54.7251941 94.6271516,62.0468272 95.2097323,62.098768 C95.7923129,62.152058 98.5467,62.098768 98.5467,62.098768 L99.0764419,54.5039396 L93.6205065,54.7251941 Z" id="Fill-4" fill="#363636"></path>
                <path d="M142.749261,24.3859491 C141.204068,24.3859491 138.122487,25.1407775 135.286132,27.2568604 C134.769939,27.6427065 134.340455,28.4953456 133.850681,28.974955 C130.672229,32.0866828 124.82881,37.4453574 123.499713,37.4453574 C122.171294,37.4453574 105.909842,38.8389905 100.611745,42.5834521 C95.3156806,46.3279136 95.4741968,47.7525763 95.3156806,49.0713337 C95.1564871,50.3894166 92.8783258,51.2339609 92.8783258,52.5527183 L92.8783258,55.3157006 C92.8783258,55.8351089 95.2757129,55.7561858 96.1495839,56.6263633 C97.0234548,57.4972154 98.1357774,60.1522686 96.8649387,60.1522686 L94.2033581,60.1522686 C93.607229,60.1522686 93.2888419,60.7897243 93.2888419,61.4177361 C93.2888419,62.0464225 93.607229,63.5500083 96.3487452,63.5500083 L101.926616,63.5500083 C104.874745,63.024529 108.900648,63.024529 113.4651,63.024529 C116.736358,63.024529 120.321261,63.0353219 124.015229,63.5500083 L180.097423,63.5500083 C184.238487,63.0231799 186.641294,62.3897716 186.641294,62.3897716 C186.641294,62.3897716 191.003197,59.718529 196.070971,59.718529 C199.097003,59.718529 201.056777,59.9310142 202.182648,60.4996651 L204.008294,60.4996651 C205.332648,60.4996651 207.610132,58.776174 207.610132,57.6685527 L207.610132,51.084884 C207.610132,50.442032 205.067777,49.0187183 205.067777,47.8578071 L205.067777,39.9452627 C205.067777,39.6329432 204.389003,38.5833337 203.383713,37.2025172 C202.306616,35.7238899 200.310261,34.0914639 198.91681,32.3511089 C197.104035,30.0866237 195.934132,27.7978544 195.273648,27.0335822 C195.159165,26.9013692 195.076519,26.8082805 195.029777,26.7597124 C194.3151,26.0075822 196.182068,26.0473811 196.182068,25.6116178 C196.182068,25.1772036 191.935326,24.3859491 189.9471,24.3859491 L142.749261,24.3859491 Z" id="Fill-6" fill="#EC2C8E"></path>
                <path d="M96.9143226,45.6443858 C95.3880968,47.2680426 95.4206129,48.1928592 95.3156129,49.0711314 C95.1564194,50.3892142 92.8782581,51.2337586 92.8782581,52.552516 L92.8782581,55.3154982 C92.8782581,55.8349065 95.2763226,55.7559834 96.1495161,56.6261609 C97.0233871,57.497013 98.1357097,60.1527408 96.864871,60.1527408 L94.2032903,60.1527408 C93.6071613,60.1527408 93.2887742,60.7895219 93.2887742,61.4182083 C93.2887742,62.0462201 93.6071613,63.5498059 96.3486774,63.5498059 L101.926548,63.5498059 C104.319871,62.5184095 108.904645,62.8044213 113.501613,62.8044213 C116.752548,62.8044213 121.573742,62.9427053 124.015161,63.5498059 L180.097355,63.5498059 C184.393548,63.5498059 186.740129,63.0250012 186.740129,63.0250012 C186.740129,63.0250012 191.277484,60.3247527 196.345258,60.3247527 C199.371968,60.3247527 201.043839,60.4994627 202.182581,60.4994627 L204.008226,60.4994627 C205.332581,60.4994627 207.610065,58.7766462 207.610065,57.6683503 L207.610065,51.0846817 C207.610065,50.4418296 205.06771,49.018516 205.06771,47.8576047 L205.06771,45.6443858 L96.9143226,45.6443858 Z" id="Fill-8" fill="#EC2C8E"></path>
                <path d="M196.208487,41.6866296 C196.208487,40.3267243 195.097519,39.2211266 193.732519,39.2211266 C192.366842,39.2211266 191.256552,40.3267243 191.256552,41.6866296 C191.256552,43.0465349 192.366842,44.1521325 193.732519,44.1521325 C195.097519,44.1521325 196.208487,43.0465349 196.208487,41.6866296 L196.208487,41.6866296 Z M196.446939,41.6866296 C196.446939,43.1773988 195.228939,44.3895763 193.732519,44.3895763 C192.235423,44.3895763 191.017423,43.1773988 191.017423,41.6866296 C191.017423,40.1958604 192.235423,38.9836828 193.732519,38.9836828 C195.228939,38.9836828 196.446939,40.1958604 196.446939,41.6866296 L196.446939,41.6866296 Z M169.748487,37.5522746 C170.656229,42.915671 168.972165,56.2307361 168.955229,56.3649728 C168.579261,59.3053633 166.24081,60.8460497 165.499713,60.8460497 L132.34139,60.8460497 C131.324584,60.8460497 131.056326,59.8436592 131.056326,59.313458 L131.056326,40.7368544 C131.056326,39.2211266 136.839455,34.4641562 137.085358,34.2624639 L137.2371,34.4466178 C135.584197,35.8004521 131.295455,39.5712213 131.295455,40.7368544 L131.295455,59.313458 C131.295455,59.7620379 131.513584,60.6092805 132.34139,60.6092805 L165.499713,60.6092805 C166.048423,60.6092805 168.341487,59.2837775 168.71881,56.3346178 C168.735745,56.2010556 170.41439,42.9210675 169.5141,37.5913988 L169.748487,37.5522746 Z" id="Fill-10" fill="#BDBDBD"></path>
                <path d="M124.016042,63.5497385 L124.016042,60.5000698 C124.016042,54.4358095 119.061397,49.5027799 112.971397,49.5027799 C106.882074,49.5027799 101.927429,54.4358095 101.927429,60.5000698 L101.927429,63.5497385 L124.016042,63.5497385 Z" id="Fill-12" fill="#242424"></path>
                <path d="M191.138748,49.502645 C185.049426,49.502645 180.094781,54.4356746 180.094781,60.4999349 L180.094781,63.5496036 L186.978039,63.5496036 C186.978039,63.5496036 191.277619,60.4999349 196.345394,60.4999349 L202.183394,60.4999349 C202.183394,54.4356746 197.228748,49.502645 191.138748,49.502645" id="Fill-14" fill="#242424"></path>
                <path d="M122.426342,60.4997325 C122.426342,65.7005609 118.193826,69.9151882 112.9716,69.9151882 C107.748697,69.9151882 103.516181,65.7005609 103.516181,60.4997325 C103.516181,55.2989041 107.748697,51.0849515 112.9716,51.0849515 C118.193826,51.0849515 122.426342,55.2989041 122.426342,60.4997325" id="Fill-16" fill="#363636"></path>
                <path d="M118.103187,60.4997325 C118.103187,63.3227503 115.806058,65.6101704 112.971735,65.6101704 C110.136735,65.6101704 107.839606,63.3227503 107.839606,60.4997325 C107.839606,57.6773893 110.136735,55.3899692 112.971735,55.3899692 C115.806058,55.3899692 118.103187,57.6773893 118.103187,60.4997325" id="Fill-18" fill="#C2C2C2"></path>
                <path d="M114.163045,60.4997325 C114.163045,61.1560757 113.629916,61.6869515 112.971465,61.6869515 C112.313013,61.6869515 111.779884,61.1560757 111.779884,60.4997325 C111.779884,59.8447385 112.313013,59.3131882 112.971465,59.3131882 C113.629916,59.3131882 114.163045,59.8447385 114.163045,60.4997325" id="Fill-20" fill="#C2C2C2"></path>
                <path d="M200.593829,60.4997325 C200.593829,65.7005609 196.361313,69.9151882 191.13841,69.9151882 C185.916184,69.9151882 181.683668,65.7005609 181.683668,60.4997325 C181.683668,55.2989041 185.916184,51.0849515 191.13841,51.0849515 C196.361313,51.0849515 200.593829,55.2989041 200.593829,60.4997325" id="Fill-22" fill="#363636"></path>
                <path d="M196.149619,60.4997325 C196.149619,63.3227503 193.85249,65.6101704 191.018168,65.6101704 C188.183168,65.6101704 185.886039,63.3227503 185.886039,60.4997325 C185.886039,57.6773893 188.183168,55.3899692 191.018168,55.3899692 C193.85249,55.3899692 196.149619,57.6773893 196.149619,60.4997325" id="Fill-24" fill="#C2C2C2"></path>
                <path d="M191.138748,28.6981172 C190.779716,28.2232296 189.970877,27.0231941 187.694071,27.0231941 L145.980619,27.0231941 C144.868974,27.0231941 143.968006,27.0231941 142.934942,28.0775254 C141.901877,29.1332059 135.333619,35.6993361 134.897361,36.0818095 C134.460426,36.4649574 134.486845,38.2579278 136.684394,38.2579278 L192.990135,38.2579278 C194.368006,38.2579278 194.910619,37.6380107 194.672168,36.7280343 C194.434394,35.8187325 191.499135,29.1723302 191.138748,28.6981172" id="Fill-26" fill="#68665C"></path>
                <path d="M195.274394,27.0341219 C194.735168,27.0880864 194.16749,27.3457669 194.606458,28.1046426 C195.109781,28.9754947 199.771103,36.1750331 200.061716,36.5446899 C200.353006,36.9123231 201.171329,37.2017077 203.383781,37.2030568 C200.905103,33.7999207 196.442942,28.385258 195.274394,27.0341219" id="Fill-28" fill="#68665C"></path>
                <path d="M127.547023,37.7829053 C127.86541,37.7829053 128.421571,37.5184793 129.163345,36.8338047 C129.904442,36.1484556 137.0817,29.1593787 137.717119,28.5792604 C138.353216,27.999142 138.697345,27.2598284 137.849216,27.2598284 L135.290603,27.2598284 C134.772377,27.6463491 134.261603,28.0719941 133.771152,28.5522781 C130.593377,31.665355 124.828539,37.4456272 123.500119,37.4456272 C123.752797,37.6486686 123.985829,37.7829053 124.157894,37.7829053 L127.547023,37.7829053 Z" id="Fill-30" fill="#68665C"></path>
                <polygon id="Fill-32" fill="#292929" points="169.631023 38.2578604 173.785635 38.2578604 172.522248 27.0231266 169.631023 27.0231266"></polygon>
                <path d="M106.597626,41.9896402 C105.258368,42.166374 101.512916,42.9387408 100.002948,43.8487172 C98.4936581,44.7580189 95.9113355,49.3085751 97.818271,49.3085751 L101.472948,49.3085751 C101.949852,49.3085751 104.532174,48.4775219 105.882948,46.6575692 C107.233045,44.8382911 108.0534,41.7973917 106.597626,41.9896402" id="Fill-34" fill="#FFFFFF"></path>
                <path d="M101.473016,49.3083053 C101.949919,49.3083053 104.532242,48.4779266 105.883016,46.6572994 C107.233113,44.8380213 108.053468,41.7971219 106.597694,41.9893704 C106.082177,42.0575006 105.209661,42.2146722 104.245694,42.4332284 C102.601597,43.8396781 100.311242,46.3335124 100.301081,49.3083053 L101.473016,49.3083053 Z" id="Fill-36" fill="#FF7B4D"></path>
                <path d="M205.067506,47.8577396 L205.067506,40.8052544 L202.878765,40.8052544 C202.402539,40.8052544 202.01641,41.1890769 202.01641,41.6632899 L202.01641,47.0307337 C202.01641,47.5049467 202.402539,47.8894438 202.878765,47.8894438 L205.071571,47.8894438 C205.071571,47.8786509 205.067506,47.8685325 205.067506,47.8577396" id="Fill-38" fill="#FF7B4D"></path>
                <path d="M205.067506,47.8577396 L205.067506,45.6445207 L202.01641,45.6445207 L202.01641,47.0307337 C202.01641,47.5049467 202.402539,47.8894438 202.878765,47.8894438 L205.071571,47.8894438 C205.071571,47.8786509 205.067506,47.8685325 205.067506,47.8577396" id="Fill-40" fill="#EC2C8E"></path>
                <g id="Group-44" transform="translate(0.000000, 109.669349)">
                    <mask id="mask-4" fill="white">
                        <use xlink:href="#path-3"></use>
                    </mask>
                    <g id="Clip-43"></g>
                    <path d="M230.394997,2.69808994 C230.394997,3.44077633 229.785319,4.04720237 229.040158,4.04720237 L1.35477097,4.04720237 C0.609609677,4.04720237 -6.77419355e-05,3.44077633 -6.77419355e-05,2.69808994 L-6.77419355e-05,1.46432663 C-6.77419355e-05,0.721640237 0.609609677,0.115214201 1.35477097,0.115214201 L229.040158,0.115214201 C229.785319,0.115214201 230.394997,0.721640237 230.394997,1.46432663 L230.394997,2.69808994 Z" id="Fill-42" fill="#30274C" mask="url(#mask-4)"></path>
                </g>
                <path d="M15.2445774,84.1593195 C13.3816742,84.1593195 11.7626419,82.6442663 11.6474806,80.7926095 C11.6474806,80.7926095 10.9002871,68.8104675 13.8091258,64.9931538 C17.7015774,59.8881124 31.342771,58.4506331 31.342771,58.4506331 C33.1955129,58.2556864 35.3456419,56.7156746 36.1212871,55.029284 L49.171771,30.1509763 C50.0253194,28.5016864 52.2472548,27.152574 54.1101581,27.152574 L83.1484161,27.152574 C85.0113194,27.152574 86.5355129,28.6703254 86.5355129,30.525355 L86.5355129,89.8357101 C86.5355129,91.6907396 85.0113194,93.2084911 83.1484161,93.2084911 L26.3915129,93.2084911 C24.5286097,93.2084911 23.0044161,91.6907396 23.0044161,89.8357101 L23.0044161,87.5321006 C23.0044161,85.677071 21.4802226,84.1593195 19.6173194,84.1593195 L15.2445774,84.1593195 Z" id="Fill-45" fill="#37A977"></path>
                <path d="M216.515894,70.7109621 C216.515894,68.8559325 214.9917,67.3381811 213.128797,67.3381811 L89.9231516,67.3381811 C88.0602484,67.3381811 86.5360548,68.8559325 86.5360548,70.7109621 L86.5360548,89.8359799 C86.5360548,91.6910095 88.0602484,93.2087609 89.9231516,93.2087609 L213.128797,93.2087609 C214.9917,93.2087609 216.515894,91.6910095 216.515894,89.8359799 L216.515894,70.7109621 Z" id="Fill-47" fill="#37A977"></path>
                <path d="M72.6340548,61.1334781 C72.6340548,61.6582828 73.2437323,62.0879751 73.9888935,62.0879751 L80.2421516,62.0879751 C80.9873129,62.0879751 81.5969903,61.6582828 81.5969903,61.1334781 C81.5969903,60.6086734 80.9873129,60.1789811 80.2421516,60.1789811 L73.9888935,60.1789811 C73.2437323,60.1789811 72.6340548,60.6086734 72.6340548,61.1334781" id="Fill-49" fill="#30274C"></path>
                <path d="M41.6404258,57.4781254 C39.7775226,57.4781254 38.9334581,56.1195692 39.7646516,54.4594864 L49.6197484,34.7799834 C50.4509419,33.119226 51.131071,33.2790959 51.131071,35.1341254 L51.131071,54.1053444 C51.131071,55.960374 49.6068774,57.4781254 47.7439742,57.4781254 L41.6404258,57.4781254 Z" id="Fill-51" fill="#68665C"></path>
                <path d="M78.2098258,31.3818391 C80.072729,31.3818391 81.5969226,32.8995905 81.5969226,34.7546201 L81.5969226,54.1056142 C81.5969226,55.9606438 80.072729,57.4783953 78.2098258,57.4783953 L56.6333419,57.4783953 C54.7704387,57.4783953 53.2462452,55.9606438 53.2462452,54.1056142 L53.2462452,34.7546201 C53.2462452,32.8995905 54.7704387,31.3818391 56.6333419,31.3818391 L78.2098258,31.3818391 Z" id="Fill-53" fill="#68665C"></path>
                <path d="M82.4053548,93.5279609 L17.3859677,92.6611562 C13.7238387,92.6611562 10.7276129,89.6775941 10.7276129,86.0316178 C10.7276129,82.3842923 13.7238387,79.4014047 17.3859677,79.4014047 L82.4053548,80.2682095 C86.0674839,80.2682095 89.0637097,83.2517716 89.0637097,86.8977479 C89.0637097,90.5443988 86.0674839,93.5279609 82.4053548,93.5279609" id="Fill-55" fill="#2C2849"></path>
                <path d="M211.291297,94.3949006 L91.0656194,93.5280959 C87.3655548,93.5280959 84.3381677,90.5445337 84.3381677,86.8978828 C84.3381677,83.251232 87.3655548,80.2683444 91.0656194,80.2683444 L211.291297,81.1351491 C214.991361,81.1351491 218.018748,84.1187112 218.018748,87.7646876 C218.018748,91.4113385 214.991361,94.3949006 211.291297,94.3949006" id="Fill-57" fill="#2C2849"></path>
                <path d="M22.6859613,89.5103041 C25.7824452,89.5379609 28.8721548,89.6931089 31.9584774,89.9089669 C37.0391226,89.892103 42.1204452,89.9312272 47.2024452,89.9420201 C51.7384452,89.9507893 56.2744452,89.9440438 60.8111226,89.9440438 C61.5894774,89.9440438 62.3976387,89.8974994 63.2105419,89.8671444 C61.6003161,79.9963633 52.9848968,72.4359373 42.6237677,72.4359373 C32.3710258,72.4359373 23.8301226,79.837168 22.0911871,89.5554994 C22.2795097,89.5258189 22.4759613,89.5082805 22.6859613,89.5103041" id="Fill-59" fill="#13101E"></path>
                <path d="M63.438629,90.1663775 C64.2427258,91.8392769 63.3763065,93.208626 61.5134032,93.208626 L23.7885968,93.208626 C21.9256935,93.208626 21.0592742,91.8392769 21.8626935,90.1663775 C21.8626935,90.1663775 30.3812419,72.4356675 42.6513387,72.4356675 C54.9207581,72.4356675 63.438629,90.1663775 63.438629,90.1663775" id="Fill-61" fill="#13101E"></path>
                <path d="M59.6257742,93.7737018 C59.6257742,102.917986 52.1816129,110.330684 42.9985161,110.330684 C33.8147419,110.330684 26.3705806,102.917986 26.3705806,93.7737018 C26.3705806,84.6287432 33.8147419,77.216045 42.9985161,77.216045 C52.1816129,77.216045 59.6257742,84.6287432 59.6257742,93.7737018" id="Fill-63" fill="#363636"></path>
                <path d="M51.1309355,93.2084911 C51.1309355,97.8851893 47.3224839,101.67687 42.6259355,101.67687 C37.9273548,101.67687 34.1202581,97.8851893 34.1202581,93.2084911 C34.1202581,88.5311183 37.9273548,84.7387633 42.6259355,84.7387633 C47.3224839,84.7387633 51.1309355,88.5311183 51.1309355,93.2084911" id="Fill-65" fill="#37A977"></path>
                <path d="M142.050639,89.5103041 C145.147123,89.5379609 148.236832,89.6931089 151.323155,89.9089669 C156.403123,89.892103 161.484445,89.9312272 166.566445,89.9420201 C171.103123,89.9507893 175.639123,89.9440438 180.175123,89.9440438 C180.953477,89.9440438 181.762316,89.8974994 182.575219,89.8671444 C180.964994,79.9963633 172.349574,72.4359373 161.988445,72.4359373 C151.735703,72.4359373 143.1948,79.837168 141.455865,89.5554994 C141.64351,89.5258189 141.840639,89.5082805 142.050639,89.5103041" id="Fill-67" fill="#13101E"></path>
                <path d="M182.803306,90.1663775 C183.607403,91.8392769 182.740306,93.208626 180.877403,93.208626 L143.153274,93.208626 C141.290371,93.208626 140.423274,91.8392769 141.227371,90.1663775 C141.227371,90.1663775 149.745919,72.4356675 162.016016,72.4356675 C174.285435,72.4356675 182.803306,90.1663775 182.803306,90.1663775" id="Fill-69" fill="#13101E"></path>
                <path d="M178.645848,93.7737018 C178.645848,102.917986 171.201687,110.330684 162.01859,110.330684 C152.835494,110.330684 145.390655,102.917986 145.390655,93.7737018 C145.390655,84.6287432 152.835494,77.216045 162.01859,77.216045 C171.201687,77.216045 178.645848,84.6287432 178.645848,93.7737018" id="Fill-71" fill="#363636"></path>
                <path d="M170.521829,93.2084911 C170.521829,97.8851893 166.713377,101.67687 162.015474,101.67687 C157.318926,101.67687 153.511152,97.8851893 153.511152,93.2084911 C153.511152,88.5311183 157.318926,84.7387633 162.015474,84.7387633 C166.713377,84.7387633 170.521829,88.5311183 170.521829,93.2084911" id="Fill-73" fill="#37A977"></path>
                <path d="M112.930548,19.7760994 C112.267355,19.542703 111.837871,18.8823124 111.837871,18.1827976 C111.837871,17.4839574 112.267355,16.8228923 112.930548,16.5894959 C117.223355,14.9961941 120.345581,10.0604663 120.384871,5.39725917 L99.5440645,5.39725917 C99.5826774,10.0604663 102.704903,14.9570698 106.998387,16.5894959 C107.661581,16.8228923 108.091065,17.4839574 108.091065,18.1827976 C108.091065,18.8823124 107.661581,19.542703 106.998387,19.7760994 C102.704903,21.3694012 99.5826774,26.3058036 99.5440645,30.9690107 L120.384871,30.9690107 C120.345581,26.3058036 117.223355,21.4085254 112.930548,19.7760994" id="Fill-75" fill="#FFFFFF"></path>
                <path d="M107.700735,14.763 C108.832703,15.1906686 109.495897,16.0844556 109.808187,17.2116391 C109.808187,17.2116391 109.8468,18.1823254 109.88609,19.3095089 C109.535187,20.3199941 108.7548,21.1753314 107.700735,21.5638757 C105.202413,22.496787 103.056348,24.945426 102.080865,27.7428107 L117.8478,27.7428107 C116.872316,24.945426 114.725574,22.496787 112.227929,21.5638757 C111.135252,21.1362071 110.315574,20.2424201 110.003284,19.1543609 C110.003284,18.105426 110.042574,17.2116391 110.042574,17.2116391 C110.354187,16.0844556 111.095961,15.1515444 112.227929,14.763 C114.140284,14.0634852 115.818252,12.4701834 116.950219,10.526787 L102.978445,10.526787 C104.110413,12.4701834 105.788381,14.0634852 107.700735,14.763" id="Fill-77" fill="#FFDA00"></path>
                <path d="M120.931277,7.02934793 L98.9977935,7.02934793 C98.1781161,7.02934793 97.4756323,6.3689574 97.4756323,5.51362012 C97.4756323,4.6974071 98.1388258,3.99789231 98.9977935,3.99789231 L120.891987,3.99789231 C121.711665,3.99789231 122.414148,4.65828284 122.414148,5.51362012 C122.414148,6.3689574 121.750955,7.02934793 120.931277,7.02934793" id="Fill-79" fill="#37A977"></path>
                <path d="M120.931277,32.3291183 L98.9977935,32.3291183 C98.1781161,32.3291183 97.4756323,31.6687278 97.4756323,30.8133905 C97.4756323,29.9971775 98.1388258,29.2976627 98.9977935,29.2976627 L120.891987,29.2976627 C121.711665,29.2976627 122.414148,29.9580533 122.414148,30.8133905 C122.414148,31.6687278 121.750955,32.3291183 120.931277,32.3291183" id="Fill-81" fill="#37A977"></path>
            </g>
        </g>
    </g>
</svg>