<?xml version="1.0" encoding="UTF-8"?>
<svg width="124px" height="170px" viewBox="0 0 124 170" version="1.1" xmlns="http://www.w3.org/2000/svg" xmlns:xlink="http://www.w3.org/1999/xlink">
    <!-- Generator: Sketch 47.1 (45422) - http://www.bohemiancoding.com/sketch -->
    <title>Claims_1Register</title>
    <desc>Created with Sketch.</desc>
    <defs>
        <polygon id="path-1" points="21.8945098 59.7132616 0.384502577 59.7132616 0.384502577 0.11856308 21.8945098 0.11856308 21.8945098 59.7132616"></polygon>
    </defs>
    <g id="Page-1" stroke="none" stroke-width="1" fill="none" fill-rule="evenodd">
        <g id="claims_Car_web" transform="translate(-165.000000, -1449.000000)">
            <g id="Claims_1Register" transform="translate(165.000000, 1449.000000)">
                <path d="M124,88.3573477 C124,122.682115 96.2416275,150.507885 62,150.507885 C27.7583725,150.507885 0,122.682115 0,88.3573477 C0,54.0325806 27.7583725,26.20681 62,26.20681 C96.2416275,26.20681 124,54.0325806 124,88.3573477" id="Fill-1" fill="#E5E5E5"></path>
                <path d="M97.1240333,6.39797133 L97.1240333,122.168581 C97.1240333,125.702631 94.2671706,128.56643 90.7416804,128.56643 L36.3397196,128.56643 C32.8142294,128.56643 29.9573667,125.702631 29.9573667,122.168581 L29.9573667,6.39797133 C29.9573667,2.86331183 32.8142294,0.000121863799 36.3397196,0.000121863799 L90.7416804,0.000121863799 C94.2671706,0.000121863799 97.1240333,2.86331183 97.1240333,6.39797133" id="Fill-3" fill="#1C1C1C"></path>
                <path d="M97.1240333,39.3011971 L97.1240333,39.3011971 L97.1240333,26.5054982 C98.2151118,26.5054982 99.0995235,27.3920573 99.0995235,28.4857849 L99.0995235,37.3209104 C99.0995235,38.414638 98.2151118,39.3011971 97.1240333,39.3011971" id="Fill-5" fill="#333333"></path>
                <path d="M29.9573667,26.5054982 L29.9573667,26.5054982 L29.9573667,34.4229892 C28.8668961,34.4229892 27.9818765,33.5370394 27.9818765,32.4427025 L27.9818765,28.4857849 C27.9818765,27.3920573 28.8668961,26.5054982 29.9573667,26.5054982" id="Fill-7" fill="#1C1C1C"></path>
                <path d="M29.9573667,37.7225735 L29.9573667,37.7225735 L29.9573667,45.6406738 C28.8668961,45.6406738 27.9818765,44.7541147 27.9818765,43.6603871 L27.9818765,39.7028602 C27.9818765,38.6091326 28.8668961,37.7225735 29.9573667,37.7225735" id="Fill-9" fill="#1C1C1C"></path>
                <path d="M68.3960294,115.757631 C68.3960294,118.445337 66.2223824,120.624262 63.5405784,120.624262 C60.8593824,120.624262 58.6857353,118.445337 58.6857353,115.757631 C58.6857353,113.069315 60.8593824,110.890391 63.5405784,110.890391 C66.2223824,110.890391 68.3960294,113.069315 68.3960294,115.757631" id="Fill-11" fill="#56A3BF"></path>
                <path d="M67.4869392,115.757631 C67.4869392,117.942039 65.7199392,119.71272 63.5408216,119.71272 C61.3617039,119.71272 59.5947039,117.942039 59.5947039,115.757631 C59.5947039,113.572613 61.3617039,111.801932 63.5408216,111.801932 C65.7199392,111.801932 67.4869392,113.572613 67.4869392,115.757631" id="Fill-13" fill="#8CE0FF"></path>
                <path d="M90.9411137,122.479211 L36.5148392,122.479211 C34.8432706,122.479211 33.4756235,121.108244 33.4756235,119.432616 L33.4756235,8.13014337 C33.4756235,6.45451613 34.8432706,5.08354839 36.5148392,5.08354839 L90.9411137,5.08354839 C92.6126824,5.08354839 93.9803294,6.45451613 93.9803294,8.13014337 L93.9803294,119.432616 C93.9803294,121.108244 92.6126824,122.479211 90.9411137,122.479211" id="Fill-15" fill="#5E22E0"></path>
                <path d="M90.828602,135.587918 L68.2052882,157.81953 L58.6202098,148.018634 L81.2435235,125.786412 C83.9423471,123.134656 88.2756608,123.177918 90.9209941,125.882685 L90.9246412,125.886341 C93.5705824,128.592326 93.5274255,132.934943 90.828602,135.587918" id="Fill-17" fill="#FF9367"></path>
                <path d="M61.6453235,150.612018 L84.2686373,128.379796 C86.3231471,126.360513 89.3234608,125.907789 91.8065,126.99847 C91.5560686,126.606068 91.2630882,126.232556 90.9245196,125.886462 L90.9214804,125.882806 C88.2755392,123.178039 83.9428333,123.134168 81.243402,125.786534 L58.6200882,148.018756 L68.2051667,157.819652 L68.4549902,157.574706 L61.6453235,150.612018 Z" id="Fill-19" fill="#FF9367"></path>
                <path d="M88.6394549,137.738935 L90.8270824,135.589867 C93.4329059,133.0289 93.5556902,128.896498 91.1826706,126.177717 L85.5297294,131.733487 C84.7516902,132.497573 84.7389255,133.750333 85.5017686,134.530871 L88.6394549,137.738935 Z" id="Fill-21" fill="#FFD0C0"></path>
                <path d="M92.5334196,128.556925 L86.9005373,134.093806 C86.5437333,134.443556 86.3467922,134.898108 86.3127529,135.359362 L85.5043216,134.531907 C84.7414784,133.752588 84.7518118,132.496172 85.5292431,131.730867 L91.1809686,126.178753 C91.8040078,126.891656 92.256851,127.702659 92.5334196,128.556925" id="Fill-23" fill="#FFD0C0"></path>
                <path d="M83.7220647,142.571262 L82.9294373,143.349971 L80.4804373,140.84628 C80.2628294,140.623878 80.2658686,140.274129 80.4846922,140.059649 C80.7029078,139.844559 81.0554569,139.844559 81.2730647,140.06757 L83.7220647,142.571262 Z" id="Fill-25" fill="#EC2C8E"></path>
                <path d="M82.178751,144.088039 L81.3861235,144.866749 L78.9371235,142.363057 C78.7195157,142.140656 78.726202,141.787251 78.9450255,141.572771 C79.1632412,141.35829 79.5121431,141.361337 79.729751,141.584348 L82.178751,144.088039 Z" id="Fill-27" fill="#EC2C8E"></path>
                <path d="M59.9933275,125.118781 L71.062151,124.863477 L70.0665039,81.4592473 C69.996602,78.3949821 67.4618961,75.9680645 64.4050529,76.0387455 C61.3482098,76.1088172 58.9277784,78.6496774 58.9976804,81.714552 L59.9933275,125.118781 Z" id="Fill-29" fill="#FF9367"></path>
                <path d="M65.6417098,76.1489713 C63.1933176,76.7692581 61.4038275,79.0219104 61.4640039,81.6572151 L62.3563176,120.550047 L59.8896902,120.606713 L58.9979843,81.714491 C58.9280824,78.6532724 61.3515529,76.1093656 64.4053569,76.0386846 C64.8296314,76.0289355 65.2447882,76.0685412 65.6417098,76.1489713" id="Fill-31" fill="#FF9367"></path>
                <path d="M56.4934882,123.096878 L56.0084294,101.943151 C55.9379196,98.8794946 53.4038216,96.4525771 50.3469784,96.5232581 C47.2901353,96.5933297 44.8690961,99.13419 44.9396059,102.198455 L45.4252725,123.352183 L56.4934882,123.096878 Z" id="Fill-33" fill="#FF9367"></path>
                <path d="M51.5832706,96.6331183 C49.1348784,97.253405 47.3453882,99.5060573 47.4061725,102.141362 L47.8474667,121.378781 L45.3808392,121.435448 L44.9395451,102.198638 C44.8696431,99.1374194 47.2937216,96.5935125 50.3469176,96.5228315 C50.7711922,96.5130824 51.1869569,96.5526882 51.5832706,96.6331183" id="Fill-35" fill="#FF9367"></path>
                <path d="M41.9732098,123.431272 L41.5872294,106.604319 C41.5173275,103.540054 38.9826216,101.113746 35.9257784,101.183817 C32.8689353,101.254498 30.4485039,103.795358 30.5184059,106.859624 L30.9043863,123.686577 L41.9732098,123.431272 Z" id="Fill-37" fill="#FF9367"></path>
                <path d="M37.1606725,101.291667 C34.7122804,101.912563 32.9227902,104.165215 32.9829667,106.80052 L33.3695549,123.632348 L30.9029275,123.689014 L30.5169471,106.857186 C30.4470451,103.795968 32.8705157,101.25267 35.9243196,101.18138 C36.3485941,101.17224 36.763751,101.211846 37.1606725,101.291667" id="Fill-39" fill="#FF9367"></path>
                <path d="M52.3131078,168.955871 L37.1826765,169.304401 C26.2755392,169.555441 17.2296176,160.89519 16.9791863,149.96157 L16.2819902,119.570566 L70.9118922,118.312323 L71.6090882,148.703326 C71.8595196,159.636946 63.2208529,168.704222 52.3131078,168.955871" id="Fill-41" fill="#FF9367"></path>
                <path d="M68.5886549,81.4906272 L68.6287725,83.2412007 L60.5195373,83.4282616 L60.4794196,81.6776882 C60.4277529,79.4378315 62.2014392,77.5708781 64.4407333,77.5196953 C64.8844588,77.5093369 65.3154196,77.5733154 65.7178118,77.6976165 C67.3431843,78.1948208 68.5473216,79.6961828 68.5886549,81.4906272" id="Fill-43" fill="#FFD0C0"></path>
                <path d="M68.5886549,81.4906272 L68.6287725,83.2412007 L63.0645765,83.3691577 L63.0244588,81.6191935 C62.9831255,79.8241398 64.1173608,78.2691577 65.7178118,77.6976165 C67.3431843,78.1948208 68.5473216,79.6961828 68.5886549,81.4906272" id="Fill-45" fill="#FFD0C0"></path>
                <path d="M27.4529922,123.766276 L27.2572667,115.221796 C27.1867569,112.15753 24.652051,109.730613 21.5952078,109.801294 C18.5389725,109.871366 16.1179333,112.412226 16.1884431,115.4771 L16.3841686,124.020971 L27.4529922,123.766276 Z" id="Fill-47" fill="#FF9367"></path>
                <g id="Group-51" transform="translate(15.803922, 109.683513)">
                    <mask id="mask-2" fill="white">
                        <use xlink:href="#path-1"></use>
                    </mask>
                    <g id="Clip-50"></g>
                    <path d="M21.8945098,59.6115054 L17.662098,59.7089964 C8.8082549,59.9131183 1.46611765,52.8785305 1.2624902,44.0086738 L0.385980392,5.79035842 C0.316078431,2.7297491 2.73468627,0.190107527 5.79335294,0.120035842 C6.54343137,0.10297491 7.26190196,0.234587814 7.91898039,0.49172043 C5.93072549,1.36853047 4.5655098,3.38415771 4.61839216,5.6934767 L5.49490196,43.9105735 C5.69792157,52.7816487 13.0406667,59.8156272 21.8945098,59.6115054" id="Fill-49" fill="#FF9367" mask="url(#mask-2)"></path>
                </g>
                <path d="M68.3796784,96.6640717 L61.3803647,96.8255412 C61.0740118,96.8322437 60.8193255,96.5891254 60.8126392,96.2820287 C60.8059529,95.9743226 61.0484824,95.7196272 61.3548353,95.7123154 L68.354149,95.5514552 C68.660502,95.5441434 68.9145804,95.787871 68.9218745,96.0943584 C68.9285608,96.4020645 68.6860314,96.6567599 68.3796784,96.6640717" id="Fill-52" fill="#EC2C8E"></path>
                <path d="M68.4292176,98.8270323 L61.4299039,98.9885018 C61.123551,98.9952043 60.8694725,98.752086 60.8621784,98.4449892 C60.8554922,98.1378925 61.0980216,97.8831971 61.4043745,97.8758853 L68.4036882,97.7150251 C68.7100412,97.7077133 68.9641196,97.9514409 68.9714137,98.2579283 C68.9787078,98.5650251 68.7355706,98.8203297 68.4292176,98.8270323" id="Fill-54" fill="#EC2C8E"></path>
                <path d="M80.2430137,33.8721039 L46.6852098,33.8721039 C42.3257588,33.8721039 38.791151,37.4152939 38.791151,41.7853297 C38.791151,46.1559749 42.2339745,49.6071577 46.5940333,49.6071577 L80.1518373,49.6071577 C84.5112882,49.6071577 88.1370725,46.1559749 88.1370725,41.7853297 C88.1370725,37.4152939 84.6030725,33.8721039 80.2430137,33.8721039" id="Fill-56" fill="#FFFFFF"></path>
                <path d="M79.9346549,47.6614803 C76.6905961,47.6614803 74.0507333,45.0158172 74.0507333,41.7638817 C74.0507333,38.5119462 76.6905961,35.8662832 79.9346549,35.8662832 C83.1781059,35.8662832 85.8179686,38.5119462 85.8179686,41.7638817 C85.8179686,45.0158172 83.1781059,47.6614803 79.9346549,47.6614803" id="Fill-58" fill="#5E22E0"></path>
                <path d="M83.9470275,41.7640645 C83.9470275,43.9856416 82.1502431,45.7867885 79.9346549,45.7867885 C77.717851,45.7867885 75.9216745,43.9856416 75.9216745,41.7640645 C75.9216745,39.5424875 77.717851,37.7419498 79.9346549,37.7419498 C82.1502431,37.7419498 83.9470275,39.5424875 83.9470275,41.7640645" id="Fill-60" fill="#37A977"></path>
                <path d="M46.9855451,45.7639391 C44.7851529,45.7639391 42.9956627,43.9694946 42.9956627,41.7643692 C42.9956627,39.5592437 44.7851529,37.7647993 46.9855451,37.7647993 C49.1853294,37.7647993 50.9748196,39.5592437 50.9748196,41.7643692 C50.9748196,43.9694946 49.1853294,45.7639391 46.9855451,45.7639391 M52.8627804,41.7643692 C52.8627804,38.5154803 50.2259569,35.8728638 46.9855451,35.8728638 C43.7439176,35.8728638 41.107702,38.5154803 41.107702,41.7643692 C41.107702,45.0132581 43.7439176,47.6558746 46.9855451,47.6558746 C48.5239961,47.6558746 49.9262902,47.0599606 50.9748196,46.0862688 L50.9748196,46.7102115 C50.9748196,47.2323978 51.3972706,47.6558746 51.9188,47.6558746 C52.4403294,47.6558746 52.8627804,47.2323978 52.8627804,46.7102115 L52.8627804,41.9532581 C52.8627804,41.9349785 52.8615647,41.9173082 52.8615647,41.9002473 C52.8615647,41.855767 52.8627804,41.8100681 52.8627804,41.7643692" id="Fill-62" fill="#5E22E0"></path>
                <path d="M60.0129608,47.6614803 C56.749451,47.6614803 54.0943922,45.0005842 54.0943922,41.7291505 C54.0943922,38.4577168 56.749451,35.7956022 60.0129608,35.7956022 C61.4772549,35.7956022 62.8819804,36.3354588 63.9688039,37.315853 C64.3584314,37.6680394 64.3906471,38.2694373 64.0399216,38.6606201 C63.6898039,39.0505842 63.0892549,39.0828781 62.6996275,38.7313011 C61.961098,38.0665341 61.0073922,37.699724 60.0129608,37.699724 C57.7967647,37.699724 55.993902,39.5069642 55.993902,41.7291505 C55.993902,43.9507276 57.7967647,45.7585771 60.0129608,45.7585771 C61.008,45.7585771 61.9623137,45.3911577 62.7008431,44.725172 C63.0904706,44.373595 63.6910196,44.4052796 64.0417451,44.7964624 C64.3930784,45.1864265 64.3608627,45.7878244 63.9712353,46.1400108 C62.8831961,47.1210143 61.4778627,47.6614803 60.0129608,47.6614803" id="Fill-64" fill="#5E22E0"></path>
                <path d="M74.1340078,45.9347312 L69.0408902,41.6506093 L74.1340078,37.4560573 C74.5351843,37.1227599 74.590498,36.5262366 74.2580078,36.1234767 C73.9249098,35.7213262 73.3304392,35.6658781 72.9292627,35.9991756 L67.4100471,40.5867384 L67.4100471,36.7279211 C67.4100471,36.2051254 66.9882039,35.7822581 66.4666745,35.7822581 C65.9457529,35.7822581 65.5226941,36.2051254 65.5226941,36.7279211 L65.5226941,46.6622581 C65.5226941,47.1850538 65.9457529,47.6085305 66.4666745,47.6085305 C66.9882039,47.6085305 67.4100471,47.1850538 67.4100471,46.6622581 L67.4100471,42.8034409 L72.9292627,47.3910036 C73.1049294,47.5372401 73.3188902,47.6085305 73.5304196,47.6085305 C73.8021255,47.6085305 74.0714,47.4921505 74.2580078,47.2667025 C74.590498,46.864552 74.5351843,46.2680287 74.1340078,45.9347312" id="Fill-66" fill="#5E22E0"></path>
            </g>
        </g>
    </g>
</svg>