<?xml version="1.0" encoding="UTF-8"?>
<svg width="241px" height="119px" viewBox="0 0 241 119" version="1.1" xmlns="http://www.w3.org/2000/svg" xmlns:xlink="http://www.w3.org/1999/xlink">
    <!-- Generator: Sketch 47.1 (45422) - http://www.bohemiancoding.com/sketch -->
    <title>Claims_ThreeDayDelivery</title>
    <desc>Created with Sketch.</desc>
    <defs>
        <polygon id="path-1" points="0.154706452 0.295739645 166.712563 0.295739645 166.712563 118.295717 0.154706452 118.295717"></polygon>
        <polygon id="path-3" points="0 118.295858 240.368877 118.295858 240.368877 0.295739645 0 0.295739645"></polygon>
        <path d="M0.35428719,17.0549481 L5.71615249,17.8507041 C7.40597947,18.1020828 8.99332845,16.9289822 9.24634311,15.2460828 L10.8230909,4.69592308 C11.0746921,3.01302367 9.89866862,1.42940828 8.20954839,1.17943787 L0.35428719,0.0131917833 L0.35428719,2.07945545 L6.04196188,2.92359763 C6.85047801,3.04330178 7.41446041,3.80095858 7.29431378,4.60720118 C7.18406158,5.34021302 6.54516422,5.87043195 5.82216422,5.87043195 C5.75007625,5.87043195 5.67728152,5.86550296 5.60378006,5.85423669 L0.35428719,5.07512771 L0.35428719,17.0549481 L0.35428719,17.0549481 Z" id="path-5"></path>
    </defs>
    <g id="Page-1" stroke="none" stroke-width="1" fill="none" fill-rule="evenodd">
        <g id="claims_Car_web" transform="translate(-520.000000, -884.000000)">
            <g id="Claims_ThreeDayDelivery" transform="translate(520.000000, 884.000000)">
                <g id="Group-93" transform="translate(0.000000, 0.408402)">
                    <g id="Group-3" transform="translate(36.750733, 0.000000)">
                        <mask id="mask-2" fill="white">
                            <use xlink:href="#path-1"></use>
                        </mask>
                        <g id="Clip-2"></g>
                        <path d="M158.973,118.295717 L9.79399971,118.295717 C4.18103196,106.273901 0.788656598,93.0134982 0.154706452,79.0369834 C2.39155396,35.1738651 38.7973956,0.295598817 83.3781551,0.295598817 C129.402794,0.295598817 166.712563,37.4672556 166.712563,83.3209834 C166.712563,95.8166876 163.935762,107.665989 158.973,118.295717" id="Fill-1" fill="#5E22E0" mask="url(#mask-2)"></path>
                    </g>
                    <path d="M122.594226,13.6226834 C123.371646,13.6226834 124.007716,14.2564112 124.007716,15.0309675 L124.007716,113.744636 C124.007716,114.519192 123.371646,115.15292 122.594226,115.15292 L25.5722909,115.15292 C24.7941648,115.15292 24.1588012,114.519192 24.1588012,113.744636 L24.1588012,15.0309675 C24.1588012,14.2564112 24.7941648,13.6226834 25.5722909,13.6226834 L122.594226,13.6226834 Z" id="Fill-4" fill="#A8A8A8"></path>
                    <path d="M123.327191,15.7351095 L24.38291,15.7351095 C22.2450067,15.7351095 20.4958132,13.992358 20.4958132,11.8623284 C20.4958132,9.73229882 22.2450067,7.98954734 24.38291,7.98954734 L123.327191,7.98954734 C125.464388,7.98954734 127.214288,9.73229882 127.214288,11.8623284 C127.214288,13.992358 125.464388,15.7351095 123.327191,15.7351095" id="Fill-6" fill="#30274C"></path>
                    <path d="M117.901016,51.476513 C117.901016,52.6376432 116.946911,53.5889391 115.780782,53.5889391 L95.9919255,53.5889391 C94.8265032,53.5889391 93.8716909,52.6376432 93.8716909,51.476513 L93.8716909,26.1274006 C93.8716909,24.9655663 94.8265032,24.0149746 95.9919255,24.0149746 L115.780782,24.0149746 C116.946911,24.0149746 117.901016,24.9655663 117.901016,26.1274006 L117.901016,51.476513 Z" id="Fill-8" fill="#30274C"></path>
                    <path d="M106.769785,50.2958781 C106.769785,51.0704343 107.405855,51.7041621 108.183274,51.7041621 L114.694515,51.7041621 C115.471934,51.7041621 116.108005,51.0704343 116.108005,50.2958781 L116.108005,41.0906296 C116.108005,40.3153692 115.471934,39.6823456 114.694515,39.6823456 L108.183274,39.6823456 C107.405855,39.6823456 106.769785,40.3153692 106.769785,41.0906296 L106.769785,50.2958781 Z" id="Fill-10" fill="#ADD5F7"></path>
                    <path d="M95.6647733,50.2958781 C95.6647733,51.0704343 96.3008437,51.7041621 97.078263,51.7041621 L103.589504,51.7041621 C104.366923,51.7041621 105.002993,51.0704343 105.002993,50.2958781 L105.002993,41.0906296 C105.002993,40.3153692 104.366923,39.6823456 103.589504,39.6823456 L97.078263,39.6823456 C96.3008437,39.6823456 95.6647733,40.3153692 95.6647733,41.0906296 L95.6647733,50.2958781 Z" id="Fill-12" fill="#ADD5F7"></path>
                    <path d="M105.002923,27.3081059 C105.002923,26.5328456 104.367559,25.8998219 103.589433,25.8998219 L97.0781924,25.8998219 C96.300773,25.8998219 95.6647026,26.5328456 95.6647026,27.3081059 L95.6647026,36.5133544 C95.6647026,37.2879107 96.300773,37.9216385 97.0781924,37.9216385 L103.589433,37.9216385 C104.367559,37.9216385 105.002923,37.2879107 105.002923,36.5133544 L105.002923,27.3081059 Z" id="Fill-14" fill="#ADD5F7"></path>
                    <path d="M116.107934,27.3081059 C116.107934,26.5328456 115.47257,25.8998219 114.694444,25.8998219 L108.183204,25.8998219 C107.405784,25.8998219 106.769714,26.5328456 106.769714,27.3081059 L106.769714,36.5133544 C106.769714,37.2879107 107.405784,37.9216385 108.183204,37.9216385 L114.694444,37.9216385 C115.47257,37.9216385 116.107934,37.2879107 116.107934,36.5133544 L116.107934,27.3081059 Z" id="Fill-16" fill="#ADD5F7"></path>
                    <path d="M54.2939783,51.476513 C54.2939783,52.6376432 53.3398727,53.5889391 52.1737437,53.5889391 L32.3848874,53.5889391 C31.2194651,53.5889391 30.2646528,52.6376432 30.2646528,51.476513 L30.2646528,26.1274006 C30.2646528,24.9655663 31.2194651,24.0149746 32.3848874,24.0149746 L52.1737437,24.0149746 C53.3398727,24.0149746 54.2939783,24.9655663 54.2939783,26.1274006 L54.2939783,51.476513 Z" id="Fill-18" fill="#30274C"></path>
                    <path d="M43.1627466,50.2958781 C43.1627466,51.0704343 43.798817,51.7041621 44.5762364,51.7041621 L51.0874768,51.7041621 C51.8648962,51.7041621 52.5009666,51.0704343 52.5009666,50.2958781 L52.5009666,41.0906296 C52.5009666,40.3153692 51.8648962,39.6823456 51.0874768,39.6823456 L44.5762364,39.6823456 C43.798817,39.6823456 43.1627466,40.3153692 43.1627466,41.0906296 L43.1627466,50.2958781 Z" id="Fill-20" fill="#ADD5F7"></path>
                    <path d="M32.0577352,50.2958781 C32.0577352,51.0704343 32.6938056,51.7041621 33.4712249,51.7041621 L39.9824654,51.7041621 C40.7598848,51.7041621 41.3959551,51.0704343 41.3959551,50.2958781 L41.3959551,41.0906296 C41.3959551,40.3153692 40.7598848,39.6823456 39.9824654,39.6823456 L33.4712249,39.6823456 C32.6938056,39.6823456 32.0577352,40.3153692 32.0577352,41.0906296 L32.0577352,50.2958781 Z" id="Fill-22" fill="#ADD5F7"></path>
                    <path d="M41.3958845,27.3081059 C41.3958845,26.5328456 40.7605208,25.8998219 39.9823947,25.8998219 L33.4711543,25.8998219 C32.6937349,25.8998219 32.0576645,26.5328456 32.0576645,27.3081059 L32.0576645,36.5133544 C32.0576645,37.2879107 32.6937349,37.9216385 33.4711543,37.9216385 L39.9823947,37.9216385 C40.7605208,37.9216385 41.3958845,37.2879107 41.3958845,36.5133544 L41.3958845,27.3081059 Z" id="Fill-24" fill="#ADD5F7"></path>
                    <path d="M52.5008959,27.3081059 C52.5008959,26.5328456 51.8655323,25.8998219 51.0874062,25.8998219 L44.5761657,25.8998219 C43.7987463,25.8998219 43.162676,26.5328456 43.162676,27.3081059 L43.162676,36.5133544 C43.162676,37.2879107 43.7987463,37.9216385 44.5761657,37.9216385 L51.0874062,37.9216385 C51.8655323,37.9216385 52.5008959,37.2879107 52.5008959,36.5133544 L52.5008959,27.3081059 Z" id="Fill-26" fill="#ADD5F7"></path>
                    <path d="M117.901016,93.0208917 C117.901016,94.1820219 116.946911,95.1333178 115.780782,95.1333178 L95.9919255,95.1333178 C94.8265032,95.1333178 93.8716909,94.1820219 93.8716909,93.0208917 L93.8716909,67.6717793 C93.8716909,66.509945 94.8265032,65.5593533 95.9919255,65.5593533 L115.780782,65.5593533 C116.946911,65.5593533 117.901016,66.509945 117.901016,67.6717793 L117.901016,93.0208917 Z" id="Fill-28" fill="#30274C"></path>
                    <path d="M106.769785,91.8402568 C106.769785,92.614813 107.405855,93.2485408 108.183274,93.2485408 L114.694515,93.2485408 C115.471934,93.2485408 116.108005,92.614813 116.108005,91.8402568 L116.108005,82.6350083 C116.108005,81.8597479 115.471934,81.2267243 114.694515,81.2267243 L108.183274,81.2267243 C107.405855,81.2267243 106.769785,81.8597479 106.769785,82.6350083 L106.769785,91.8402568 Z" id="Fill-30" fill="#ADD5F7"></path>
                    <path d="M95.6647733,91.8402568 C95.6647733,92.614813 96.3008437,93.2485408 97.078263,93.2485408 L103.589504,93.2485408 C104.366923,93.2485408 105.002993,92.614813 105.002993,91.8402568 L105.002993,82.6350083 C105.002993,81.8597479 104.366923,81.2267243 103.589504,81.2267243 L97.078263,81.2267243 C96.3008437,81.2267243 95.6647733,81.8597479 95.6647733,82.6350083 L95.6647733,91.8402568 Z" id="Fill-32" fill="#ADD5F7"></path>
                    <path d="M105.002923,68.8524846 C105.002923,68.0772243 104.367559,67.4442006 103.589433,67.4442006 L97.0781924,67.4442006 C96.300773,67.4442006 95.6647026,68.0772243 95.6647026,68.8524846 L95.6647026,78.0577331 C95.6647026,78.8322893 96.300773,79.4660172 97.0781924,79.4660172 L103.589433,79.4660172 C104.367559,79.4660172 105.002923,78.8322893 105.002923,78.0577331 L105.002923,68.8524846 Z" id="Fill-34" fill="#ADD5F7"></path>
                    <path d="M116.107934,68.8524846 C116.107934,68.0772243 115.47257,67.4442006 114.694444,67.4442006 L108.183204,67.4442006 C107.405784,67.4442006 106.769714,68.0772243 106.769714,68.8524846 L106.769714,78.0577331 C106.769714,78.8322893 107.405784,79.4660172 108.183204,79.4660172 L114.694444,79.4660172 C115.47257,79.4660172 116.107934,78.8322893 116.107934,78.0577331 L116.107934,68.8524846 Z" id="Fill-36" fill="#ADD5F7"></path>
                    <path d="M54.2939783,93.0208917 C54.2939783,94.1820219 53.3398727,95.1333178 52.1737437,95.1333178 L32.3848874,95.1333178 C31.2194651,95.1333178 30.2646528,94.1820219 30.2646528,93.0208917 L30.2646528,67.6717793 C30.2646528,66.509945 31.2194651,65.5593533 32.3848874,65.5593533 L52.1737437,65.5593533 C53.3398727,65.5593533 54.2939783,66.509945 54.2939783,67.6717793 L54.2939783,93.0208917 Z" id="Fill-38" fill="#30274C"></path>
                    <path d="M43.1627466,91.8402568 C43.1627466,92.614813 43.798817,93.2485408 44.5762364,93.2485408 L51.0874768,93.2485408 C51.8648962,93.2485408 52.5009666,92.614813 52.5009666,91.8402568 L52.5009666,82.6350083 C52.5009666,81.8597479 51.8648962,81.2267243 51.0874768,81.2267243 L44.5762364,81.2267243 C43.798817,81.2267243 43.1627466,81.8597479 43.1627466,82.6350083 L43.1627466,91.8402568 Z" id="Fill-40" fill="#ADD5F7"></path>
                    <path d="M32.0577352,91.8402568 C32.0577352,92.614813 32.6938056,93.2485408 33.4712249,93.2485408 L39.9824654,93.2485408 C40.7598848,93.2485408 41.3959551,92.614813 41.3959551,91.8402568 L41.3959551,82.6350083 C41.3959551,81.8597479 40.7598848,81.2267243 39.9824654,81.2267243 L33.4712249,81.2267243 C32.6938056,81.2267243 32.0577352,81.8597479 32.0577352,82.6350083 L32.0577352,91.8402568 Z" id="Fill-42" fill="#ADD5F7"></path>
                    <path d="M41.3958845,68.8524846 C41.3958845,68.0772243 40.7605208,67.4442006 39.9823947,67.4442006 L33.4711543,67.4442006 C32.6937349,67.4442006 32.0576645,68.0772243 32.0576645,68.8524846 L32.0576645,78.0577331 C32.0576645,78.8322893 32.6937349,79.4660172 33.4711543,79.4660172 L39.9823947,79.4660172 C40.7605208,79.4660172 41.3958845,78.8322893 41.3958845,78.0577331 L41.3958845,68.8524846 Z" id="Fill-44" fill="#ADD5F7"></path>
                    <path d="M52.5008959,68.8524846 C52.5008959,68.0772243 51.8655323,67.4442006 51.0874062,67.4442006 L44.5761657,67.4442006 C43.7987463,67.4442006 43.162676,68.0772243 43.162676,68.8524846 L43.162676,78.0577331 C43.162676,78.8322893 43.7987463,79.4660172 44.5761657,79.4660172 L51.0874062,79.4660172 C51.8655323,79.4660172 52.5008959,78.8322893 52.5008959,78.0577331 L52.5008959,68.8524846 Z" id="Fill-46" fill="#ADD5F7"></path>
                    <path d="M86.0974974,51.476513 C86.0974974,52.6376432 85.1433918,53.5889391 83.9772628,53.5889391 L64.1884065,53.5889391 C63.0229842,53.5889391 62.0681718,52.6376432 62.0681718,51.476513 L62.0681718,26.1274006 C62.0681718,24.9655663 63.0229842,24.0149746 64.1884065,24.0149746 L83.9772628,24.0149746 C85.1433918,24.0149746 86.0974974,24.9655663 86.0974974,26.1274006 L86.0974974,51.476513 Z" id="Fill-48" fill="#30274C"></path>
                    <path d="M74.9662657,50.2958781 C74.9662657,51.0704343 75.6023361,51.7041621 76.3797554,51.7041621 L82.8909959,51.7041621 C83.6684152,51.7041621 84.3044856,51.0704343 84.3044856,50.2958781 L84.3044856,41.0906296 C84.3044856,40.3153692 83.6684152,39.6823456 82.8909959,39.6823456 L76.3797554,39.6823456 C75.6023361,39.6823456 74.9662657,40.3153692 74.9662657,41.0906296 L74.9662657,50.2958781 Z" id="Fill-50" fill="#ADD5F7"></path>
                    <path d="M63.8612543,50.2958781 C63.8612543,51.0704343 64.4973246,51.7041621 65.274744,51.7041621 L71.7859845,51.7041621 C72.5634038,51.7041621 73.1994742,51.0704343 73.1994742,50.2958781 L73.1994742,41.0906296 C73.1994742,40.3153692 72.5634038,39.6823456 71.7859845,39.6823456 L65.274744,39.6823456 C64.4973246,39.6823456 63.8612543,40.3153692 63.8612543,41.0906296 L63.8612543,50.2958781 Z" id="Fill-52" fill="#ADD5F7"></path>
                    <path d="M73.1994035,27.3081059 C73.1994035,26.5328456 72.5640399,25.8998219 71.7859138,25.8998219 L65.2746733,25.8998219 C64.497254,25.8998219 63.8611836,26.5328456 63.8611836,27.3081059 L63.8611836,36.5133544 C63.8611836,37.2879107 64.497254,37.9216385 65.2746733,37.9216385 L71.7859138,37.9216385 C72.5640399,37.9216385 73.1994035,37.2879107 73.1994035,36.5133544 L73.1994035,27.3081059 Z" id="Fill-54" fill="#ADD5F7"></path>
                    <path d="M84.304415,27.3081059 C84.304415,26.5328456 83.6690513,25.8998219 82.8909252,25.8998219 L76.3796848,25.8998219 C75.6022654,25.8998219 74.966195,26.5328456 74.966195,27.3081059 L74.966195,36.5133544 C74.966195,37.2879107 75.6022654,37.9216385 76.3796848,37.9216385 L82.8909252,37.9216385 C83.6690513,37.9216385 84.304415,37.2879107 84.304415,36.5133544 L84.304415,27.3081059 Z" id="Fill-56" fill="#ADD5F7"></path>
                    <path d="M87.136907,113.487765 C87.136907,114.649599 86.1828015,115.600191 85.0166724,115.600191 L61.9485199,115.600191 C60.7830977,115.600191 59.8282853,114.649599 59.8282853,113.487765 L59.8282853,67.6720609 C59.8282853,66.5095225 60.7830977,65.5596349 61.9485199,65.5596349 L85.0166724,65.5596349 C86.1828015,65.5596349 87.136907,66.5095225 87.136907,67.6720609 L87.136907,113.487765 Z" id="Fill-58" fill="#30274C"></path>
                    <path d="M85.2761891,114.191907 C85.2761891,114.966463 84.6401188,115.600191 83.8626994,115.600191 L63.1034824,115.600191 C62.3253563,115.600191 61.6899927,114.966463 61.6899927,114.191907 L61.6899927,68.852203 C61.6899927,68.0776467 62.3253563,67.4439189 63.1034824,67.4439189 L83.8626994,67.4439189 C84.6401188,67.4439189 85.2761891,68.0776467 85.2761891,68.852203 L85.2761891,114.191907 Z" id="Fill-60" fill="#EF9224"></path>
                    <path d="M83.3271282,81.6446325 C83.3271282,82.4191888 82.6917645,83.0529166 81.9136384,83.0529166 L65.0521194,83.0529166 C64.2747,83.0529166 63.6386296,82.4191888 63.6386296,81.6446325 L63.6386296,70.4882065 C63.6386296,69.7136503 64.2747,69.0799225 65.0521194,69.0799225 L81.9136384,69.0799225 C82.6917645,69.0799225 83.3271282,69.7136503 83.3271282,70.4882065 L83.3271282,81.6446325 Z" id="Fill-62" fill="#F4CA19"></path>
                    <path d="M83.3271282,97.2278586 C83.3271282,98.0024148 82.6917645,98.6361426 81.9136384,98.6361426 L65.0521194,98.6361426 C64.2747,98.6361426 63.6386296,98.0024148 63.6386296,97.2278586 L63.6386296,86.0707284 C63.6386296,85.2968763 64.2747,84.6624444 65.0521194,84.6624444 L81.9136384,84.6624444 C82.6917645,84.6624444 83.3271282,85.2968763 83.3271282,86.0707284 L83.3271282,97.2278586 Z" id="Fill-64" fill="#F4CA19"></path>
                    <mask id="mask-4" fill="white">
                        <use xlink:href="#path-3"></use>
                    </mask>
                    <g id="Clip-67"></g>
                    <polygon id="Fill-66" fill="#F4CA19" mask="url(#mask-4)" points="63.6388416 114.218876 83.3273402 114.218876 83.3273402 100.245882 63.6388416 100.245882"></polygon>
                    <path d="M82.0212757,91.3045456 C82.0212757,92.2523207 81.2495103,93.0212438 80.2982317,93.0212438 C79.3469531,93.0212438 78.5758944,92.2523207 78.5758944,91.3045456 C78.5758944,90.3560663 79.3469531,89.5878473 80.2982317,89.5878473 C81.2495103,89.5878473 82.0212757,90.3560663 82.0212757,91.3045456" id="Fill-68" fill="#402516" mask="url(#mask-4)"></path>
                    <path d="M240.368735,116.887433 C240.368735,117.662693 239.733372,118.295717 238.955246,118.295717 L1.41405513,118.295717 C0.635929032,118.295717 0.000565395894,117.662693 0.000565395894,116.887433 L0.000565395894,115.599557 C0.000565395894,114.824297 0.635929032,114.191273 1.41405513,114.191273 L238.955246,114.191273 C239.733372,114.191273 240.368735,114.824297 240.368735,115.599557 L240.368735,116.887433 Z" id="Fill-69" fill="#30274C" mask="url(#mask-4)"></path>
                    <path d="M60.7464883,103.271509 C60.7464883,103.271509 61.5578314,109.177853 62.0278167,109.220101 C62.4978021,109.263054 64.7191012,109.220101 64.7191012,109.220101 L65.1459751,103.092657 L60.7464883,103.271509 Z" id="Fill-70" fill="#363636" mask="url(#mask-4)"></path>
                    <path d="M100.359397,78.7957444 C99.1126988,78.7957444 96.6291974,79.4041231 94.342171,81.1116675 C93.9251915,81.4228982 93.5788865,82.110845 93.1845229,82.4981231 C90.621866,85.0083893 85.9099979,89.3318213 84.8385727,89.3318213 C83.7664408,89.3318213 70.6556167,90.455632 66.3840507,93.4764012 C62.1131915,96.4971704 62.2411123,97.6463302 62.1131915,98.7095846 C61.9852707,99.7735432 60.1484408,100.455153 60.1484408,101.519111 L60.1484408,103.748425 C60.1484408,104.166685 62.081388,104.103312 62.7860126,104.805342 C63.4906372,105.508076 64.3882032,107.650076 63.3620097,107.650076 L61.2163323,107.650076 C60.7364525,107.650076 60.4791974,108.163395 60.4791974,108.671082 C60.4791974,109.17736 60.7364525,110.390596 62.945737,110.390596 L67.444168,110.390596 C69.820951,109.967407 73.0670302,109.967407 76.7477575,109.967407 C79.3846226,109.967407 82.2752091,109.975153 85.2541387,110.390596 L130.473089,110.390596 C133.811752,109.966703 135.749646,109.454792 135.749646,109.454792 C135.749646,109.454792 139.266409,107.300117 143.352807,107.300117 C145.792491,107.300117 147.372772,107.471928 148.280939,107.930324 L149.753089,107.930324 C150.820274,107.930324 152.657104,106.539644 152.657104,105.646088 L152.657104,100.335449 C152.657104,99.8164959 150.606837,98.6680402 150.606837,97.7315314 L150.606837,91.348484 C150.606837,91.0964012 150.059109,90.2493183 149.24918,89.1353657 C148.38059,87.941845 146.770626,86.6250994 145.646901,85.2210402 C144.18606,83.3944959 143.242555,81.5475314 142.70967,80.9314071 C142.617793,80.8250817 142.550652,80.7497385 142.513901,80.7103065 C141.937197,80.1040402 143.442564,80.1357266 143.442564,79.7843598 C143.442564,79.433697 140.018385,78.7957444 138.415488,78.7957444 L100.359397,78.7957444 Z" id="Fill-71" fill="#EC2C8E" mask="url(#mask-4)"></path>
                    <path d="M63.4022941,95.9454047 C62.1718513,97.255813 62.1987076,98.0022036 62.1131915,98.7098663 C61.9852707,99.7738249 60.1484408,100.45473 60.1484408,101.518689 L60.1484408,103.748002 C60.1484408,104.166967 62.081388,104.103594 62.7860126,104.805624 C63.4906372,105.507653 64.3882032,107.649653 63.3620097,107.649653 L61.2163323,107.649653 C60.7364525,107.649653 60.4791974,108.163677 60.4791974,108.670659 C60.4791974,109.177641 60.7364525,110.390878 62.945737,110.390878 L67.444168,110.390878 C69.3735815,109.558582 73.0705639,109.789541 76.776734,109.789541 C79.3980507,109.789541 83.2858543,109.900091 85.2541387,110.390878 L130.473089,110.390878 C133.937552,110.390878 135.828801,109.966985 135.828801,109.966985 C135.828801,109.966985 139.48762,107.788369 143.574018,107.788369 C146.014409,107.788369 147.362878,107.930606 148.280939,107.930606 L149.753089,107.930606 C150.820274,107.930606 152.657104,106.539925 152.657104,105.645665 L152.657104,100.335026 C152.657104,99.8160734 150.606837,98.6676178 150.606837,97.7311089 L150.606837,95.9454047 L63.4022941,95.9454047 Z" id="Fill-72" fill="#EC2C8E" mask="url(#mask-4)"></path>
                    <path d="M143.463908,92.7527544 C143.463908,91.6557012 142.567755,90.7635533 141.467353,90.7635533 C140.366245,90.7635533 139.470799,91.6557012 139.470799,92.7527544 C139.470799,93.8498077 140.366245,94.7419556 141.467353,94.7419556 C142.567755,94.7419556 143.463908,93.8498077 143.463908,92.7527544 L143.463908,92.7527544 Z M143.655435,92.7527544 C143.655435,93.955429 142.673767,94.9334822 141.467353,94.9334822 C140.260233,94.9334822 139.277858,93.955429 139.277858,92.7527544 C139.277858,91.5500799 140.260233,90.5720266 141.467353,90.5720266 C142.673767,90.5720266 143.655435,91.5500799 143.655435,92.7527544 L143.655435,92.7527544 Z M122.1294,89.4179379 C122.860881,93.7441864 121.503224,104.485873 121.489089,104.594311 C121.186603,106.966565 119.301007,108.209376 118.703101,108.209376 L91.9676496,108.209376 C91.1478255,108.209376 90.9315616,107.401021 90.9315616,106.972902 L90.9315616,91.9866479 C90.9315616,90.7642574 95.5946642,86.9266834 95.7925528,86.7633225 L95.9148196,86.9118964 C94.5818988,88.0047249 91.1237962,91.0459142 91.1237962,91.9866479 L91.1237962,106.972902 C91.1237962,107.334831 91.2997757,108.018553 91.9676496,108.018553 L118.703101,108.018553 C119.145523,108.018553 120.994368,106.948962 121.298975,104.569666 C121.312403,104.461932 122.66582,93.7484112 121.939993,89.4496243 L122.1294,89.4179379 Z" id="Fill-73" fill="#BDBDBD" mask="url(#mask-4)"></path>
                    <path d="M85.2547748,110.390667 L85.2547748,107.930395 C85.2547748,103.03872 81.259546,99.0582053 76.3490827,99.0582053 C71.4393261,99.0582053 67.4448041,103.03872 67.4448041,107.930395 L67.4448041,110.390667 L85.2547748,110.390667 Z" id="Fill-74" fill="#242424" mask="url(#mask-4)"></path>
                    <path d="M139.375954,99.0583462 C134.466197,99.0583462 130.470969,103.038157 130.470969,107.930536 L130.470969,110.390808 L136.021036,110.390808 C136.021036,110.390808 139.48762,107.930536 143.574018,107.930536 L148.280939,107.930536 C148.280939,103.038157 144.285711,99.0583462 139.375954,99.0583462" id="Fill-75" fill="#242424" mask="url(#mask-4)"></path>
                    <path d="M83.973093,107.930254 C83.973093,112.125532 80.560222,115.525834 76.3494361,115.525834 C72.1386501,115.525834 68.7257792,112.125532 68.7257792,107.930254 C68.7257792,103.734272 72.1386501,100.335378 76.3494361,100.335378 C80.560222,100.335378 83.973093,103.734272 83.973093,107.930254" id="Fill-76" fill="#15216D" mask="url(#mask-4)"></path>
                    <path d="M80.4870032,107.930254 C80.4870032,110.206745 78.6353317,112.053005 76.3497188,112.053005 C74.0633991,112.053005 72.2110208,110.206745 72.2110208,107.930254 C72.2110208,105.653763 74.0633991,103.808207 76.3497188,103.808207 C78.6353317,103.808207 80.4870032,105.653763 80.4870032,107.930254" id="Fill-77" fill="#EC2C8E" mask="url(#mask-4)"></path>
                    <path d="M77.3101144,107.930254 C77.3101144,108.459064 76.8804135,108.887887 76.3496481,108.887887 C75.8188827,108.887887 75.3884751,108.459064 75.3884751,107.930254 C75.3884751,107.401443 75.8188827,106.973325 76.3496481,106.973325 C76.8804135,106.973325 77.3101144,107.401443 77.3101144,107.930254" id="Fill-78" fill="#EC2C8E" mask="url(#mask-4)"></path>
                    <path d="M146.999752,107.930254 C146.999752,112.125532 143.586881,115.525834 139.376095,115.525834 C135.165309,115.525834 131.752438,112.125532 131.752438,107.930254 C131.752438,103.734272 135.165309,100.335378 139.376095,100.335378 C143.586881,100.335378 146.999752,103.734272 146.999752,107.930254" id="Fill-79" fill="#15216D" mask="url(#mask-4)"></path>
                    <path d="M143.416273,107.930254 C143.416273,110.206745 141.563895,112.053005 139.278989,112.053005 C136.992669,112.053005 135.140291,110.206745 135.140291,107.930254 C135.140291,105.653763 136.992669,103.808207 139.278989,103.808207 C141.563895,103.808207 143.416273,105.653763 143.416273,107.930254" id="Fill-80" fill="#EC2C8E" mask="url(#mask-4)"></path>
                    <path d="M139.375954,82.2744876 C139.086189,81.8914343 138.43457,80.9232391 136.59774,80.9232391 L102.964458,80.9232391 C102.068306,80.9232391 101.342479,80.9225349 100.509227,81.7738426 C99.6759745,82.6251503 94.3796284,87.9224107 94.0283762,88.231529 C93.6757106,88.5399432 93.6969129,89.986955 95.469429,89.986955 L140.868599,89.986955 C141.979602,89.986955 142.417784,89.4863101 142.224843,88.7525941 C142.033315,88.0188781 139.666426,82.6568367 139.375954,82.2744876" id="Fill-81" fill="#68665C" mask="url(#mask-4)"></path>
                    <path d="M142.710235,80.9321817 C142.275587,80.9758385 141.817616,81.1828562 142.171695,81.7961639 C142.578074,82.4981935 146.335836,88.3066609 146.570475,88.604513 C146.805115,88.9002527 147.465214,89.134732 149.249038,89.1354361 C147.250364,86.3899864 143.653033,82.0221935 142.710235,80.9321817" id="Fill-82" fill="#68665C" mask="url(#mask-4)"></path>
                    <path d="M88.1017551,89.6040426 C88.3583035,89.6040426 88.8070865,89.3906876 89.4049927,88.8379361 C90.0021921,88.2851846 95.7897258,82.6464154 96.3021158,82.1781609 C96.8145059,81.7106107 97.0922566,81.1142024 96.4088343,81.1142024 L94.3451393,81.1142024 C93.9274531,81.4261373 93.5154208,81.7697586 93.1203504,82.1570367 C90.5576935,84.6680071 85.9094326,89.3315396 84.8387141,89.3315396 C85.0422566,89.4949006 85.2302507,89.6040426 85.3687727,89.6040426 L88.1017551,89.6040426 Z" id="Fill-83" fill="#68665C" mask="url(#mask-4)"></path>
                    <polygon id="Fill-84" fill="#292929" mask="url(#mask-4)" points="122.033848 89.9870254 125.383819 89.9870254 124.3654 80.9233095 122.033848 80.9233095"></polygon>
                    <path d="M71.2102701,92.9975142 C70.1310707,93.1397509 67.1097364,93.7629166 65.8934284,94.4973367 C64.675707,95.2310527 62.5936367,98.901745 64.1308067,98.901745 L67.0779328,98.901745 C67.4624021,98.901745 69.5451792,98.2314018 70.634273,96.7632657 C71.7233669,95.2951296 72.3841733,92.8418988 71.2102701,92.9975142" id="Fill-85" fill="#FFFFFF" mask="url(#mask-4)"></path>
                    <path d="M67.0782155,98.9016041 C67.4626848,98.9016041 69.5447551,98.2312609 70.633849,96.7631249 C71.7229428,95.2949888 72.384456,92.8424621 71.2105528,92.9973734 C70.7949868,93.0515923 70.0910689,93.179042 69.3143563,93.3550775 C67.9877962,94.4894503 66.1417786,96.5018882 66.1332977,98.9016041 L67.0782155,98.9016041 Z" id="Fill-86" fill="#FF7B4D" mask="url(#mask-4)"></path>
                    <path d="M150.606625,97.7312497 L150.606625,92.0417822 L148.841883,92.0417822 C148.45812,92.0417822 148.147152,92.3516047 148.147152,92.7339538 L148.147152,97.0644272 C148.147152,97.4467763 148.45812,97.7565988 148.841883,97.7565988 L150.610158,97.7565988 C150.610158,97.7481491 150.606625,97.7396994 150.606625,97.7312497" id="Fill-87" fill="#FF7B4D" mask="url(#mask-4)"></path>
                    <path d="M150.606625,97.7312497 L150.606625,95.9455456 L148.147152,95.9455456 L148.147152,97.0644272 C148.147152,97.4467763 148.45812,97.7565988 148.841883,97.7565988 L150.610158,97.7565988 C150.610158,97.7481491 150.606625,97.7396994 150.606625,97.7312497" id="Fill-88" fill="#EC2C8E" mask="url(#mask-4)"></path>
                    <path d="M231.812529,46.013216 L207.783203,46.013216 C205.839655,46.013216 204.249479,44.4288964 204.249479,42.4925059 L204.249479,20.6641036 C204.249479,18.727713 205.839655,17.1433935 207.783203,17.1433935 L231.812529,17.1433935 C233.756077,17.1433935 235.346253,18.727713 235.346253,20.6641036 L235.346253,42.4925059 C235.346253,44.4288964 233.756077,46.013216 231.812529,46.013216" id="Fill-89" fill="#37A977" mask="url(#mask-4)"></path>
                    <polygon id="Fill-90" fill="#FFFFFF" mask="url(#mask-4)" points="157.55534 100.026541 159.591472 101.640435 161.583079 100.522962 162.940029 91.6169734 163.929472 90.8029852 164.783927 84.876926 165.626367 84.1439142 166.323217 79.4789734 159.634584 78.4861331 158.929959 83.2003639 159.573804 84.1537722 158.635953 89.9185828 159.079082 91.0184527"></polygon>
                    <polygon id="Fill-91" fill="#CADEE6" mask="url(#mask-4)" points="159.591401 101.640435 161.583009 100.522962 162.939959 91.6169734 163.929401 90.8029852 164.783856 84.876926 165.626296 84.1439142 166.323146 79.4789734 162.979536 78.9825533"></polygon>
                    <path d="M160.042729,65.1165183 C160.163582,64.3102757 160.92404,63.7497787 161.733262,63.8694828 L168.593635,64.8876722 C169.402151,65.0080805 169.965427,65.7657373 169.84528,66.5712757 C169.724427,67.3775183 168.963969,67.9387195 168.155453,67.8190154 L161.294374,66.800826 C160.485858,66.6804178 159.921875,65.9227609 160.042729,65.1165183 M156.641166,64.1764888 L155.063004,74.7266485 C154.811403,76.4102521 155.988133,77.9931633 157.677254,78.2438379 L168.267826,79.8154828 C169.956946,80.0661574 171.545001,78.8937609 171.797309,77.2108615 L173.374057,66.6599976 C173.626365,64.9770982 172.450342,63.394187 170.760515,63.1435124 L160.17065,61.5718675 C158.480823,61.3204888 156.892767,62.4928852 156.641166,64.1764888" id="Fill-92" fill="#4C4C4C" mask="url(#mask-4)"></path>
                </g>
                <g id="Group-96" transform="translate(162.551320, 62.372899)">
                    <mask id="mask-6" fill="white">
                        <use xlink:href="#path-5"></use>
                    </mask>
                    <g id="Clip-95"></g>
                    <path d="M12.1909249,0.497757988 C11.9209484,0.836450296 11.0339836,1.78985858 11.0339836,1.78985858 C11.3421243,2.54469882 11.1032446,3.38051538 10.4770686,3.63400651 L5.16729443,5.7809355 C4.54041173,6.03442663 3.77642053,5.62320769 3.46898651,4.86836746 C3.16155249,4.11352722 3.42234135,3.28827278 4.0485173,3.0354858 L8.20417713,1.36244438 C8.20417713,1.36244438 9.21199531,0.635769822 9.6607783,0.211876331 C10.8170129,-0.883064497 11.2700364,-1.70550237 11.2700364,-1.70550237 C10.8530569,-1.78225385 10.42901,-1.74986331 10.0304059,-1.58931893 L1.83357889,1.72507751 C0.525394135,2.25388817 -0.0180926686,3.97692367 0.624338416,5.55420178 L4.69236188,23.8013379 C5.33479296,25.378616 10.2947284,26.2362609 11.6029132,25.7074503 L19.7997402,22.3930538 C21.1072182,21.8635391 21.6521185,20.1405036 21.0096874,18.5632254 L13.5761449,0.316793491 C13.4291419,-0.045135503 13.2319601,-0.367632544 13.0001478,-0.645768639 C13.0001478,-0.645768639 12.4100158,0.223846746 12.1909249,0.497757988" id="Fill-94" fill="#303030" mask="url(#mask-6)"></path>
                </g>
                <g id="Group-113" transform="translate(151.243402, 5.337396)">
                    <path d="M5.80463695,43.3678953 C5.05266041,45.151487 4.63002698,47.1575876 4.63002698,49.2777592 C4.63002698,52.4506231 5.57635836,54.5933272 7.15946686,56.8937592 C7.15946686,56.8937592 7.84006217,56.5761911 8.16799179,56.5571793 C8.47542581,56.5402799 9.6472088,56.7402562 9.6472088,56.7402562 C7.74041114,54.6904988 6.54742581,52.5330077 6.54742581,49.2777592 C6.54742581,47.863842 6.77217067,46.5104811 7.18349619,45.2641497 L5.80463695,43.3678953 Z M9.2959566,59.2934751 C11.2260768,60.9637 13.619115,61.9530195 16.2114551,61.9530195 C22.6067894,61.9530195 27.7921765,56.7050491 27.7921765,49.2777592 C27.7921765,41.8504692 22.6067894,35.8286467 16.2114551,35.8286467 C15.0743026,35.8286467 13.9760211,36.0187651 12.9378129,36.3736527 L14.2707337,38.2818775 C14.8976164,38.1333036 15.5464082,38.0558479 16.2114551,38.0558479 C21.5480856,38.0558479 25.8747777,43.0799012 25.8747777,49.2777592 C25.8747777,55.474913 21.5480856,59.7258183 16.2114551,59.7258183 C15.5202587,59.7258183 14.846024,59.6413213 14.1958188,59.4814811 C14.1958188,59.4814811 10.7391296,58.9597118 10.4316956,58.9350669 C9.71152258,58.8787355 9.2959566,59.2934751 9.2959566,59.2934751 L9.2959566,59.2934751 Z" id="Fill-97" fill="#FFFFFF"></path>
                    <path d="M25.0517026,57.5332609 C24.7817261,57.8719533 23.8947613,58.8253615 23.8947613,58.8253615 C24.2029021,59.5802018 23.9640223,60.4160183 23.3378463,60.6695095 L18.0280721,62.8164385 C17.4011894,63.0699296 16.6371982,62.6587107 16.3297642,61.9038704 C16.0223302,61.1490302 16.2831191,60.3237757 16.909295,60.0709888 L21.0649548,58.3979473 C21.0649548,58.3979473 22.072773,57.6712728 22.521556,57.2473793 C23.6777906,56.1524385 24.1308141,55.3300006 24.1308141,55.3300006 C23.7138346,55.2532491 23.2897877,55.2856396 22.8911836,55.446184 L14.6943566,58.7605805 C13.3868786,59.2893911 12.842685,61.0124266 13.4851161,62.5897047 L20.9179519,80.8368408 C21.560383,82.4141189 23.1555062,83.2717639 24.4636909,82.7429533 L32.6612246,79.4285568 C33.9679959,78.899042 34.5128962,77.1760065 33.8704651,75.5987284 L26.4369226,57.3522964 C26.2899196,56.9903675 26.0927378,56.6678704 25.8609255,56.3897343 C25.8609255,56.3897343 25.2707935,57.2593497 25.0517026,57.5332609" id="Fill-99" fill="#4C4C4C"></path>
                    <path d="M21.6436375,76.1359183 C22.5574587,78.3800189 25.1236493,79.4601728 27.3753384,78.5497172 C29.6270276,77.6392615 30.7118809,75.0825219 29.7980598,72.8384213 C28.883532,70.595729 26.3173413,69.5155751 24.0663589,70.4260308 C21.813963,71.3364864 20.7298164,73.8925219 21.6436375,76.1359183" id="Fill-101" fill="#4C4C4C"></path>
                    <path d="M21.6436375,76.1359183 C22.5574587,78.3800189 25.1236493,79.4601728 27.3753384,78.5497172 C29.6270276,77.6392615 30.7118809,75.0825219 29.7980598,72.8384213 C28.883532,70.595729 26.3173413,69.5155751 24.0663589,70.4260308 C21.813963,71.3364864 20.7298164,73.8925219 21.6436375,76.1359183 Z" id="Stroke-103" stroke="#303030" stroke-width="3"></path>
                    <path d="M20.0900003,68.5292834 L25.4103757,66.3774254 C26.1899152,66.062674 26.5680238,65.1698219 26.2521088,64.3931533 C25.9354871,63.6164846 25.0400413,63.2390645 24.2605018,63.5545201 L18.9394196,65.705674 C18.1605868,66.0211296 17.7817716,66.9139817 18.0983933,67.6906503 C18.4143082,68.4666148 19.3104607,68.8440349 20.0900003,68.5292834" id="Fill-105" fill="#303030"></path>
                    <path d="M20.0900003,68.5292834 L25.4103757,66.3774254 C26.1899152,66.062674 26.5680238,65.1698219 26.2521088,64.3931533 C25.9354871,63.6164846 25.0400413,63.2390645 24.2605018,63.5545201 L18.9394196,65.705674 C18.1605868,66.0211296 17.7817716,66.9139817 18.0983933,67.6906503 C18.4143082,68.4666148 19.3104607,68.8440349 20.0900003,68.5292834 Z" id="Stroke-107" stroke="#303030" stroke-width="3"></path>
                    <path d="M53.0060771,26.6493107 C53.0060771,41.2327959 41.1398308,53.0546361 26.5031446,53.0546361 C11.8657516,53.0546361 0.00021202346,41.2327959 0.00021202346,26.6493107 C0.00021202346,12.0658254 11.8657516,0.243985207 26.5031446,0.243985207 C41.1398308,0.243985207 53.0060771,12.0658254 53.0060771,26.6493107" id="Fill-109" fill="#FF9364"></path>
                    <path d="M54.4195669,46.717358 L52.2993323,46.717358 C50.3557839,46.717358 48.7656079,45.1330385 48.7656079,43.1966479 L48.7656079,10.1019734 C48.7656079,8.16558284 50.3557839,6.58126331 52.2993323,6.58126331 L54.4195669,6.58126331 C56.3631152,6.58126331 57.9532912,8.16558284 57.9532912,10.1019734 L57.9532912,43.1966479 C57.9532912,45.1330385 56.3631152,46.717358 54.4195669,46.717358" id="Fill-111" fill="#5E22E0"></path>
                </g>
            </g>
        </g>
    </g>
</svg>