<?xml version="1.0" encoding="UTF-8"?>
<svg width="158px" height="161px" viewBox="0 0 158 161" version="1.1" xmlns="http://www.w3.org/2000/svg" xmlns:xlink="http://www.w3.org/1999/xlink">
    <!-- Generator: Sketch 47.1 (45422) - http://www.bohemiancoding.com/sketch -->
    <title>Claims_2Pickup</title>
    <desc>Created with Sketch.</desc>
    <defs>
        <polygon id="path-1" points="0.494641935 0.133636364 18.7073274 0.133636364 18.7073274 9.22899091 0.494641935 9.22899091 0.494641935 0.133636364"></polygon>
        <polygon id="path-3" points="14.6532258 0.610654545 14.6532258 11.9092909 0.446668548 11.9092909 0.446668548 0.610654545 14.6532258 0.610654545"></polygon>
        <polygon id="path-5" points="3.14287477e-18 13.8183818 3.14287477e-18 0.0990181818 14.2063661 0.0990181818 14.2063661 13.8183818"></polygon>
        <polygon id="path-7" points="14.6532258 0.379845455 14.6532258 9.36402727 0.446795968 9.36402727 0.446795968 0.379845455 14.6532258 0.379845455"></polygon>
    </defs>
    <g id="Page-1" stroke="none" stroke-width="1" fill="none" fill-rule="evenodd">
        <g id="claims_Car_web" transform="translate(-399.000000, -1452.000000)">
            <g id="Claims_2Pickup" transform="translate(399.000000, 1452.000000)">
                <g id="Group-24" transform="translate(1.274194, 0.502727)">
                    <path d="M129.967678,87.3152636 C129.967678,123.163536 100.87338,152.224355 64.9838073,152.224355 C29.0942347,152.224355 -6.37096774e-05,123.163536 -6.37096774e-05,87.3152636 C-6.37096774e-05,51.4669909 29.0942347,22.4061727 64.9838073,22.4061727 C100.87338,22.4061727 129.967678,51.4669909 129.967678,87.3152636" id="Fill-1" fill="#E5E5E5"></path>
                    <path d="M116.415674,20.2845364 L114.269295,18.1412636 C112.494344,16.3677182 109.605747,16.3677182 107.830158,18.1412636 L103.538037,22.4284455 C103.253255,22.7129 103.093344,23.0985364 103.093344,23.5007182 C103.093344,23.9029 103.253255,24.2885364 103.538037,24.5723545 L109.977174,31.0040818 C110.261319,31.2885364 110.6474,31.4482636 111.050045,31.4482636 C111.45269,31.4482636 111.838771,31.2885364 112.123553,31.0040818 L116.415674,26.7162636 C118.191263,24.9433545 118.191263,22.0580818 116.415674,20.2845364" id="Fill-3" fill="#5E22E0"></path>
                    <path d="M83.9915895,4.68121818 L77.9206944,4.68121818 C77.082275,4.68121818 76.4031298,5.35958182 76.4031298,6.19703636 L76.4031298,13.7767636 C76.4031298,14.6142182 77.082275,15.2932182 77.9206944,15.2932182 L83.9915895,15.2932182 C84.8293718,15.2932182 85.509154,14.6142182 85.509154,13.7767636 L85.509154,6.19703636 C85.509154,5.35958182 84.8293718,4.68121818 83.9915895,4.68121818" id="Fill-5" fill="#C1C2C4"></path>
                    <g id="Group-9" transform="translate(71.354839, 0.000000)">
                        <mask id="mask-2" fill="white">
                            <use xlink:href="#path-1"></use>
                        </mask>
                        <g id="Clip-8"></g>
                        <path d="M17.1897629,0.133445455 L2.01284355,0.133445455 C1.17442419,0.133445455 0.494641935,0.811809091 0.494641935,1.64926364 L0.494641935,7.71317273 C0.494641935,8.55062727 1.17442419,9.22899091 2.01284355,9.22899091 L17.1897629,9.22899091 C18.0275452,9.22899091 18.7073274,8.55062727 18.7073274,7.71317273 L18.7073274,1.64926364 C18.7073274,0.811809091 18.0275452,0.133445455 17.1897629,0.133445455" id="Fill-7" fill="#5E22E0" mask="url(#mask-2)"></path>
                    </g>
                    <path d="M80.9560145,12.2610091 C101.910765,12.2610091 118.898313,29.2290091 118.898313,50.1602818 C118.898313,71.0902818 101.910765,88.0582818 80.9560145,88.0582818 C60.0006274,88.0582818 43.0137161,71.0902818 43.0137161,50.1602818 C43.0137161,29.2290091 60.0006274,12.2610091 80.9560145,12.2610091" id="Fill-10" fill="#5E22E0"></path>
                    <path d="M80.9560145,18.3251091 C98.5583613,18.3251091 112.827418,32.5777455 112.827418,50.1598364 C112.827418,67.7412909 98.5583613,81.9945636 80.9560145,81.9945636 C63.3536677,81.9945636 49.0846113,67.7412909 49.0846113,50.1598364 C49.0846113,32.5777455 63.3536677,18.3251091 80.9560145,18.3251091" id="Fill-12" fill="#5E22E0"></path>
                    <path d="M80.9560145,21.3565545 C96.8821597,21.3565545 109.792289,34.2524636 109.792289,50.1602818 C109.792289,66.0674636 96.8821597,78.9627364 80.9560145,78.9627364 C65.0298694,78.9627364 52.1197403,66.0674636 52.1197403,50.1602818 C52.1197403,34.2524636 65.0298694,21.3565545 80.9560145,21.3565545" id="Fill-14" fill="#FFFFFF"></path>
                    <path d="M80.9560145,27.4206545 C81.7937968,27.4206545 82.473579,26.7422909 82.473579,25.9042 L82.473579,21.3962 C81.9709097,21.3701091 81.4650548,21.3567455 80.9560145,21.3567455 C80.4469742,21.3567455 79.9411194,21.3701091 79.43845,21.3962 L79.43845,25.9042 C79.43845,26.7422909 80.1182323,27.4206545 80.9560145,27.4206545" id="Fill-16" fill="#5E22E0"></path>
                    <path d="M109.752598,48.6437636 L105.239404,48.6437636 C104.400985,48.6437636 103.72184,49.3221273 103.72184,50.1602182 C103.72184,50.9970364 104.400985,51.6760364 105.239404,51.6760364 L109.752598,51.6760364 C109.778719,51.1739455 109.792098,50.6686727 109.792098,50.1602182 C109.792098,49.6511273 109.778719,49.1458545 109.752598,48.6437636" id="Fill-18" fill="#5E22E0"></path>
                    <path d="M80.9560145,72.8988909 C80.1182323,72.8988909 79.43845,73.5772545 79.43845,74.4153455 L79.43845,78.9233455 C79.9411194,78.9494364 80.4469742,78.9628 80.9560145,78.9628 C81.4650548,78.9628 81.9709097,78.9494364 82.473579,78.9233455 L82.473579,74.4153455 C82.473579,73.5772545 81.7937968,72.8988909 80.9560145,72.8988909" id="Fill-20" fill="#5E22E0"></path>
                    <path d="M58.1906992,50.1600909 C58.1906992,49.3226364 57.5109169,48.6436364 56.6731347,48.6436364 L52.159304,48.6436364 C52.1338202,49.1457273 52.119804,49.651 52.119804,50.1600909 C52.119804,50.6685455 52.1338202,51.1738182 52.159304,51.6759091 L56.6731347,51.6759091 C57.5109169,51.6759091 58.1906992,50.9969091 58.1906992,50.1600909" id="Fill-22" fill="#5E22E0"></path>
                </g>
                <path d="M77.7689917,37.8584192 C76.888261,37.148472 75.8298549,36.7935037 74.5937417,36.7935037 C73.5739483,36.7935037 72.8013891,37.0520132 72.276041,37.56904 C71.7506928,38.0860667 71.4880227,38.8461618 71.4880227,39.8493481 C72.2914963,38.9696309 73.3962559,38.5297789 74.8023347,38.5297789 C75.8221282,38.5297789 76.7182968,38.7535633 77.4908676,39.2011387 C78.2634384,39.6487141 78.8621717,40.2776253 79.2870856,41.0878911 C79.7119996,41.8981569 79.9244533,42.8280195 79.9244533,43.8775066 C79.9244533,45.0195956 79.6695088,46.0189085 79.1596121,46.8754752 C78.6497154,47.7320419 77.9273726,48.3956783 76.9925619,48.8664041 C76.0577513,49.33713 74.9800312,49.5724894 73.7593694,49.5724894 C72.291485,49.5724894 71.0206251,49.2406712 69.9467517,48.5770249 C68.8728784,47.9133786 68.0501028,46.9680827 67.4784005,45.7411087 C66.9066981,44.5141347 66.6208512,43.0749699 66.6208512,41.423571 C66.6208512,39.7104375 66.9376004,38.2095391 67.5711085,36.9208306 C68.2046165,35.632122 69.1007852,34.6366675 70.2596413,33.9344372 C71.4184975,33.2322068 72.7627505,32.8810969 74.2924406,32.8810969 C75.2813312,32.8810969 76.2624813,33.0084224 77.2359205,33.2630774 C78.2093597,33.5177324 79.035998,33.8611256 79.7158603,34.2932674 L77.7689917,37.8584192 Z M73.5971304,42.2338327 C73.0563308,42.2338327 72.6468745,42.3765917 72.368749,42.662114 C72.0906235,42.9476362 71.9515629,43.352763 71.9515629,43.8775066 C71.9515629,44.4022502 72.0867607,44.8035187 72.3571605,45.0813241 C72.6275602,45.3591295 73.0331538,45.4980302 73.5739534,45.4980302 C74.640101,45.4980302 75.1731669,44.9501444 75.1731669,43.8543563 C75.1731669,43.3296127 75.0418318,42.9283442 74.7791577,42.6505388 C74.5164837,42.3727334 74.1224785,42.2338327 73.5971304,42.2338327 Z M89.2184333,32.9505479 C91.6134027,32.9505479 93.4520935,33.6643428 94.734561,35.091954 C96.0170285,36.5195652 96.6582526,38.5606328 96.6582526,41.2152179 C96.6582526,43.8698031 96.0170285,45.9147291 94.734561,47.3500571 C93.4520935,48.7853851 91.6134027,49.5030384 89.2184333,49.5030384 C86.8080125,49.5030384 84.961596,48.7892435 83.6791285,47.3616323 C82.396661,45.934021 81.7554369,43.8852368 81.7554369,41.2152179 C81.7554369,38.5451991 82.396661,36.5002732 83.6791285,35.0803788 C84.961596,33.6604844 86.8080125,32.9505479 89.2184333,32.9505479 Z M89.2184333,36.8398044 C88.723988,36.8398044 88.3377084,36.978705 88.0595829,37.2565104 C87.7814574,37.5343159 87.580592,37.9857429 87.4569807,38.6108051 C87.3333694,39.2358673 87.2715646,40.1039962 87.2715646,41.2152179 C87.2715646,42.3264396 87.3333694,43.1984269 87.4569807,43.831206 C87.580592,44.463985 87.7814574,44.9192704 88.0595829,45.1970758 C88.3377084,45.4748812 88.723988,45.6137819 89.2184333,45.6137819 C89.6974271,45.6137819 90.0759811,45.4748812 90.3541066,45.1970758 C90.6322321,44.9192704 90.8330975,44.463985 90.9567088,43.831206 C91.0803201,43.1984269 91.1421249,42.3264396 91.1421249,41.2152179 C91.1421249,40.1039962 91.0803201,39.2358673 90.9567088,38.6108051 C90.8330975,37.9857429 90.6360949,37.5343159 90.3656951,37.2565104 C90.0952953,36.978705 89.7128786,36.8398044 89.2184333,36.8398044 Z" id="60" fill="#37A977"></path>
                <path d="M76.824795,56.213634 C77.2069234,56.213634 77.5481045,56.302239 77.8483483,56.4794516 C78.1485921,56.6566643 78.3823011,56.9054398 78.5494823,57.2257857 C78.7166635,57.5461316 78.8002528,57.917591 78.8002528,58.340175 L78.8002528,61.9082653 L76.4972579,61.9082653 L76.4972579,59.004719 C76.4972579,58.7729794 76.4392571,58.5872497 76.3232538,58.4475244 C76.2072505,58.307799 76.0537191,58.2379374 75.8626548,58.2379374 C75.6511194,58.2379374 75.4805289,58.3197266 75.3508782,58.4833075 C75.2212275,58.6468884 75.1564031,58.864993 75.1564031,59.1376278 L75.1564031,61.9082653 L72.8534081,61.9082653 L72.8534081,59.004719 C72.8534081,58.7729794 72.7954073,58.5872497 72.6794041,58.4475244 C72.5634008,58.307799 72.4098693,58.2379374 72.2188051,58.2379374 C72.0072697,58.2379374 71.8366792,58.3197266 71.7070284,58.4833075 C71.5773777,58.6468884 71.5125533,58.864993 71.5125533,59.1376278 L71.5125533,61.9082653 L69.2095584,61.9082653 L69.2095584,56.3158716 L71.5125533,56.3158716 L71.5125533,57.1031007 C71.7036175,56.8168341 71.9407383,56.5970256 72.2239228,56.4436685 C72.5071073,56.2903114 72.8261116,56.213634 73.1809452,56.213634 C73.604016,56.213634 73.9741974,56.3192784 74.2915005,56.5305704 C74.6088036,56.7418624 74.8425126,57.0349404 74.9926345,57.4098133 C75.176875,57.0281245 75.4242313,56.7333426 75.7347107,56.5254585 C76.0451901,56.3175745 76.4085479,56.213634 76.824795,56.213634 Z M79.7726285,56.3158716 L82.0756234,56.3158716 L82.0756234,61.9082653 L79.7726285,61.9082653 L79.7726285,56.3158716 Z M80.8985371,53.5554578 C81.2397233,53.5554578 81.5194917,53.6645101 81.7378508,53.882618 C81.95621,54.1007258 82.0653879,54.3801723 82.0653879,54.7209658 C82.0653879,55.0617594 81.95621,55.3412059 81.7378508,55.5593137 C81.5194917,55.7774216 81.2397233,55.8864739 80.8985371,55.8864739 C80.557351,55.8864739 80.2775825,55.7774216 80.0592234,55.5593137 C79.8408643,55.3412059 79.7316863,55.0617594 79.7316863,54.7209658 C79.7316863,54.3801723 79.8408643,54.1007258 80.0592234,53.882618 C80.2775825,53.6645101 80.557351,53.5554578 80.8985371,53.5554578 Z M87.2036255,56.213634 C87.5925777,56.213634 87.9388764,56.302239 88.2425321,56.4794516 C88.5461878,56.6566643 88.7833086,56.9054398 88.9539016,57.2257857 C89.1244947,57.5461316 89.20979,57.917591 89.20979,58.340175 L89.20979,61.9082653 L86.906795,61.9082653 L86.906795,59.004719 C86.906795,58.7729794 86.8453824,58.5872497 86.7225554,58.4475244 C86.5997284,58.307799 86.4393733,58.2379374 86.2414854,58.2379374 C86.0163025,58.2379374 85.8371825,58.3197266 85.7041199,58.4833075 C85.5710573,58.6468884 85.504527,58.864993 85.504527,59.1376278 L85.504527,61.9082653 L83.2015321,61.9082653 L83.2015321,56.3158716 L85.504527,56.3158716 L85.504527,57.1133244 C85.6955912,56.820242 85.9361239,56.5970256 86.2261321,56.4436685 C86.5161403,56.2903114 86.8419682,56.213634 87.2036255,56.213634 Z M94.317321,58.340175 C93.4848268,57.9312227 92.8536419,57.7267497 92.4237473,57.7267497 C92.3282152,57.7267497 92.2514495,57.7437891 92.1934478,57.7778685 C92.1354462,57.8119478 92.1064458,57.8562503 92.1064458,57.9107773 C92.1064458,57.9925677 92.1678584,58.0607254 92.2906854,58.1152524 C92.4135124,58.1697793 92.618221,58.2345291 92.9048174,58.3095037 C93.307417,58.4185576 93.6520099,58.5310178 93.9386062,58.6468876 C94.2252026,58.7627574 94.4759706,58.9399674 94.6909179,59.1785228 C94.9058652,59.4170783 95.0133372,59.7271957 95.0133372,60.1088845 C95.0133372,60.4905732 94.909277,60.8245459 94.7011534,61.1108124 C94.4930299,61.397079 94.1979083,61.6185915 93.8157798,61.7753565 C93.4336514,61.9321215 92.9867042,62.0105028 92.474925,62.0105028 C91.4308954,62.0105028 90.5199421,61.7446879 89.7420377,61.21305 L90.4380539,59.7817243 C91.1886634,60.2452035 91.8778491,60.4769397 92.5056316,60.4769397 C92.6148112,60.4769397 92.7001064,60.4616042 92.7615199,60.4309328 C92.8229334,60.4002613 92.8536397,60.3610707 92.8536397,60.3133596 C92.8536397,60.238385 92.7939331,60.1753392 92.6745179,60.1242201 C92.5551028,60.0731011 92.3623355,60.0134631 92.0962103,59.9453044 C91.6936106,59.8430664 91.3524296,59.7340141 91.072657,59.6181443 C90.7928843,59.5022745 90.5455281,59.3250645 90.3305808,59.086509 C90.1156336,58.8479536 90.0081615,58.5344282 90.0081615,58.1459236 C90.0081615,57.757419 90.1105158,57.4183345 90.3152275,57.12866 C90.5199392,56.8389855 90.8082372,56.6140652 91.1801301,56.4538922 C91.552023,56.2937193 91.983617,56.213634 92.474925,56.213634 C93.3688327,56.213634 94.2354325,56.448778 95.0747504,56.9190731 L94.317321,58.340175 Z" id="mins" fill="#37A977"></path>
                <g id="Group-96" transform="translate(0.000000, 83.866364)">
                    <path d="M10.738521,59.5128545 C11.4049242,59.8113091 14.8172145,60.0550364 18.3212468,60.0550364 L142.524537,60.0550364 C146.028569,60.0550364 149.440223,59.8113091 150.106626,59.5128545 C150.773029,59.2144 151.318384,54.7706727 151.318384,51.2706727 L151.318384,47.0528545 C151.318384,43.5528545 148.451448,40.6892182 144.947416,40.6892182 L15.8977306,40.6892182 C12.3936984,40.6892182 9.5267629,43.5528545 9.5267629,47.0528545 L9.5267629,51.2706727 C9.5267629,54.7706727 10.0721177,59.2144 10.738521,59.5128545" id="Fill-25" fill="#040E17"></path>
                    <path d="M114.06638,43.2570091 C110.562348,43.2570091 107.695412,40.3933727 107.695412,36.8933727 L107.695412,16.7594636 C107.695412,13.2594636 105.513993,10.3958273 102.84838,10.3958273 C100.182767,10.3958273 98.0013476,13.2594636 98.0013476,16.7594636 L98.0013476,36.8933727 C98.0013476,40.3933727 95.1344121,43.2570091 91.6303798,43.2570091 L15.8980492,43.2570091 C12.3940169,43.2570091 9.52708145,45.1056455 9.52708145,47.3647364 C9.52708145,49.6244636 12.3940169,51.4724636 15.8980492,51.4724636 L144.947735,51.4724636 C148.451767,51.4724636 151.318702,49.6244636 151.318702,47.3647364 C151.318702,45.1056455 148.451767,43.2570091 144.947735,43.2570091 L114.06638,43.2570091 Z" id="Fill-27" fill="#092438"></path>
                    <path d="M147.802948,25.9751545 L136.486198,23.2349727 L132.976431,6.87024545 C132.136738,2.96297273 128.124302,0.1267 123.438456,0.1267 L107.695157,0.1267 C106.355343,0.1267 105.271641,1.04497273 105.271641,2.18024545 L105.271641,39.1497909 L151.318448,39.1497909 L151.318448,29.9250636 C151.318448,28.0910636 149.883706,26.4791545 147.802948,25.9751545" id="Fill-29" fill="#5E22E0"></path>
                    <path d="M107.695412,57.6342455 L108.621114,57.6342455 C109.53917,57.6342455 110.378227,57.1951545 110.788517,56.4989727 L116.049662,47.5816091 C116.87088,46.1905182 118.548993,45.3110636 120.385106,45.3110636 L133.781977,45.3110636 C135.61809,45.3110636 137.296202,46.1905182 138.11742,47.5816091 L143.378565,56.4989727 C143.788856,57.1951545 144.628549,57.6342455 145.545969,57.6342455 L151.318702,57.6342455 C152.657243,57.6342455 153.742219,56.7147 153.742219,55.5800636 L153.742219,41.2033364 C153.742219,38.9347 151.572267,37.0962455 148.895186,37.0962455 L105.271896,37.0962455 L105.271896,55.5800636 C105.271896,56.7147 106.356872,57.6342455 107.695412,57.6342455" id="Fill-31" fill="#5E22E0"></path>
                    <path d="M127.08335,47.9514636 C135.113955,47.9514636 141.624447,54.4544636 141.624447,62.4751909 C141.624447,70.4971909 135.113955,76.9995545 127.08335,76.9995545 C119.052745,76.9995545 112.542253,70.4971909 112.542253,62.4751909 C112.542253,54.4544636 119.052745,47.9514636 127.08335,47.9514636" id="Fill-33" fill="#5E22E0"></path>
                    <path d="M127.08335,52.7925364 C132.437511,52.7925364 136.777415,57.1274455 136.777415,62.4754455 C136.777415,67.8234455 132.437511,72.1589909 127.08335,72.1589909 C121.729826,72.1589909 117.389285,67.8234455 117.389285,62.4754455 C117.389285,57.1274455 121.729826,52.7925364 127.08335,52.7925364" id="Fill-35" fill="#37A977"></path>
                    <path d="M42.5330266,47.9514636 C50.5636315,47.9514636 57.0741234,54.4544636 57.0741234,62.4751909 C57.0741234,70.4971909 50.5636315,76.9995545 42.5330266,76.9995545 C34.5024218,76.9995545 27.9919298,70.4971909 27.9919298,62.4751909 C27.9919298,54.4544636 34.5024218,47.9514636 42.5330266,47.9514636" id="Fill-37" fill="#5E22E0"></path>
                    <path d="M42.5330266,52.7925364 C47.8865508,52.7925364 52.2270911,57.1274455 52.2270911,62.4754455 C52.2270911,67.8234455 47.8865508,72.1589909 42.5330266,72.1589909 C37.1788653,72.1589909 32.8389621,67.8234455 32.8389621,62.4754455 C32.8389621,57.1274455 37.1788653,52.7925364 42.5330266,52.7925364" id="Fill-39" fill="#37A977"></path>
                    <g id="Group-43" transform="translate(143.346774, 52.181818)">
                        <mask id="mask-4" fill="white">
                            <use xlink:href="#path-3"></use>
                        </mask>
                        <g id="Clip-42"></g>
                        <path d="M10.5204427,11.9092909 L5.95628145,11.9092909 C2.91350726,11.9092909 0.446668548,9.44529091 0.446668548,6.40601818 L0.446668548,0.610654545 L9.91074113,0.610654545 C12.529846,0.610654545 14.6532895,2.73165455 14.6532895,5.34710909 L14.6532895,7.7812 C14.6532895,10.0612909 12.8031605,11.9092909 10.5204427,11.9092909" id="Fill-41" fill="#5E22E0" mask="url(#mask-4)"></path>
                    </g>
                    <g id="Group-46" transform="translate(0.000000, 50.272727)">
                        <mask id="mask-6" fill="white">
                            <use xlink:href="#path-5"></use>
                        </mask>
                        <g id="Clip-45"></g>
                        <path d="M4.85187419,13.8183818 L8.0507371,13.8183818 C11.4502855,13.8183818 14.2063661,11.0654727 14.2063661,7.66983636 L14.2063661,1.03765455 C14.2063661,0.519654545 13.7852452,0.0990181818 13.2666484,0.0990181818 L9.52689032,0.0990181818 C9.52689032,1.43601818 8.44127742,2.51974545 7.10337419,2.51974545 L5.42844677,2.51974545 C2.43026935,2.51974545 -0.00025483871,4.94810909 -0.00025483871,7.94283636 L-0.00025483871,8.97247273 C-0.00025483871,11.6490182 2.17224516,13.8183818 4.85187419,13.8183818" id="Fill-44" fill="#5E22E0" mask="url(#mask-6)"></path>
                    </g>
                    <g id="Group-49" transform="translate(143.346774, 54.727273)">
                        <mask id="mask-8" fill="white">
                            <use xlink:href="#path-7"></use>
                        </mask>
                        <g id="Clip-48"></g>
                        <path d="M10.7410056,5.58975455 L5.66270726,5.58975455 C2.78175565,5.58975455 0.446795968,3.25748182 0.446795968,0.379845455 L0.446795968,4.15411818 C0.446795968,7.03175455 2.78175565,9.36402727 5.66270726,9.36402727 L10.7410056,9.36402727 C12.9020379,9.36402727 14.6534169,7.61466364 14.6534169,5.45611818 L14.6534169,2.54920909 C14.6534169,2.4003 14.6234734,2.26093636 14.6094573,2.11584545 C14.3909331,4.06693636 12.7529573,5.58975455 10.7410056,5.58975455" id="Fill-47" fill="#5E22E0" mask="url(#mask-8)"></path>
                    </g>
                    <path d="M8.05105565,60.3170273 L4.85219274,60.3170273 C2.63700726,60.3170273 0.772862097,58.8336636 0.191192742,56.8074818 C0.0701443548,57.2573909 6.37096774e-05,57.7276636 6.37096774e-05,58.2151182 L6.37096774e-05,59.2447545 C6.37096774e-05,61.9213 2.17192661,64.0913 4.85219274,64.0913 L8.05105565,64.0913 C11.450604,64.0913 14.2066847,61.3377545 14.2066847,57.9427545 L14.2066847,54.1691182 C14.2066847,57.5647545 11.450604,60.3170273 8.05105565,60.3170273" id="Fill-50" fill="#5E22E0"></path>
                    <path d="M152.708147,45.4948455 C152.708147,48.0568455 151.686244,50.1333 150.425429,50.1333 C149.164615,50.1333 148.142711,48.0568455 148.142711,45.4948455 C148.142711,42.9334818 149.164615,40.8563909 150.425429,40.8563909 C151.686244,40.8563909 152.708147,42.9334818 152.708147,45.4948455" id="Fill-52" fill="#FFF80D"></path>
                    <path d="M127.640491,8.01468182 L130.423967,20.9920455 L110.729394,20.9920455 L110.729394,5.57804545 L123.438838,5.57804545 C125.466717,5.57804545 127.351886,6.67068182 127.640491,8.01468182" id="Fill-54" fill="#78FCFF"></path>
                    <path d="M133.998972,26.7445182 L133.998972,26.7445182 C134.398431,26.7445182 134.722714,26.4206091 134.722714,26.0216091 L134.722714,17.3237909 C134.722714,16.9247909 134.398431,16.6015182 133.998972,16.6015182 C133.599512,16.6015182 133.27523,16.9247909 133.27523,17.3237909 L133.27523,26.0216091 C133.27523,26.4206091 133.599512,26.7445182 133.998972,26.7445182" id="Fill-56" fill="#040E17"></path>
                    <path d="M91.2519444,31.6116818 C91.2519444,31.6116818 90.611025,36.2908636 90.2395976,36.3239545 C89.8688073,36.3576818 88.1136056,36.3239545 88.1136056,36.3239545 L87.7765815,31.4704091 L91.2519444,31.6116818 Z" id="Fill-58" fill="#363636"></path>
                    <path d="M59.9542468,12.2243545 C60.9385613,12.2243545 62.9014565,12.7067182 64.7082629,14.0589909 C65.0376419,14.3059 65.3109565,14.8506273 65.6231339,15.1567182 C67.6478274,17.1453545 71.3703839,20.5696273 72.2170855,20.5696273 C73.0637871,20.5696273 83.4229806,21.4605364 86.7976823,23.8526273 C90.1723839,26.2459909 90.0710855,27.1566273 90.1723839,27.9985364 C90.2730452,28.8410818 91.7243516,29.3813545 91.7243516,30.2232636 L91.7243516,31.9898091 C91.7243516,32.3213545 90.1972306,32.2710818 89.6410452,32.8266273 C89.0842226,33.3834455 88.3751339,35.0799909 89.185521,35.0799909 L90.8808355,35.0799909 C91.2605452,35.0799909 91.4631419,35.4872636 91.4631419,35.8888091 C91.4631419,36.2903545 91.2605452,37.2506273 89.5136258,37.2506273 L85.9605371,37.2506273 C84.0823758,36.9159 81.5180613,36.9159 78.6097145,36.9159 C76.525771,36.9159 74.2424161,36.9222636 71.8889806,37.2506273 L36.1612306,37.2506273 C33.52365,36.9152636 31.9927065,36.5092636 31.9927065,36.5092636 C31.9927065,36.5092636 29.2143274,34.8025364 25.985521,34.8025364 C24.0576661,34.8025364 22.8089565,34.9387182 22.0922226,35.3027182 L20.9288839,35.3027182 C20.0853677,35.3027182 18.6340613,34.2005364 18.6340613,33.4929 L18.6340613,29.2865364 C18.6340613,28.8748091 20.2541984,27.9648091 20.2541984,27.2234455 L20.2541984,22.1675364 C20.2541984,21.9677182 20.68615,21.2969909 21.3270694,20.4143545 C22.0132226,19.4693545 23.2848677,18.4263545 24.1723435,17.3139909 C25.3274,15.8675364 26.0721661,14.4045364 26.4932871,13.9164455 C26.5659161,13.8318091 26.6194323,13.7726273 26.6487387,13.7414455 C27.1036258,13.2609909 25.9148032,13.2864455 25.9148032,13.0077182 C25.9148032,12.7302636 28.6199161,12.2243545 29.8864645,12.2243545 L59.9542468,12.2243545 Z" id="Fill-60" fill="#EC2C8E"></path>
                    <path d="M89.1536661,25.8092545 C90.1258758,26.8471636 90.1048516,27.4383455 90.1723839,27.9983455 C90.2730452,28.8415273 91.7243516,29.3811636 91.7243516,30.2237091 L91.7243516,31.9896182 C91.7243516,32.3211636 90.1972306,32.2708909 89.6410452,32.8264364 C89.0842226,33.3832545 88.3751339,35.0798 89.185521,35.0798 L90.8808355,35.0798 C91.2605452,35.0798 91.4631419,35.4870727 91.4631419,35.8886182 C91.4631419,36.2908 91.2605452,37.2504364 89.5136258,37.2504364 L85.9605371,37.2504364 C84.4359645,36.5918 81.5148758,36.7750727 78.586779,36.7750727 C76.5155774,36.7750727 73.4441339,36.8628909 71.8889806,37.2504364 L36.1612306,37.2504364 C33.4242629,37.2504364 31.9296339,36.9157091 31.9296339,36.9157091 C31.9296339,36.9157091 29.0391258,35.1898909 25.8103194,35.1898909 C23.8824645,35.1898909 22.8172387,35.3025273 22.0922226,35.3025273 L20.9288839,35.3025273 C20.0853677,35.3025273 18.6340613,34.2009818 18.6340613,33.4927091 L18.6340613,29.2863455 C18.6340613,28.8746182 20.2541984,27.9652545 20.2541984,27.2238909 L20.2541984,25.8092545 L89.1536661,25.8092545 Z" id="Fill-62" fill="#EC2C8E"></path>
                    <path d="M27.4750532,24.8552818 C28.3453274,24.8552818 29.0525048,24.1489182 29.0525048,23.2796455 C29.0525048,22.4110091 28.3453274,21.7040091 27.4750532,21.7040091 C26.6054161,21.7040091 25.8976016,22.4110091 25.8976016,23.2796455 C25.8976016,24.1489182 26.6054161,24.8552818 27.4750532,24.8552818 L27.4750532,24.8552818 Z M27.4750532,21.5531909 C28.4287871,21.5531909 29.204771,22.3270091 29.204771,23.2796455 C29.204771,24.2322818 28.4287871,25.0073727 27.4750532,25.0073727 C26.5219565,25.0073727 25.7459726,24.2322818 25.7459726,23.2796455 C25.7459726,22.3270091 26.5219565,21.5531909 27.4750532,21.5531909 L27.4750532,21.5531909 Z M42.9036258,20.6629182 C42.3296016,24.0687364 43.3992871,32.5552818 43.4101177,32.6399182 C43.6503032,34.5248273 45.1118032,35.3718273 45.4609323,35.3718273 L66.58515,35.3718273 C67.112029,35.3718273 67.2509161,34.8302818 67.2509161,34.5439182 L67.2509161,22.6731909 C67.2509161,21.9280091 64.5190452,19.5187364 63.4659242,18.6532818 L63.5627629,18.5355545 C63.7188516,18.6647364 67.4031823,21.7046455 67.4031823,22.6731909 L67.4031823,34.5439182 C67.4031823,34.8831 67.2324403,35.5232818 66.58515,35.5232818 L45.4609323,35.5232818 C44.9888435,35.5232818 43.4986742,34.5388273 43.2597629,32.6596455 C43.2489323,32.5737364 42.1760613,24.0655545 42.7539081,20.6381 L42.9036258,20.6629182 Z" id="Fill-64" fill="#BDBDBD"></path>
                    <path d="M71.8882798,37.2506909 L71.8882798,35.3021455 C71.8882798,31.4273273 75.0450944,28.2747818 78.9243766,28.2747818 C82.8036589,28.2747818 85.9598363,31.4273273 85.9598363,35.3021455 L85.9598363,37.2506909 L71.8882798,37.2506909 Z" id="Fill-66" fill="#242424"></path>
                    <path d="M29.1274911,28.2745273 C33.0067734,28.2745273 36.1629508,31.4270727 36.1629508,35.3025273 L36.1629508,37.2504364 L31.7784508,37.2504364 C31.7784508,37.2504364 29.0389347,35.3025273 25.8101282,35.3025273 L22.0920315,35.3025273 C22.0920315,31.4270727 25.2482089,28.2745273 29.1274911,28.2745273" id="Fill-68" fill="#242424"></path>
                    <path d="M72.9008815,35.3024636 C72.9008815,38.6255545 75.5977121,41.3186455 78.9246315,41.3186455 C82.2515508,41.3186455 84.9477444,38.6255545 84.9477444,35.3024636 C84.9477444,31.9787364 82.2515508,29.2862818 78.9246315,29.2862818 C75.5977121,29.2862818 72.9008815,31.9787364 72.9008815,35.3024636" id="Fill-70" fill="#15216D"></path>
                    <path d="M75.6551782,35.3024636 C75.6551782,37.1059182 77.1185895,38.5682818 78.9241218,38.5682818 C80.7302911,38.5682818 82.1937024,37.1059182 82.1937024,35.3024636 C82.1937024,33.4983727 80.7302911,32.0366455 78.9241218,32.0366455 C77.1185895,32.0366455 75.6551782,33.4983727 75.6551782,35.3024636" id="Fill-72" fill="#C2C2C2"></path>
                    <path d="M78.1652758,35.3024636 C78.1652758,35.7211909 78.5048484,36.0603727 78.9240581,36.0603727 C79.3439048,36.0603727 79.6834774,35.7211909 79.6834774,35.3024636 C79.6834774,34.8837364 79.3439048,34.5439182 78.9240581,34.5439182 C78.5048484,34.5439182 78.1652758,34.8837364 78.1652758,35.3024636" id="Fill-74" fill="#EC2C8E"></path>
                    <path d="M23.1040597,35.3024636 C23.1040597,38.6255545 25.8002532,41.3186455 29.1278097,41.3186455 C32.4540919,41.3186455 35.1509226,38.6255545 35.1509226,35.3024636 C35.1509226,31.9787364 32.4540919,29.2862818 29.1278097,29.2862818 C25.8002532,29.2862818 23.1040597,31.9787364 23.1040597,35.3024636" id="Fill-76" fill="#15216D"></path>
                    <path d="M25.9351903,35.3024636 C25.9351903,37.1059182 27.3986016,38.5682818 29.2041339,38.5682818 C31.0103032,38.5682818 32.4737145,37.1059182 32.4737145,35.3024636 C32.4737145,33.4983727 31.0103032,32.0366455 29.2041339,32.0366455 C27.3986016,32.0366455 25.9351903,33.4983727 25.9351903,35.3024636" id="Fill-78" fill="#EC2C8E"></path>
                    <path d="M29.1274911,14.9798727 C29.3562089,14.6763273 29.8709831,13.9095091 31.3222895,13.9095091 L57.895596,13.9095091 C58.6040476,13.9095091 59.1774347,13.9088727 59.8355556,14.5834182 C60.4943137,15.2579636 64.6787653,19.4541455 64.9565395,19.6985091 C65.2349508,19.9435091 65.2177492,21.0889636 63.8180476,21.0889636 L27.9475879,21.0889636 C27.0703056,21.0889636 26.7243621,20.6931455 26.8759911,20.1115091 C27.0282573,19.5298727 28.8981363,15.2834182 29.1274911,14.9798727" id="Fill-80" fill="#68665C"></path>
                    <path d="M26.4929685,13.9165727 C26.8363637,13.9515727 27.1975976,14.1157545 26.9185492,14.6006636 C26.5980895,15.1568455 23.6285815,19.7583909 23.4425492,19.9938455 C23.2577911,20.2286636 22.736646,20.4144818 21.3267508,20.4151182 C22.9061137,18.2400273 25.7482024,14.7801182 26.4929685,13.9165727" id="Fill-82" fill="#68665C"></path>
                    <path d="M69.6388185,20.7854182 C69.4362218,20.7854182 69.0813589,20.6167818 68.6092702,20.1789636 C68.1371815,19.7405091 63.5647379,15.2751455 63.1601815,14.9041455 C62.7549879,14.5337818 62.5358266,14.0616 63.0754476,14.0616 L64.7057782,14.0616 C65.0357944,14.3078727 65.3613508,14.5802364 65.6735282,14.8869636 C67.6982218,16.8756 71.3704476,20.5696909 72.2171492,20.5696909 C72.0559637,20.6995091 71.9075202,20.7854182 71.7979395,20.7854182 L69.6388185,20.7854182 Z" id="Fill-84" fill="#68665C"></path>
                    <polygon id="Fill-86" fill="#292929" points="42.8291492 21.0887091 40.1826492 21.0887091 40.9873024 13.9098909 42.8291492 13.9098909"></polygon>
                    <path d="M82.9845944,23.4738 C83.8376669,23.5864364 86.2242315,24.0802545 87.1862476,24.6618909 C88.1476266,25.2428909 89.7926105,28.1504364 88.5776669,28.1504364 L86.2497153,28.1504364 C85.9458202,28.1504364 84.3008363,27.6197091 83.4401185,26.4564364 C82.5800379,25.2938 82.0576185,23.3509818 82.9845944,23.4738" id="Fill-88" fill="#FFFFFF"></path>
                    <path d="M86.2493968,28.1502455 C85.9455016,28.1502455 84.3005177,27.6195182 83.4398,26.4568818 C82.5797194,25.2942455 82.0573,23.3507909 82.9842758,23.4736091 C83.3130177,23.5175182 83.8692032,23.6174273 84.4833645,23.7567909 C85.5307516,24.6559727 86.9897032,26.2494273 86.9960742,28.1502455 L86.2493968,28.1502455 Z" id="Fill-90" fill="#FF7B4D"></path>
                    <path d="M20.2538798,27.2236364 L20.2538798,22.7169091 L21.6484847,22.7169091 C21.9517427,22.7169091 22.1976621,22.9625455 22.1976621,23.2654545 L22.1976621,26.6948182 C22.1976621,26.9983636 21.9517427,27.2433636 21.6484847,27.2433636 L20.2513315,27.2433636 C20.2519685,27.237 20.2538798,27.23 20.2538798,27.2236364" id="Fill-92" fill="#FF7B4D"></path>
                    <path d="M20.2538798,27.2236364 L20.2538798,25.809 L22.1976621,25.809 L22.1976621,26.6948182 C22.1976621,26.9983636 21.9517427,27.2433636 21.6484847,27.2433636 L20.2513315,27.2433636 C20.2519685,27.237 20.2538798,27.23 20.2538798,27.2236364" id="Fill-94" fill="#EC2C8E"></path>
                </g>
            </g>
        </g>
    </g>
</svg>