<?xml version="1.0" encoding="UTF-8"?>
<svg width="400px" height="258px" viewBox="0 0 400 258" version="1.1" xmlns="http://www.w3.org/2000/svg" xmlns:xlink="http://www.w3.org/1999/xlink">
    <!-- Generator: Sketch 47.1 (45422) - http://www.bohemiancoding.com/sketch -->
    <title>Claims_InstantSettlement</title>
    <desc>Created with Sketch.</desc>
    <defs>
        <polygon id="path-1" points="399.931586 6.93296274 399.931586 0.0686158458 5.51724138e-05 0.0686158458 5.51724138e-05 6.93296274"></polygon>
        <polygon id="path-3" points="0.00457931034 1.65738758 1.61285517 1.65738758 1.61285517 0.0471802998 0.00457931034 0.0471802998 0.00457931034 1.65738758"></polygon>
        <polygon id="path-5" points="1.72733793 0.152479657 0.119062069 0.152479657 0.119062069 1.76279743 1.72733793 1.76279743 1.72733793 0.152479657"></polygon>
    </defs>
    <g id="Page-1" stroke="none" stroke-width="1" fill="none" fill-rule="evenodd">
        <g id="claims_Car_web" transform="translate(-135.000000, -1911.000000)">
            <g id="Claims_InstantSettlement" transform="translate(135.000000, 1911.000000)">
                <path d="M337.965848,232.737657 L65.4356414,232.737657 C55.1812966,210.664016 48.9837793,186.317545 47.8262621,160.655108 C51.9128828,80.1198835 118.420469,16.0800848 199.864331,16.0800848 C283.944883,16.0800848 352.105434,84.3307529 352.105434,168.52107 C352.105434,191.464839 347.033434,213.220813 337.965848,232.737657" id="Fill-1" fill="#5E22E0"></path>
                <g id="Group-5" transform="translate(0.000000, 231.329319)">
                    <mask id="mask-2" fill="white">
                        <use xlink:href="#path-1"></use>
                    </mask>
                    <g id="Clip-4"></g>
                    <path d="M399.931641,5.82803769 C399.931641,6.43574647 399.43509,6.93296274 398.828193,6.93296274 L1.10350345,6.93296274 C0.496606897,6.93296274 5.51724138e-05,6.43574647 5.51724138e-05,5.82803769 L5.51724138e-05,1.1735409 C5.51724138e-05,0.56583212 0.496606897,0.0686158458 1.10350345,0.0686158458 L398.828193,0.0686158458 C399.43509,0.0686158458 399.931641,0.56583212 399.931641,1.1735409 L399.931641,5.82803769 Z" id="Fill-3" fill="#30274C" mask="url(#mask-2)"></path>
                </g>
                <polygon id="Fill-6" fill="#FFFFFF" points="121.76971 106.75029 121.185434 105.756962 120.158676 105.237095 121.150124 104.651485 121.669848 103.623352 122.254124 104.61668 123.281434 105.136547 122.289434 105.722157"></polygon>
                <polygon id="Fill-8" fill="#FFFFFF" points="256.699697 63.3981687 256.115421 62.4053936 255.08811 61.8849739 256.08011 61.2999161 256.599834 60.2712308 257.18411 61.2645585 258.210869 61.7849782 257.219421 62.370036"></polygon>
                <polygon id="Fill-10" fill="#FFFFFF" points="113.732028 213.860564 113.1472 212.867237 112.120441 212.34737 113.11189 211.761759 113.632166 210.733627 114.216441 211.726954 115.2432 212.246821 114.251752 212.832432"></polygon>
                <polygon id="Fill-12" fill="#FFFFFF" points="149.659807 144.983514 149.075531 143.990739 148.048772 143.470319 149.040221 142.884709 149.559945 141.856576 150.144221 142.849904 151.171531 143.369771 150.179531 143.955382"></polygon>
                <polygon id="Fill-14" fill="#FFFFFF" points="91.7174621 124.060598 91.1326345 123.067271 90.1058759 122.547403 91.0973241 121.961793 91.6176 120.93366 92.2018759 121.926988 93.2286345 122.446855 92.2371862 123.032466"></polygon>
                <polygon id="Fill-16" fill="#FFFFFF" points="280.241434 105.928612 279.657159 104.935285 278.629848 104.415418 279.621297 103.829807 280.141572 102.801675 280.725848 103.795002 281.752607 104.314869 280.761159 104.90048"></polygon>
                <polygon id="Fill-18" fill="#FFFFFF" points="186.713986 98.231373 186.12971 97.2380454 185.1024 96.7181782 186.093848 96.1325679 186.614124 95.1044351 187.1984 96.0977627 188.225159 96.61763 187.23371 97.2032403"></polygon>
                <polygon id="Fill-20" fill="#FFFFFF" points="98.2966621 144.022616 97.9959724 143.511036 97.466869 143.243092 97.9772138 142.942 98.2453517 142.412188 98.5460414 142.923768 99.0751448 143.191713 98.5642483 143.492805"></polygon>
                <polygon id="Fill-22" fill="#FFFFFF" points="51.4424276 143.591033 51.1417379 143.079452 50.6126345 142.811508 51.1229793 142.509863 51.3911172 141.980604 51.6918069 142.492185 52.2209103 142.759576 51.7100138 143.061221"></polygon>
                <g id="Group-26" transform="translate(171.034483, 256.190133)">
                    <mask id="mask-4" fill="white">
                        <use xlink:href="#path-3"></use>
                    </mask>
                    <g id="Clip-25"></g>
                    <polygon id="Fill-24" fill="#FFFFFF" mask="url(#mask-4)" points="0.834372414 1.65760857 0.533682759 1.14602827 0.00457931034 0.87808394 0.515475862 0.5764394 0.783062069 0.0471802998 1.08430345 0.558208137 1.61285517 0.826152463 1.10195862 1.127797"></polygon>
                </g>
                <polygon id="Fill-27" fill="#FFFFFF" points="118.131807 170.887764 117.831117 170.376184 117.302014 170.108239 117.81291 169.807147 118.080497 169.277336 118.381738 169.788916 118.91029 170.05686 118.399393 170.357952"></polygon>
                <polygon id="Fill-29" fill="#FFFFFF" points="51.2158345 117.316688 50.9151448 116.805108 50.3860414 116.537164 50.8969379 116.235519 51.1645241 115.70626 51.4657655 116.21784 51.9943172 116.485785 51.4834207 116.786877"></polygon>
                <polygon id="Fill-31" fill="#FFFFFF" points="76.657931 179.486512 76.3566897 178.974931 75.8281379 178.706987 76.3384828 178.405895 76.606069 177.876084 76.9073103 178.387664 77.4364138 178.655608 76.9255172 178.9567"></polygon>
                <polygon id="Fill-33" fill="#FFFFFF" points="259.7296 188.961465 259.42891 188.449885 258.899807 188.18194 259.410152 187.880296 259.67829 187.350484 259.978979 187.862065 260.508083 188.130009 259.997186 188.431654"></polygon>
                <g id="Group-37" transform="translate(263.724138, 0.399983)">
                    <mask id="mask-6" fill="white">
                        <use xlink:href="#path-5"></use>
                    </mask>
                    <g id="Clip-36"></g>
                    <polygon id="Fill-35" fill="#FFFFFF" mask="url(#mask-6)" points="0.948855172 1.76279743 0.648165517 1.25121713 0.119062069 0.983272805 0.629958621 0.682180728 0.897544828 0.152369165 1.19878621 0.663949465 1.72733793 0.93189379 1.21644138 1.23298587"></polygon>
                </g>
                <polygon id="Fill-38" fill="#FFFFFF" points="323.579807 96.248143 323.279117 95.7365627 322.750014 95.4686184 323.26091 95.1675263 323.528497 94.6377148 323.829186 95.1492951 324.35829 95.4172394 323.847393 95.7183315"></polygon>
                <polygon id="Fill-40" fill="#FFFFFF" points="224.181352 53.9200111 223.880662 53.4084308 223.351559 53.1404865 223.862455 52.8393944 224.130041 52.3095829 224.430731 52.8211632 224.959834 53.0891075 224.448938 53.390752"></polygon>
                <polygon id="Fill-42" fill="#FFFFFF" points="309.152 155.55041 308.85131 155.03883 308.322207 154.770885 308.833103 154.469241 309.10069 153.939982 309.401931 154.451562 309.930483 154.718954 309.419586 155.020598"></polygon>
                <polygon id="Fill-44" fill="#FFFFFF" points="311.824938 60.7610441 311.523697 60.2494638 310.995145 59.9815195 311.50549 59.6804274 311.773628 59.1506158 312.074317 59.6621961 312.603421 59.9301405 312.092524 60.231785"></polygon>
                <polygon id="Fill-46" fill="#FFFFFF" points="164.983338 66.6563165 164.682097 66.1447362 164.153545 65.8767919 164.66389 65.5751473 164.932028 65.0453358 165.232717 65.5569161 165.761821 65.8248604 165.250924 66.1265049"></polygon>
                <polygon id="Fill-48" fill="#FFFFFF" points="138.498979 67.0862981 138.19829 66.5747178 137.669186 66.3067734 138.180083 66.0051289 138.447669 65.4758698 138.74891 65.9874501 139.277462 66.254842 138.766566 66.5564865"></polygon>
                <polygon id="Fill-50" fill="#FFFFFF" points="109.548855 98.4002608 109.247614 97.8886805 108.719062 97.6207362 109.229407 97.3196441 109.497545 96.7898325 109.798234 97.3014128 110.327338 97.5693572 109.816441 97.8704493"></polygon>
                <polygon id="Fill-52" fill="#FFFFFF" points="129.102952 130.125808 128.802262 129.614228 128.273159 129.346836 128.783503 129.045191 129.051641 128.51538 129.352331 129.02696 129.881434 129.294904 129.370538 129.596549"></polygon>
                <polygon id="Fill-54" fill="#FFFFFF" points="180.617545 204.799958 179.904166 203.438138 178.656166 202.720489 179.855614 201.925496 180.480717 200.520583 181.194097 201.882403 182.442097 202.600052 181.242648 203.395046"></polygon>
                <polygon id="Fill-56" fill="#FFFFFF" points="146.052083 223.234638 145.751393 222.723058 145.22229 222.455113 145.732634 222.154021 146.000772 221.62421 146.301462 222.13579 146.830566 222.403734 146.319669 222.704827"></polygon>
                <polygon id="Fill-58" fill="#FFFFFF" points="154.464497 103.806714 154.165462 103.355352 153.637462 103.120003 154.149462 102.851507 154.418703 102.381361 154.717738 102.832723 155.24629 103.068072 154.73429 103.336569"></polygon>
                <polygon id="Fill-60" fill="#FFFFFF" points="245.810703 90.0933238 245.511669 89.6419619 244.983669 89.4066128 245.495669 89.1381161 245.76491 88.6679704 246.063945 89.1193323 246.592497 89.3546814 246.080497 89.6231782"></polygon>
                <path d="M202.229848,34.9059084 L179.472883,34.9059084 C178.368331,34.9059084 177.723917,34.0009747 178.040607,32.8954972 C178.357297,31.7894672 179.519779,30.8850861 180.624331,30.8850861 L203.381297,30.8850861 C204.485848,30.8850861 205.130262,31.7894672 204.813572,32.8954972 C204.496883,34.0009747 203.3344,34.9059084 202.229848,34.9059084" id="Fill-62" fill="#FFFFFF"></path>
                <path d="M188.821738,50.6629683 L166.064772,50.6629683 C164.960221,50.6629683 164.315807,49.7580347 164.632497,48.6520047 L164.632497,48.6520047 C164.949186,47.5459747 166.111669,46.6415936 167.216221,46.6415936 L189.973186,46.6415936 C191.077738,46.6415936 191.722152,47.5459747 191.405462,48.6520047 C191.088772,49.7580347 189.925738,50.6629683 188.821738,50.6629683" id="Fill-64" fill="#FFFFFF"></path>
                <path d="M174.026207,66.4194758 L151.269241,66.4194758 C150.16469,66.4194758 149.520276,65.5145422 149.836966,64.4090647 C150.153655,63.3030347 151.316138,62.3986535 152.42069,62.3986535 L175.177655,62.3986535 C176.282207,62.3986535 176.926621,63.3030347 176.609931,64.4090647 C176.293241,65.5145422 175.130207,66.4194758 174.026207,66.4194758" id="Fill-66" fill="#FFFFFF"></path>
                <path d="M179.985766,82.1765358 L157.2288,82.1765358 C156.124248,82.1765358 155.479834,81.2716021 155.796524,80.1655722 C156.113214,79.0595422 157.275697,78.155161 158.380248,78.155161 L181.137214,78.155161 C182.241766,78.155161 182.886179,79.0595422 182.56949,80.1655722 C182.2528,81.2716021 181.090317,82.1765358 179.985766,82.1765358" id="Fill-68" fill="#FFFFFF"></path>
                <path d="M193.320662,97.9330433 L170.563697,97.9330433 C169.459145,97.9330433 168.814731,97.0281096 169.131421,95.9226321 L169.131421,95.9220797 C169.44811,94.8166021 170.610593,93.912221 171.715145,93.912221 L194.47211,93.912221 C195.576662,93.912221 196.221076,94.8166021 195.904386,95.9220797 L195.904386,95.9226321 C195.587697,97.0281096 194.425214,97.9330433 193.320662,97.9330433" id="Fill-70" fill="#FFFFFF"></path>
                <path d="M273.10731,38.8367897 L259.346207,38.8367897 C259.792552,35.4087597 259.592276,32.2094493 258.765793,29.4675777 L276.513103,29.4675777 C280.357517,29.4675777 284.608,26.3472694 286.006621,22.4977105 C287.406345,18.6481516 285.424,15.5278433 281.579586,15.5278433 L225.090759,15.5278433 C221.246345,15.5278433 216.995862,18.6481516 215.597241,22.4977105 C214.198069,26.3472694 216.179862,29.4675777 220.024276,29.4675777 L233.329103,29.4675777 C239.830069,29.4675777 244.041379,33.3519418 244.66869,38.8367897 L216.618483,38.8367897 C212.774069,38.8367897 208.523586,41.9570981 207.124414,45.806657 C205.725241,49.6562158 207.707034,52.7765242 211.551448,52.7765242 L239.622069,52.7765242 C235.016828,58.2608197 227.969103,62.1457362 221.451034,62.1457362 L208.146207,62.1457362 C204.301793,62.1457362 200.09269,65.1522373 198.693517,69.0017961 C197.956414,71.0298861 198.17931,72.7983186 199.097379,74.0717448 L221.467586,115.453398 C222.288552,116.974327 223.904,117.733411 225.802483,117.733411 C227.467586,117.733411 229.35669,117.131779 231.127172,115.924648 C234.916966,113.342439 236.740414,108.931025 235.199448,106.077004 L218.793379,75.8810595 C232.411034,74.8556891 246.833655,65.1163272 254.290207,52.7765242 L268.040276,52.7765242 C271.88469,52.7765242 276.135172,49.6562158 277.534345,45.806657 C278.933517,41.9570981 276.951724,38.8367897 273.10731,38.8367897" id="Fill-72" fill="#F4CA19"></path>
                <path d="M283.483641,17.7234398 C282.06571,21.5862578 277.714814,24.6684463 273.857159,24.6684463 L262.068469,24.6684463 C259.559228,24.6684463 256.943503,27.2141936 257.042814,29.5411657 C257.069848,30.1858895 257.071503,30.8433199 257.046676,31.513457 C256.989297,33.0106304 257.990676,34.0376582 259.563641,34.0376582 L259.618262,34.0376582 C259.527779,32.4145233 259.269021,30.8797824 258.843641,29.4676882 L276.443641,29.4676882 C280.247779,29.4676882 284.549021,26.4727889 286.022124,22.6641122 C287.21109,19.5896582 286.252193,16.9533071 283.906814,15.9550073 C283.847228,16.5201764 283.707641,17.1129687 283.483641,17.7234398" id="Fill-74" fill="#EF9224"></path>
                <path d="M220.101628,29.4675777 L233.407007,29.4675777 C237.031834,29.4675777 239.943283,30.6763657 241.92011,32.6956163 C240.803421,27.9311794 236.771421,24.6683358 230.815007,24.6683358 L217.510179,24.6683358 C216.664938,24.6683358 215.909628,24.5175135 215.2608,24.2407298 C214.9408,27.2461259 216.859145,29.4675777 220.101628,29.4675777" id="Fill-76" fill="#EF9224"></path>
                <path d="M275.434593,39.2640642 C275.374455,39.8292334 275.235421,40.4220257 275.010869,41.0324968 C273.59349,44.8953148 269.242593,47.9775032 265.384938,47.9775032 L255.004248,47.9775032 C253.168662,47.9775032 251.110731,49.1354647 249.8688,50.8690921 C242.031007,61.8117173 228.813903,70.1384325 216.279283,71.082591 L218.885628,75.8796231 C232.498869,74.8481756 246.914317,65.1121285 254.367559,52.7767452 L267.971421,52.7767452 C271.775559,52.7767452 276.076248,49.7818458 277.549352,45.9737216 C278.738869,42.8987152 277.779421,40.2629165 275.434593,39.2640642" id="Fill-78" fill="#EF9224"></path>
                <path d="M232.827641,101.568247 C234.102676,104.424478 232.276469,108.62927 228.613572,111.125848 C226.84309,112.332427 224.953986,112.934058 223.288331,112.934058 C221.3904,112.934058 219.7744,112.174975 218.953434,110.654045 L221.545434,115.453287 C222.366952,116.974217 223.981848,117.7333 225.880331,117.7333 C227.545434,117.7333 229.43509,117.131669 231.205021,115.924538 C234.994814,113.342328 236.818262,108.930915 235.276745,106.076893 L232.827641,101.568247 Z" id="Fill-80" fill="#EF9224"></path>
                <path d="M231.948855,52.7352 C234.361545,51.0098595 234.209269,47.9779452 231.727614,47.9779452 L209.037407,47.9779452 C208.192166,47.9779452 207.437407,47.8265704 206.788028,47.5497867 C206.468028,50.5557353 208.386372,52.7766347 211.629407,52.7766347 L231.890924,52.7766347 C231.910234,52.7628231 231.929545,52.7490116 231.948855,52.7352" id="Fill-82" fill="#EF9224"></path>
                <path d="M370.992276,176.822924 C371.253793,176.199746 371.558897,175.5948 371.865655,174.990406 C371.85131,174.918586 371.829793,174.847871 371.820966,174.774946 C371.408276,171.333657 371.820966,167.615584 358.073655,157.843074 C344.32469,148.068907 302.12,144.434256 298.670621,144.434256 C295.222345,144.434256 280.055448,130.448115 271.807172,122.325811 C270.535448,121.073931 269.420966,118.849164 268.080276,117.841472 C260.718621,112.319609 252.723034,110.349528 248.711448,110.349528 L126.215448,110.349528 C121.054621,110.349528 110.032828,112.414633 110.032828,113.549391 C110.032828,114.685254 114.878621,114.582496 113.023724,116.54429 C112.903448,116.671357 112.687724,116.914993 112.390897,117.260282 C110.676138,119.253567 107.64,125.228449 102.936552,131.137036 C99.3188966,135.679382 94.1376552,139.938869 91.3426207,143.799477 C88.7335172,147.40319 86.9718621,150.142299 86.9718621,150.958839 L86.9718621,171.608783 C86.9718621,174.637935 80.3726897,178.353798 80.3726897,180.032179 L80.3726897,197.213211 C80.3726897,200.104248 86.2838621,204.60295 89.7205517,204.60295 L94.4598621,204.60295 C97.3806897,203.119036 102.467586,202.564363 110.321931,202.564363 C123.474483,202.564363 134.794759,209.53423 134.794759,209.53423 C134.794759,209.53423 141.032552,211.189408 151.779034,212.561725 L297.333241,212.561725 C306.921655,211.219241 316.225379,211.192723 324.71531,211.192723 C336.561931,211.192723 347.009379,211.192723 354.662345,212.561725 L358.156966,212.561725 C362.144828,210.546894 356.569103,194.642603 358.834483,190.105781 C361.453517,184.860701 368.261241,179.030564 370.992276,176.822924" id="Fill-84" fill="#EC2C8E"></path>
                <path d="M116.3904,162.489671 C119.934676,162.489671 122.816883,159.603054 122.816883,156.054587 C122.816883,152.506673 119.934676,149.618951 116.3904,149.618951 C112.847779,149.618951 109.964469,152.506673 109.964469,156.054587 C109.964469,159.603054 112.847779,162.489671 116.3904,162.489671 L116.3904,162.489671 Z M116.3904,149.000193 C120.276745,149.000193 123.436469,152.164699 123.436469,156.054587 C123.436469,159.946133 120.276745,163.109534 116.3904,163.109534 C112.506814,163.109534 109.345986,159.946133 109.345986,156.054587 C109.345986,152.164699 112.506814,149.000193 116.3904,149.000193 L116.3904,149.000193 Z M179.247228,145.3672 C176.909021,159.275996 181.266538,193.935285 181.311228,194.284442 C182.289434,201.981349 188.241986,205.440317 189.665434,205.440317 L275.724469,205.440317 C277.872331,205.440317 278.438952,203.22881 278.438952,202.058694 L278.438952,153.57624 C278.438952,150.533277 267.307917,140.693919 263.01771,137.157606 L263.41109,136.679174 C264.049434,137.205671 279.058538,149.620609 279.058538,153.57624 L279.058538,202.058694 C279.058538,203.442613 278.362262,206.058523 275.724469,206.058523 L189.665434,206.058523 C187.742124,206.058523 181.672607,202.037148 180.69771,194.362891 C180.653021,194.01263 176.282814,159.262737 178.637572,145.264994 L179.247228,145.3672 Z" id="Fill-86" fill="#BDBDBD"></path>
                <path d="M297.331421,213.114409 L297.331421,205.155633 C297.331421,189.329239 310.191559,176.4541 325.996248,176.4541 C341.800938,176.4541 354.660524,189.329239 354.660524,205.155633 L354.660524,213.114409 L297.331421,213.114409 Z" id="Fill-88" fill="#242424"></path>
                <path d="M123.122924,176.453879 C138.927614,176.453879 151.785545,189.329571 151.785545,205.155412 L151.785545,213.114188 L133.921269,213.114188 C133.921269,213.114188 122.762097,205.155412 109.608993,205.155412 L94.4580966,205.155412 C94.4580966,189.329571 107.317683,176.453879 123.122924,176.453879" id="Fill-90" fill="#242424"></path>
                <path d="M301.456717,205.155523 C301.456717,218.728422 312.442648,229.728504 325.996303,229.728504 C339.551062,229.728504 350.536441,218.728422 350.536441,205.155523 C350.536441,191.582624 339.551062,180.583647 325.996303,180.583647 C312.442648,180.583647 301.456717,191.582624 301.456717,205.155523" id="Fill-92" fill="#15216D"></path>
                <path d="M312.677352,205.155523 C312.677352,212.522058 318.639834,218.493626 325.996524,218.493626 C333.354317,218.493626 339.316248,212.522058 339.316248,205.155523 C339.316248,197.788988 333.354317,191.818525 325.996524,191.818525 C318.639834,191.818525 312.677352,197.788988 312.677352,205.155523" id="Fill-94" fill="#EC2C8E"></path>
                <path d="M322.903338,205.155523 C322.903338,206.867052 324.287062,208.253733 325.995752,208.253733 C327.704993,208.253733 329.088717,206.867052 329.088717,205.155523 C329.088717,203.445651 327.704993,202.05897 325.995752,202.05897 C324.287062,202.05897 322.903338,203.445651 322.903338,205.155523" id="Fill-96" fill="#EC2C8E"></path>
                <path d="M98.5827862,205.155523 C98.5827862,218.728422 109.567614,229.728504 123.122924,229.728504 C136.676028,229.728504 147.661407,218.728422 147.661407,205.155523 C147.661407,191.582624 136.676028,180.583647 123.122924,180.583647 C109.567614,180.583647 98.5827862,191.582624 98.5827862,205.155523" id="Fill-98" fill="#15216D"></path>
                <path d="M110.117241,205.155523 C110.117241,212.522058 116.079172,218.493626 123.435862,218.493626 C130.794207,218.493626 136.756138,212.522058 136.756138,205.155523 C136.756138,197.788988 130.794207,191.818525 123.435862,191.818525 C116.079172,191.818525 110.117241,197.788988 110.117241,205.155523" id="Fill-100" fill="#EC2C8E"></path>
                <path d="M123.122924,122.156094 C124.054234,120.917473 126.152993,117.784458 132.063614,117.784458 L240.324579,117.784458 C243.210648,117.784458 245.548303,117.783353 248.229131,120.536827 C250.911062,123.290852 267.958786,140.428792 269.090924,141.428197 C270.224717,142.426497 270.155752,147.106407 264.452028,147.106407 L118.316303,147.106407 C114.742234,147.106407 113.332579,145.488797 113.951062,143.114865 C114.570097,140.740381 122.187752,123.394163 123.122924,122.156094" id="Fill-102" fill="#68665C"></path>
                <path d="M112.389352,117.814125 C113.789076,117.954451 115.261628,118.626798 114.122869,120.607928 C112.816386,122.879654 100.719283,141.67001 99.9634207,142.634057 C99.2086621,143.593132 97.0839724,144.350006 91.342731,144.35332 C97.7752828,135.47138 109.355421,121.340494 112.389352,117.814125" id="Fill-104" fill="#68665C"></path>
                <path d="M288.167117,145.867233 C287.341186,145.867233 285.897324,145.17776 283.97291,143.389439 C282.047945,141.600565 263.420634,123.35991 261.772083,121.846163 C260.121324,120.331863 259.228083,118.403769 261.427807,118.403769 L268.070566,118.403769 C269.414566,119.410908 270.739807,120.523015 272.013738,121.777105 C280.261462,129.899961 295.222566,144.986608 298.670841,144.986608 C298.015393,145.514762 297.410152,145.867233 296.964359,145.867233 L288.167117,145.867233 Z" id="Fill-106" fill="#68665C"></path>
                <path d="M237.356193,142.277829 L232.626262,136.949328 L223.166952,139.909975 L225.531641,132.213619 L211.933848,136.949328 L220.210814,126.293431 L203.065986,132.213619 L213.707641,123.333337 L205.430676,125.701743 L209.572469,117.784403 L203.318124,117.784403 L131.472055,117.784403 C125.561986,117.784403 123.463228,120.917418 122.531366,122.156039 C121.596745,123.394107 113.978538,140.740326 113.359503,143.11481 C112.741021,145.488741 114.151228,147.106352 117.724745,147.106352 L243.268469,147.106352 L243.268469,140.501662 L237.356193,142.277829 Z" id="Fill-108" fill="#68665C"></path>
                <polygon id="Fill-110" fill="#292929" points="178.943228 147.106517 168.160331 147.106517 171.440331 117.784569 178.943228 117.784569"></polygon>
                <path d="M342.538317,156.845824 C346.013628,157.306578 355.73611,159.323618 359.654455,161.698102 C363.571697,164.072586 370.274593,175.945558 365.325076,175.945558 L355.838731,175.945558 C354.601214,175.945558 347.900524,173.7788 344.393766,169.028728 C340.888662,164.27976 338.760662,156.344188 342.538317,156.845824" id="Fill-112" fill="#FFFFFF"></path>
                <path d="M355.838676,175.945669 C354.601159,175.945669 347.900469,173.778911 344.39371,169.028286 C340.888607,164.27987 338.760607,156.344299 342.538262,156.845934 C343.876193,157.023275 346.141021,157.43265 348.641986,158.002239 C352.910124,161.673352 358.853848,168.182466 358.880331,175.945669 L355.838676,175.945669 Z" id="Fill-114" fill="#FF7B4D"></path>
                <path d="M86.9718069,172.161522 L86.9718069,153.754023 L92.6523586,153.754023 C93.8882207,153.754023 94.8907034,154.757295 94.8907034,155.994811 L94.8907034,170.002498 C94.8907034,171.240014 93.8882207,172.243286 92.6523586,172.243286 L86.9607724,172.243286 C86.9618759,172.215663 86.9718069,172.187487 86.9718069,172.161522" id="Fill-116" fill="#FF7B4D"></path>
                <path d="M86.9718069,172.161522 L86.9718069,166.384421 L94.8907034,166.384421 L94.8907034,170.002498 C94.8907034,171.240014 93.8882207,172.243286 92.6523586,172.243286 L86.9607724,172.243286 C86.9618759,172.215663 86.9718069,172.187487 86.9718069,172.161522" id="Fill-118" fill="#EC2C8E"></path>
                <path d="M387.289379,204.835592 C390.208,205.667048 391.692138,208.663052 390.588138,211.493318 C390.588138,211.493318 385.585103,224.311001 384.08331,224.089463 C382.581517,223.869031 381.000828,223.455236 381.000828,223.455236 C378.065103,222.686761 376.076138,219.605678 376.581517,216.609673 L378.047448,207.911703 C378.552276,204.915699 381.353379,203.144504 384.272,203.97596 L387.289379,204.835592 Z" id="Fill-120" fill="#363636"></path>
                <path d="M394.149021,203.199806 C394.150124,203.176602 394.153434,203.153399 394.154538,203.130195 C394.161159,202.967771 394.154538,202.804795 394.137986,202.641266 C394.134676,202.610881 394.131366,202.579943 394.127503,202.548452 C394.10709,202.387686 394.076745,202.226919 394.036469,202.065048 C394.028745,202.034662 394.019917,202.003724 394.01109,201.972786 C393.966952,201.808705 393.91509,201.645176 393.853297,201.480542 C393.845021,201.458996 393.835641,201.438003 393.827366,201.415904 C393.767779,201.262872 393.700469,201.108735 393.628193,200.954598 C393.6144,200.92587 393.602262,200.896589 393.587917,200.867861 C393.512883,200.712619 393.430676,200.557377 393.345159,200.401583 C393.319228,200.353519 393.293297,200.306007 393.266262,200.257943 C393.18571,200.115407 393.101848,199.972872 393.014676,199.830337 C392.973297,199.761831 392.930814,199.692773 392.887228,199.624268 C392.8304,199.532559 392.771917,199.441403 392.713434,199.349694 L391.692193,197.762469 C390.82709,196.007296 390.118676,194.571446 390.118676,194.571446 C390.118676,194.571446 387.84171,195.563669 385.059366,196.775771 C385.059366,196.775771 378.610262,199.586148 373.841159,205.254414 C370.577159,209.133253 368.742124,221.462559 368.742124,221.462559 C368.294676,224.467955 370.342124,227.509262 373.292193,228.220833 C373.292193,228.220833 377.791503,229.306975 378.604745,229.502546 C379.685572,229.763861 380.639503,229.895347 381.481434,229.925733 C381.649159,229.932362 381.813572,229.934572 381.973021,229.932362 C382.451366,229.926838 382.890538,229.88706 383.293297,229.819107 C383.561986,229.773806 383.814676,229.715245 384.052469,229.646187 C384.28971,229.577129 384.512055,229.498127 384.720607,229.408628 C385.137159,229.231287 385.496331,229.016932 385.806952,228.781583 C385.962538,228.663908 386.105434,228.540157 386.237297,228.413643 C386.368607,228.286024 386.489434,228.155643 386.599228,228.023052 C387.203917,227.292696 387.493572,226.50599 387.625434,225.956842 C387.64971,225.857951 387.670124,225.756851 387.688331,225.65575 C387.723641,225.454101 387.746262,225.250795 387.755641,225.048594 C387.815779,223.734838 387.31371,222.485167 386.092193,222.190152 C384.588193,221.827737 382.584883,221.344332 379.377159,220.56978 C378.574952,220.376418 378.250538,219.852684 378.257159,219.149399 C378.258814,218.973716 378.281434,218.786431 378.322262,218.590307 C378.444745,218.003039 378.733848,217.336217 379.126124,216.653373 C379.257434,216.425206 379.400331,216.195382 379.552055,215.966662 C379.703779,215.737943 379.865434,215.509776 380.03371,215.284371 C381.043917,213.933048 382.307917,212.687245 383.333572,212.058542 C384.701848,211.221009 386.885572,211.217142 388.768055,211.257472 C389.00309,211.262444 389.23371,211.267968 389.457159,211.27294 C389.680607,211.278465 389.897434,211.282332 390.104883,211.28399 C390.416055,211.286752 390.707366,211.28399 390.970538,211.270178 C391.05771,211.266311 391.142676,211.260234 391.223779,211.253052 C391.548745,211.224876 391.820193,211.175707 392.019917,211.09118 C392.069572,211.070187 392.115366,211.047536 392.156193,211.02157 C392.237297,210.970743 392.300193,210.910525 392.341572,210.839257 C392.362538,210.8039 392.377986,210.765227 392.387917,210.724345 C392.705159,209.40617 392.7824,209.084084 392.7824,209.084084 C393.493572,206.130067 394.103228,203.559459 394.137434,203.371621 L394.149021,203.199806 Z" id="Fill-122" fill="#EC2C8E"></path>
            </g>
        </g>
    </g>
</svg>