<?xml version="1.0" encoding="UTF-8"?>
<svg width="170px" height="170px" viewBox="0 0 170 170" version="1.1" xmlns="http://www.w3.org/2000/svg" xmlns:xlink="http://www.w3.org/1999/xlink">
    <!-- Generator: Sketch 47.1 (45422) - http://www.bohemiancoding.com/sketch -->
    <title>Claims_3Relax</title>
    <desc>Created with Sketch.</desc>
    <defs>
        <polygon id="path-1" points="0 170 175.98809 170 175.98809 0 0 0"></polygon>
        <path d="M40.4758977,7.54231172 C36.2314508,2.95604347 30.1595796,0.0846692607 23.4172632,0.0846692607 C10.5844812,0.0846692607 0.182616541,10.4844358 0.182616541,23.3124903 C0.182616541,32.1727705 5.14391041,39.8739033 12.4408558,43.7909427 L34.3930868,43.7909416 C36.6760739,42.5654143 38.7304963,40.9694672 40.4758977,39.0834943 L40.4758977,7.54231172 L40.4758977,7.54231172 Z" id="path-3"></path>
        <polygon id="path-5" points="0 170 175.98809 170 175.98809 0 0 0"></polygon>
        <path d="M40.7828391,7.54198643 C36.5385012,2.9559077 30.4667754,0.0846692607 23.7242707,0.0846692607 C10.8921504,0.0846692607 0.48962406,10.4844358 0.48962406,23.3124903 C0.48962406,32.1724705 5.45089746,39.8733817 12.7474149,43.7905447 L34.7011265,43.7905447 C36.9836949,42.5651392 39.0377305,40.9694466 40.7828391,39.0838196 L40.7828391,7.54198643 L40.7828391,7.54198643 Z" id="path-7"></path>
    </defs>
    <g id="Page-1" stroke="none" stroke-width="1" fill="none" fill-rule="evenodd">
        <g id="claims_Car_web" transform="translate(-641.000000, -1445.000000)">
            <g id="Claims_3Relax" transform="translate(635.000000, 1445.000000)">
                <g id="Group-67">
                    <path d="M158.123098,102.529183 C158.123098,139.792257 127.907338,170 90.6343759,170 C53.3614135,170 23.1456541,139.792257 23.1456541,102.529183 C23.1456541,65.2661089 53.3614135,35.0583658 90.6343759,35.0583658 C127.907338,35.0583658 158.123098,65.2661089 158.123098,102.529183 Z" id="Fill-1" fill="#E5E5E5"></path>
                    <path d="M143.897534,44.6498054 C143.897534,69.3090661 123.901684,89.2996109 99.2358797,89.2996109 C74.5700752,89.2996109 54.5742256,69.3090661 54.5742256,44.6498054 C54.5742256,19.9905447 74.5700752,0 99.2358797,0 C123.901684,0 143.897534,19.9905447 143.897534,44.6498054" id="Fill-3" fill="#FFF80D"></path>
                    <path d="M132.381245,45.4921323 C132.381245,63.7925992 117.541005,78.6289027 99.2356812,78.6289027 C80.9303579,78.6289027 66.0907789,63.7925992 66.0907789,45.4921323 C66.0907789,27.1916654 80.9303579,12.3560233 99.2356812,12.3560233 C117.541005,12.3560233 132.381245,27.1916654 132.381245,45.4921323" id="Fill-5" fill="#FFF80D"></path>
                    <path d="M123.717083,45.6420233 C123.717083,59.1593385 112.756782,70.1167315 99.2358797,70.1167315 C85.7149774,70.1167315 74.7546767,59.1593385 74.7546767,45.6420233 C74.7546767,32.1247082 85.7149774,21.1673152 99.2358797,21.1673152 C112.756782,21.1673152 123.717083,32.1247082 123.717083,45.6420233" id="Fill-7" fill="#F4CA19"></path>
                    <path d="M94.5112722,113.08056 L98.0054677,113.08056 C98.6823398,113.08056 99.2361444,112.526903 99.2361444,111.850872 L99.2361444,102.57628 C99.2361444,101.900249 98.6823398,101.346591 98.0054677,101.346591 L94.5112722,101.346591 C93.8350617,101.346591 93.2812571,101.900249 93.2812571,102.57628 L93.2812571,111.850872 C93.2812571,112.526903 93.8350617,113.08056 94.5112722,113.08056" id="Fill-9" fill="#FFFFFF"></path>
                    <path d="M95.3557414,112.790502 L97.1613955,112.790502 C97.2103579,112.790502 97.2500571,112.74949 97.2500571,112.701202 C97.2500571,112.652253 97.2103579,112.611903 97.1613955,112.611903 L95.3557414,112.611903 C95.3067789,112.611903 95.266418,112.652253 95.266418,112.701202 C95.266418,112.74949 95.3067789,112.790502 95.3557414,112.790502" id="Fill-11" fill="#DADADA"></path>
                    <path d="M94.5861714,112.836342 L97.8540812,112.836342 C98.4872842,112.836342 99.0053594,112.319066 99.0053594,111.686031 L99.0053594,103.010739 C99.0053594,102.378366 98.4872842,101.860428 97.8540812,101.860428 L94.5861714,101.860428 C93.9536301,101.860428 93.4355549,102.378366 93.4355549,103.010739 L93.4355549,111.686031 C93.4355549,112.319066 93.9536301,112.836342 94.5861714,112.836342" id="Fill-13" fill="#FFFFFF"></path>
                    <mask id="mask-2" fill="white">
                        <use xlink:href="#path-1"></use>
                    </mask>
                    <g id="Clip-16"></g>
                    <polygon id="Fill-15" fill="#5E22E0" mask="url(#mask-2)" points="93.475188 112.022062 98.9960301 112.022062 98.9960301 102.558288 93.475188 102.558288"></polygon>
                    <path d="M97.7322707,106.062669 L94.739609,106.062669 C94.3505564,106.062669 94.0349474,106.378195 94.0349474,106.765821 C94.0349474,107.15477 94.3426165,107.461696 94.7310075,107.461696 L97.7243308,107.461696 C98.1127218,107.461696 98.4362707,107.15477 98.4362707,106.765821 C98.4362707,106.378195 98.1213233,106.062669 97.7322707,106.062669" id="Fill-17" fill="#FFFFFF" mask="url(#mask-2)"></path>
                    <path d="M97.7051429,107.289381 C97.416,107.289381 97.1797895,107.053895 97.1797895,106.764167 C97.1797895,106.475763 97.416,106.239615 97.7051429,106.239615 C97.9942857,106.239615 98.2298346,106.475763 98.2298346,106.764167 C98.2298346,107.053895 97.9942857,107.289381 97.7051429,107.289381" id="Fill-18" fill="#6850A0" mask="url(#mask-2)"></path>
                    <path d="M98.0625023,106.764167 C98.0625023,106.961949 97.902382,107.122027 97.705209,107.122027 C97.5073744,107.122027 97.3472541,106.961949 97.3472541,106.764167 C97.3472541,106.567047 97.5073744,106.406969 97.705209,106.406969 C97.902382,106.406969 98.0625023,106.567047 98.0625023,106.764167" id="Fill-19" fill="#37A977" mask="url(#mask-2)"></path>
                    <path d="M94.7658105,107.120109 C94.5699609,107.120109 94.4105023,106.960693 94.4105023,106.764233 C94.4105023,106.568436 94.5699609,106.409019 94.7658105,106.409019 C94.9623218,106.409019 95.1217805,106.568436 95.1217805,106.764233 C95.1217805,106.960693 94.9623218,107.120109 94.7658105,107.120109 L94.7658105,107.120109 Z M95.2905023,106.764233 C95.2905023,106.475167 95.0549534,106.240342 94.7658105,106.240342 C94.4766677,106.240342 94.2417805,106.475167 94.2417805,106.764233 C94.2417805,107.0533 94.4766677,107.288786 94.7658105,107.288786 C94.9034346,107.288786 95.0278256,107.235868 95.1217805,107.149214 L95.1217805,107.204117 C95.1217805,107.25042 95.1594947,107.288786 95.2058105,107.288786 C95.2521263,107.288786 95.2905023,107.25042 95.2905023,107.204117 L95.2905023,106.78077 L95.2905023,106.77614 L95.2905023,106.764233 Z" id="Fill-20" fill="#6850A0" mask="url(#mask-2)"></path>
                    <path d="M95.9282707,107.289381 C95.6371429,107.289381 95.4002707,107.052572 95.4002707,106.761521 C95.4002707,106.470471 95.6371429,106.233661 95.9282707,106.233661 C96.0586165,106.233661 96.1843308,106.281949 96.2809323,106.368603 C96.316,106.399693 96.3186466,106.453272 96.2875489,106.488331 C96.2557895,106.523389 96.2021955,106.526035 96.1677895,106.494946 C96.1022857,106.435412 96.0169323,106.403 95.9282707,106.403 C95.7304361,106.403 95.5696541,106.563739 95.5696541,106.761521 C95.5696541,106.959304 95.7304361,107.119381 95.9282707,107.119381 C96.0169323,107.119381 96.1022857,107.086969 96.1677895,107.027436 C96.2028571,106.997008 96.2557895,106.999654 96.2875489,107.034051 C96.3186466,107.069109 96.316,107.122689 96.2809323,107.153778 C96.1843308,107.241093 96.0586165,107.289381 95.9282707,107.289381" id="Fill-21" fill="#6850A0" mask="url(#mask-2)"></path>
                    <path d="M97.187597,107.135654 L96.7330406,106.754642 L97.187597,106.380907 C97.2233263,106.35114 97.2286195,106.298222 97.1988451,106.263163 C97.1690707,106.226782 97.1161383,106.222152 97.080409,106.251918 L96.5881383,106.659389 L96.5881383,106.316743 C96.5881383,106.269778 96.5504241,106.232735 96.5041083,106.232735 C96.4571308,106.232735 96.4194165,106.269778 96.4194165,106.316743 L96.4194165,107.200479 C96.4194165,107.246782 96.4571308,107.284486 96.5041083,107.284486 C96.5504241,107.284486 96.5881383,107.246782 96.5881383,107.200479 L96.5881383,106.857171 L97.080409,107.264642 C97.0956271,107.277872 97.114815,107.284486 97.134003,107.284486 C97.1578226,107.284486 97.1816421,107.273903 97.1988451,107.254058 C97.2286195,107.218339 97.2233263,107.16542 97.187597,107.135654" id="Fill-22" fill="#6850A0" mask="url(#mask-2)"></path>
                    <path d="M96.2584361,102.204926 C96.4245113,102.204926 96.5594887,102.070646 96.5594887,101.904615 C96.5594887,101.737922 96.4245113,101.603642 96.2584361,101.603642 C96.0923609,101.603642 95.9580451,101.737922 95.9580451,101.904615 C95.9580451,102.070646 96.0923609,102.204926 96.2584361,102.204926" id="Fill-23" fill="#DADADA" mask="url(#mask-2)"></path>
                    <path d="M112.162021,118.71735 L112.161359,118.716689 C111.566532,116.857934 112.600036,114.851008 114.459284,114.255677 L118.54566,112.947272 C120.404247,112.351942 122.412367,113.38451 123.007856,115.243265 L123.007856,115.243926 C123.603344,117.102681 122.569841,119.109607 120.710592,119.704938 L116.623555,121.014004 C114.76563,121.608673 112.756848,120.576105 112.162021,118.71735" id="Fill-24" fill="#E3754A" mask="url(#mask-2)"></path>
                    <path d="M90.0644932,124.952911 L90.0644932,124.952911 C90.4714105,126.416763 91.836403,127.34151 93.0975158,127.008786 L115.910689,120.9847 C117.172463,120.651315 117.871832,119.180848 117.464914,117.717658 C117.058659,116.253805 115.693005,115.328397 114.431892,115.661121 L91.6193805,121.685868 C90.3569444,122.018591 89.6582376,123.489058 90.0644932,124.952911" id="Fill-25" fill="#E3754A" mask="url(#mask-2)"></path>
                    <path d="M113.778707,122.241113 L113.778045,122.241113 C112.722045,120.599984 113.201083,118.393953 114.841985,117.338233 L118.451308,115.015782 C120.092872,113.959401 122.299489,114.438311 123.35615,116.080101 C124.41215,117.720568 123.933774,119.927261 122.292211,120.983642 L118.682887,123.30477 C117.041985,124.36049 114.834707,123.882241 113.778707,122.241113" id="Fill-26" fill="#FAAB77" mask="url(#mask-2)"></path>
                    <path d="M76.6995429,115.111498 L76.6995429,115.110837 C77.4392722,113.783249 79.1304602,113.303016 80.4590617,114.042549 L97.0659188,123.291342 C98.3945203,124.030875 98.8762045,125.722276 98.1358135,127.049864 L98.1351519,127.049864 C97.3954226,128.378113 95.7048962,128.858346 94.3762947,128.118813 L77.7687759,118.870019 C76.4401744,118.129163 75.9598135,116.439086 76.6995429,115.111498" id="Fill-27" fill="#E3754A" mask="url(#mask-2)"></path>
                    <path d="M94.6301714,124.357315 C95.6815398,122.470778 98.0621714,121.794086 99.949209,122.844514 C101.835585,123.895603 102.513119,126.275603 101.46175,128.161479 C100.410382,130.048016 98.0297504,130.724708 96.1433744,129.67428 C94.2569985,128.623191 93.5794647,126.243191 94.6301714,124.357315" id="Fill-28" fill="#E3754A" mask="url(#mask-2)"></path>
                    <path d="M61.8259549,115.665751 C59.2918195,117.847969 59.0066466,121.669992 61.188782,124.203455 C63.3715789,126.736918 67.1946165,127.022677 69.7287519,124.840459 C72.2628872,122.658241 72.5487218,118.836218 70.3659248,116.302755 C68.1831278,113.769292 64.3600902,113.484195 61.8259549,115.665751" id="Fill-29" fill="#000000" mask="url(#mask-2)"></path>
                    <path d="M61.3006015,106.557455 C57.9030075,109.481852 57.5212331,114.605665 60.446406,118.002358 C63.3722406,121.398389 68.4974135,121.780062 71.8943459,118.855665 C75.2912782,115.930607 75.6737143,110.806794 72.7478797,107.410763 C69.8227068,104.014732 64.6975338,103.632397 61.3006015,106.557455" id="Fill-30" fill="#000000" mask="url(#mask-2)"></path>
                    <path d="M90.0760722,123.611895 C90.9011549,122.031623 92.8497263,121.419755 94.430418,122.244619 C96.0104481,123.068821 96.6231398,125.016875 95.7980571,126.597148 C94.9729744,128.176097 93.024403,128.788626 91.4437113,127.963763 C89.8643429,127.13956 89.2516511,125.191506 90.0760722,123.611895" id="Fill-31" fill="#50B3C6" mask="url(#mask-2)"></path>
                    <path d="M87.4314406,127.218342 C88.8255459,124.545969 92.1232301,123.510755 94.7963128,124.90449 C97.4687338,126.298887 98.5042226,129.595696 97.1094556,132.267409 C95.7153504,134.939782 92.4176662,135.974996 89.7445835,134.580599 C87.0721624,133.186202 86.0366737,129.890054 87.4314406,127.218342" id="Fill-32" fill="#50B3C6" mask="url(#mask-2)"></path>
                    <path d="M88.8180692,132.089669 C89.266009,130.091342 91.3191218,128.518346 93.4059789,128.575233 C95.4921744,128.632121 96.8207759,130.299047 96.3728361,132.296712 C95.9255579,134.2957 93.8717835,135.869358 91.7849263,135.811809 C89.6987308,135.754261 88.3701293,134.087996 88.8180692,132.089669" id="Fill-33" fill="#8ED3DB" mask="url(#mask-2)"></path>
                    <path d="M82.342394,120.00214 L82.342394,120.00214 C83.274003,118.206887 84.9215218,117.457432 86.0033263,118.33786 L92.3982135,123.542374 C93.480018,124.422802 93.6030857,126.612296 92.670815,128.40821 C91.739206,130.204125 90.0923489,130.952918 89.0105444,130.07249 L82.6156571,124.867977 C81.5338526,123.987549 81.410785,121.798716 82.342394,120.00214" id="Fill-34" fill="#465A51" mask="url(#mask-2)"></path>
                    <path d="M66.5492391,110.431405 C63.1523068,113.355802 62.7705323,118.479615 65.6957053,121.875646 C68.6208782,125.272339 73.7460511,125.654012 77.1436451,122.729615 C80.5405774,119.804556 80.9230135,114.680743 77.9971789,111.284712 C75.072006,107.888681 69.9468331,107.506346 66.5492391,110.431405" id="Fill-35" fill="#000000" mask="url(#mask-2)"></path>
                    <path d="M66.405197,121.219856 C63.7122647,123.539 63.4092271,127.60114 65.7289865,130.294019 C68.0480842,132.986899 72.1119639,133.289856 74.8048962,130.970712 C77.4991519,128.651568 77.8021895,124.589428 75.4824301,121.896549 C73.1626707,119.203669 69.098791,118.900712 66.405197,121.219856" id="Fill-36" fill="#000000" mask="url(#mask-2)"></path>
                    <path d="M67.9171429,103.142241 C65.4438797,105.272202 65.1653233,109.00228 67.295188,111.475549 C69.4250526,113.948156 73.1574436,114.226638 75.6307068,112.096677 C78.1039699,109.967377 78.3818647,106.236638 76.2526617,103.76337 C74.1221353,101.290763 70.3897444,101.01228 67.9171429,103.142241" id="Fill-37" fill="#000000" mask="url(#mask-2)"></path>
                    <path d="M62.9424962,105.071113 C59.9504962,107.647572 59.6137143,112.161502 62.1901955,115.152708 C64.768,118.145237 69.2831278,118.481268 72.2751278,115.904809 C75.2677895,113.32835 75.6045714,108.81442 73.0274286,105.823214 C70.4502857,102.830685 65.9351579,102.493992 62.9424962,105.071113" id="Fill-38" fill="#000000" mask="url(#mask-2)"></path>
                    <path d="M71.8935519,113.915148 L71.8942135,113.914486 C72.8939729,112.770128 74.648018,112.651062 75.7933414,113.651218 L80.4785143,117.740479 C81.6231759,118.740634 81.7429353,120.494214 80.7425143,121.639233 C79.7427549,122.783591 77.9880481,122.902658 76.8427248,121.903163 L72.1575519,117.813241 C71.0128902,116.813747 70.8937925,115.059506 71.8935519,113.915148" id="Fill-39" fill="#FAAB77" mask="url(#mask-2)"></path>
                    <path d="M67.4202406,135.180626 C66.9028271,135.626463 66.8439398,136.407008 67.2898947,136.924946 C67.7358496,137.442222 68.5166015,137.501093 69.0346767,137.055257 C69.5527519,136.608759 69.6109774,135.828214 69.1650226,135.310938 C68.7190677,134.793 67.9376541,134.73479 67.4202406,135.180626" id="Fill-40" fill="#000000" mask="url(#mask-2)"></path>
                    <path d="M66.4730165,105.543938 C63.2375278,108.329424 62.873618,113.209813 65.6598436,116.444444 C68.4460692,119.678412 73.3270917,120.042226 76.5625805,117.256739 C79.7980692,114.471253 80.1619789,109.590864 77.376415,106.356895 C74.5901895,103.122265 69.7085053,102.758451 66.4730165,105.543938" id="Fill-41" fill="#FAAB77" mask="url(#mask-2)"></path>
                    <path d="M74.7016782,108.576817 L74.7016782,108.577479 C74.3668812,108.887712 74.3364451,109.361331 74.6341895,109.629891 L75.0073624,109.967245 L75.0516932,110.002965 C74.7982797,109.729113 74.8406256,109.285922 75.1588812,108.990903 L75.1588812,108.990241 C75.4777985,108.695222 75.9614677,108.64958 76.2638436,108.879113 L76.2241444,108.838763 L75.8503098,108.50207 C75.5525654,108.232848 75.0364752,108.266584 74.7016782,108.576817" id="Fill-42" fill="#3F4132" mask="url(#mask-2)"></path>
                    <path d="M66.4730165,105.543938 C63.2375278,108.329424 62.873618,113.209813 65.6598436,116.444444 C68.4460692,119.678412 73.3270917,120.042226 76.5625805,117.256739 C77.2229113,116.688529 77.7628211,116.033004 78.1816481,115.321914 C74.9574075,117.712498 70.3853774,117.242848 67.7248662,114.153743 C65.5063398,111.578607 65.2846857,107.961642 66.9183098,105.188062 C66.766791,105.300514 66.6185805,105.418918 66.4730165,105.543938" id="Fill-43" fill="#E3754A" mask="url(#mask-2)"></path>
                    <path d="M73.9269474,114.510082 C74.8347368,115.047202 76.0045414,114.809732 76.6344361,113.9637 C77.2643308,113.117669 77.1551579,111.929654 76.3803609,111.213934 C76.3175038,111.156385 76.2414135,111.130588 76.1560602,111.137864 C76.0713684,111.145802 76.0012331,111.18549 75.9502857,111.253623 L73.841594,114.086735 C73.7906466,114.155529 73.7734436,114.234245 73.7893233,114.317591 C73.8065263,114.401599 73.8535038,114.467086 73.9269474,114.510082" id="Fill-44" fill="#FFFFFF" mask="url(#mask-2)"></path>
                    <path d="M69.8420271,113.882868 L69.8413654,113.882868 C69.5065684,114.193101 69.476794,114.66672 69.7738767,114.93528 L70.1477113,115.272634 L70.1913805,115.308354 C69.9379669,115.034502 69.9803128,114.591311 70.2985684,114.296292 L70.2992301,114.296292 C70.6174857,114.000611 71.1011549,113.95563 71.4035308,114.184502 L71.3638316,114.144813 L70.989997,113.807459 C70.6922526,113.538237 70.1761624,113.571973 69.8420271,113.882868" id="Fill-45" fill="#3F4132" mask="url(#mask-2)"></path>
                    <path d="M56.6250887,107.744148 C54.0194947,109.987222 53.726382,113.917728 55.9700511,116.52263 C58.2137203,119.126872 62.1452692,119.419907 64.7502015,117.176833 C67.3564571,114.933759 67.6495699,111.003914 65.4059008,108.39835 C63.1615699,105.794109 59.2306827,105.500412 56.6250887,107.744148" id="Fill-46" fill="#000000" mask="url(#mask-2)"></path>
                    <path d="M62.6038617,104.203518 C60.6261774,105.905502 60.4038617,108.88877 62.1069594,110.86593 C63.8100571,112.843751 66.7941173,113.065346 68.7711398,111.3627 C70.7494857,109.660716 70.9711398,106.676786 69.2687038,104.700288 C67.565606,102.723128 64.5815459,102.500872 62.6038617,104.203518" id="Fill-47" fill="#000000" mask="url(#mask-2)"></path>
                    <path d="M62.6038617,114.787175 C60.6261774,116.48916 60.4038617,119.472428 62.1069594,121.449588 C63.8100571,123.427409 66.7941173,123.649004 68.7711398,121.946358 C70.7494857,120.244374 70.9711398,117.260444 69.2687038,115.283946 C67.565606,113.306786 64.5815459,113.084529 62.6038617,114.787175" id="Fill-48" fill="#000000" mask="url(#mask-2)"></path>
                    <path d="M67.8628872,101.000837 C66.4317293,102.233171 66.2702857,104.392237 67.5029474,105.823016 C68.735609,107.254455 70.8952481,107.415195 72.326406,106.18286 C73.7582256,104.950525 73.9190075,102.791459 72.6863459,101.360681 C71.4543459,99.9299027 69.2940451,99.7691634 67.8628872,101.000837" id="Fill-49" fill="#000000" mask="url(#mask-2)"></path>
                    <path d="M56.705215,107.722848 C54.700403,109.448646 54.4747789,112.472265 56.2010346,114.476545 C57.9279519,116.480163 60.9517113,116.705728 62.9558617,114.97993 C64.9613353,113.254132 65.1862977,110.230514 63.4600421,108.226895 C61.7337865,106.222615 58.7093654,105.997712 56.705215,107.722848" id="Fill-50" fill="#323232" mask="url(#mask-2)"></path>
                    <path d="M63.8283188,104.543981 C62.4315669,105.746549 62.2740932,107.853358 63.4776421,109.249739 C64.6798677,110.646782 66.7878977,110.803553 68.1846496,109.601646 C69.5807398,108.398416 69.7382135,106.291607 68.5353263,104.895226 C67.3324391,103.498844 65.2250707,103.341412 63.8283188,104.543981" id="Fill-51" fill="#323232" mask="url(#mask-2)"></path>
                    <path d="M81.8364271,119.153992 L82.0613895,118.432319 C82.5516752,116.858661 84.2428632,115.968311 85.8182617,116.451191 C87.3936602,116.934732 88.2816,118.616872 87.7913143,120.189868 L87.5656902,120.911541 C87.0754045,122.484537 85.3842165,123.37621 83.808818,122.892669 C82.2334195,122.409128 81.3454797,120.726988 81.8364271,119.153992" id="Fill-52" fill="#465A51" mask="url(#mask-2)"></path>
                    <path d="M90.3261774,132.84865 L90.3261774,132.84865 C91.0083429,134.206665 92.6783579,134.759661 94.0360722,134.077016 L118.597997,121.743086 C119.955711,121.061763 120.509516,119.392191 119.82735,118.034175 L119.826689,118.034175 C119.144523,116.67616 117.47517,116.123825 116.116794,116.805148 L91.5548692,129.139739 C90.1971549,129.821724 89.644012,131.490634 90.3261774,132.84865" id="Fill-53" fill="#FAAB77" mask="url(#mask-2)"></path>
                    <path d="M68.3836752,130.79251 C67.4487579,131.597529 67.3435549,133.00714 68.148788,133.941148 C68.9533594,134.875817 70.3633444,134.980992 71.2982617,134.175973 C72.2325173,133.370953 72.338382,131.962004 71.5331489,131.026673 C70.7285774,130.092665 69.3179308,129.98749 68.3836752,130.79251" id="Fill-54" fill="#000000" mask="url(#mask-2)"></path>
                    <path d="M61.7290226,125.091821 C61.211609,125.537658 61.1533835,126.318202 61.5993383,126.83614 C62.0452932,127.354078 62.8253835,127.411626 63.3434586,126.96579 C63.8615338,126.519953 63.9197594,125.739409 63.4738045,125.221471 C63.0278496,124.704195 62.2464361,124.645984 61.7290226,125.091821" id="Fill-55" fill="#000000" mask="url(#mask-2)"></path>
                    <path d="M67.8628872,102.29793 C66.9140752,103.114856 66.8075489,104.545634 67.6246917,105.494195 C68.4411729,106.442755 69.8723308,106.549253 70.8211429,105.731665 C71.7692932,104.915401 71.8758195,103.484623 71.0593383,102.536724 C70.2428571,101.588163 68.8116992,101.481665 67.8628872,102.29793" id="Fill-56" fill="#323232" mask="url(#mask-2)"></path>
                    <path d="M103.349251,124.595051 C103.093853,124.097619 103.626484,123.335595 104.537582,122.892405 C105.44868,122.449214 106.394183,122.492872 106.648259,122.990304 C106.903657,123.487735 106.371026,124.25042 105.459928,124.692949 C104.54883,125.13614 103.603988,125.092482 103.349251,124.595051" id="Fill-57" fill="#FBBC8F" mask="url(#mask-2)"></path>
                    <path d="M76.5315489,124.021416 L76.5308872,124.020755 C75.9664962,122.795035 76.5090526,121.33449 77.7370827,120.774879 L95.5957895,112.633401 C96.8251429,112.07379 98.2920301,112.618187 98.8570827,113.843907 C99.4221353,115.070288 98.8789173,116.531494 97.6508872,117.091105 L79.7915188,125.231922 C78.5628271,125.792195 77.0966015,125.247798 76.5315489,124.021416" id="Fill-58" fill="#FBBC8F" mask="url(#mask-2)"></path>
                    <path d="M94.1125594,115.159918 C93.2762286,113.334237 94.0781534,111.176494 95.9043188,110.339724 C97.7304842,109.503615 99.8881383,110.305327 100.725131,112.131008 C101.562123,113.956689 100.760198,116.114432 98.9340331,116.950541 C97.1078677,117.787311 94.9502135,116.985599 94.1125594,115.159918" id="Fill-59" fill="#FBBC8F" mask="url(#mask-2)"></path>
                    <path d="M172.45982,144.548553 L9.70745865,144.548553 C7.75954887,144.548553 6.1795188,146.128163 6.1795188,148.075556 C6.1795188,150.023611 7.75954887,151.60256 9.70745865,151.60256 L172.45982,151.60256 C174.408391,151.60256 175.987759,150.023611 175.987759,148.075556 C175.987759,146.128163 174.408391,144.548553 172.45982,144.548553" id="Fill-60" fill="#37A977" mask="url(#mask-2)"></path>
                    <polygon id="Fill-61" fill="#AD6627" mask="url(#mask-2)" points="39.0806015 144.646848 46.5281805 144.646848 46.5281805 74.1080934 39.0806015 74.1080934"></polygon>
                    <path d="M42.8046556,144.646782 L44.5897985,144.646782" id="Fill-62" fill="#D3854A" mask="url(#mask-2)"></path>
                    <path d="M44.5899308,74.1082257 L42.804788,74.1082257" id="Fill-63" fill="#D3854A" mask="url(#mask-2)"></path>
                    <polygon id="Fill-64" fill="#9B541F" mask="url(#mask-2)" points="39.0812632 144.646848 40.4528722 144.646848 40.4528722 74.1080934 39.0812632 74.1080934"></polygon>
                    <polygon id="Fill-65" fill="#9B541F" mask="url(#mask-2)" points="39.0809323 110.683957 34.1158797 98.40493 32.286406 98.40493 39.0809323 114.86384"></polygon>
                    <path d="M67.8247759,68.2931673 C67.8247759,81.1225447 57.421588,91.5216498 44.5901293,91.5216498 C31.7573474,91.5216498 21.3554827,81.1225447 21.3554827,68.2931673 C21.3554827,55.4644514 31.7573474,45.0653463 44.5901293,45.0653463 C57.421588,45.0653463 67.8247759,55.4644514 67.8247759,68.2931673" id="Fill-66" fill="#12BC00" mask="url(#mask-2)"></path>
                </g>
                <g id="Group-70" transform="translate(21.172932, 44.980545)">
                    <mask id="mask-4" fill="white">
                        <use xlink:href="#path-3"></use>
                    </mask>
                    <g id="Clip-69"></g>
                    <path d="M23.6890707,33.966 L23.6890707,33.966 C23.6890707,32.2666615 22.3108451,30.889463 20.6117173,30.889463 L10.7835068,30.889463 C8.63974737,30.889463 6.90158195,29.1517588 6.90158195,27.0079066 C6.90158195,24.864716 8.63974737,23.1270117 10.7835068,23.1270117 L12.5196872,23.1270117 C13.9998075,23.1270117 15.2007098,21.927751 15.2007098,20.4473619 L15.2007098,19.3989183 C15.2007098,18.0977899 16.2553865,17.043393 17.5555368,17.043393 L35.9647398,17.043393 C38.4558677,17.043393 40.4758977,15.0238988 40.4758977,12.5334319 C40.4758977,10.0423035 38.4558677,8.02280934 35.9647398,8.02280934 L20.2841985,8.02280934 C17.4761383,8.02280934 15.2007098,5.74732296 15.2007098,2.94066926 L15.2007098,-6.65341634 C10.3368902,-5.44820233 6.73153684,-1.05730739 6.73153684,4.17697276 L5.05755188,4.17697276 C-2.03141053,4.17697276 -7.7792,9.9219144 -7.7792,17.0089961 L-12.8011549,17.0089961 C-17.4254556,17.0089961 -21.1730647,20.7562724 -21.1730647,25.3786848 L-21.1730647,31.2367393 C-21.1730647,35.3967782 -17.7999519,38.7696576 -13.638809,38.7696576 L-7.7792,38.7696576 C-7.7792,41.5425759 -5.52957594,43.7909416 -2.7559218,43.7909416 L2.49562707,43.7909416 L2.49562707,42.7762335 C2.49562707,39.6097354 5.06350677,37.042537 8.23084511,37.042537 L20.6117173,37.042537 C22.3108451,37.042537 23.6890707,35.664677 23.6890707,33.966" id="Fill-68" fill="#04A558" mask="url(#mask-4)"></path>
                </g>
                <g id="Group-88">
                    <path d="M35.6834707,97.3316809 C35.6834707,99.0852607 34.2622376,100.506778 32.5081925,100.506778 C30.754809,100.506778 29.3322526,99.0852607 29.3322526,97.3316809 C29.3322526,95.5787626 30.754809,94.1572451 32.5081925,94.1572451 C34.2622376,94.1572451 35.6834707,95.5787626 35.6834707,97.3316809 Z" id="Fill-71" fill="#12BC00"></path>
                    <path d="M33.4626947,92.2833424 C33.4626947,95.3010078 31.0158977,97.7478171 27.9967699,97.7478171 C24.9783038,97.7478171 22.5315068,95.3010078 22.5315068,92.2833424 C22.5315068,89.265677 24.9783038,86.8188677 27.9967699,86.8188677 C31.0158977,86.8188677 33.4626947,89.265677 33.4626947,92.2833424" id="Fill-73" fill="#12BC00"></path>
                    <mask id="mask-6" fill="white">
                        <use xlink:href="#path-5"></use>
                    </mask>
                    <g id="Clip-76"></g>
                    <polygon id="Fill-75" fill="#AD6627" mask="url(#mask-6)" points="134.52818 144.856537 141.975759 144.856537 141.975759 74.3184436 134.52818 74.3184436"></polygon>
                    <polygon id="Fill-77" fill="#9B541F" mask="url(#mask-6)" points="134.528842 144.856537 135.900451 144.856537 135.900451 74.3184436 134.528842 74.3184436"></polygon>
                    <path d="M135.041426,108.300319 L141.681786,108.300319 C142.385786,108.300319 142.956132,107.730125 142.956132,107.026311 C142.956132,106.32316 142.385786,105.752304 141.681786,105.752304 L135.041426,105.752304 C134.338087,105.752304 133.76708,106.32316 133.76708,107.026311 C133.76708,107.730125 134.338087,108.300319 135.041426,108.300319" id="Fill-78" fill="#5E22E0" mask="url(#mask-6)"></path>
                    <path d="M140.037444,107.026444 C140.037444,107.026444 138.252301,117.739089 144.52412,122.719362 L142.956,123.974848 C142.956,123.974848 137.468241,119.662008 138.362135,107.026444 L140.037444,107.026444 Z" id="Fill-79" fill="#5E22E0" mask="url(#mask-6)"></path>
                    <path d="M140.037444,107.026444 C140.037444,107.026444 139.232211,114.374148 142.956,117.90049 L143.74006,115.501307 C143.74006,115.501307 140.811579,114.17835 141.393835,107.026444 L140.037444,107.026444 Z" id="Fill-80" fill="#5E22E0" mask="url(#mask-6)"></path>
                    <path d="M46.0902977,108.936595 L39.4499368,108.936595 C38.7459368,108.936595 38.175591,108.367062 38.175591,107.663249 C38.175591,106.960097 38.7459368,106.389241 39.4499368,106.389241 L46.0902977,106.389241 C46.7936361,106.389241 47.3646436,106.960097 47.3646436,107.663249 C47.3646436,108.367062 46.7936361,108.936595 46.0902977,108.936595" id="Fill-81" fill="#5E22E0" mask="url(#mask-6)"></path>
                    <path d="M41.0942797,107.663381 C41.0942797,107.663381 42.8794226,118.376027 36.6082647,123.355638 L38.1757233,124.611786 C38.1757233,124.611786 43.6641444,120.298284 42.7702496,107.663381 L41.0942797,107.663381 Z" id="Fill-82" fill="#5E22E0" mask="url(#mask-6)"></path>
                    <path d="M41.0942797,107.663381 C41.0942797,107.663381 41.9001744,115.010424 38.1757233,118.537428 L37.3916632,116.138245 C37.3916632,116.138245 40.320806,114.815288 39.7378887,107.663381 L41.0942797,107.663381 Z" id="Fill-83" fill="#5E22E0" mask="url(#mask-6)"></path>
                    <path d="M90.2311639,136.088241 C68.1272842,136.088241 52.0411489,118.258086 52.0411489,116.102327 L52.0411489,112.218786 C49.7200662,109.832171 52.0411489,113.100537 55.1773895,114.570342 C55.1773895,114.570342 73.558803,124.759097 90.9662617,124.759097 C107.522171,124.759097 129.470562,110.651743 129.470562,110.651743 C131.626232,110.651743 130.646322,112.022988 130.646322,114.178086 L129.470562,116.102327 C129.470562,118.258086 112.335044,136.088241 90.2311639,136.088241" id="Fill-84" fill="#5E22E0" mask="url(#mask-6)"></path>
                    <path d="M58.0434105,123.065381 L44.7395308,108.980518 C44.148012,108.389156 44.148012,107.423397 44.7395308,106.832696 C45.3297263,106.241996 46.296403,106.241996 46.8872602,106.832696 L60.1918015,120.91756 C60.7826586,121.508261 60.7826586,122.474019 60.1918015,123.065381 C59.6009444,123.656082 58.6349293,123.656082 58.0434105,123.065381" id="Fill-85" fill="#5E22E0" mask="url(#mask-6)"></path>
                    <path d="M122.882869,122.428444 L136.187411,108.34358 C136.778268,107.752879 136.778268,106.786459 136.187411,106.195759 C135.596553,105.605058 134.629877,105.605058 134.03902,106.195759 L120.734478,120.280623 C120.143621,120.871323 120.143621,121.837743 120.734478,122.428444 C121.325335,123.019144 122.292012,123.019144 122.882869,122.428444" id="Fill-86" fill="#5E22E0" mask="url(#mask-6)"></path>
                    <path d="M161.424884,68.2931673 C161.424884,81.1225447 151.022358,91.5216498 138.190238,91.5216498 C125.358117,91.5216498 114.956253,81.1225447 114.956253,68.2931673 C114.956253,55.4644514 125.358117,45.0653463 138.190238,45.0653463 C151.022358,45.0653463 161.424884,55.4644514 161.424884,68.2931673" id="Fill-87" fill="#12BC00" mask="url(#mask-6)"></path>
                </g>
                <g id="Group-91" transform="translate(114.466165, 44.980545)">
                    <mask id="mask-8" fill="white">
                        <use xlink:href="#path-7"></use>
                    </mask>
                    <g id="Clip-90"></g>
                    <path d="M23.8835308,33.9001167 L23.8835308,33.9001167 C23.8835308,32.1895331 22.4967038,30.8024125 20.7850045,30.8024125 L10.8919519,30.8024125 C8.73429774,30.8024125 6.98422256,29.053463 6.98422256,26.8957198 C6.98422256,24.7379767 8.73429774,22.9890272 10.8919519,22.9890272 L12.6400421,22.9890272 C14.1307489,22.9890272 15.3382677,21.7811673 15.3382677,20.2915175 L15.3382677,19.2351362 C15.3382677,17.92607 16.4002226,16.8643969 17.7102977,16.8643969 L36.2419068,16.8643969 C38.7495759,16.8643969 40.7828391,14.8316732 40.7828391,12.3240078 C40.7828391,9.81634241 38.7495759,7.78361868 36.2419068,7.78361868 L20.4561624,7.78361868 C17.6295759,7.78361868 15.3382677,5.49291829 15.3382677,2.66708171 L15.3382677,-6.99050584 C10.4433504,-5.77801556 6.81285414,-1.35801556 6.81285414,3.91132296 L5.12762105,3.91132296 C-2.00898045,3.91132296 -7.79448421,9.69529183 -7.79448421,16.83 L-12.8508451,16.83 C-17.505582,16.83 -21.2783338,20.601751 -21.2783338,25.2552529 L-21.2783338,31.1529961 C-21.2783338,35.3408171 -17.8827248,38.7361868 -13.6937925,38.7361868 L-7.79448421,38.7361868 C-7.79448421,41.526965 -5.53030376,43.7905447 -2.73746165,43.7905447 L2.54849323,43.7905447 L2.54849323,42.7698833 C2.54849323,39.5822179 5.13291429,36.997821 8.32208722,36.997821 L20.7850045,36.997821 C22.4967038,36.997821 23.8835308,35.6107004 23.8835308,33.9001167" id="Fill-89" fill="#04A558" mask="url(#mask-8)"></path>
                </g>
                <g id="Group-110" transform="translate(54.255639, 105.836576)">
                    <path d="M6.20883008,12.4550467 C4.59174737,13.8467977 4.40913083,16.2863307 5.80257444,17.902323 C7.19469474,19.5196381 9.63421353,19.7008833 11.2512962,18.3091323 C12.8677173,16.9167198 13.0503338,14.4778482 11.6575519,12.8611946 C10.2654316,11.2445409 7.82525113,11.0632957 6.20883008,12.4550467" id="Fill-92" fill="#000000"></path>
                    <path d="M12.1495579,15.3832802 C9.45662556,17.7024241 9.15358797,21.7645642 11.4733474,24.4574436 C13.7924451,27.150323 17.8563248,27.4532802 20.5492571,25.1341362 C23.2435128,22.8149922 23.5465504,18.7528521 21.226791,16.0599728 C18.9070316,13.3670934 14.8431519,13.0641362 12.1495579,15.3832802" id="Fill-94" fill="#000000"></path>
                    <path d="M13.1646015,29.3440506 C12.647188,29.7898872 12.5883008,30.5704319 13.0342556,31.0883696 C13.4802105,31.6056459 14.2609624,31.6645175 14.7790376,31.2186809 C15.2971128,30.7721829 15.3553383,29.9916381 14.9093835,29.4743619 C14.4634286,28.9564241 13.682015,28.898214 13.1646015,29.3440506" id="Fill-96" fill="#000000"></path>
                    <path d="M5.22475188,12.145607 C4.70733835,12.5914436 4.64845113,13.3719883 5.09440602,13.8899261 C5.5403609,14.4072023 6.32111278,14.4660739 6.83918797,14.0202374 C7.35726316,13.5737393 7.41548872,12.7931946 6.96953383,12.2759183 C6.52357895,11.7579805 5.74216541,11.6997704 5.22475188,12.145607" id="Fill-98" fill="#000000"></path>
                    <path d="M2.36944962,1.90757198 C-0.236144361,4.15064591 -0.529257143,8.08115175 1.71441203,10.6860545 C3.9580812,13.2902957 7.88963008,13.5833307 10.4945624,11.3402568 C13.100818,9.09718288 13.3939308,5.16733852 11.1502617,2.56177432 C8.90593083,-0.0424669261 4.97504361,-0.336163424 2.36944962,1.90757198" id="Fill-100" fill="#000000"></path>
                    <path d="M2.44957594,1.88627237 C0.44476391,3.61207004 0.21913985,6.63568872 1.94539549,8.63996887 C3.67231278,10.6435875 6.69607218,10.8691518 8.70022256,9.14335409 C10.7056962,7.41755642 10.9306586,4.39393774 9.20440301,2.39031907 C7.47814737,0.386038911 4.45372632,0.161136187 2.44957594,1.88627237" id="Fill-102" fill="#323232"></path>
                    <path d="M14.1280361,24.9559339 C13.1931188,25.7609533 13.0879158,27.1705642 13.8931489,28.104572 C14.6977203,29.0392412 16.1077053,29.1444163 17.0426226,28.3393969 C17.9768782,27.5343774 18.0827429,26.125428 17.2775098,25.1900973 C16.4729383,24.2560895 15.0622917,24.1509144 14.1280361,24.9559339" id="Fill-104" fill="#000000"></path>
                    <path d="M12.1049624,6.68715175 C11.5875489,7.13298833 11.5293233,7.91353307 11.9752782,8.43147082 C12.4212331,8.94940856 13.2013233,9.0069572 13.7193985,8.56112062 C14.2374737,8.11528405 14.2956992,7.3347393 13.8497444,6.81680156 C13.4037895,6.29952529 12.6223759,6.24131518 12.1049624,6.68715175" id="Fill-106" fill="#000000"></path>
                    <path d="M11.7521684,12.8930117 C11.0084692,13.533323 10.9251008,14.6551907 11.565582,15.3986926 C12.2060632,16.1421946 13.3282286,16.2255409 14.0719278,15.5852296 C14.8156271,14.9455798 14.8989955,13.8230506 14.2585143,13.0795486 C13.6180331,12.3360467 12.4965293,12.2520389 11.7521684,12.8930117" id="Fill-108" fill="#000000"></path>
                </g>
            </g>
        </g>
    </g>
</svg>