<?xml version="1.0" encoding="UTF-8"?>
<svg width="63px" height="47px" viewBox="0 0 63 47" version="1.1" xmlns="http://www.w3.org/2000/svg" xmlns:xlink="http://www.w3.org/1999/xlink">
    <!-- Generator: Sketch 47.1 (45422) - http://www.bohemiancoding.com/sketch -->
    <title>coverage_non_accidental_damage</title>
    <desc>Created with Sketch.</desc>
    <defs></defs>
    <g id="Page-1" stroke="none" stroke-width="1" fill="none" fill-rule="evenodd">
        <g id="new_quote_screen_17jan-copy" transform="translate(-612.000000, -1625.000000)" fill-rule="nonzero">
            <g id="coverage_non_accidental_damage" transform="translate(612.000000, 1625.000000)">
                <g id="Group">
                    <g transform="translate(4.846154, 35.941176)" fill="#000000">
                        <ellipse id="Oval" cx="5.46923077" cy="5.80588235" rx="1.10769231" ry="1.10588235"></ellipse>
                        <path d="M5.46923077,0.414705882 C4.98461538,0.414705882 4.56923077,0.483823529 4.15384615,0.622058824 C1.86923077,1.24411765 0.138461538,3.31764706 0.138461538,5.73676471 C0.138461538,8.225 1.86923077,10.3676471 4.15384615,10.8514706 C4.56923077,10.9897059 5.05384615,11.0588235 5.46923077,11.0588235 C8.37692308,11.0588235 10.8,8.63970588 10.8,5.73676471 C10.8,2.83382353 8.37692308,0.414705882 5.46923077,0.414705882 Z M2.21538462,5.80588235 C2.21538462,4.00882353 3.66923077,2.55735294 5.46923077,2.55735294 C7.26923077,2.55735294 8.72307692,4.00882353 8.72307692,5.80588235 C8.72307692,7.60294118 7.26923077,9.05441176 5.46923077,9.05441176 C3.66923077,8.98529412 2.21538462,7.53382353 2.21538462,5.80588235 Z" id="Shape"></path>
                    </g>
                    <g transform="translate(44.307692, 35.941176)" fill="#000000">
                        <ellipse id="Oval" cx="5.67692308" cy="5.80588235" rx="1.10769231" ry="1.10588235"></ellipse>
                        <path d="M5.67692308,0.414705882 C5.19230769,0.414705882 4.77692308,0.483823529 4.36153846,0.622058824 C2.07692308,1.24411765 0.346153846,3.31764706 0.346153846,5.73676471 C0.346153846,8.225 2.07692308,10.3676471 4.36153846,10.8514706 C4.77692308,10.9897059 5.26153846,11.0588235 5.67692308,11.0588235 C8.58461538,11.0588235 11.0076923,8.63970588 11.0076923,5.73676471 C11.0076923,2.83382353 8.58461538,0.414705882 5.67692308,0.414705882 Z M2.42307692,5.80588235 C2.42307692,4.00882353 3.87692308,2.55735294 5.67692308,2.55735294 C7.47692308,2.55735294 8.93076923,4.00882353 8.93076923,5.80588235 C8.93076923,7.60294118 7.47692308,9.05441176 5.67692308,9.05441176 C3.87692308,8.98529412 2.42307692,7.53382353 2.42307692,5.80588235 Z" id="Shape"></path>
                    </g>
                    <ellipse id="Oval" fill="#A2A2A2" cx="10.3153846" cy="41.7470588" rx="1.10769231" ry="1.10588235"></ellipse>
                    <path d="M10.3153846,36.3558824 C9.83076923,36.3558824 9.41538462,36.425 9,36.5632353 C6.71538462,37.1852941 4.98461538,39.2588235 4.98461538,41.6779412 C4.98461538,44.1661765 6.71538462,46.3088235 9,46.7926471 C9.41538462,46.9308824 9.9,47 10.3153846,47 C13.2230769,47 15.6461538,44.5808824 15.6461538,41.6779412 C15.6461538,38.775 13.2230769,36.3558824 10.3153846,36.3558824 Z M7.06153846,41.7470588 C7.06153846,39.95 8.51538462,38.4985294 10.3153846,38.4985294 C12.1153846,38.4985294 13.5692308,39.95 13.5692308,41.7470588 C13.5692308,43.5441176 12.1153846,44.9955882 10.3153846,44.9955882 C8.51538462,44.9264706 7.06153846,43.475 7.06153846,41.7470588 Z" id="Shape" fill="#A2A2A2"></path>
                    <ellipse id="Oval" fill="#A2A2A2" cx="49.9846154" cy="41.7470588" rx="1.10769231" ry="1.10588235"></ellipse>
                    <path d="M49.9846154,36.3558824 C49.5,36.3558824 49.0846154,36.425 48.6692308,36.5632353 C46.3846154,37.1852941 44.6538462,39.2588235 44.6538462,41.6779412 C44.6538462,44.1661765 46.3846154,46.3088235 48.6692308,46.7926471 C49.0846154,46.9308824 49.5692308,47 49.9846154,47 C52.8923077,47 55.3153846,44.5808824 55.3153846,41.6779412 C55.3153846,38.775 52.8923077,36.3558824 49.9846154,36.3558824 Z M46.7307692,41.7470588 C46.7307692,39.95 48.1846154,38.4985294 49.9846154,38.4985294 C51.7846154,38.4985294 53.2384615,39.95 53.2384615,41.7470588 C53.2384615,43.5441176 51.7846154,44.9955882 49.9846154,44.9955882 C48.1846154,44.9264706 46.7307692,43.475 46.7307692,41.7470588 Z" id="Shape" fill="#A2A2A2"></path>
                    <path d="M61.3384615,36.9088235 C61.3384615,36.9088235 61.4076923,34.3514706 61.4076923,33.8676471 C61.8230769,33.7985294 62.1692308,33.7294118 62.1692308,33.3147059 L62.1692308,32.1397059 C62.1692308,31.5867647 62.0307692,31.1029412 61.2692308,30.9647059 L60.4384615,30.8955882 C60.4384615,30.8955882 60.4384615,30.8955882 60.4384615,30.8955882 C59.9538462,30.4117647 59.1923077,29.9970588 58.0846154,29.5823529 C55.1769231,28.6147059 50.0538462,27.025 50.0538462,27.025 L44.7230769,21.0117647 C44.7230769,21.0117647 41.4,17.5558824 35.6538462,17.5558824 C35.6538462,17.5558824 25.3384615,16.6573529 23.2615385,19.5602941 L18.3461538,25.9882353 C12.4615385,19.0764706 8.37692308,15.3441176 5.53846154,14.1691176 L5.26153846,14.0308824 L4.98461538,14.1 C3.32307692,14.5838235 1.93846154,15.6205882 0.9,17.0720588 C0.623076923,17.4867647 0.761538462,17.9705882 1.10769231,18.2470588 C1.45384615,18.5235294 2.00769231,18.3852941 2.28461538,18.0397059 C3.04615385,16.9338235 3.94615385,16.1735294 5.19230769,15.7588235 C7.68461538,16.9338235 11.5615385,20.4588235 16.8230769,26.6794118 C9.27692308,27.2323529 3.53076923,28.1308824 0.9,29.7205882 C0.346153846,31.1720588 0.346153846,32.6926471 0.9,34.2132353 L1.31538462,34.4897059 C1.31538462,34.4897059 1.52307692,35.5264706 1.86923077,36.7705882 L1.73076923,36.7705882 C1.17692308,36.7705882 0.692307692,37.2544118 0.692307692,37.8073529 C0.692307692,38.3602941 1.17692308,38.8441176 1.73076923,38.8441176 L2.7,38.8441176 C2.97692308,39.3970588 3.25384615,39.8808824 3.6,40.2264706 L4.29230769,40.2264706 C4.36153846,39.8117647 4.5,39.3279412 4.70769231,38.8441176 C7.06153846,32.6926471 15.5769231,35.25 16.1307692,38.8441176 C16.4769231,40.9867647 17.9307692,41.6779412 19.8,41.6779412 L40.9846154,41.6779412 C43.6153846,41.6779412 43.6846154,40.5720588 43.8923077,39.8808824 C44.2384615,38.5676471 44.5846154,35.3882353 48.4615385,35.25 L51.7153846,35.1808824 C54,35.1808824 55.3153846,36.7014706 55.8692308,38.9132353 C56.3538462,41.125 56.6307692,41.2632353 57.4615385,41.2632353 C57.4615385,41.2632353 60.0923077,41.1941176 61.1307692,39.3279412 L61.4076923,38.8441176 C61.9615385,38.8441176 62.4461538,38.3602941 62.4461538,37.8073529 C62.3769231,37.3926471 61.8923077,36.9088235 61.3384615,36.9088235 Z M36.7615385,27.0941176 L22.4307692,27.0941176 C21.4615385,27.0941176 20.9076923,25.9882353 21.4615385,25.2279412 L24.3,21.2191176 C24.7846154,20.5279412 25.5461538,20.1132353 26.3769231,20.1132353 L34.8230769,19.9058824 C36.4153846,19.9058824 37.7307692,21.0808824 37.8,22.6705882 L37.9384615,25.85 C38.0076923,26.5411765 37.4538462,27.0941176 36.7615385,27.0941176 Z" id="Shape" fill="#A2A2A2"></path>
                    <path d="M11.7,5.32205882 C11.9769231,3.38676471 11.9769231,0.483823529 9.9,0.483823529 C9,0.552941176 9,1.24411765 9,1.31323529 C9,1.45147059 9.41538462,2.90294118 9.48461538,3.17941176 C9.62307692,4.07794118 9.34615385,4.7 9.27692308,4.76911765 C8.72307692,6.01323529 7.96153846,6.77352941 7.54615385,8.43235294 C6.43846154,12.7176471 10.8,13.4779412 10.1769231,12.0955882 C8.65384615,8.70882353 11.4230769,7.25735294 11.7,5.32205882 Z" id="Shape" fill="#A2A2A2"></path>
                    <path d="M5.53846154,5.52941176 C5.81538462,3.87058824 5.81538462,1.38235294 3.94615385,1.38235294 C3.18461538,1.45147059 3.18461538,2.07352941 3.18461538,2.07352941 C3.18461538,2.21176471 3.53076923,3.45588235 3.6,3.66323529 C3.73846154,4.42352941 3.46153846,4.97647059 3.46153846,5.04558824 C2.97692308,6.15147059 2.35384615,6.77352941 2.00769231,8.225 C1.10769231,11.8882353 4.77692308,12.5102941 4.29230769,11.4044118 C2.97692308,8.36323529 5.26153846,7.11911765 5.53846154,5.52941176 Z" id="Shape" fill="#A2A2A2"></path>
                    <path d="M17.3769231,5.52941176 C17.6538462,3.87058824 17.6538462,1.38235294 15.7846154,1.38235294 C15.0230769,1.45147059 15.0230769,2.07352941 15.0230769,2.07352941 C15.0230769,2.21176471 15.3692308,3.45588235 15.4384615,3.66323529 C15.5769231,4.42352941 15.3,4.97647059 15.3,5.04558824 C14.8153846,6.15147059 14.1923077,6.77352941 13.8461538,8.225 C12.9461538,11.8882353 16.6153846,12.5102941 16.1307692,11.4044118 C14.7461538,8.36323529 17.1,7.11911765 17.3769231,5.52941176 Z" id="Shape" fill="#A2A2A2"></path>
                </g>
            </g>
        </g>
    </g>
</svg>