<?xml version="1.0" encoding="UTF-8"?>
<svg width="66px" height="51px" viewBox="0 0 66 51" version="1.1" xmlns="http://www.w3.org/2000/svg" xmlns:xlink="http://www.w3.org/1999/xlink">
    <!-- Generator: Sketch 47.1 (45422) - http://www.bohemiancoding.com/sketch -->
    <title>coverage_carowner</title>
    <desc>Created with Sketch.</desc>
    <defs></defs>
    <g id="Page-1" stroke="none" stroke-width="1" fill="none" fill-rule="evenodd">
        <g id="new_quote_screen_17jan-copy" transform="translate(-974.000000, -1173.000000)" fill-rule="nonzero" fill="#B6B6B6">
            <g id="coverage_carowner" transform="translate(974.000000, 1173.000000)">
                <g id="Group">
                    <path d="M8.83892308,45.3365481 L8.30469975,46.6200481 L10.8786998,47.6869615 L24.7696526,14.3009231 L22.1954888,13.2338462 L21.6615931,14.5176731 L17.8024764,12.9180385 C17.0920347,12.6234808 16.2782531,12.9592308 15.9824814,13.6697981 L14.9146898,16.2367981 C14.6190819,16.946875 14.9546501,17.7602596 15.6650918,18.0548173 L19.5243722,19.6544519 L10.9759801,40.1997692 L7.1170273,38.5999712 C6.40625806,38.3055769 5.59280397,38.6411635 5.2973598,39.3510769 L4.22891315,41.9188942 C3.93363275,42.6288077 4.26920099,43.4423558 4.97964268,43.7369135 L8.83892308,45.3365481 Z" id="Shape"></path>
                    <path d="M31.8786551,18.8289712 C31.997062,17.8634038 32.0363672,17.3127019 32.0363672,17.3127019 L25.483861,14.5969519 L11.5929082,47.9831538 L18.1454144,50.6993942 C18.1454144,50.6993942 18.5081687,50.2825673 19.1101935,49.5175673 L31.8644069,49.9634904 C31.8644069,49.9634904 36.8597717,41.9841154 37.9591712,39.3419231 C39.0592258,36.6984231 41.1966104,27.5341154 41.1966104,27.5341154 L31.8786551,18.8289712 Z M24.8700447,20.1087115 C25.3674194,18.9138077 26.7409727,18.3475769 27.9381439,18.8440096 C29.1356427,19.3402788 29.7027841,20.7110673 29.205737,21.9059712 C28.7086898,23.1010385 27.3351365,23.6675962 26.1376377,23.1713269 C24.9404665,22.6750577 24.3729975,21.3037788 24.8700447,20.1087115 Z M24.8752854,28.4620865 L25.8125509,32.9610385 L25.1350273,32.7956154 L23.8233797,28.0969135 L24.8752854,28.4620865 Z M22.3820248,27.2434808 L23.6103127,37.4598269 L22.6276824,38.1136731 L22.0544814,29.1232885 L22.3820248,27.2434808 Z M19.407603,45.4560385 C18.9105558,46.6509423 17.5366749,47.2175 16.3395037,46.7212308 C15.1421687,46.2249615 14.5748635,44.8538462 15.0719107,43.6586154 C15.5689578,42.4637115 16.9428387,41.8976442 18.1400099,42.3939135 C19.3375087,42.8901827 19.9046501,44.2608077 19.407603,45.4560385 Z M20.580536,38.3861635 L19.9801489,38.0319423 L20.0892208,33.1553942 L20.9899653,33.8092404 L20.580536,38.3861635 Z M35.3835335,38.2741923 C34.5589429,40.2556731 31.4836377,45.2947019 30.3532854,47.1284135 L21.2759107,46.8114615 C21.2759107,46.8114615 25.7976476,39.5570385 27.6634988,35.0724712 C29.5301687,30.5864327 31.4883871,22.2659135 31.4883871,22.2659135 L38.1144268,28.4648654 C37.6145955,30.5599519 36.2087792,36.2904231 35.3835335,38.2741923 Z" id="Shape"></path>
                    <path d="M64.0643821,40.8336731 C63.7026104,40.6282019 63.2998958,40.4809231 62.8659007,40.4067115 C60.8606799,40.0637692 58.9561787,41.4082404 58.6125856,43.4096635 C58.5370868,43.8488846 58.5431464,44.2830385 58.6196278,44.6970865 L62.8830968,47.6526346 C64.3714541,47.3907692 65.6044913,46.2244712 65.8738958,44.6522981 C66.0491315,43.6324615 65.7846402,42.6391058 65.2184814,41.8641346 L63.5434243,42.2821058 L64.0643821,40.8336731 Z" id="Shape"></path>
                    <path d="M54.0038859,40.1692019 C53.7886898,39.2946827 54.3270074,38.4077404 55.204005,38.192625 C55.3325658,38.1614038 55.4640744,38.1452212 55.5955831,38.1452212 C56.351062,38.1452212 57.0043474,38.6573462 57.1849876,39.3904712 L57.7403375,41.6496731 C58.2275583,41.3320673 58.5783573,40.8877788 58.6810422,40.3396923 C58.9468437,38.9260769 58.0691911,36.9514615 55.6266998,36.2708077 C54.1105012,35.8580673 52.8388139,35.6099327 51.568928,35.5185577 L50.7967444,37.2416058 L49.9184367,35.4881538 C48.8807792,35.5223173 47.780397,35.6521058 46.4952804,35.8788269 C43.8931117,36.5446058 43.7296675,38.3611538 43.8372655,39.8553558 C43.867072,40.2662981 43.9037568,40.6134904 43.9885906,40.8959519 L44.5906154,43.8784712 L46.0067494,44.3111538 L44.781737,44.82475 L45.0039752,45.9266442 L42.2368883,46.3151923 L41.7079057,47.62125 L41.2783325,46.4497212 L40.1671414,46.6058269 C39.0472705,46.7629135 38.2673896,47.7961538 38.4247742,48.9135769 C38.568402,49.9345577 39.445072,50.6725865 40.4494839,50.67275 C40.5444715,50.67275 40.6404417,50.6662115 40.737067,50.6526442 L47.7245509,49.6717115 C48.2817022,49.5935769 48.785464,49.2870865 49.1105509,48.8293942 C49.4354739,48.3712115 49.5574839,47.7950096 49.4467742,47.245125 L48.5943424,43.0220962 L51.4156377,44.2758462 L49.9051712,48.0643942 C49.487062,49.1128365 49.9995037,50.3010385 51.0499355,50.7185192 C51.2982134,50.81725 51.5543524,50.864 51.8060695,50.864 C52.6201787,50.864 53.3897419,50.3763942 53.708933,49.5755962 L55.3224119,45.5307404 L54.0038859,40.1692019 Z" id="Shape"></path>
                    <path d="M58.1743325,44.7863365 L56.8667792,39.4686058 C56.6943275,38.7670288 55.9848685,38.3381058 55.2821241,38.5103942 C54.5793797,38.6826827 54.1494789,39.3906346 54.3219305,40.0922115 L54.3219305,40.0917212 L55.7472357,45.8900288 C55.8233896,46.1994615 56.0104169,46.4706442 56.2724516,46.6524135 L61.8135037,50.4939231 C62.0409826,50.6518269 62.3015434,50.7276731 62.5594839,50.7276731 C62.9739901,50.7276731 63.3821092,50.5315192 63.6367742,50.1656923 C64.0498065,49.5723269 63.9025757,48.7579615 63.3082481,48.3457115 L58.1743325,44.7863365 Z" id="Shape"></path>
                    <polygon id="Shape" points="33.6824367 29.4775096 32.8635782 27.6794327 32.5360347 29.9678942 31.1164615 31.0030962 33.0273499 31.3981827 34.2556377 32.9919327 34.2556377 30.3765481 35.5658114 29.2323173"></polygon>
                    <polygon id="Shape" points="29.3313499 34.8982212 30.6066402 37.5417212 32.372263 36.4646731 32.274 34.4086538"></polygon>
                    <polygon id="Shape" points="33.237469 35.3735673 34.7577618 35.9769038 35.0744963 34.8717404 34.2582581 34.0663654"></polygon>
                    <polygon id="Shape" points="6.0407196 50.9454038 7.80634243 49.8683558 7.70840695 47.8123365 4.76575682 48.3019038"></polygon>
                    <polygon id="Shape" points="11.1256675 49.6771058 10.3092655 48.8717308 9.28896774 50.1790962 10.808933 50.7822692"></polygon>
                    <polygon id="Shape" points="1.75546898 46.5829423 3.27543424 47.1861154 3.59216873 46.0809519 2.77576675 45.2755769"></polygon>
                    <ellipse id="Oval" cx="8.18858561" cy="25.8269231" rx="1.96526055" ry="1.96153846"></ellipse>
                    <ellipse id="Oval" cx="11.9825211" cy="28.0336538" rx="1.44659553" ry="1.44385577"></ellipse>
                    <path d="M5.66322581,20.7576538 C5.60181141,20.9472692 5.56823821,21.1491442 5.56823821,21.3590288 C5.56823821,22.4424519 6.44818362,23.3207308 7.53349876,23.3207308 C8.61914144,23.3207308 9.49875931,22.4424519 9.49875931,21.3590288 C9.49875931,20.6223077 9.09129529,19.9812115 8.48959801,19.6459519 C7.99025806,20.2893365 7.21070471,20.7051827 6.33239702,20.7051827 C6.28670471,20.7051827 6.24183127,20.7006058 6.19679404,20.6983173 C7.42835732,20.4351442 8.35235732,19.3435481 8.35235732,18.0353654 C8.35235732,17.6446923 8.26817866,17.2739615 8.11980149,16.9380481 C8.35645161,16.9279135 8.58622333,16.8942404 8.808134,16.8386635 C10.3015682,16.4646635 11.4093201,15.1197019 11.4093201,13.512875 C11.4093201,13.253625 11.3780397,13.0018942 11.3236675,12.7589904 C12.7985955,12.4740769 14.027866,11.5009904 14.6605161,10.1867596 C14.8269082,10.2232115 14.999196,10.2436442 15.176397,10.2436442 C16.3603027,10.2436442 17.3416228,9.38792308 17.5396228,8.26281731 C17.5633697,8.12730769 17.578273,7.98852885 17.578273,7.84615385 C17.578273,6.52211538 16.5029479,5.44882692 15.176397,5.44882692 C14.1924566,5.44882692 13.3477221,6.03974038 12.9762878,6.88483654 C13.0984615,6.18979808 13.5200099,5.599375 14.1041836,5.24842308 C13.2440546,4.16745192 11.9170124,3.47355769 10.4266898,3.47355769 C9.70707692,3.47355769 9.02529529,3.63571154 8.41573697,3.92454808 C7.86399007,2.79568269 6.70628784,2.01597115 5.36352357,2.01597115 C5.27099256,2.01597115 5.18059057,2.02250962 5.09035236,2.02970192 C3.34127047,2.16897115 1.96526055,3.62688462 1.96526055,5.40796154 C1.96526055,7.18920192 3.34127047,8.64678846 5.09035236,8.78605769 C5.00011414,8.79325 4.90954839,8.79978846 4.81750868,8.79978846 C3.56973201,8.79978846 2.48245161,8.12681731 1.8913995,7.12659615 C0.770218362,7.69233654 0,8.84980769 0,10.1892115 C0,10.8227885 0.174908189,11.4145192 0.474937965,11.9238654 C1.07254094,12.9386346 2.17439702,13.6219038 3.43920596,13.6219038 C5.02893797,13.6219038 6.3631861,12.5433846 6.7568933,11.0807308 C6.83812407,11.1820769 6.92328536,11.2796635 7.0122134,11.3739808 C6.73494789,12.6169423 5.78294293,13.6031058 4.55940447,13.9346058 C4.62376675,14.4571923 4.80538958,14.9428365 5.07757816,15.3657115 C3.83143921,15.6179327 2.89319107,16.717375 2.89319107,18.0355288 C2.89319107,19.5401923 4.11541935,20.7599423 5.62293797,20.7599423 C5.63636725,20.7597788 5.64946898,20.7579808 5.66322581,20.7576538 Z" id="Shape"></path>
                    <ellipse id="Oval" cx="9.71690323" cy="1.362125" rx="1.36470968" ry="1.362125"></ellipse>
                    <ellipse id="Oval" cx="15.0941836" cy="1.93424038" rx="1.93791067" ry="1.93424038"></ellipse>
                </g>
            </g>
        </g>
    </g>
</svg>