<?xml version="1.0" encoding="UTF-8"?>
<svg width="46px" height="44px" viewBox="0 0 46 44" version="1.1" xmlns="http://www.w3.org/2000/svg" xmlns:xlink="http://www.w3.org/1999/xlink">
    <!-- Generator: Sketch 47.1 (45422) - http://www.bohemiancoding.com/sketch -->
    <title>coverage_tyres</title>
    <desc>Created with Sketch.</desc>
    <defs></defs>
    <g id="Page-1" stroke="none" stroke-width="1" fill="none" fill-rule="evenodd">
        <g id="new_quote_screen_17jan-copy" transform="translate(-979.000000, -1628.000000)" fill="#A2A2A2">
            <g id="coverage_tyres" transform="translate(979.000000, 1628.000000)">
                <g id="Group" transform="translate(0.000000, 0.098118)">
                    <path d="M21.465217,0.759941176 C20.7692544,0.742294118 20.0734468,0.777588235 19.3801146,0.839352941 C7.88760468,1.85070588 -0.614494795,12.0392941 0.389684094,23.5983529 C0.873206316,29.1200588 3.50851825,34.2255882 7.71817836,37.8031765 C7.44570468,38.0837647 7.27395614,38.4637059 7.27395614,38.8884706 C7.27395614,39.7507059 7.96388421,40.4448235 8.82122749,40.4448235 L4.94995556,40.4448235 C4.09261246,40.4448235 3.40268433,41.139 3.40268433,42.0012353 C3.40268433,42.8634118 4.09261246,43.5575882 4.94995556,43.5575882 L37.4486807,43.5575882 C38.3060234,43.5575882 38.9959515,42.8634118 38.9959515,42.0012353 C38.9959515,41.139 38.3060234,40.4448235 37.4486807,40.4448235 L33.5805029,40.4448235 C34.4378462,40.4448235 35.1277743,39.7507059 35.1277743,38.8884706 C35.1277743,38.4572941 34.9541719,38.0693529 34.6744234,37.7881176 C39.8551509,33.3880588 42.589024,26.7333529 42.008952,19.9383529 C41.0742462,9.18788235 32.1939936,0.898352941 21.4652164,0.760470588 L21.465217,0.759941176 Z M21.1993982,10.0950588 C24.2777012,10.094725 27.2300448,11.3243693 29.4068916,13.513461 C31.5837385,15.7025526 32.8067558,18.6717557 32.8068708,21.7678235 C32.8067713,24.8639016 31.5837609,27.8331197 29.4069123,30.0222241 C27.2300638,32.2113285 24.2777113,33.4409809 21.1993982,33.4406471 C14.7902651,33.4397094 9.59507245,28.2139439 9.5948655,21.7678235 C9.59510475,15.3217262 14.7902879,10.0959965 21.1993982,10.0950588 L21.1993982,10.0950588 Z" id="Shape" fill-rule="nonzero"></path>
                    <path d="M21.1993959,11.4447059 C20.4144655,11.4447059 19.6546006,11.5394118 18.9207298,11.7058824 L19.1293029,12.9825882 C19.4358175,14.8427647 19.0581275,16.4168824 17.9295491,17.2412941 C16.8006602,18.0663529 15.1950573,17.9405882 13.5294199,17.0712941 C13.1504959,16.8730588 12.7717216,16.6765882 12.3932591,16.4785882 C11.6222538,17.7761765 11.1257345,19.2532941 10.9849327,20.8406471 L12.2512193,21.0353529 C14.106707,21.3165294 15.4765058,22.1626471 15.9077304,23.4975294 C16.3389526,24.8322941 15.7246895,26.3285882 14.3876912,27.6530588 C14.0833404,27.9542353 13.7793041,28.2567647 13.4751105,28.5588824 C14.4814556,29.7163529 15.7378398,30.6482941 17.1648877,31.2612353 L17.7390807,30.1031176 C18.5783205,28.4149412 19.803914,27.3642353 21.1993977,27.3642353 C22.5947263,27.3642353 23.8203199,28.4149412 24.6595596,30.1031176 C24.8514193,30.489 25.042045,30.8754118 25.2337526,31.2612353 C26.6608006,30.6482941 27.9171848,29.7163529 28.9236842,28.5588824 L28.0109468,27.6529412 C26.6739503,26.3284706 26.0596836,24.8321765 26.4909082,23.4974118 C26.9221304,22.1625294 28.2948713,21.3163529 30.1505135,21.0352353 C30.5727649,20.9717059 30.9947041,20.9046471 31.4168,20.8405294 C31.2775427,19.2531765 30.7763842,17.7760588 30.0055339,16.4784706 L28.8692181,17.0711765 C27.2037357,17.9405294 25.6010725,18.0664706 24.4721836,17.2411765 C23.3437585,16.4162941 22.9618924,14.8411176 23.2694895,12.9793529 C23.3406649,12.5546471 23.4102906,12.1302353 23.4810041,11.7057647 C22.7462053,11.5375294 21.9852573,11.4445882 21.1993982,11.4445882 L21.1993959,11.4447059 Z M21.1452439,15.1532353 C21.3277012,15.1407666 21.5086523,15.1937005 21.6559982,15.3026471 C22.0000036,15.5557682 22.075689,16.0410364 21.8252673,16.3879412 C21.5744378,16.73473 21.0919387,16.8120708 20.746355,16.5608824 C20.5798233,16.4397042 20.4680744,16.2568617 20.4357663,16.0526998 C20.4034582,15.848538 20.4532462,15.6398368 20.5741444,15.4726471 C20.7082774,15.2865835 20.9173223,15.1696662 21.1452439,15.1532353 L21.1452439,15.1532353 Z M21.1993959,18.6551176 C22.908486,18.6553527 24.2938719,20.0488703 24.293938,21.7678235 C24.2939042,23.4867998 22.9085088,24.8803532 21.1993959,24.8805882 C19.490283,24.8803532 18.1048876,23.4867998 18.1048538,21.7678235 C18.1049199,20.0488703 19.4903058,18.6553527 21.1993959,18.6551176 L21.1993959,18.6551176 Z M26.7386263,19.1780588 C26.8158033,19.1803327 26.8922072,19.1942119 26.9652988,19.2192353 C27.1611258,19.2826051 27.3238017,19.4217978 27.417377,19.6060535 C27.5109522,19.7903092 27.527723,20.0044583 27.463983,20.2011765 C27.4002944,20.397491 27.2616393,20.5602973 27.0785493,20.6537458 C26.8954593,20.7471942 26.682948,20.763622 26.4878099,20.6994118 C26.2925922,20.6353993 26.1306774,20.495969 26.0377233,20.3118272 C25.9447693,20.1276854 25.9283996,19.9139341 25.9922193,19.7176471 C26.0879279,19.420591 26.35091,19.2098398 26.6601766,19.1823529 C26.6864636,19.181003 26.7128019,19.181003 26.7390889,19.1823529 L26.7386263,19.1780588 Z M15.6358737,19.1957059 C15.8989996,19.1802997 16.1518251,19.3006692 16.3067702,19.5151176 C16.4279544,19.68194 16.4782088,19.8903824 16.4464572,20.0945036 C16.4147055,20.2986249 16.3035542,20.4816695 16.1375012,20.6032941 C15.9713125,20.7248729 15.7638629,20.7749649 15.5609087,20.7425213 C15.3579546,20.7100777 15.1761694,20.5977641 15.0556491,20.4303529 C14.8058522,20.0826784 14.8828761,19.5972633 15.2278596,19.3450588 C15.3468982,19.2571062 15.4884799,19.2052605 15.6358772,19.1956471 L15.6358737,19.1957059 Z M17.7602766,25.7161176 C18.1072392,25.7019648 18.421082,25.9220286 18.5278778,26.2543529 C18.5916974,26.4506399 18.5753277,26.6643912 18.4823737,26.8485331 C18.3894197,27.0326749 18.2275049,27.1721052 18.0322871,27.2361176 C17.8367653,27.3002006 17.6239227,27.2833656 17.4407643,27.1893304 C17.257606,27.0952952 17.1192003,26.9317962 17.0561135,26.7349412 C16.9253765,26.3261684 17.1485404,25.8881395 17.5547977,25.7561176 C17.6211178,25.7330856 17.6902446,25.7192331 17.7602772,25.7149412 L17.7602766,25.7161176 Z M24.6142228,25.7161176 C25.0415167,25.7161801 25.3878705,26.0645931 25.3878585,26.4943529 C25.3878382,26.9240898 25.0414939,27.272467 24.6142228,27.2725294 C24.186952,27.2724667 23.840608,26.9240895 23.8405877,26.4943529 C23.8405757,26.0645934 24.1869292,25.7161804 24.6142228,25.7161176 L24.6142228,25.7161176 Z" id="Shape" fill-rule="nonzero"></path>
                    <path d="M17.4279228,12.1712353 L17.6030749,13.2351765 C17.8558994,14.7649412 17.5117883,15.6234118 17.0199111,15.9831176 C16.527724,16.3431176 15.6112754,16.4060588 14.242714,15.6913529 C13.9219655,15.5237059 13.6018345,15.3572353 13.2817041,15.1895882 C14.3759345,13.8575294 15.8025181,12.8165882 17.4279263,12.1711765 L17.4279228,12.1712353 Z" id="Shape" fill-rule="nonzero"></path>
                    <path d="M24.970869,12.1712353 C26.5961222,12.8166471 28.0227064,13.8575882 29.1170912,15.1896471 L28.1560807,15.6914118 C26.7873649,16.4061176 25.8710713,16.3428824 25.3787298,15.9831765 C24.8865427,15.6237647 24.5428936,14.7651765 24.7955661,13.2352353 C24.8543614,12.8805294 24.9116129,12.5258235 24.9708702,12.1712941 L24.970869,12.1712353 Z" id="Shape" fill-rule="nonzero"></path>
                    <path d="M10.9697684,22.4152941 L12.0214485,22.5735294 C13.5462842,22.8047059 14.2481263,23.3959412 14.4361199,23.9778235 C14.624114,24.5595882 14.4020848,25.4551765 13.3028982,26.5435294 C13.0482199,26.7958824 12.7927637,27.0476471 12.5382368,27.3004118 C11.6364877,25.8730588 11.0803982,24.2069412 10.9697684,22.4154118 L10.9697684,22.4152941 Z" id="Shape" fill-rule="nonzero"></path>
                    <path d="M31.4318082,22.4152941 C31.3219544,24.207 30.7623041,25.8729412 29.8604,27.3002941 L29.0958936,26.5434118 C27.997176,25.4550588 27.7746789,24.5595294 27.9626719,23.9777059 C28.1506661,23.3959412 28.855293,22.8043529 30.380283,22.5734118 C30.7307392,22.5204706 31.0815064,22.4675294 31.4318082,22.4151765 L31.4318082,22.4152941 Z" id="Shape" fill-rule="nonzero"></path>
                    <path d="M21.1993959,28.9204706 C21.807783,28.9204706 22.5859053,29.4116471 23.275524,30.799 C23.4341205,31.1184118 23.5913251,31.4377059 23.7499158,31.7566471 C22.9331111,31.9666471 22.0821123,32.0907647 21.1993942,32.0907647 C20.3165211,32.0907647 19.4655222,31.9660588 18.6487181,31.7566471 L19.1232678,30.799 C19.8128865,29.4118235 20.5908544,28.9204706 21.1993959,28.9204706 L21.1993959,28.9204706 Z" id="Shape" fill-rule="nonzero"></path>
                    <path d="M44.9826532,36.6050588 C45.2410147,36.6258065 45.4718868,36.7753009 45.5976328,37.0032704 C45.7233788,37.2312399 45.7272934,37.5073992 45.6080602,37.7388824 L44.8435532,39.277 C44.6511605,39.6590081 44.1881022,39.8129034 43.8073238,39.621386 C43.4265454,39.4298686 43.2711225,38.9649003 43.4595193,38.5808824 L44.2240263,37.0427059 C44.3628265,36.7532726 44.6642038,36.5794099 44.9826532,36.6050588 L44.9826532,36.6050588 Z" id="Shape"></path>
                    <path d="M41.0479427,34.2673529 C41.3875868,34.264952 41.6890735,34.4856464 41.791252,34.8114706 L42.5559135,37.1247059 C42.6606369,37.3925243 42.6098817,37.6966132 42.4239485,37.9153459 C42.2380152,38.1340786 41.9472577,38.2317469 41.6679704,38.1692863 C41.3886832,38.1068257 41.16646,37.8944329 41.0901836,37.6170588 L40.3225825,35.3038235 C40.2394899,35.0664252 40.275658,34.8032631 40.4196645,34.5974448 C40.5636711,34.3916264 40.7977367,34.2685627 41.0479427,34.2671176 L41.0479427,34.2673529 Z" id="Shape"></path>
                </g>
            </g>
        </g>
    </g>
</svg>