<?xml version="1.0" encoding="UTF-8"?>
<svg width="58px" height="39px" viewBox="0 0 58 39" version="1.1" xmlns="http://www.w3.org/2000/svg" xmlns:xlink="http://www.w3.org/1999/xlink">
    <!-- Generator: Sketch 47.1 (45422) - http://www.bohemiancoding.com/sketch -->
    <title>coverage_theft</title>
    <desc>Created with Sketch.</desc>
    <defs></defs>
    <g id="Page-1" stroke="none" stroke-width="1" fill="none" fill-rule="evenodd">
        <g id="new_quote_screen_17jan-copy" transform="translate(-977.000000, -941.000000)" fill-rule="nonzero" fill="#B6B6B6">
            <g id="coverage_theft" transform="translate(977.000000, 941.000000)">
                <g id="Group">
                    <path d="M9.07963636,13.4156709 L12.6108807,13.4156709 C13.371142,13.4156709 13.9999148,13.9814177 14.1015795,14.7128734 C14.2986477,14.6414557 14.4968693,14.5652658 14.6975625,14.4777215 C15.364892,14.187443 15.6702159,13.4118861 15.3797216,12.7452658 C15.0888977,12.0789747 14.3124886,11.7740506 13.6453239,12.0641646 C12.7726875,12.442481 12.0483466,12.579557 11.4360511,12.5798861 C10.6174602,12.5769241 9.96973864,12.3429241 9.37853409,11.9624684 C8.921125,11.6687342 8.51199432,11.271 8.159875,10.8418354 C6.74134659,11.3009494 5.64082955,11.4788354 5.26976136,11.5301772 L5.26646591,11.5308354 L5.24801136,11.5333038 C5.17551136,11.5421899 5.10811932,11.5463038 5.04270455,11.5463038 L5.042375,11.5463038 C4.21455682,11.545481 3.51246023,10.9262532 3.40980682,10.1051139 C3.35477273,9.66920253 3.47291477,9.23773418 3.74297727,8.89051899 C4.012875,8.54363291 4.40206818,8.32197468 4.83888068,8.26717722 L4.87941477,8.26158228 L4.96328409,8.24858228 C5.06346591,8.2324557 5.21275,8.20694937 5.40289773,8.16860759 C5.72717045,8.10344304 6.22791477,7.98940506 6.82356818,7.81053165 C6.53785227,7.44192405 6.16530114,7.17517722 5.71613068,7.0731519 C4.30238068,6.75193671 2.27930114,7.5564557 1.49943182,9.98251899 C0.446863636,13.3248354 0.250454545,15.4899114 0.751693182,19.136 C1.07250568,20.620962 1.79042045,21.3443544 2.62565341,21.6841646 C2.62301705,24.5900759 2.26348295,30.1790886 0.128852273,35.9236076 C-0.266272727,36.9887848 0.278301136,38.172443 1.34503977,38.5670506 C1.58099432,38.6542658 1.82255114,38.6955696 2.06015341,38.6955696 C2.89719886,38.6955696 3.68431818,38.1821519 3.99227841,37.3522911 C6.38494318,30.8866835 6.74233523,24.8130506 6.74563068,21.6115949 C6.74530114,20.1705696 6.67065909,19.3110886 6.66604545,19.2592532 C6.65220455,19.1044051 6.62023864,18.955481 6.57459659,18.8133038 C6.40471591,17.0291772 6.63869318,15.0972785 6.92572727,13.3718987 C7.19859091,13.6258101 7.4983125,13.8670506 7.82522159,14.0892025 C8.09511932,13.6837342 8.55648295,13.4156709 9.07963636,13.4156709 Z" id="Shape"></path>
                    <path d="M56.7506932,13.7447848 L53.2194489,13.7447848 C52.5692557,13.7447848 52.0421477,14.2712025 52.0421477,14.9205443 L52.0421477,15.5083418 L50.7874034,15.5083418 C49.869125,13.0745443 48.2413352,8.74505063 47.9373295,7.83702532 C47.6776477,7.02065823 46.9946648,6.56779747 46.1983182,6.37312658 C45.3940625,6.16479747 44.4049318,6.11477215 43.1956648,6.01324051 C40.562267,5.79388608 35.7690284,5.57650633 32.9148352,5.57650633 C30.0593239,5.57650633 25.2667443,5.79388608 22.6336761,6.01324051 C21.4247386,6.11460759 20.4351136,6.16479747 19.6305284,6.37312658 C18.8351705,6.56779747 18.1510341,7.02065823 17.8911875,7.83702532 C17.7779886,8.17634177 17.4799148,8.99270886 17.1029148,10.0096709 L15.7807784,5.39977215 C15.6125455,5.66849367 15.4291534,5.92964557 15.2347216,6.1845443 L16.6674205,11.18 C16.163875,12.5288734 15.6024943,14.0205823 15.165517,15.1793924 C15.1228409,15.292443 15.0813182,15.4022025 15.0412784,15.5083418 L13.788017,15.5083418 L13.788017,14.9205443 C13.788017,14.2713671 13.2609091,13.7447848 12.6108807,13.7447848 L9.07980114,13.7447848 C8.4299375,13.7447848 7.90282955,14.2712025 7.90282955,14.9205443 L7.90282955,16.0959747 C7.90282955,16.7451519 8.42977273,17.2715696 9.07980114,17.2715696 L13.1996136,17.2715696 L13.788017,17.2715696 L14.3751023,17.2715696 L14.2502045,17.6008481 L14.2490511,17.6043038 C12.9758523,18.2437722 10.0280682,20.0009114 10.0280682,22.5614177 C10.0280682,25.8270506 10.0280682,29.6144937 10.0280682,29.6144937 L26.1469602,29.6144937 L26.1469602,23.7370127 L27.9126648,23.7370127 L27.9126648,29.6144937 L29.0896364,29.6144937 L29.0896364,23.7370127 L30.8551761,23.7370127 L30.8551761,29.6144937 L32.0321477,29.6144937 L32.0321477,23.7370127 L33.7978523,23.7370127 L33.7978523,29.6144937 L34.9748239,29.6144937 L34.9748239,23.7370127 L36.7406932,23.7370127 L36.7406932,29.6144937 L37.9176648,29.6144937 L37.9176648,23.7370127 L39.6832045,23.7370127 L39.6832045,29.6144937 L55.8022614,29.6144937 C55.8022614,29.6144937 55.8022614,25.8268861 55.8022614,22.5614177 C55.8022614,19.9999241 52.8525,18.2426203 51.580125,17.6036456 L51.4540739,17.2715696 L52.0423125,17.2715696 L52.6310455,17.2715696 L56.7506932,17.2715696 C57.4005568,17.2715696 57.9276648,16.7453165 57.9276648,16.0959747 L57.9276648,14.9205443 C57.9276648,14.2713671 57.4007216,13.7447848 56.7506932,13.7447848 Z M17.7026875,12.0997089 C18.1862955,11.1085823 18.5885057,10.261443 18.7293864,9.83918987 C18.9051989,9.34996203 19.1867955,9.14196203 19.8547841,8.95058228 C20.5146989,8.77565823 21.4863636,8.71658228 22.7071648,8.61537975 C25.3038182,8.3991519 30.1011761,8.18210127 32.915,8.18210127 C35.7275057,8.18210127 40.5256875,8.39898734 43.1223409,8.61537975 C44.3428125,8.71658228 45.3153011,8.77565823 45.9740625,8.95058228 C46.6418864,9.14196203 46.9248011,9.35012658 47.0999545,9.83918987 C47.4720114,10.9515949 49.6536023,15.0071013 50.3670682,16.895557 L15.8160398,16.895557 L15.4863295,16.895557 L15.4863295,16.8322025 C15.5771193,16.596557 15.6888352,16.3303038 15.8160398,16.0413418 C16.1981477,15.173962 16.7180057,14.1086203 17.2161136,13.0926456 L18.1474091,16.339519 L18.8602159,16.1356329 L17.7026875,12.0997089 Z M17.0254716,26.741 C15.3994943,26.741 14.0824659,25.4253671 14.0824659,23.8023418 C14.0824659,22.1791519 15.3994943,20.8636835 17.0254716,20.8636835 C18.6496364,20.8636835 19.9674886,22.1791519 19.9674886,23.8023418 C19.9674886,25.4253671 18.6496364,26.741 17.0254716,26.741 Z M48.8060114,26.741 C47.1801989,26.741 45.8628409,25.4253671 45.8628409,23.8023418 C45.8628409,22.1791519 47.1801989,20.8636835 48.8060114,20.8636835 C50.4303409,20.8636835 51.7480284,22.1791519 51.7480284,23.8023418 C51.7480284,25.4253671 50.4301761,26.741 48.8060114,26.741 Z" id="Shape"></path>
                    <path d="M31.5422784,10.592038 L34.2880511,10.592038 C34.667358,10.592038 34.9746591,10.2848101 34.9746591,9.90649367 C34.9746591,9.52751899 34.667358,9.22078481 34.2880511,9.22078481 L31.5422784,9.22078481 C31.1629716,9.22078481 30.8558352,9.52751899 30.8558352,9.90649367 C30.8558352,10.2848101 31.1629716,10.592038 31.5422784,10.592038 Z" id="Shape"></path>
                    <path d="M9.37408523,30.3482532 C9.37408523,30.3482532 9.37408523,33.3961772 11.335375,33.3961772 C11.428142,33.3961772 11.5604545,33.3961772 11.7280284,33.3961772 L11.7280284,37.7060886 C11.7280284,38.3551013 12.2544773,38.8816835 12.9051648,38.8816835 L17.6135455,38.8816835 C18.26275,38.8816835 18.7906818,38.3552658 18.7906818,37.7060886 L18.7906818,35.3550633 C25.8111534,35.3550633 41.3678409,35.3550633 47.7570682,35.3550633 L47.7570682,37.7835949 C47.7570682,38.3901519 48.24875,38.8818481 48.8565966,38.8818481 L53.2547102,38.8818481 C53.8614034,38.8818481 54.3542386,38.3901519 54.3542386,37.7835949 L54.3542386,33.3963418 C54.4071307,33.3963418 54.4557386,33.3963418 54.4947898,33.3963418 C56.4562443,33.3963418 56.4562443,30.3484177 56.4562443,30.3484177 L32.9151648,30.3484177 L9.37408523,30.3484177 L9.37408523,30.3482532 Z" id="Shape"></path>
                    <path d="M17.0254716,21.5166456 C15.7623239,21.5166456 14.7362841,22.5406835 14.7362841,23.8028354 C14.7362841,25.0631772 15.7623239,26.0878734 17.0254716,26.0878734 C18.2869716,26.0878734 19.3141648,25.0631772 19.3141648,23.8028354 C19.314,22.5406835 18.2869716,21.5166456 17.0254716,21.5166456 Z" id="Shape"></path>
                    <path d="M48.8060114,21.5173038 C47.5438523,21.5173038 46.5184716,22.542 46.5184716,23.8016835 C46.5184716,25.0631772 47.5438523,26.0878734 48.8060114,26.0878734 C50.0681705,26.0878734 51.0942102,25.0631772 51.0942102,23.8016835 C51.0940455,22.5418354 50.0681705,21.5173038 48.8060114,21.5173038 Z" id="Shape"></path>
                    <path d="M12.9931534,3.64477215 C12.7909773,2.13529114 11.6622841,0.846481013 10.0852443,0.513911392 C8.08226705,0.091164557 6.11553977,1.37010127 5.69207386,3.36996203 C5.32759659,5.0936962 6.22890341,6.78962025 7.76639773,7.49622785 C8.81731818,7.10902532 10.086233,6.51250633 11.1958125,5.62620253 C11.9379489,5.03544304 12.5385455,4.37063291 12.9931534,3.64477215 Z" id="Shape"></path>
                    <path d="M14.2322443,0 L13.5194375,0.203886076 L14.1071818,2.25311392 C14.3291307,2.14401266 14.574642,2.08131646 14.8292159,2.08098734 L14.2322443,0 Z" id="Shape"></path>
                    <path d="M5.46798295,8.4913038 C5.27157386,8.53079747 5.11784091,8.55729114 5.01650568,8.57341772 C4.96559091,8.58197468 4.9281875,8.58707595 4.90511932,8.59053165 C4.88188636,8.59382278 4.87990909,8.59382278 4.87990909,8.59382278 C4.15738068,8.68465823 3.64543182,9.34288608 3.73638636,10.0644684 C3.81992614,10.7301013 4.38773295,11.2168608 5.04253977,11.2170253 C5.09757386,11.2170253 5.1529375,11.2135696 5.20896023,11.2066582 L5.20863068,11.2066582 C5.28277841,11.1954684 7.18886932,10.9568608 9.486625,10.0032532 C10.6350909,9.52505063 11.8847273,8.86550633 13.0455511,7.94234177 C14.2043977,7.02049367 15.2775625,5.82531646 16.0164034,4.30086076 C16.3339205,3.64641772 16.060233,2.85917722 15.4049318,2.54207595 C14.7496307,2.22497468 13.961358,2.49863291 13.6441705,3.15307595 C13.1061875,4.26120253 12.3175852,5.15408861 11.402108,5.88356962 C10.0330114,6.97655696 8.37984659,7.67477215 7.07534091,8.07843038 C6.42382955,8.28083544 5.86063636,8.41231646 5.46798295,8.4913038 Z" id="Shape"></path>
                </g>
            </g>
        </g>
    </g>
</svg>