<?xml version="1.0" encoding="UTF-8"?>
<svg width="82px" height="66px" viewBox="0 0 82 66" version="1.1" xmlns="http://www.w3.org/2000/svg" xmlns:xlink="http://www.w3.org/1999/xlink">
    <!-- Generator: Sketch 47.1 (45422) - http://www.bohemiancoding.com/sketch -->
    <title>coverage_calamities</title>
    <desc>Created with Sketch.</desc>
    <defs></defs>
    <g id="Page-1" stroke="none" stroke-width="1" fill="none" fill-rule="evenodd">
        <g id="new_quote_screen_17jan-copy" transform="translate(-233.000000, -1158.000000)" fill-rule="nonzero" fill="#B6B6B6">
            <g id="coverage_calamities" transform="translate(233.000000, 1158.000000)">
                <g id="Group">
                    <path d="M55.536125,57.4602286 L57.5425,58.1678743 C58.09725,58.3636114 58.704,58.0712 58.898375,57.5140343 L59.953875,54.4870857 L60.956875,54.8408457 L61.661,52.8217486 L35.57425,43.6204686 L34.870125,45.63944 L35.87325,45.9932 L34.81775,49.0201486 C34.623375,49.57744 34.914625,50.1864 35.47,50.3823886 L37.475625,51.0897829 C38.0305,51.28552 38.637125,50.9931086 38.8315,50.4359429 L39.887,47.4089943 L55.940375,53.0714171 L54.88475,56.09824 C54.690125,56.6555314 54.9815,57.2646171 55.536125,57.4602286 Z" id="Shape"></path>
                    <path d="M63.648625,47.1223657 C63.648625,47.1223657 63.315,46.8623886 62.704875,46.43408 L62.497625,36.6400571 C62.497625,36.6400571 56.19075,33.1567657 54.126375,32.4286286 C52.677,31.9174743 48.754875,31.1536343 46.5435,30.7434286 L45.464125,32.9054629 L45.65725,32.9697029 L45.815125,32.78 C47.43625,33.0726629 51.87175,33.902 53.421875,34.4488571 C54.970125,34.99496 58.9495,37.1337371 60.398,37.9208343 L60.545875,44.89144 C60.545875,44.89144 54.813,41.7397829 51.308875,40.5038857 C49.194,39.7577714 46.012625,39.0468571 43.821125,38.5999429 L43.675375,39.7650629 L43.522,40.9890171 L42.885,39.9351543 L41.844125,38.2137486 C41.794,38.2044457 41.747125,38.1957714 41.70425,38.1878514 L40.19825,39.83672 C40.51675,39.7631771 40.858625,39.7746171 41.189875,39.8915314 C42.123625,40.2207771 42.61525,41.2489943 42.28775,42.18808 C41.96025,43.1272914 40.93775,43.6214743 40.003875,43.2922286 C39.070125,42.9628571 38.578875,41.9345143 38.906375,40.9954286 C38.93525,40.9128343 38.971125,40.8350171 39.010125,40.7595886 L38.9565,40.1293829 L38.71425,37.2796914 L35.993875,38.32664 L34.879625,38.7552 L35.468375,37.7116457 L36.995125,35.0079086 L34.17375,33.6416457 L33.14275,33.1426857 L34.2465,32.8388343 L35.849,32.3978286 L35.028375,31.3009714 L33.24575,31.6957143 L31.236125,34.1500343 L30.4055,38.0549714 L33.436625,41.3620114 L36.690875,40.4170171 L35.769125,43.0600343 L61.855875,52.26144 L63.648625,47.1223657 Z M60.689125,48.6785829 C60.361625,49.6177943 59.339125,50.1119771 58.405375,49.7826057 C57.471625,49.45336 56.980375,48.4250171 57.307875,47.4859314 C57.635375,46.54672 58.657625,46.0526629 59.591375,46.3820343 C60.524875,46.71128 61.016625,47.7394971 60.689125,48.6785829 Z" id="Shape"></path>
                    <ellipse id="Oval" transform="translate(56.412414, 39.464951) rotate(-57.567040) translate(-56.412414, -39.464951) " cx="56.4124142" cy="39.4649512" rx="2.47381772" ry="2.48807953"></ellipse>
                    <polygon id="Shape" points="25.625 12.05952 25.625 7.03094857 22.875 5.27094857 18.375 8.28809143 18.125 12.1852343 21.625 14.0709486"></polygon>
                    <polygon id="Shape" points="22.94575 16.9902857 19.342375 16.5379657 17.515 18.4082171 18.471125 20.9110629 21.381625 21.6539086 23.575375 19.0983886"></polygon>
                    <polygon id="Shape" points="30.148 28.5192914 29.50025 26.35072 25.7935 25.8853257 23.913625 27.8092571 24.897125 30.3840114 27.891125 31.1481029"></polygon>
                    <polygon id="Shape" points="26.673 23.9696914 26.947875 21.8437371 25.881625 20.94752 23.814125 21.9742286 23.49525 23.6080114 24.871875 24.5988914"></polygon>
                    <polygon id="Shape" points="22.451375 32.9930857 22.726375 30.8671314 21.66 29.9709143 19.5925 30.9976229 19.273625 32.6314057 20.65025 33.6222857"></polygon>
                    <polygon id="Shape" points="31.438875 42.7907543 31.634 41.2813029 30.877 40.6449371 29.408875 41.3738286 29.1825 42.5340457 30.159875 43.2375429"></polygon>
                    <polygon id="Shape" points="21.4165 26.13072 20.5165 24.7551543 19.343875 24.6719314 18.769875 25.7339657 19.368125 26.9555314 20.881625 26.9645829"></polygon>
                    <polygon id="Shape" points="38.000625 53.6136229 37.426625 54.6756571 38.024875 55.8972229 39.538375 55.9062743 40.07325 55.0724114 40.04175 53.8659314 39.083375 53.1956229"></polygon>
                    <polygon id="Shape" points="43.09575 52.3797371 42.565375 54.5220343 44.43 56.1261486 45.96025 55.6566057 47.1765 54.1295543 46.687375 52.2906057 44.9115 51.6688229"></polygon>
                    <polygon id="Shape" points="24.42875 35.4071771 25.80525 36.3980571 27.6065 35.7688571 27.881375 33.6429029 26.815 32.7466857 24.7475 33.7733943"></polygon>
                    <polygon id="Shape" points="33.86525 19.1366057 34.600875 17.1584914 32.108875 14.7094514 29.633125 15.07176 28.919125 17.5420457 30.71425 19.8085486"></polygon>
                    <path d="M68.136625,36.4878171 C68.133875,36.4069829 68.080875,36.3373371 68.003875,36.3135771 L65.98075,35.69192 L67.544875,33.9108 C67.596875,33.8514629 67.606625,33.7653486 67.569,33.6958286 C67.53125,33.6263086 67.454,33.58784 67.37625,33.5995314 L65.19275,33.9315429 L65.693625,31.5116686 C65.709875,31.4317143 65.6735,31.35 65.603375,31.30952 C65.533125,31.2691657 65.4445,31.2783429 65.3845,31.3331543 L63.521,33.0223771 L62.9345,31.20216 C62.910375,31.1274857 62.842625,31.0755657 62.764875,31.0720457 C62.686625,31.0685257 62.6145,31.1135314 62.58375,31.1860686 L61.815375,32.9844114 C61.77425,33.0802057 61.818375,33.1912114 61.9135,33.2321943 C62.00875,33.2731771 62.118875,33.2293029 62.159875,33.1335086 L62.731375,31.7954057 L63.2535,33.4152343 C63.273125,33.4758286 63.32225,33.5228457 63.3835,33.5393143 C63.444625,33.5557829 63.5105,33.5398171 63.5575,33.4972 L65.20975,31.9993143 L64.771125,34.1203657 C64.75825,34.1808343 64.77625,34.2435657 64.818375,34.2885714 C64.8605,34.3332 64.92175,34.3544457 64.982625,34.3452686 L66.9225,34.0500914 L65.507125,35.6618743 C65.46475,35.7100229 65.44975,35.7761486 65.467125,35.838 C65.4845,35.8997257 65.531875,35.9482514 65.593,35.9669829 L67.3695,36.51296 L65.158,37.35512 C65.103875,37.3757371 65.06225,37.42024 65.045125,37.4755543 C65.028,37.5308686 65.037625,37.5914629 65.0705,37.6391086 L65.863625,38.7862514 L64.5225,38.52816 C64.42075,38.5084229 64.322375,38.5754286 64.303,38.6776343 C64.283375,38.7799657 64.35,38.8790286 64.452,38.8983886 L66.24475,39.2439771 C66.256625,39.24624 66.2685,39.2473714 66.280375,39.2473714 C66.343,39.2473714 66.402375,39.2158171 66.437375,39.1616343 C66.479,39.0970171 66.477875,39.0141714 66.434375,38.9510629 L65.51525,37.6220114 L68.0155,36.6699771 C68.09075,36.6415657 68.139125,36.5687771 68.136625,36.4878171 Z" id="Shape"></path>
                    <path d="M35.841,37.9248571 L39.09225,36.6733714 L39.383,40.0930514 L41.849,37.39296 L43.25025,39.7115086 L43.610625,36.8330286 L46.410625,37.8090743 L44.930625,35.2478971 L47.56575,34.0583886 L44.85925,33.1577714 L46.378,30.1158629 L43.739875,30.6685029 L43.34875,27.7388571 L41.24575,30.0699771 L39.6625,27.2199086 L38.561875,30.3058171 L35.719375,29.5744114 L37.455875,32.4022286 L34.3595,33.25432 L37.5935,34.8203429 L35.841,37.9248571 Z M38.005375,33.93192 L37.138125,33.5117829 L37.714875,33.3530057 L38.96675,33.0084229 L38.2765,31.8845371 L37.811375,31.1268571 L38.3305,31.2604914 L39.1765,31.4783543 L39.473,30.6467543 L39.85775,29.5682514 L40.402875,30.5505829 L41.062,31.7361943 L41.961875,30.7385257 L42.668,29.9553257 L42.7805,30.7948457 L42.920875,31.8466971 L43.941625,31.6331086 L44.600125,31.4954514 L43.994625,32.7073371 L43.482125,33.7336686 L44.563125,34.0934629 L44.8695,34.1956686 L44.53225,34.3479086 L43.547125,34.7924343 L44.096125,35.7430857 L44.255125,36.0190286 L43.919,35.9017371 L42.798,35.5111429 L42.649375,36.7022857 L42.635125,36.8179429 L42.00275,35.7721257 L41.13675,36.7202629 L40.1585,37.7913486 L40.057125,36.5953029 L39.946,35.2892571 L38.7435,35.7520114 L38.03275,36.0256914 L38.43375,35.3154057 L38.95525,34.39216 L38.005375,33.93192 Z" id="Shape"></path>
                    <polygon id="Shape" points="33 54.1108229 24 39.0251086 17 36.5108229 13.25 25.1965371 15.75 14.13368 12.068125 6.03390857 6.818375 0.75416 0 0 0 59.7052343 0 59.89368 0 65.9164 81.995875 65.9164 81.995875 59.7052343 31.79075 59.7052343"></polygon>
                </g>
            </g>
        </g>
    </g>
</svg>