<?xml version="1.0" encoding="UTF-8"?>
<svg width="83px" height="31px" viewBox="0 0 83 31" version="1.1" xmlns="http://www.w3.org/2000/svg" xmlns:xlink="http://www.w3.org/1999/xlink">
    <!-- Generator: Sketch 47.1 (45422) - http://www.bohemiancoding.com/sketch -->
    <title>coverage_thirdparty</title>
    <desc>Created with Sketch.</desc>
    <defs></defs>
    <g id="Page-1" stroke="none" stroke-width="1" fill="none" fill-rule="evenodd">
        <g id="new_quote_screen_17jan-copy" transform="translate(-603.000000, -1193.000000)" fill-rule="nonzero" fill="#B6B6B6">
            <g id="coverage_thirdparty" transform="translate(603.000000, 1193.000000)">
                <g id="Group">
                    <path d="M77.3449333,14.4542059 L73.0842667,9.2225 C71.2223,6.93670588 68.3394333,5.80338235 65.3708,5.80155882 L48.8316667,5.79061765 C46.6902667,5.78970588 44.9297444,6.83641176 43.4606444,8.37729412 L37.6644778,14.4569412 L31.5492222,14.9584118 C30.6472889,15.0331765 29.7877778,15.2392353 28.9817556,15.5455882 C28.5381667,14.8991471 27.9082889,14.3867353 27.1659,14.0876765 L29.4908222,14.0876765 C29.6097889,14.0876765 29.7057,13.9919412 29.7057,13.8743235 L29.7057,12.4893529 C29.7057,12.3717353 29.6097889,12.2769118 29.4908222,12.2769118 L26.8366667,12.2769118 C26.8191444,12.2769118 26.8034667,12.2787353 26.7868667,12.2823824 L25.9845333,8.41376471 C25.6654444,6.87470588 24.3300667,5.79882353 22.7401556,5.79882353 L6.99413333,5.79882353 C5.40514444,5.79882353 4.06884444,6.87561765 3.74975556,8.41376471 L2.9465,12.2851176 C2.92713333,12.2796471 2.90592222,12.276 2.88378889,12.276 L0.229633333,12.276 C0.111588889,12.276 0.0147555556,12.3708235 0.0147555556,12.4884412 L0.0147555556,13.8734118 C0.0147555556,13.9901176 0.111588889,14.0867647 0.229633333,14.0867647 L2.573,14.0867647 L2.56654444,14.1186765 C1.14078889,14.7277353 0.137411111,16.1327647 0.137411111,17.7611765 L0.137411111,26.1348235 L2.04364444,26.1348235 L2.04364444,29.5967941 C2.04364444,30.1867059 2.71594444,30.6726765 3.53856667,30.6726765 L5.63293333,30.6726765 C6.4574,30.6726765 7.1297,30.1876176 7.1297,29.5967941 L7.1297,26.1348235 L22.1766778,26.1348235 L22.1766778,29.5967941 C22.1766778,30.1867059 22.8489778,30.6726765 23.6716,30.6726765 L25.7659667,30.6726765 C26.5904333,30.6726765 27.2627333,30.1876176 27.2627333,29.5967941 L27.2627333,26.1348235 L29.6697333,26.1348235 L29.6697333,25.2859706 L31.1268444,25.2859706 C31.4035111,28.3932647 34.0539778,30.8459118 37.2660778,30.8459118 C40.4791,30.8459118 43.1277222,28.3941765 43.4062333,25.2859706 L63.8897111,25.2859706 C64.1654556,28.3932647 66.815,30.8459118 70.0289444,30.8459118 C73.2410444,30.8459118 75.8915111,28.3941765 76.1691,25.2859706 L78.0864,25.2859706 C80.7820556,25.2859706 82.9824778,23.1114118 82.9824778,20.4454118 L82.9824778,14.4523824 L77.3449333,14.4523824 L77.3449333,14.4542059 Z M5.49552222,9.32097059 C5.76388889,8.09738235 6.88992222,7.23941176 8.22991111,7.23941176 L21.5062222,7.23941176 C22.8462111,7.23941176 23.9722444,8.09647059 24.2415333,9.32097059 L25.2246222,13.7986471 L4.51151111,13.7986471 L5.49552222,9.32097059 Z M8.02886667,21.4292059 C8.02886667,21.6152059 7.87485556,21.7656471 7.68856667,21.7656471 L1.7845,21.7656471 C1.59821111,21.7656471 1.4442,21.6152059 1.4442,21.4292059 L1.4442,18.9820294 C1.4442,18.7960294 1.59821111,18.6455882 1.7845,18.6455882 L7.68856667,18.6455882 C7.87485556,18.6455882 8.02886667,18.7960294 8.02886667,18.9820294 L8.02886667,21.4292059 Z M20.6181222,21.8650294 L9.59018889,21.8650294 L9.59018889,21.2623529 L20.6181222,21.2623529 L20.6181222,21.8650294 Z M20.6181222,20.5028529 L9.59018889,20.5028529 L9.59018889,19.8992647 L20.6181222,19.8992647 L20.6181222,20.5028529 Z M20.6181222,19.1753235 L9.59018889,19.1753235 L9.59018889,18.5726471 L20.6181222,18.5726471 L20.6181222,19.1753235 Z M28.3620222,21.4292059 C28.3620222,21.6152059 28.2089333,21.7656471 28.0226444,21.7656471 L22.1185778,21.7656471 C21.9313667,21.7656471 21.7782778,21.6152059 21.7782778,21.4292059 L21.7782778,18.9820294 C21.7782778,18.7960294 21.9313667,18.6455882 22.1185778,18.6455882 L28.0226444,18.6455882 C28.2089333,18.6455882 28.3620222,18.7960294 28.3620222,18.9820294 L28.3620222,21.4292059 Z M71.1531333,10.4925882 L74.3799889,14.4542059 L58.7750667,14.4542059 L58.7750667,7.49379412 L64.4006222,7.49744118 C66.9994444,7.49926471 69.5235667,8.49126471 71.1531333,10.4925882 Z M45.2211667,9.75314706 C46.5076667,8.40464706 48.0477778,7.48832353 49.9226556,7.48923529 L57.0329889,7.49288235 L57.0329889,14.4542059 L40.7382444,14.4542059 L45.2211667,9.75314706 Z M37.2688444,27.7987941 C35.5710333,27.7987941 34.1849333,26.4275 34.1849333,24.7480294 C34.1849333,23.0685588 35.5710333,21.6990882 37.2688444,21.6990882 C38.9685,21.6990882 40.3536778,23.0685588 40.3536778,24.7480294 C40.3536778,26.4275 38.9685,27.7987941 37.2688444,27.7987941 Z M70.0317111,27.7987941 C68.3329778,27.7987941 66.9478,26.4275 66.9478,24.7480294 C66.9478,23.0685588 68.3329778,21.6990882 70.0317111,21.6990882 C71.7304444,21.6990882 73.1156222,23.0685588 73.1156222,24.7480294 C73.1156222,26.4275 71.7304444,27.7987941 70.0317111,27.7987941 Z" id="Shape"></path>
                    <path d="M26.7407556,9.27355882 C26.8569556,9.33647059 27.0017444,9.29270588 27.0653778,9.17782353 L27.4342667,8.50767647 L27.8815444,9.51882353 C27.9193556,9.60361765 28.0032778,9.65923529 28.0955,9.66105882 C28.2080111,9.64282353 28.2753333,9.61 28.3159111,9.52702941 L30.2996111,5.43867647 L30.9866667,10.5974412 C30.9977333,10.6758529 31.0466111,10.7442353 31.1194667,10.7797941 C31.1904778,10.8144412 31.2753222,10.8107941 31.3444889,10.7725 L34.3066667,9.06841176 L33.2756222,12.5039412 C33.2498,12.5914706 33.2765444,12.6862941 33.3447889,12.7473824 C33.3899778,12.7865882 33.4462333,12.8075588 33.5043333,12.8075588 C33.5366111,12.8075588 33.5679667,12.8011765 33.5993222,12.7884118 L41.0084556,9.68932353 C41.1301889,9.63826471 41.1873667,9.49967647 41.1357222,9.37932353 C41.0831556,9.25805882 40.9429778,9.20061765 40.8212444,9.2535 L33.8787556,12.1574706 L34.9383889,8.63076471 C34.9660556,8.53776471 34.9337778,8.43747059 34.8563111,8.37729412 C34.7797667,8.31711765 34.6727889,8.30982353 34.5888667,8.35814706 L31.4155,10.1825882 L30.6703444,4.58708824 C30.6565111,4.48223529 30.5753556,4.40017647 30.4702222,4.38376471 C30.3669333,4.36826471 30.2627222,4.42114706 30.2175333,4.51505882 L28.1111778,8.85505882 L27.6758889,7.87217647 C27.6399222,7.79011765 27.5578444,7.73358824 27.4665444,7.72994118 C27.3687889,7.719 27.2894778,7.77461765 27.2461333,7.85394118 L26.6439222,8.94988235 C26.5812111,9.06658824 26.6245556,9.21064706 26.7407556,9.27355882 Z" id="Shape"></path>
                    <path d="M27.7358333,7.43270588 C27.7690333,7.52479412 27.8557222,7.58679412 27.9544,7.58952941 C28.0512333,7.58041176 28.1425333,7.533 28.1812667,7.44364706 L30.8003778,1.2555 L31.8996667,8.30435294 C31.9116556,8.37638235 31.955,8.43838235 32.0186333,8.47485294 C32.0822667,8.51132353 32.1597333,8.51588235 32.2279778,8.48761765 L35.7453333,7.05341176 L34.8138889,10.5026176 C34.7908333,10.5883235 34.8185,10.6804118 34.8858222,10.7396765 C34.9300889,10.7797941 34.9863444,10.8007647 35.0444444,10.8007647 C35.0730333,10.8007647 35.1025444,10.7952941 35.1311333,10.7843529 L42.5199778,7.96882353 C42.6454,7.92141176 42.7053444,7.78464706 42.6573889,7.66247059 C42.6103556,7.54029412 42.4711,7.48194118 42.3484444,7.52752941 L35.3976556,10.1762059 L36.3318667,6.71514706 C36.3549222,6.62761765 36.3272556,6.53461765 36.2590111,6.47535294 C36.1907667,6.41608824 36.0939333,6.39876471 36.0100111,6.43523529 L32.3266556,7.936 L31.1434444,0.355588235 C31.1277667,0.250735294 31.0438444,0.168676471 30.9359444,0.156823529 C30.8280444,0.1395 30.7266,0.202411765 30.6860222,0.299970588 L27.9765333,6.70238235 L27.5855111,5.63379412 C27.5403222,5.51070588 27.4047556,5.44597059 27.2784111,5.49155882 C27.1539111,5.53623529 27.0902778,5.67117647 27.1354667,5.79426471 L27.7358333,7.43270588 Z" id="Shape"></path>
                </g>
            </g>
        </g>
    </g>
</svg>