<?xml version="1.0" encoding="UTF-8"?>
<svg width="62px" height="42px" viewBox="0 0 62 42" version="1.1" xmlns="http://www.w3.org/2000/svg" xmlns:xlink="http://www.w3.org/1999/xlink">
    <!-- Generator: Sketch 47.1 (45422) - http://www.bohemiancoding.com/sketch -->
    <title>coverage_accidents</title>
    <desc>Created with Sketch.</desc>
    <defs></defs>
    <g id="Page-1" stroke="none" stroke-width="1" fill="none" fill-rule="evenodd">
        <g id="new_quote_screen_17jan-copy" transform="translate(-244.000000, -938.000000)" fill-rule="nonzero" fill="#B6B6B6">
            <g id="coverage_accidents" transform="translate(244.000000, 938.000000)">
                <g id="Group">
                    <path d="M7.896,38.022 C8.009,38.587 8.243,39.169 8.558,39.653 C8.873,40.121 9.325,40.541 9.794,40.856 C10.238,41.155 10.779,41.316 11.24,41.502 L12.726,41.502 C15.117,40.824 16.481,39.071 16.296,37.004 C16.094,34.823 14.479,33.208 12.306,33.039 C10.319,32.886 8.397,34.283 7.945,36.294 C7.815,36.85 7.799,37.464 7.896,38.022 Z M10.158,37.287 C10.166,36.229 10.998,35.397 12.056,35.397 C13.13,35.405 13.946,36.237 13.938,37.335 C13.93,38.353 13.09,39.184 12.048,39.176 C10.997,39.176 10.149,38.336 10.158,37.287 Z" id="Shape"></path>
                    <path d="M35.637,38.022 C35.742,38.587 35.976,39.169 36.299,39.653 C36.606,40.121 37.058,40.541 37.535,40.856 C37.979,41.155 38.52,41.316 38.973,41.502 L40.467,41.502 C42.849,40.824 44.214,39.071 44.029,37.004 C43.835,34.823 42.22,33.208 40.048,33.039 C38.053,32.886 36.139,34.283 35.687,36.294 C35.548,36.85 35.54,37.464 35.637,38.022 Z M37.89,37.287 C37.898,36.229 38.73,35.397 39.788,35.397 C40.87,35.405 41.678,36.237 41.678,37.335 C41.67,38.353 40.822,39.184 39.788,39.176 C38.73,39.176 37.89,38.336 37.89,37.287 Z" id="Shape"></path>
                    <path d="M51.485,33.487 L50.908,33.495 C50.274,33.511 49.738,33.056 49.73,32.479 L49.722,31.918 L51.12,31.894 C50.722,30.74 50.048,29.725 49.064,28.847 L49.064,28.84 C48.666,28.466 48.203,28.117 47.699,27.792 C45.7,26.508 43.539,25.736 41.288,25.224 C40.354,25.695 39.403,25.923 38.404,25.931 L38.339,25.931 C37.315,25.931 36.267,25.72 35.308,25.322 C36.194,26.07 36.551,26.581 36.551,26.581 C37.55,27.54 36.762,27.621 36.762,27.621 L20.463,26.93 C19.732,26.881 19.553,25.939 19.553,25.939 L19.082,21.202 C18.993,19.983 20.358,20.268 20.358,20.268 C24.494,20.301 29.466,22.007 29.466,22.007 C30.734,22.495 31.806,23.015 32.692,23.518 C32.107,22.909 31.652,22.21 31.303,21.414 C29.515,21.203 28.061,20.374 27.037,18.976 C26.078,18.789 25.111,18.651 24.128,18.562 C19.123,18.075 14.118,18.351 9.121,19.033 C7.09,19.317 5.814,21.105 4.611,22.714 C3.287,24.477 1.848,26.419 1.751,28.792 C1.735,29.125 1.532,29.474 1.32,29.743 C-0.264,31.734 -0.321,37.007 2.019,38.543 C2.027,38.543 2.157,38.632 2.157,38.632 L5.992,38.632 C5.228,34.147 8.69,31.238 11.728,31.141 C13.548,31.076 15.132,31.653 16.408,32.945 C17.976,34.529 18.496,36.447 18.098,38.633 L33.585,38.633 C32.764,34.343 36.177,31.215 39.492,31.117 C42.856,31.02 46.545,34.156 45.716,38.633 L48.072,38.633 C48.096,38.641 48.129,38.649 48.153,38.649 C48.316,38.649 48.478,38.649 48.632,38.641 C50.038,38.56 51.175,37.958 51.427,36.098 C51.558,35.169 51.583,34.3 51.485,33.487 Z M16.969,26.865 L7.129,26.735 C5.512,26.743 5.829,26.044 5.902,25.874 C5.983,25.711 6.365,25.167 6.365,25.167 C7.657,23.266 10.753,21.998 10.753,21.998 C12.541,21.299 16.213,20.527 16.213,20.527 C17.115,20.235 17.342,21.112 17.342,21.112 L17.732,26.133 C17.79,26.841 16.969,26.865 16.969,26.865 Z M24.607,30.514 L20.13,30.514 C19.569,30.514 19.106,30.075 19.106,29.539 C19.106,29.011 19.569,28.572 20.13,28.572 L24.607,28.572 C25.168,28.572 25.639,29.011 25.639,29.539 C25.639,30.075 25.168,30.514 24.607,30.514 Z" id="Shape"></path>
                    <path d="M38.34,24.716 C37.195,24.716 36.021,24.399 35.027,23.82 C33.62,23.004 32.659,21.805 32.169,20.25 C30.122,20.225 28.524,19.333 27.569,17.521 C26.778,16.034 26.759,14.395 27.515,12.781 C27.695,12.38 27.948,12.03 28.192,11.691 L28.209,11.667 C27.34,9.848 27.314,7.975 28.13,6.094 C28.706,4.775 29.627,3.723 30.867,2.967 C30.953,2.903 31.063,2.866 31.155,2.842 C31.258,2.754 31.366,2.672 31.503,2.609 C33.544,1.697 35.507,1.742 37.346,2.732 L37.639,2.931 C38.774,1.413 40.566,0.498 42.486,0.498 C45.824,0.498 48.54,3.21 48.54,6.542 C48.54,7.16 48.447,7.769 48.262,8.357 C48.883,8.915 49.328,9.56 49.654,10.344 C50.175,11.604 50.24,12.969 49.843,14.294 C49.721,14.702 49.288,14.935 48.883,14.811 C48.475,14.688 48.243,14.258 48.366,13.85 C48.571,13.167 48.714,12.105 48.23,10.935 C47.946,10.253 47.544,9.719 47.002,9.305 C46.795,9.185 46.615,8.857 46.615,8.515 L46.615,8.366 L46.67,8.228 C46.887,7.685 46.997,7.118 46.997,6.539 C46.997,4.058 44.974,2.038 42.487,2.038 C40.85,2.038 39.338,2.931 38.541,4.369 L38.132,5.106 L37.434,4.634 C37.297,4.542 37.148,4.445 36.993,4.347 L36.563,4.057 C35.199,3.324 33.736,3.303 32.144,4.011 C32.079,4.084 32.023,4.133 31.967,4.174 L31.612,4.32 C30.656,4.933 29.977,5.726 29.547,6.709 C28.875,8.258 28.931,9.737 29.718,11.23 C29.855,11.486 29.953,11.889 29.632,12.331 L29.445,12.593 C29.237,12.881 29.04,13.154 28.92,13.423 C28.364,14.607 28.371,15.74 28.935,16.798 C29.666,18.185 30.823,18.798 32.477,18.693 C33.036,18.644 33.44,18.966 33.562,19.508 C33.898,20.808 34.654,21.818 35.804,22.484 C36.567,22.929 37.466,23.172 38.342,23.172 C38.356,23.172 38.369,23.172 38.383,23.172 C39.218,23.165 39.963,22.901 40.797,22.315 C41.144,22.07 41.626,22.154 41.871,22.504 C42.116,22.853 42.032,23.334 41.683,23.579 C40.592,24.345 39.548,24.705 38.396,24.715 C38.376,24.716 38.358,24.716 38.34,24.716 Z" id="Shape"></path>
                    <path d="M56.01,25.064 C55.967,25.069 55.924,25.073 55.881,25.077 C55.192,25.151 54.48,25.227 53.875,24.899 C53.643,25.326 53.096,26.128 52.309,26.018 C52.23,26.007 52.158,25.982 52.084,25.959 C52.093,25.906 52.103,25.853 52.109,25.797 C52.12,25.698 52.142,25.599 52.197,25.511 C52.23,25.456 52.296,25.412 52.34,25.368 C52.472,25.236 52.56,25.049 52.571,24.861 C52.582,24.806 52.582,24.751 52.626,24.718 C52.659,24.674 52.714,24.685 52.769,24.674 C52.989,24.641 53.133,24.432 53.243,24.244 C53.397,23.98 53.552,23.726 53.717,23.462 C53.827,23.264 53.981,23.065 54.18,22.988 C52.483,22.04 50.853,21.005 49.332,19.815 C49.288,19.771 49.233,19.738 49.189,19.705 C48.682,19.308 47.547,18.328 47.514,18.317 C47.128,17.986 45.784,16.786 45.696,16.73 C45.641,16.686 45.608,16.532 45.63,16.433 C45.74,15.882 45.928,15.342 45.994,14.78 C46.104,13.876 46.016,12.984 45.476,12.147 C45.542,13.381 45.311,14.494 44.606,15.585 C43.923,14.704 43.295,13.877 42.656,13.051 C42.623,13.073 42.601,13.084 42.568,13.106 C42.711,14.34 43.097,15.519 43.648,16.632 C44.199,17.734 44.838,18.792 45.455,19.893 C44.551,20.025 43.659,19.926 42.767,19.75 C41.875,19.563 41.026,19.243 40.211,18.835 C40.872,19.882 41.809,20.587 42.922,21.083 C44.277,21.689 45.71,21.964 47.219,21.975 C47.241,21.975 47.627,22.339 47.814,22.526 C48.145,22.879 48.453,23.176 48.728,23.441 C48.783,23.496 48.838,23.551 48.893,23.595 C48.992,23.683 49.08,23.771 49.168,23.848 C49.708,24.344 50.049,24.608 50.072,24.63 C50.557,25.027 51.262,25.908 51.89,26.062 C51.9,26.064 51.912,26.064 51.922,26.066 C52.491,27.85 52.8,29.727 52.855,31.691 C52.871,32.262 54.33,37.182 54.29,37.778 C56.801,36.807 59.281,35.848 61.813,34.869 C60.012,33.278 57.067,27.104 56.01,25.064 Z" id="Shape"></path>
                </g>
            </g>
        </g>
    </g>
</svg>