<?xml version="1.0" encoding="UTF-8"?>
<svg width="42px" height="58px" viewBox="0 0 42 58" version="1.1" xmlns="http://www.w3.org/2000/svg" xmlns:xlink="http://www.w3.org/1999/xlink">
    <!-- Generator: Sketch 47.1 (45422) - http://www.bohemiancoding.com/sketch -->
    <title>coverage_illegaldriving</title>
    <desc>Created with Sketch.</desc>
    <defs></defs>
    <g id="Page-1" stroke="none" stroke-width="1" fill="none" fill-rule="evenodd">
        <g id="new_quote_screen_17jan-copy" transform="translate(-255.000000, -1620.000000)" fill-rule="nonzero" fill="#A2A2A2">
            <g id="coverage_illegaldriving" transform="translate(255.000000, 1620.000000)">
                <path d="M12.559377,23.0701905 C15.4800984,23.0888333 17.8568852,20.7156667 17.8761639,17.7908095 C17.8864918,14.8535238 15.5227869,12.4644762 12.6020656,12.454119 C9.67377049,12.441 7.29560656,14.8045 7.28734426,17.7335 C7.27288525,20.6749286 9.6262623,23.0653571 12.559377,23.0701905 Z" id="Shape"></path>
                <path d="M8.76422951,25.2472619 C8.79177049,25.2155 8.82068852,25.185119 8.84822951,25.1547381 L5.20868852,21.5041905 L3.76691803,22.9500476 L7.78721311,26.9810476 C8.00065574,26.3458095 8.32701639,25.7595952 8.76422951,25.2472619 Z" id="Shape"></path>
                <path d="M18.9454426,34.3684524 C19.5520328,34.9912619 20.4340328,35.3289048 21.3607869,35.1977143 L30.5546557,33.8947857 C31.3430164,33.783619 32.0081311,33.3541429 32.4425902,32.7555 L31.1998033,36.0974048 C30.997377,36.6415 31.2734754,37.2477381 31.8167213,37.4507381 C32.3585902,37.6537381 32.9638033,37.3761667 33.165541,36.8320714 L36.6742623,27.3884286 C36.876,26.8436429 36.6005902,26.2374048 36.0573443,26.0350952 C35.5147869,25.8320952 34.9095738,26.1096667 34.7078361,26.6537619 L32.9706885,31.3317381 C32.9879016,31.1239048 32.9851475,30.9112381 32.955541,30.6958095 C32.7372787,29.1477619 31.3085902,28.0692381 29.763541,28.288119 L22.1932131,29.3604286 L16.591377,25.6988333 C13.8228197,22.3514048 7.55104918,24.4835952 8.36488525,29.7105 L11.1582295,43.704381 C11.1802623,43.8183095 11.2071148,43.9308571 11.2367213,44.0427143 L19.2683607,35.987619 L18.9454426,34.3684524 Z" id="Shape"></path>
                <path d="M41.0883934,53.141119 L28.8629508,40.8810238 C28.3183279,40.3362381 27.607082,40.0607381 26.894459,40.0531429 C26.9116721,40.0469286 26.9281967,40.0407143 26.9460984,40.0351905 L20.0753115,40.0241429 L19.7503279,38.397381 L12.2123607,45.9560238 C13.0434098,46.9620476 14.3027213,47.6414762 15.9269508,47.6414762 L27.2476721,47.6414762 L27.6249836,47.6490714 L37.0942623,57.1451905 C38.1965902,58.2506429 39.9846885,58.2506429 41.0877049,57.1451905 C42.1900328,56.0390476 42.1900328,54.245881 41.0883934,53.141119 Z" id="Shape"></path>
                <path d="M9.31436066,45.9705238 C9.13121311,45.5534762 8.99006557,45.1157143 8.89918033,44.6648333 L6.91140984,33.9341429 C6.2944918,30.5169762 1.8115082,31.3310476 2.44081967,34.7530476 L4.3624918,45.4326429 C5.10265574,49.3041429 7.91183607,52.6488095 11.9493443,53.8599048 C12.9890164,54.1630238 14.0493443,54.318381 15.0841967,54.318381 L21.9102295,54.3494524 C25.3741967,54.3639524 25.396918,49.8033571 21.9501639,49.8302857 L15.4642623,49.7936905 C14.7530164,49.7412143 14.0142295,49.7149762 13.2954098,49.4981667 C12.1641639,49.1612143 11.2002295,48.5315 10.4552459,47.7195 L12.2123607,45.9567143 C11.7524262,45.3988095 11.4233115,44.7414762 11.2374098,44.0440952 L9.31436066,45.9705238 Z" id="Shape"></path>
                <path d="M8.69262295,6.64583333 C8.58108197,6.61130952 8.46678689,6.58438095 8.3524918,6.56642857 C8.34009836,5.54866667 8.11977049,4.48809524 7.55518033,3.60980952 C7.11934426,2.9317619 6.45009836,2.55130952 5.61836066,2.50780952 C5.61629508,2.4967619 5.61422951,2.48640476 5.61216393,2.47604762 C5.40904918,1.42652381 4.81760656,0.950095238 4.35767213,0.73397619 C3.47154098,0.319690476 2.38504918,0.514404762 1.70340984,0.892095238 C1.58016393,0.961142857 1.53540984,1.1165 1.60357377,1.24009524 C1.6717377,1.36369048 1.82665574,1.40857143 1.94990164,1.34021429 C2.50072131,1.03571429 3.42059016,0.860333333 4.14147541,1.19797619 C4.64134426,1.43204762 4.96357377,1.87809524 5.10196721,2.52230952 C3.67947541,2.66730952 2.17229508,3.64433333 1.4362623,4.61928571 C0.677508197,5.62392857 -0.057147541,7.1457381 0.364918033,8.13104762 C0.498491803,8.44383333 0.813147541,8.8332619 1.55055738,8.9147381 C2.28314754,8.99483333 3.02193443,8.37754762 3.51009836,7.84380952 C4.6227541,6.63133333 5.64865574,4.53988095 5.65967213,3.02359524 C6.2972459,3.074 6.79022951,3.36469048 7.12760656,3.88669048 C7.62954098,4.66830952 7.82990164,5.61633333 7.84436066,6.53535714 C6.84393443,6.56711905 5.8352459,7.12088095 5.2837377,7.79547619 C4.49813115,8.75869048 4.34183607,10.3336667 4.95462295,11.1007857 C5.16255738,11.3604048 5.43590164,11.4922857 5.74711475,11.4922857 C5.95022951,11.4922857 6.1684918,11.4356667 6.39501639,11.3217381 C7.10213115,10.963381 7.73419672,9.98083333 8.08396721,8.69171429 C8.21409836,8.21183333 8.30842623,7.66083333 8.34078689,7.08290476 C8.4082623,7.09533333 8.47504918,7.11259524 8.54114754,7.13330952 C9.47340984,7.42538095 10.0338689,8.42795238 10.162623,10.0319286 C10.1736393,10.1727857 10.2955082,10.279119 10.4366557,10.266 C10.5771148,10.2542619 10.681082,10.1313571 10.6707541,9.9905 C10.4848525,7.68085714 9.492,6.89716667 8.69262295,6.64583333 Z M3.13347541,7.49788095 C2.56337705,8.11930952 2.00842623,8.45004762 1.60495082,8.40654762 C1.20354098,8.36235714 0.950163934,8.20561905 0.831737705,7.92942857 C0.563901639,7.30454762 0.978393443,6.07135714 1.84042623,4.92861905 C2.49452459,4.06345238 3.88190164,3.16169048 5.14947541,3.03188095 C5.14052459,4.40178571 4.158,6.38207143 3.13347541,7.49788095 Z M7.59098361,8.55983333 C7.28321311,9.69359524 6.73721311,10.5780952 6.16436066,10.8667143 C5.6335082,11.136 5.4207541,10.8694762 5.35121311,10.7824762 C4.93740984,10.2653095 4.99042623,8.96169048 5.67688525,8.12069048 C6.13406557,7.56071429 6.99540984,7.08497619 7.83334426,7.04838095 C7.80236066,7.59040476 7.71354098,8.10895238 7.59098361,8.55983333 Z" id="Shape"></path>
                <path d="M26.461377,26.5239524 C25.2585246,26.5239524 24.9528197,25.7851429 24.8874098,25.5586667 C24.8419672,25.4012381 24.5397049,24.3565476 24.1988852,23.1758333 C24.1286557,23.2089762 24.0563607,23.2310714 23.9881967,23.271119 L18.6686557,26.4452381 L22.3123279,28.827381 L25.3728197,28.3930714 L26.5942623,27.6639286 C27.1216721,27.3490714 27.4831475,26.869881 27.6759344,26.333381 C27.2153115,26.4555952 26.8056393,26.5239524 26.461377,26.5239524 Z" id="Shape"></path>
                <path d="M26.0241639,16.9746667 C25.8265574,16.3311429 25.5270492,15.4535476 25.2757377,15.095881 L25.1938033,14.8107143 L25.3232459,14.7727381 C25.3700656,14.7589286 25.3859016,14.672619 25.3590492,14.5794048 C25.3321967,14.486881 25.2729836,14.4226667 25.2261639,14.4364762 L25.0967213,14.4744524 L24.9975738,14.1305952 L23.646,14.5227857 L23.7458361,14.8666429 L23.6157049,14.904619 C23.5695738,14.9184286 23.5516721,15.0047381 23.5785246,15.0965714 C23.605377,15.1897857 23.6659672,15.2546905 23.7120984,15.2401905 L23.8422295,15.2022143 L23.9248525,15.487381 C23.9028197,15.9244524 24.1169508,16.8262143 24.2918361,17.4766429 C23.8890492,17.7390238 23.5399672,18.4115476 23.8091803,19.343 C24.0054098,20.0245 25.4437377,25.0042143 25.5483934,25.3660238 C25.6502951,25.721619 26.152918,26.0502857 27.5905574,25.6463571 C29.020623,25.2175714 29.2698689,24.6707143 29.1672787,24.315119 C29.0633115,23.9546905 27.6249836,18.9742857 27.4287541,18.2920952 C27.1588525,17.3613333 26.5061311,16.9801905 26.0241639,16.9746667 Z" id="Shape"></path>
            </g>
        </g>
    </g>
</svg>