<?xml version="1.0" encoding="UTF-8"?>
<svg width="52px" height="45px" viewBox="0 0 52 45" version="1.1" xmlns="http://www.w3.org/2000/svg" xmlns:xlink="http://www.w3.org/1999/xlink">
    <!-- Generator: Sketch 47.1 (45422) - http://www.bohemiancoding.com/sketch -->
    <title>coverage_fire</title>
    <desc>Created with Sketch.</desc>
    <defs></defs>
    <g id="Page-1" stroke="none" stroke-width="1" fill="none" fill-rule="evenodd">
        <g id="new_quote_screen_17jan-copy" transform="translate(-614.000000, -935.000000)" fill-rule="nonzero" fill="#B6B6B6">
            <g id="coverage_fire" transform="translate(614.000000, 935.000000)">
                <g id="Group">
                    <path d="M50.4064516,32.8333333 C50.1548387,32.5833333 49.9870968,32.25 49.9870968,31.9166667 C49.9032258,29.5833333 48.4774194,27.6666667 47.1354839,25.9166667 C45.9612903,24.3333333 44.7032258,22.5833333 42.6903226,22.25 C37.7419355,21.5833333 32.7096774,21.3333333 27.7612903,21.75 C22.2258065,22.25 17.1096774,24.25 12.4967742,27.75 C12.2451613,27.9166667 11.9096774,28.0833333 11.5741935,28.1666667 C9.05806452,28.6666667 6.54193548,29.4166667 4.27741935,30.9166667 C3.77419355,31.25 3.27096774,31.5833333 2.93548387,31.9166667 L2.93548387,31.9166667 C1.92903226,32.75 1.25806452,33.8333333 0.922580645,34.9166667 L2.3483871,34.9166667 L2.3483871,35.5 C2.3483871,36.0833333 1.84516129,36.5 1.17419355,36.5 L0.587096774,36.5 C0.503225806,37.3333333 0.503225806,38.1666667 0.670967742,39.0833333 C0.922580645,40.9166667 2.01290323,41.5 3.43870968,41.5833333 C3.60645161,41.5833333 3.77419355,41.5833333 3.94193548,41.5833333 C3.94193548,41.5833333 4.02580645,41.5833333 4.02580645,41.5833333 L8.21935484,41.5833333 C8.63870968,42.9166667 9.81290323,43.9166667 11.5741935,44.4166667 L13.083871,44.4166667 C13.5032258,44.25 14.0903226,44.0833333 14.5096774,43.75 C15.0129032,43.4166667 15.4322581,43 15.7677419,42.5833333 C16.0193548,42.25 16.1870968,41.9166667 16.2709677,41.5833333 L35.8967742,41.5833333 C36.316129,42.9166667 37.4903226,43.9166667 39.2516129,44.4166667 L40.7612903,44.4166667 C41.1806452,44.25 41.7677419,44.0833333 42.1870968,43.75 C42.6903226,43.4166667 43.1096774,43 43.4451613,42.5833333 C43.6129032,42.25 43.7806452,41.9166667 43.9483871,41.5833333 L49.8193548,41.5833333 C49.8193548,41.5833333 49.9032258,41.5 49.9870968,41.5 C52.083871,40 52,34.8333333 50.4064516,32.8333333 Z M13.5032258,41.5833333 C13.1677419,41.9166667 12.6645161,42.0833333 12.1612903,42.0833333 C11.6580645,42.0833333 11.1548387,41.9166667 10.8193548,41.5833333 C10.483871,41.25 10.2322581,40.8333333 10.2322581,40.3333333 C10.2322581,39.25 11.0709677,38.4166667 12.0774194,38.4166667 C13.1677419,38.4166667 13.9225806,39.25 13.9225806,40.25 C14.0064516,40.8333333 13.8387097,41.25 13.5032258,41.5833333 Z M31.7032258,33.5833333 L27.2580645,33.5833333 C26.6709677,33.5833333 26.2516129,33.1666667 26.2516129,32.6666667 C26.2516129,32.1666667 26.7548387,31.6666667 27.2580645,31.6666667 L31.7032258,31.6666667 C32.2903226,31.6666667 32.7096774,32.0833333 32.7096774,32.6666667 C32.7096774,33.1666667 32.2903226,33.5833333 31.7032258,33.5833333 Z M32.2903226,29.0833333 C32.2903226,29.0833333 32.1225806,30 31.3677419,30.0833333 L15.1806452,30.75 C15.1806452,30.75 14.4258065,30.6666667 15.4322581,29.75 C15.4322581,29.75 17.1935484,27.25 22.4774194,25.25 C22.4774194,25.25 27.4258065,23.5833333 31.5354839,23.5 C31.5354839,23.5 32.8774194,23.25 32.7935484,24.4166667 L32.2903226,29.0833333 Z M41.0967742,41.5833333 C40.7612903,41.9166667 40.2580645,42.0833333 39.7548387,42.0833333 C39.2516129,42.0833333 38.7483871,41.9166667 38.4129032,41.5833333 C38.0774194,41.25 37.9096774,40.8333333 37.8258065,40.3333333 C37.8258065,39.25 38.6645161,38.4166667 39.6709677,38.4166667 C40.7612903,38.4166667 41.516129,39.25 41.6,40.25 C41.6,40.8333333 41.4322581,41.25 41.0967742,41.5833333 Z M44.6193548,29.8333333 L34.8903226,30 C34.8903226,30 34.0516129,30 34.1354839,29.25 L34.5548387,24.25 C34.5548387,24.25 34.8064516,23.4166667 35.6451613,23.6666667 C35.6451613,23.6666667 39.3354839,24.4166667 41.0967742,25.0833333 C41.0967742,25.0833333 44.2,26.3333333 45.4580645,28.25 C45.4580645,28.25 45.8774194,28.8333333 45.8774194,28.9166667 C45.8774194,29.1666667 46.2129032,29.9166667 44.6193548,29.8333333 Z" id="Shape"></path>
                    <path d="M22.7290323,19.75 C20.883871,20.1666667 19.1225806,20.75 17.4451613,21.5 C17.3612903,21.4166667 17.2774194,21.25 17.1935484,21.1666667 C17.1096774,21.0833333 17.0258065,20.9166667 16.9419355,20.8333333 C16.5225806,20.3333333 15.683871,20.5 15.516129,21.0833333 C15.2645161,21.75 14.9290323,22.25 14.4258065,22.75 C14.2580645,22.9166667 14.0064516,23.0833333 13.7548387,23.1666667 C12.3290323,23.3333333 13.6709677,20.5 13.8387097,20 C14.3419355,18.6666667 14.7612903,17.4166667 15.0129032,15.9166667 C15.2645161,14.3333333 14.2580645,12 14.1741935,12.3333333 C13.9225806,13.6666667 13.3354839,14.5 12.5806452,15.3333333 C12.5806452,15.3333333 12.4967742,15.4166667 12.4967742,15.4166667 C12.2451613,15.6666667 11.9935484,15.9166667 11.6580645,16.1666667 C10.7354839,17 9.72903226,17.75 8.89032258,18.75 C7.71612903,20.1666667 7.21290323,22.0833333 7.12903226,23.9166667 C7.12903226,24.5 7.12903226,25.4166667 7.29677419,26.1666667 C6.96129032,26.25 6.62580645,26.4166667 6.20645161,26.5833333 C5.87096774,26.4166667 5.61935484,26.25 5.36774194,26 C3.18709677,24.4166667 1.59354839,21.3333333 1.42580645,18.6666667 C1.25806452,16.25 2.18064516,13.5833333 3.18709677,11.4166667 C4.02580645,9.58333333 5.61935484,7.66666667 5.61935484,5.58333333 C5.61935484,5.25 6.96129032,7.08333333 7.04516129,8.58333333 C7.04516129,9 7.04516129,9.5 7.04516129,9.91666667 C6.96129032,10.75 6.87741935,11.5833333 6.70967742,12.4166667 C6.62580645,12.9166667 5.95483871,15.6666667 7.21290323,15.25 C7.21290323,15.25 7.29677419,15.25 7.29677419,15.1666667 C7.46451613,15.0833333 7.5483871,14.9166667 7.63225806,14.75 C7.63225806,14.75 7.63225806,14.6666667 7.71612903,14.6666667 C7.71612903,14.6666667 7.71612903,14.5833333 7.8,14.5833333 C7.88387097,14.4166667 8.0516129,14.25 8.0516129,14.0833333 C8.0516129,14.0833333 8.0516129,14 8.13548387,14 C8.21935484,13.75 8.30322581,13.4166667 8.38709677,13.1666667 C8.38709677,13.1666667 8.38709677,13.1666667 8.38709677,13.1666667 C8.38709677,13.0833333 8.47096774,13 8.47096774,12.9166667 C8.47096774,12.75 8.47096774,12.6666667 8.55483871,12.5 C8.55483871,12.4166667 8.55483871,12.4166667 8.55483871,12.3333333 C8.72258065,10.8333333 8.89032258,9.41666667 8.63870968,8 C8.13548387,5.08333333 9.22580645,1.75 11.9935484,0.25 C11.9935484,0.25 11.9096774,0.333333333 11.9096774,0.333333333 C11.1548387,2.25 14.1741935,12.0833333 16.6064516,9.75 C17.1096774,9.33333333 17.0258065,8.58333333 17.0258065,7.91666667 C17.0258065,6.41666667 17.5290323,4.83333333 18.4516129,3.66666667 C19.5419355,7.5 21.7225806,11 22.4774194,14.9166667 C22.5612903,15.1666667 22.5612903,15.4166667 22.6451613,15.6666667 C22.8129032,17.25 22.8967742,18.5833333 22.7290323,19.75 Z" id="Shape"></path>
                </g>
            </g>
        </g>
    </g>
</svg>