<?xml version="1.0" encoding="UTF-8"?>
<svg width="35px" height="35px" viewBox="0 0 35 35" version="1.1" xmlns="http://www.w3.org/2000/svg" xmlns:xlink="http://www.w3.org/1999/xlink">
    <!-- Generator: Sketch 47.1 (45422) - http://www.bohemiancoding.com/sketch -->
    <title>Facebook Copy</title>
    <desc>Created with Sketch.</desc>
    <defs>
        <polygon id="path-1" points="0 17.8181818 0 0 9.33333333 0 9.33333333 17.8181818"></polygon>
    </defs>
    <g id="Page-1" stroke="none" stroke-width="1" fill="none" fill-rule="evenodd">
        <g id="Footer_Web" transform="translate(-80.000000, -894.000000)">
            <g id="Facebook-Copy" transform="translate(80.000000, 894.000000)">
                <circle id="Oval-Copy" fill="#4A4A4A" cx="17.5" cy="17.5" r="17.5"></circle>
                <g id="Page-1" transform="translate(12.833333, 8.166667)">
                    <mask id="mask-2" fill="white">
                        <use xlink:href="#path-1"></use>
                    </mask>
                    <g id="Clip-2"></g>
                    <path d="M0,9.6915624 L0,6.51955934 C0.0212319682,6.52090369 0.0423886458,6.52336834 0.0636959047,6.52336834 C0.938874624,6.5235924 1.81405334,6.52351772 2.68923206,6.52351772 C2.76760965,6.52351772 2.76776023,6.52344303 2.76776023,6.44435021 C2.76783552,5.70936205 2.76497447,4.9742992 2.76934133,4.23923635 C2.77084714,3.99874638 2.78447476,3.75788297 2.80435149,3.51806517 C2.83235962,3.17951204 2.90659622,2.84895035 3.01463833,2.52660415 C3.23734812,1.86189583 3.60326076,1.29166571 4.15770124,0.850194821 C4.86031375,0.290644847 5.68068086,0.0540385581 6.5653462,0.00758366169 C6.83104697,-0.00630799544 7.09795239,0.00272905033 7.36440606,0.00482026753 C7.55481616,0.00623930777 7.74537684,0.00900270193 7.93541048,0.0193841016 C8.28641557,0.0385784881 8.63696892,0.0627768585 8.98752227,0.0870499153 C9.10121118,0.0949666662 9.21429776,0.109754559 9.33205236,0.121853744 L9.33205236,0.185561183 C9.33205236,1.08261868 9.33152533,1.97975085 9.3333323,2.87688303 C9.33348289,2.93118 9.31714481,2.94477291 9.26474251,2.94484759 C8.71647587,2.94529571 8.16805864,2.94805911 7.619792,2.95015032 C7.58478184,2.9502997 7.54969639,2.9497022 7.51476152,2.95037438 C7.31411189,2.9541087 7.11609744,2.97808301 6.922751,3.03252934 C6.612177,3.11991235 6.3628896,3.28534257 6.21652454,3.58169792 C6.09681238,3.82450317 6.05909176,4.08575595 6.05668245,4.35022024 C6.05050862,5.05436294 6.05382141,5.75858034 6.05359554,6.46279773 C6.05359554,6.48131994 6.05600484,6.49984215 6.05758594,6.52426458 L9.217987,6.52426458 C9.08028037,7.58324203 8.94332665,8.63497491 8.80584589,9.69208521 L6.05344496,9.69208521 L6.05344496,9.7734933 C6.05344496,12.4300113 6.05336967,15.086604 6.05352025,17.7431967 C6.05352025,17.7682167 6.05570368,17.7932366 6.05675775,17.8181818 L2.76580267,17.8181818 C2.76648029,17.7989127 2.76768494,17.7796437 2.76768494,17.7603746 C2.76783552,15.0958651 2.76783552,12.4315051 2.76776023,9.76699559 C2.76776023,9.68767871 2.76760965,9.68760403 2.68945793,9.68760403 C1.81427921,9.68760403 0.939025205,9.68752934 0.0637711954,9.6877534 C0.0424639365,9.6877534 0.0212319682,9.69021805 0,9.6915624" id="Fill-1" fill="#DEDEDE" mask="url(#mask-2)"></path>
                </g>
            </g>
        </g>
    </g>
</svg>