<?xml version="1.0" encoding="UTF-8"?>
<svg width="26px" height="27px" viewBox="0 0 26 27" version="1.1" xmlns="http://www.w3.org/2000/svg" xmlns:xlink="http://www.w3.org/1999/xlink">
    <!-- Generator: Sketch 49.3 (51167) - http://www.bohemiancoding.com/sketch -->
    <title>header_ola</title>
    <desc>Created with Sketch.</desc>
    <defs></defs>
    <g id="Page-1" stroke="none" stroke-width="1" fill="none" fill-rule="evenodd">
        <g id="header_April17.2_web" transform="translate(-291.000000, -201.000000)" fill-rule="nonzero" stroke-width="0.094">
            <g id="Group-6" transform="translate(268.000000, 43.000000)">
                <g id="header_ola" transform="translate(24.000000, 159.000000)">
                    <path d="M10.4828139,0.185416813 C12.0338554,-0.0824074724 13.6363533,-0.060088782 15.1873948,0.252372884 C15.9518892,0.386285027 16.6575764,0.758263201 17.3191581,1.1451205 C18.0689506,1.59893387 18.833445,2.01554943 19.6052903,2.41728586 C21.46507,3.66713252 22.9867079,5.45262776 23.854115,7.55058466 C24.3466258,8.71115657 24.6406621,9.95356367 24.7656275,11.2108499 C25.0596638,12.862433 24.8979439,14.5735326 24.3613276,16.1581596 C23.934975,17.7279075 22.9573042,19.0372707 22.1707571,20.4283203 C22.0604935,20.6143093 21.9061244,20.7779797 21.7664572,20.9490897 C20.7520319,22.184206 19.553834,23.3001406 18.0689506,23.9176243 C18.1351088,23.8283496 18.1718633,23.7316352 18.1865652,23.6274814 C18.0174943,23.6646792 17.8484234,23.7094653 17.6793525,23.7615423 C17.7749143,23.6350697 17.9219325,23.5679648 18.0542488,23.4786901 C18.5394087,23.1587889 19.0025159,22.8091294 19.4435704,22.4297116 C19.5170795,22.3627556 19.6199922,22.3255577 19.6493958,22.2214039 C19.472974,22.2957995 19.3627104,22.4669094 19.2009904,22.5710633 C16.8707527,24.2747234 13.9524423,25.2121084 11.0708865,24.9591632 C8.10111982,24.7136576 5.27102036,23.2555032 3.28627528,21.008755 C1.91165555,19.4687654 0.911932101,17.5865558 0.404719471,15.5778737 C-0.19805496,13.271609 -0.13189679,10.7867948 0.632597609,8.52516748 C1.07365207,7.21580431 1.72053195,5.9733972 2.58793905,4.90210006 C3.94785697,3.1835609 5.6900221,1.74028558 7.69681989,0.869856654 C8.62303426,0.624351059 9.53454681,0.341647646 10.4828139,0.185416813 Z M10.6298321,0.892175344 C8.52012155,1.27159308 6.53537648,2.28337372 4.9255277,3.7117699 C3.19806439,5.23688042 1.88960282,7.24556256 1.1986175,9.45511291 C0.948686639,10.7123991 0.684053963,11.9920041 0.698755778,13.2790485 C0.963388455,15.1910164 1.53675925,17.0955446 2.60999178,18.7099299 C3.34508254,19.8258644 4.32275327,20.770689 5.42538942,21.4997662 C5.48419668,21.536964 5.55035485,21.5667223 5.60916211,21.589041 C4.96228224,21.127788 4.41096416,20.5549416 3.84494427,19.9969744 C2.00721735,18.1147648 0.97809027,15.4737198 0.985441178,12.8326747 C0.970739362,10.5710474 1.6764265,8.3168597 2.92608081,6.4420897 C3.46269707,5.88412244 3.82289154,5.18480347 4.33745508,4.59707796 C6.03551476,2.95293443 8.19668162,1.82956034 10.4681121,1.24927439 C12.945368,0.877296217 15.5255366,1.30135134 17.7822652,2.39496717 C19.9140285,3.42162693 21.7664572,5.06577046 22.9573042,7.13396911 C23.8688168,8.69627744 24.3686785,10.4966518 24.412784,12.3044657 C24.4421876,11.6423446 24.5009949,10.9579047 24.3098713,10.3106627 C24.0746422,9.32864034 23.854115,8.32429926 23.3983587,7.42411208 C22.582408,6.04035328 21.7444045,4.62683621 20.5462065,3.54809951 C19.634694,2.72974752 18.5688124,2.09738463 17.4367726,1.64357126 C16.4517509,1.37574697 15.4593784,1.13768094 14.4670059,0.884735781 C13.2026497,0.654109312 11.8941882,0.668988439 10.6298321,0.892175344 Z M10.9238684,2.64791233 C8.99793055,3.12404439 7.2263618,4.12838546 5.71207482,5.40055082 C5.27837127,5.81716637 4.86672044,6.27097974 4.63149139,6.83638657 C4.58003504,6.96285915 4.5506314,7.10421085 4.46977142,7.22324387 C4.49182414,7.22324387 4.52857868,7.21580431 4.5506314,7.20836474 C4.96963314,6.62063923 5.4106876,6.04779284 5.93995296,5.55678165 C7.43218722,4.15070415 9.41693229,3.33235217 11.431081,3.16124221 C13.7025115,2.95293443 16.0253983,3.52578082 17.9513361,4.73842967 C18.6129178,5.1178474 19.2303941,5.57166078 19.7596594,6.12962804 C20.7005756,7.11165042 21.3768591,8.35405752 21.7664572,9.66342069 C22.178108,10.86863 22.5162498,12.1482349 22.3545298,13.4352794 C22.1413535,14.7967939 22.1119499,16.2176761 21.5606318,17.5047206 C21.0901737,18.2412374 20.6564701,19.0002217 20.1713102,19.7217105 C18.5908651,21.536964 16.5620146,23.0248767 14.2244259,23.6051627 C14.0038987,23.6274814 13.8054242,23.7539539 13.577546,23.7316352 C13.8054242,23.7837122 14.0112496,23.6498 14.2391277,23.6498 C16.5032073,23.2257449 18.6129178,22.0427055 20.186012,20.3466339 C21.6561936,18.7620068 22.6485661,16.7012477 22.9131988,14.5363348 C22.9205497,13.6435872 22.9131988,12.7582791 22.9131988,11.8655315 C22.9426024,11.3596412 22.8029352,10.86863 22.6853207,10.3776188 C22.0751953,8.03415629 20.6050138,5.96595764 18.7011287,4.51524276 C18.1424597,4.09862721 17.5690889,3.68945121 16.922209,3.42162693 C15.0477276,2.59583538 12.945368,2.40240673 10.9238684,2.64791233 Z M7.93939985,9.07569518 C7.0352382,10.2288275 6.60153465,11.753938 6.79265825,13.2120925 C6.90292186,14.0900354 7.24106362,14.9157525 7.69681989,15.6597089 C7.63801263,15.6150715 7.52039811,15.5183572 7.46159085,15.4737198 C7.3219236,15.4216428 7.3219236,15.5853132 7.38808177,15.6597089 C7.74092534,16.3590278 8.32164705,16.9095555 8.93912329,17.378248 C9.47573955,17.6758306 9.98295218,18.0330784 10.556323,18.2635561 C11.2399574,18.5090617 11.9603464,18.6727321 12.6880862,18.6132156 C13.5260897,18.5312316 14.378795,18.3824403 15.1359385,17.9882922 C15.9224856,17.6014349 16.5840673,16.9839512 17.164789,16.3292696 C17.5764398,15.9052145 17.6205453,15.2802911 17.9292834,14.7967195 C18.2747761,14.208994 18.3409342,13.5022354 18.3482851,12.8326747 C18.3629869,12.1110371 18.2159688,11.396839 18.0101434,10.7123991 C17.9072307,10.2362671 17.642598,9.81965153 17.3853162,9.4179151 C16.5546637,8.2350245 15.3491148,7.29019994 13.9377405,6.95541958 C11.7545209,6.39001276 9.31401958,7.28276038 7.93939985,9.07569518 Z" id="Shape" stroke="#221E1F" fill="#221E1F"></path>
                    <path d="M7.9589813,9.17101561 C9.34254068,7.37259817 11.7989135,6.4771206 13.9963313,7.04425639 C15.4168843,7.38006048 16.6302733,8.32777424 17.4663279,9.51428201 C17.7252828,9.91724692 17.9916365,10.3351364 18.0952185,10.8127245 C18.3023825,11.4992573 18.4503567,12.2156393 18.4355593,12.9394837 C18.4281606,13.6110919 18.3615722,14.3200116 18.0138327,14.9095343 C17.7030867,15.3945847 17.6586944,16.0212697 17.2443665,16.4467708 C16.6598681,17.1034544 15.9939839,17.7228264 15.2023216,18.1108666 C14.4402541,18.5063692 13.5820034,18.6556155 12.7385501,18.7377009 C12.0060775,18.7973994 11.2810036,18.6332286 10.5929232,18.3869722 C10.0158236,18.1556405 9.50531237,17.7974495 8.9652063,17.498957 C8.34371439,17.0288312 7.75921604,16.4767693 7.4040778,15.7751627 C7.33748938,15.7005395 7.33748938,15.5363686 7.47806493,15.5886048 C7.53725464,15.6333787 7.65563405,15.7303888 7.71482376,15.7751627 C7.25610354,15.0289314 6.91576272,14.2006146 6.80478202,13.3200617 C6.61241548,11.8574483 7.04893956,10.3276741 7.9589813,9.17101561 Z M10.6595116,7.64870375 C10.5855245,7.678553 10.5041387,7.71586457 10.444949,7.77556307 C12.0652672,7.07410565 14.0185275,7.25320116 15.4834727,8.23822648 C15.8682058,8.59641751 16.3713183,8.82774921 16.6450707,9.29041262 C17.1851768,10.0366439 17.6586944,10.850036 17.8880545,11.7455136 C18.2505915,13.8498859 17.333151,16.1109667 15.6166495,17.357173 C15.1579293,17.7226771 14.6104245,17.9465465 14.0703185,18.1631028 C13.670788,18.3123491 13.2268652,18.2899622 12.8199359,18.4168215 C13.0862896,18.4242838 13.360042,18.5511431 13.6263957,18.4689084 C14.0999133,18.3421983 14.5882284,18.2302637 15.0321512,17.9987827 C15.8238135,17.5137324 16.6302733,16.9839081 17.1481832,16.1854406 C17.229569,16.0437313 17.3627459,15.9167227 17.3775433,15.7452388 L17.4145369,15.6781526 C17.4219356,15.6706157 17.436733,15.6483033 17.4441317,15.6333041 C17.7548777,15.1931022 17.79927,14.6407418 17.9324468,14.1259915 C18.2431928,13.0066445 18.1100159,11.7902875 17.6586944,10.730639 C17.0741961,9.37996038 15.9643891,8.28300036 14.6326207,7.68601532 C13.9001481,7.34274892 13.0862896,7.25320116 12.2946273,7.21588959 C11.7249264,7.24573885 11.1848203,7.43975899 10.6595116,7.64870375 Z M14.6844117,8.85013615 C15.113537,9.23071412 15.5130676,9.63367902 15.8608071,10.0814178 C16.5192926,10.9246592 17.0224051,11.9843076 16.8966269,13.0812676 C16.8300385,13.9021221 16.3713183,14.6110418 15.9421929,15.28265 C15.5574598,15.8647104 15.1283345,16.4393085 14.573431,16.8794357 C14.2996786,17.1033051 13.9445403,17.1928529 13.6263957,17.3495615 C13.3304471,17.4913454 13.0566948,17.6779032 12.7385501,17.7599887 C13.204669,17.857148 13.6633892,17.6779032 14.0925146,17.528657 C15.2467139,17.0734559 16.1937492,16.170516 16.7782475,15.0810183 C17.2221703,14.1406176 17.3183536,13.0661938 17.1925755,12.0438569 C16.9632154,11.1185301 16.482299,10.2752887 15.8682058,9.55144433 C15.6166495,9.29772569 15.3354984,9.02908242 14.9655628,8.99923317 C14.8619808,8.96207085 14.7805949,8.89491003 14.6844117,8.85013615 Z M7.49286236,14.0513683 C8.00337358,16.1184291 9.92703903,17.7750626 12.0578685,17.8272987 C11.5103637,17.6482032 10.985055,17.4168715 10.4671451,17.1706152 C9.95663388,16.8198865 9.37953425,16.5512432 8.93561145,16.0960421 C8.26232854,15.4319709 7.65563405,14.6334288 7.44107137,13.6931773 C7.41147651,13.8125743 7.45586879,13.9319713 7.49286236,14.0513683 Z" id="Shape" stroke="#D7DF20" fill="#D7DF20"></path>
                    <path d="M14.0858251,17.8219147 C15.3568316,17.4964459 16.4951506,16.7031156 17.207473,15.625 C17.1935059,15.7810216 17.0678019,15.896224 16.9909828,16.0250555 C16.5021342,16.7505798 15.740927,17.2320024 14.9936869,17.6727415 C14.5746737,17.8830758 14.1137593,17.9847848 13.6668119,18.0999194 C13.415404,18.1746416 13.1570126,18.0592358 12.9056047,18.0525908 C13.2897001,17.937185 13.7087132,17.9575268 14.0858251,17.8219147 Z" id="Shape" stroke="#221E1F" fill="#221E1F"></path>
                </g>
            </g>
        </g>
    </g>
</svg>