<?xml version="1.0" encoding="UTF-8"?>
<svg width="25px" height="25px" viewBox="0 0 25 25" version="1.1" xmlns="http://www.w3.org/2000/svg" xmlns:xlink="http://www.w3.org/1999/xlink">
    <!-- Generator: Sketch 49.3 (51167) - http://www.bohemiancoding.com/sketch -->
    <title>header_mobile_blk</title>
    <desc>Created with Sketch.</desc>
    <defs></defs>
    <g id="Page-1" stroke="none" stroke-width="1" fill="none" fill-rule="evenodd" opacity="0.8">
        <g id="header_mobile_blk">
            <g id="Page-1">
                <g id="header_April17.2_web">
                    <g id="Group-6">
                        <g id="header_mobile">
                            <circle id="Oval-3" fill="#000000" cx="12.5" cy="12.5" r="12.5"></circle>
                            <g id="icon" transform="translate(7.142857, 4.285714)" fill="#FFFFFF" fill-rule="nonzero">
                                <path d="M8.52588235,0 L1.73411765,0 C1.08411765,0 0.559411765,0.527058824 0.559411765,1.17588235 L0.559411765,14.9676471 C0.559411765,15.6158824 1.08411765,16.1423529 1.73411765,16.1423529 L8.52588235,16.1423529 C9.17470588,16.1423529 9.70058824,15.6158824 9.70058824,14.9676471 L9.70058824,1.17588235 C9.70058824,0.527058824 9.17470588,0 8.52588235,0 Z M3.45411765,0.714117647 L6.80705882,0.714117647 C6.89176471,0.714117647 6.96058824,0.840588235 6.96058824,0.997058824 C6.96058824,1.15352941 6.89176471,1.28058824 6.80705882,1.28058824 L3.45411765,1.28058824 C3.36882353,1.28058824 3.30117647,1.15352941 3.30117647,0.997058824 C3.30117647,0.840588235 3.36882353,0.714117647 3.45411765,0.714117647 Z M5.13058824,14.9817647 C4.71705882,14.9817647 4.38058824,14.6452941 4.38058824,14.2311765 C4.38058824,13.8170588 4.71705882,13.4817647 5.13058824,13.4817647 C5.54294118,13.4817647 5.87941176,13.8170588 5.87941176,14.2311765 C5.87941176,14.6452941 5.54294118,14.9817647 5.13058824,14.9817647 Z M8.82058824,12.4117647 L1.44,12.4117647 L1.44,1.98411765 L8.82058824,1.98411765 L8.82058824,12.4117647 Z" id="Shape"></path>
                            </g>
                        </g>
                    </g>
                </g>
            </g>
        </g>
    </g>
</svg>