<?xml version="1.0" encoding="UTF-8"?>
<svg width="25px" height="25px" viewBox="0 0 25 25" version="1.1" xmlns="http://www.w3.org/2000/svg" xmlns:xlink="http://www.w3.org/1999/xlink">
    <!-- Generator: Sketch 49.3 (51167) - http://www.bohemiancoding.com/sketch -->
    <title>header_car</title>
    <desc>Created with Sketch.</desc>
    <defs></defs>
    <g id="Page-1" stroke="none" stroke-width="1" fill="none" fill-rule="evenodd" opacity="0.796195652">
        <g id="header_April17.2_web" transform="translate(-292.000000, -68.000000)" fill="#000000" fill-rule="nonzero">
            <g id="Group-6" transform="translate(268.000000, 43.000000)">
                <g id="header_car" transform="translate(24.000000, 25.000000)">
                    <circle id="Oval" cx="12.5" cy="13.2277778" r="1.075"></circle>
                    <path d="M12.5,0 C5.59644063,2.46716228e-16 9.86864911e-16,5.59644063 0,12.5 C-7.40148683e-16,19.4035594 5.59644063,25 12.5,25 C19.4035594,25 25,19.4035594 25,12.5 C25,9.18479388 23.6830395,6.00536997 21.3388348,3.66116524 C18.99463,1.3169605 15.8152061,7.40148683e-16 12.5,0 Z M12.5,1.66666667 C17.8310001,1.67316028 22.3675092,5.55150464 23.2027778,10.8166667 C19.8444444,10.425 15.95,8.16111111 12.5,8.16111111 C9.05,8.16111111 5.15555556,10.425 1.79722222,10.8194444 C2.63126622,5.55317881 7.16810183,1.67337779 12.5,1.66666667 Z M12.5,15.9111111 C11.3955934,15.9111111 10.3999337,15.2458326 9.97729561,14.2254939 C9.55465749,13.2051552 9.78827223,12.0306946 10.5692057,11.2497612 C11.3501391,10.4688278 12.5245997,10.235213 13.5449384,10.6578512 C14.5652771,11.0804893 15.2305556,12.0761489 15.2305556,13.1805556 C15.2305556,14.6885997 14.0080442,15.9111111 12.5,15.9111111 Z M1.84166667,14.4277778 C2.11199678,14.398712 2.38366791,14.3838767 2.65555556,14.3833333 C4.90052467,14.3704797 7.04280056,15.3228218 8.53733382,16.9980596 C10.0318671,18.6732975 10.7345735,20.9099256 10.4666667,23.1388889 C6.07076405,22.2909092 2.64593536,18.8318874 1.84166667,14.4277778 Z M14.5333333,23.1388889 C14.2654265,20.9099256 14.9681329,18.6732975 16.4626662,16.9980596 C17.9571994,15.3228218 20.0994753,14.3704797 22.3444444,14.3833333 C22.6163321,14.3838767 22.8880032,14.398712 23.1583333,14.4277778 C22.3540646,18.8318874 18.929236,22.2909092 14.5333333,23.1388889 Z" id="Shape"></path>
                </g>
            </g>
        </g>
    </g>
</svg>