<?xml version="1.0" encoding="UTF-8"?>
<svg width="25px" height="25px" viewBox="0 0 25 25" version="1.1" xmlns="http://www.w3.org/2000/svg" xmlns:xlink="http://www.w3.org/1999/xlink">
    <!-- Generator: Sketch 49.3 (51167) - http://www.bohemiancoding.com/sketch -->
    <title>header_bike</title>
    <desc>Created with Sketch.</desc>
    <defs></defs>
    <g id="Page-1" stroke="none" stroke-width="1" fill="none" fill-rule="evenodd" opacity="0.796195652">
        <g id="header_April17.2_web" transform="translate(-292.000000, -134.000000)" fill="#000000" fill-rule="nonzero">
            <g id="Group-6" transform="translate(268.000000, 43.000000)">
                <g id="header_bike" transform="translate(24.000000, 91.000000)">
                    <path d="M12.5,0 C5.59671053,0 0,5.59736842 0,12.5 C0,19.4039474 5.59671053,25 12.5,25 C19.4032895,25 25,19.4039474 25,12.5 C25,5.59736842 19.4032895,0 12.5,0 Z M12.5,22.3684211 C7.05,22.3684211 2.63157895,17.9493421 2.63157895,12.5 C2.63157895,7.05065789 7.05,2.63157895 12.5,2.63157895 C17.9493421,2.63157895 22.3684211,7.05065789 22.3684211,12.5 C22.3684211,17.9493421 17.9493421,22.3684211 12.5,22.3684211 Z" id="Shape"></path>
                    <path d="M12.5,3.28947368 C7.41315789,3.28947368 3.28947368,7.41381579 3.28947368,12.5 C3.28947368,17.5868421 7.41315789,21.7105263 12.5,21.7105263 C17.5868421,21.7105263 21.7105263,17.5868421 21.7105263,12.5 C21.7105263,7.41381579 17.5868421,3.28947368 12.5,3.28947368 Z M20.3947368,12.5 C20.3947368,13.5467105 20.1868421,14.5434211 19.8164474,15.4578947 C18.3,15.0427632 16.9217105,14.3210526 15.6026316,13.5506579 C15.7151316,13.2184211 15.7894737,12.8697368 15.7894737,12.5 C15.7894737,12.1309211 15.7151316,11.7822368 15.6026316,11.4506579 C16.9217105,10.6789474 18.3,9.95723684 19.8164474,9.54276316 C20.1868421,10.4572368 20.3947368,11.4532895 20.3947368,12.5 Z M18.7164474,7.64539474 C17.6006579,8.75 16.2875,9.58223684 14.9611842,10.3381579 C14.4927632,9.80526316 13.8644737,9.41842105 13.1421053,9.27565789 C13.1342105,7.75394737 13.1980263,6.20526316 13.5953947,4.69013158 C15.6703947,4.97894737 17.4848684,6.06973684 18.7164474,7.64539474 Z M11.4046053,4.69013158 C11.8013158,6.20526316 11.8657895,7.75328947 11.8572368,9.27565789 C11.1342105,9.41842105 10.5065789,9.80592105 10.0381579,10.3381579 C8.71184211,9.58289474 7.39934211,8.75065789 6.28289474,7.64539474 C7.51513158,6.07039474 9.32960526,4.97894737 11.4046053,4.69013158 Z M4.60526316,12.5 C4.60526316,11.4532895 4.81315789,10.4565789 5.18355263,9.54276316 C6.7,9.95789474 8.07828947,10.6789474 9.39736842,11.4506579 C9.28486842,11.7815789 9.21052632,12.1309211 9.21052632,12.5 C9.21052632,12.8697368 9.28552632,13.2190789 9.39736842,13.5506579 C8.07894737,14.3223684 6.7,15.0440789 5.18355263,15.4585526 C4.81381579,14.5440789 4.60526316,13.5473684 4.60526316,12.5 Z M6.28289474,17.3552632 C7.4,16.2506579 8.71315789,15.4184211 10.0388158,14.6625 C10.5065789,15.1953947 11.1355263,15.5815789 11.8578947,15.7243421 C11.8664474,17.2460526 11.8013158,18.7947368 11.4046053,20.3098684 C9.32960526,20.0217105 7.51513158,18.9302632 6.28289474,17.3552632 Z M13.5960526,20.3098684 C13.1986842,18.7953947 13.1342105,17.2467105 13.1421053,15.7243421 C13.8644737,15.5809211 14.4927632,15.1947368 14.9605263,14.6625 C16.2875,15.4177632 17.6,16.25 18.7171053,17.3546053 C17.4855263,18.9296053 15.6710526,20.0210526 13.5960526,20.3098684 Z" id="Shape"></path>
                </g>
            </g>
        </g>
    </g>
</svg>