<?xml version="1.0" encoding="utf-8"?>
<!-- Generator: Adobe Illustrator 21.1.0, SVG Export Plug-In . SVG Version: 6.00 Build 0)  -->
<svg version="1.1" id="Layer_1" xmlns="http://www.w3.org/2000/svg" xmlns:xlink="http://www.w3.org/1999/xlink" x="0px" y="0px"
	 viewBox="0 0 608.3 446.2" style="enable-background:new 0 0 608.3 446.2;" xml:space="preserve">
<style type="text/css">
	.st0{fill:#EC2C8E;}
	.st1{opacity:0.5;fill:#5C4B9E;}
	.st2{fill:#FFCE00;}
	.st3{fill:#E9AD21;}
	.st4{fill:#00783D;stroke:#069472;stroke-width:0.5;stroke-miterlimit:10;}
	.st5{fill:#E6E7E8;stroke:#5B50A0;stroke-width:0.5;stroke-miterlimit:10;}
	.st6{fill:#5E22E0;}
	.st7{fill:#4612B7;}
	.st8{fill:#3DBCA7;}
	.st9{fill:#E5816B;}
	.st10{fill:#CE6F5F;}
	.st11{fill:#231F20;}
	.st12{fill:#AE2C8E;}
	.st13{fill:none;stroke:#EC2C8E;stroke-miterlimit:10;}
	.st14{fill:#CE5962;}
	.st15{fill:#1E1F56;}
	.st16{fill:#FFFBFC;}
	.st17{fill:#FDCE07;}
	.st18{fill:#3CA197;}
	.st19{fill:#FFFFFF;}
	.st20{opacity:0.3;fill:#B62128;}
	.st21{fill:#1C1651;}
	.st22{fill:#F37421;}
	.st23{fill:#5C4B9E;}
	.st24{opacity:0.7;fill:#B62128;}
	.st25{fill:#262266;}
	.st26{fill:#E42429;}
	.st27{fill:#3D8299;}
	.st28{fill:#3C51A2;}
	.st29{fill:#B62128;}
	.st30{fill:#E89623;}
	.st31{fill:#3B2B72;}
	.st32{fill:#069472;}
	.st33{fill:#38A878;}
	.st34{fill:#F8F8FB;}
</style>
<polygon class="st0" points="50.5,300.2 80.8,297.1 90.2,346.9 52.5,350.7 44.3,307 "/>
<polygon class="st1" points="85,319.3 74.3,320.3 68.7,326.6 72.9,348.6 90.2,346.9 "/>
<polygon class="st2" points="105.7,337.9 128.4,335.6 135.5,372.8 107.3,375.7 101.1,343 "/>
<polygon class="st3" points="108.4,337.6 105.7,337.9 101.1,343 104.6,361.6 112.8,360.8 "/>
<path class="st4" d="M74.7,218.2c0,0,18.9-0.2,29-11.2c0,0,4.4,7.3,4.6,13.3c0,0-14.4,10.5-32.2,10.9
	C76.1,231.1,78.1,225,74.7,218.2z"/>
<path class="st4" d="M74.5,217c0,0,18.9-0.2,29-11.2c0,0,4.4,7.3,4.6,13.3c0,0-14.4,10.5-32.2,10.9C75.9,229.8,77.9,223.7,74.5,217z
	"/>
<path class="st4" d="M74.5,215.4c0,0,18.9-0.2,29-11.2c0,0,4.4,7.3,4.6,13.3c0,0-14.4,10.5-32.2,10.9
	C75.9,228.2,78,222.1,74.5,215.4z"/>
<path class="st4" d="M74.6,214.5c0,0,18.9-0.2,29-11.2c0,0,4.4,7.3,4.6,13.3c0,0-14.4,10.5-32.2,10.9
	C76,227.4,78.1,221.2,74.6,214.5z"/>
<path class="st4" d="M74.5,213.2c0,0,18.9-0.2,29-11.2c0,0,4.4,7.3,4.6,13.3c0,0-14.4,10.5-32.2,10.9
	C75.9,226.1,77.9,220,74.5,213.2z"/>
<line class="st5" x1="107" y1="354.1" x2="128.3" y2="351.9"/>
<line class="st5" x1="107.7" y1="356.3" x2="128.9" y2="354.1"/>
<line class="st5" x1="108.2" y1="358.4" x2="129.4" y2="356.2"/>
<line class="st5" x1="108.4" y1="360.3" x2="129.7" y2="358.1"/>
<line class="st5" x1="105" y1="344.2" x2="126.3" y2="342"/>
<line class="st5" x1="105.7" y1="346.4" x2="127" y2="344.2"/>
<line class="st5" x1="105.9" y1="348.9" x2="127.2" y2="346.7"/>
<line class="st5" x1="106.5" y1="351.1" x2="127.8" y2="348.9"/>
<line class="st5" x1="52.2" y1="321.8" x2="80.7" y2="318.9"/>
<line class="st5" x1="53.1" y1="324.8" x2="81.6" y2="321.8"/>
<line class="st5" x1="60" y1="334.2" x2="88.5" y2="331.3"/>
<line class="st5" x1="60.4" y1="336.7" x2="88.9" y2="333.8"/>
<path class="st6" d="M344.6,54c-0.3,1.3-1.6,2.2-2.9,1.9l-43.9-9c-1.3-0.3-2.2-1.6-1.9-2.9l6.2-30.1c0.3-1.3,1.6-2.2,2.9-1.9l43.9,9
	c1.3,0.3,2.2,1.6,1.9,2.9L344.6,54z"/>
<path class="st6" d="M300.6,21.2l-4.4,25c-0.2,1.4,0.7,2.7,2,3l44.2,7.7c1.4,0.2,2.7-0.7,2.9-2.1l4.4-25L300.6,21.2z"/>
<polygon class="st7" points="410.7,67 429.3,58.9 438.6,56.2 438.6,57.3 415.8,68 "/>
<polygon class="st7" points="401.6,63.3 402,64.3 428.1,59.5 438,56.5 414.7,56.4 "/>
<path class="st3" d="M417.4,69.4c0.2,0.6-0.1,1.2-0.6,1.3l-4.6,1c-0.5,0.1-1.1-0.3-1.2-0.9l-0.7-2.7c-0.2-0.6,0.1-1.2,0.6-1.3l4.6-1
	c0.5-0.1,1.1,0.3,1.2,0.9L417.4,69.4z"/>
<path class="st7" d="M521.9,246.8c0.6,1.1,0.2,2.5-0.8,3.1l-21.7,12.4c-1.1,0.6-2.5,0.2-3.1-0.8l-7.5-13.1c-0.6-1.1-0.2-2.5,0.8-3.1
	l21.7-12.4c1.1-0.6,2.5-0.2,3.1,0.8L521.9,246.8z"/>
<path class="st7" d="M556.3,215.8l3-9.1l9,1l17.6,12.4l1.8,4.8l-10.5,17.4c0,0-0.3,0.8-2.3-0.5s-26.5-16-26.5-16s-1.3-0.6,0.2-2.4
	S556.3,215.8,556.3,215.8z"/>
<circle class="st6" cx="308" cy="235.3" r="155"/>
<g>
	<g>
		<path class="st8" d="M410,342.5c3.7-3.8,7.2-7.7,10.4-11.8c1.5-1.9-1.1-4.5-2.7-2.7c-3.3,4.1-6.8,8.1-10.4,11.8
			C405.7,341.6,408.4,344.2,410,342.5L410,342.5z"/>
	</g>
</g>
<g>
	<g>
		<path class="st8" d="M425.8,323.6c5.2-7.6,9.8-15.5,13.6-23.9c1-2.2-2.2-4.1-3.2-1.9c-3.8,8.4-8.4,16.3-13.6,23.9
			C421.1,323.7,424.4,325.5,425.8,323.6L425.8,323.6z"/>
	</g>
</g>
<g>
	<g>
		<path class="st8" d="M211.2,344c6.7,6.5,14,12.4,21.8,17.6c2,1.4,3.9-1.9,1.9-3.2c-7.5-5-14.5-10.7-21-17
			C212.2,339.7,209.5,342.3,211.2,344L211.2,344z"/>
	</g>
</g>
<g>
	<g>
		<path class="st8" d="M449.8,266.5c3.9-21.7,3.2-43.7-2.2-65.1c-0.6-2.3-4.2-1.3-3.6,1c5.3,20.7,6,42.1,2.2,63.1
			C445.7,267.9,449.3,268.9,449.8,266.5L449.8,266.5z"/>
	</g>
</g>
<g>
	<g>
		<path class="st8" d="M162.8,206.9c-4.5,21.6-4.3,43.6,0.5,65.1c0.5,2.4,4.1,1.4,3.6-1c-4.7-20.8-4.9-42.2-0.5-63.1
			C166.9,205.6,163.3,204.6,162.8,206.9L162.8,206.9z"/>
	</g>
</g>
<g>
	<g>
		<path class="st8" d="M337.7,94.6c-24.7-5.5-50.1-4.8-74.5,2c-2.3,0.7-1.3,4.3,1,3.6c23.7-6.7,48.5-7.4,72.5-2
			C339.1,98.8,340.1,95.2,337.7,94.6L337.7,94.6z"/>
	</g>
</g>
<path class="st9" d="M340.3,334.5c2.3,2.3,2.3,6.1,0,8.5l-11.2,11.2c-2.3,2.3-6.1,2.3-8.5,0l0,0c-2.3-2.3-2.3-6.1,0-8.5l11.2-11.2
	C334.2,332.1,338,332.1,340.3,334.5L340.3,334.5z"/>
<path class="st10" d="M340.3,334.3c-1.3-1.3-3.1-1.9-4.9-1.7c1,0.3,1.9,0.8,2.7,1.5c2.3,2.3,2.3,6,0,8.3l-11,10.9
	c-1.4,1.4-3.4,2-5.2,1.6c2.3,1.3,5.2,0.9,7.2-1l11.2-11.2C342.7,340.4,342.7,336.6,340.3,334.3z"/>
<path class="st10" d="M340.4,337.6c-0.1,0.1-0.7-0.8-0.7-0.8s-0.1-1-1.4-0.9c-1.3,0.1-9.2,1.4-10.1,2.2c-0.9,0.8,1.6-1.6,1.6-1.6
	l9.3-2L340.4,337.6z"/>
<path class="st9" d="M395,293.2c1.7,2.8,5.4,3.8,8.2,2.1l13.6-8.1c2.8-1.7,3.8-5.4,2.1-8.2l0,0c-1.7-2.8-5.4-3.8-8.2-2.1l-13.6,8.1
	C394.2,286.7,393.3,290.4,395,293.2L395,293.2z"/>
<path class="st10" d="M394.8,293.2c-1-1.6-1.1-3.5-0.5-5.2c0,1,0.3,2.1,0.8,3c1.7,2.8,5.3,3.7,8,2l13.3-7.9c1.7-1,2.7-2.8,2.8-4.7
	c0.7,2.5-0.4,5.3-2.7,6.7l-13.6,8.1C400.2,297,396.5,296,394.8,293.2z"/>
<path class="st10" d="M398,294.1c0.1-0.1-0.6-0.9-0.6-0.9s-0.9-0.4-0.5-1.6c0.4-1.2,3.6-8.6,4.6-9.2c1-0.7-1.9,1.2-1.9,1.2l-4.3,8.5
	L398,294.1z"/>
<g>
	<path class="st0" d="M339.5,302.8c0,0-3.3-12.4,4.6-18.5c7.9-6.1,15.9-2.6,18.8-1.3c2.9,1.3-13-17.5-13-17.5l-17.5,18.6
		L339.5,302.8z"/>
	<path class="st0" d="M344,327.9c0.6,3.4-1.5,6.6-4.7,7.2l-8.8,1.5c-3.2,0.6-6.2-1.7-6.8-5.1l-7.5-43.1c-0.6-3.4,1.5-6.6,4.7-7.2
		l8.8-1.5c3.2-0.6,6.2,1.7,6.8,5.1L344,327.9z"/>
	<path class="st0" d="M323.2,280.4c1.1,1.4,0.8,3.5-0.6,4.6l-4.1,3.2c-1.4,1.1-3.5,0.8-4.6-0.6l0,0c-1.1-1.4-0.8-3.5,0.6-4.6
		l4.1-3.2C320,278.7,322.1,279,323.2,280.4L323.2,280.4z"/>
	<path class="st0" d="M387.9,294.3c3.1,1.4,6.8,0.2,8.1-2.8l3.7-8.2c1.3-2.9-0.2-6.5-3.3-7.9l-39.9-17.9c-3.1-1.4-6.8-0.2-8.1,2.8
		l-3.7,8.2c-1.3,2.9,0.2,6.5,3.3,7.9L387.9,294.3z"/>
	<path class="st0" d="M346.9,262.4c1.1,1.4,3.1,1.7,4.6,0.6l4.1-3.2c1.4-1.1,1.7-3.1,0.6-4.6l0,0c-1.1-1.4-3.1-1.7-4.6-0.6l-4.1,3.2
		C346.1,258.9,345.8,261,346.9,262.4L346.9,262.4z"/>
</g>
<path class="st1" d="M342.5,285.6c-5.1,3.9-5.6,10.4-5.3,14.6l5.1,29.4c0.3,1.8-0.1,3.5-1,4.8c2-1.3,3.1-3.8,2.6-6.3l-5.1-29.1
	c-0.3-4.1,0.2-10.5,5.2-14.4C343.5,284.9,343,285.3,342.5,285.6z"/>
<path class="st1" d="M396.3,275.6l-39.6-17.8c0.1-0.8-0.1-1.7-0.6-2.4c-1.1-1.4-3.1-1.7-4.6-0.6l-0.3,0.2c1.2-0.3,2.6,0.1,3.4,1.2
	c0.6,0.7,0.8,1.6,0.7,2.5l39.9,17.9c3.2,1.4,4.7,5,3.3,8l-3.7,8.2c-0.1,0.3-0.3,0.6-0.5,0.9c0.7-0.5,1.3-1.2,1.6-2.1l3.7-8.2
	C400.9,280.6,399.4,277,396.3,275.6z"/>
<path class="st9" d="M249.7,246.4c-0.4,3,1.6,5.7,4.5,6.2l0,0c3,0.4,5.7-1.6,6.1-4.5l3.6-23.8c0.4-3-1.6-5.7-4.5-6.2l0,0
	c-3-0.4-5.7,1.6-6.1,4.5L249.7,246.4z"/>
<path class="st9" d="M282.8,254.7c3.4,0.1,6.2-2.5,6.4-5.9l0,0c0.1-3.4-2.5-6.2-5.9-6.4l-27.3-1c-3.4-0.1-6.2,2.5-6.4,5.9l0,0
	c-0.1,3.4,2.5,6.2,5.9,6.4L282.8,254.7z"/>
<path class="st10" d="M259.6,228l2.3,0.9c0,0,0.9,0.4,0.6,1.7c-0.3,1.3-2.1,10.9-2.1,10.9s-0.2,1.3,1.2,1.5
	c1.5,0.1,10.3,0.4,10.3,0.4s0.8,0,0.9,0.9c0,0.9,0.5,10,0.5,10l0.6,0l-0.6-12.3l-10.5-0.4c0,0-1.4,0.1-1.2-1.2
	c0.2-1.2,1.9-12.1,1.9-12.1l-3.7-0.5L259.6,228z"/>
<ellipse transform="matrix(0.7894 -0.6139 0.6139 0.7894 -79.4332 207.2468)" class="st9" cx="262.3" cy="219.4" rx="9" ry="9.1"/>
<path class="st2" d="M346.4,244c8.6,11.1,6.6,27.1-4.5,35.8l0,0c-11.1,8.6-27.1,6.6-35.8-4.5l-15.3-19.7
	c-8.6-11.1-6.6-27.1,4.5-35.8l0,0c11.1-8.6,27.1-6.6,35.8,4.5L346.4,244z"/>
<path class="st3" d="M304.3,215.3c8.3-0.7,16.8,2.7,22.3,9.8l15.3,19.7c8.6,11.1,6.6,27.1-4.5,35.8c-2.6,2-5.5,3.5-8.5,4.4
	c4.8-0.4,9.5-2.1,13.5-5.3c11.1-8.6,13.1-24.7,4.5-35.8l-15.3-19.7C324.9,215.7,314,212.5,304.3,215.3z"/>
<path class="st9" d="M332.1,182.8c3,0.3,5.1,3,4.8,5.9l0,0c-0.3,3-3,5.1-5.9,4.8l-23.9-2.4c-3-0.3-5.1-3-4.8-5.9l0,0
	c0.3-3,3-5.1,5.9-4.8L332.1,182.8z"/>
<path class="st9" d="M332,217c-0.7,3.3-4,5.4-7.3,4.7l0,0c-3.3-0.7-5.4-4-4.7-7.3l5.8-26.7c0.7-3.3,4-5.4,7.3-4.7l0,0
	c3.3,0.7,5.4,4,4.7,7.3L332,217z"/>
<path class="st10" d="M311.9,187.9l0.3,2.5c0,0,0.1,1,1.5,1c1.3,0,11.1,0.7,11.1,0.7s1.3,0.1,1.1,1.5c-0.2,1.4-2.2,10.1-2.2,10.1
	s-0.2,0.8,0.6,1.1c0.8,0.3,9.6,3,9.6,3l-0.1,0.5l-11.8-3.6l2.2-10.3c0,0,0.4-1.4-0.8-1.5c-1.3-0.1-12.2-1.1-12.2-1.1l0.4-3.7
	L311.9,187.9z"/>
<path class="st2" d="M312.3,214.9c0,0,6.9-3.3,8-11.1l15.6,4.8c0,0-1.1,8.2-6.1,14.9c-11.3,15.1-17-6.4-17-6.4L312.3,214.9z"/>
<ellipse transform="matrix(0.7894 -0.6139 0.6139 0.7894 -75.9464 232.5461)" class="st3" cx="300.9" cy="227" rx="16.7" ry="10.3"/>
<ellipse transform="matrix(0.7894 -0.6139 0.6139 0.7894 -77.4597 234.0339)" class="st10" cx="302.4" cy="229.9" rx="9" ry="5.6"/>
<path class="st2" d="M285.8,235.6c0,0-4.9,5.9-12.7,5.1l0.8,16.3c0,0,8.4,1.3,16-2.3c7.6-3.6-2-18.1-2-18.1L285.8,235.6z"/>
<ellipse transform="matrix(0.7894 -0.6139 0.6139 0.7894 -51.8801 225.6256)" class="st9" cx="302.9" cy="188.4" rx="9" ry="9.1"/>
<path class="st10" d="M297.3,181.3c-1.2,1-2.1,2.2-2.7,3.5l9.4,12.1c0.1,0.2,0.3,0.3,0.4,0.4c1.4-0.2,2.8-0.8,4-1.8
	c1.4-1.1,2.4-2.6,3-4.2c0,0-0.1-0.1-0.1-0.1l-9.2-11.8C300.4,179.5,298.8,180.1,297.3,181.3z"/>
<path class="st10" d="M256.6,212.8c-1.2,0.9-2.1,2.1-2.6,3.4l9.2,11.8c0.1,0.2,0.3,0.3,0.4,0.4c1.4-0.2,2.7-0.8,3.9-1.7
	c1.4-1.1,2.4-2.5,2.9-4.1c0,0-0.1-0.1-0.1-0.1l-8.9-11.5C259.6,211.1,258,211.7,256.6,212.8z"/>
<path class="st10" d="M299.4,167c2,2.6,1.5,6.3-1,8.3l0,0c-2.6,2-6.3,1.5-8.3-1l-1.4-1.8c-2-2.6-1.5-6.3,1-8.3l0,0
	c2.6-2,6.3-1.5,8.3,1L299.4,167z"/>
<path class="st10" d="M250.4,202.3c2,2.6,1.5,6.3-1,8.3l0,0c-2.6,2-6.3,1.5-8.3-1l-1.4-1.8c-2-2.6-1.5-6.3,1-8.3l0,0
	c2.6-2,6.3-1.5,8.3,1L250.4,202.3z"/>
<path class="st9" d="M310.3,191.3c10,12.9,7.7,31.5-5.2,41.5l0,0c-12.9,10-31.5,7.7-41.5-5.2l-29.9-38.4c-10-12.9-7.7-31.5,5.2-41.5
	l0,0c12.9-10,31.5-7.7,41.5,5.2L310.3,191.3z"/>
<path class="st10" d="M274,146.6c-10.4-7.4-24.8-7.4-35.3,0.8c-12.9,10-15.2,28.6-5.2,41.5l7.7,9.9c-0.3-2.9,0.9-6,3.5-7.9l12.7-9.8
	c0.1-0.1,0.2-0.1,0.2-0.2c0.5-0.3,1-0.6,1.4-1c6.8-5.3,8-14.9,2.8-21.6l-2.7-3.5c-0.5-1.2-0.9-3.4,1.8-5.6
	C264.8,146.3,269.6,145.5,274,146.6z"/>
<path class="st10" d="M262,141.3c4.8,1.9,9.2,5,12.6,9.4l29.9,38.4c10,12.9,7.7,31.5-5.2,41.5c-6.8,5.3-15.2,7.2-23.1,5.8
	c9.4,3.7,20.4,2.5,29-4.2c12.9-10,15.2-28.6,5.2-41.5l-29.9-38.4C275.6,146.2,269,142.5,262,141.3z"/>
<ellipse transform="matrix(0.7894 -0.6138 0.6138 0.7894 -51.3348 221.5574)" class="st10" cx="297.3" cy="185.6" rx="2.1" ry="2.2"/>
<ellipse transform="matrix(0.7894 -0.6138 0.6138 0.7894 -74.6406 206.3918)" class="st10" cx="263.5" cy="212" rx="2.1" ry="2.2"/>
<path class="st11" d="M292.3,163.2c0.7,0.9,0.3,2.3-0.8,3.1l0,0c-1.1,0.8-2.5,0.8-3.2,0l-20.2-26c-0.7-0.9-0.3-2.3,0.8-3.1l0,0
	c1.1-0.8,2.5-0.8,3.2,0L292.3,163.2z"/>
<path class="st11" d="M240.8,128.5l3.3-6.7c0,0,17,1.1,29.2,16.9c12.2,15.7-22.6-0.7-22.6-0.7L240.8,128.5z"/>
<g>
	<path class="st11" d="M279.9,175.6c0.7,1.1-0.9,1.9-1.7,2.5c-0.8,0.6-2.1,2.2-3.1,1.2c-0.6-0.6-1.4,0.3-0.9,0.9
		c1.6,1.7,3.2,0.1,4.5-0.9c1.4-1.1,3.5-2.3,2.2-4.3C280.6,174.3,279.5,174.9,279.9,175.6L279.9,175.6z"/>
</g>
<g>
	<path class="st11" d="M260,191.1c0.7,1.1-0.9,1.9-1.7,2.5c-0.8,0.6-2.1,2.2-3.1,1.2c-0.6-0.6-1.4,0.3-0.9,0.9
		c1.6,1.7,3.2,0.1,4.5-0.9c1.4-1.1,3.5-2.3,2.2-4.3C260.6,189.8,259.6,190.4,260,191.1L260,191.1z"/>
</g>
<path class="st11" d="M223.3,127.7c-12.9,10-15.2,28.6-5.2,41.5l23.5,30.3c0,0,0,0,0.1-0.1c-2.5-3.7-1.8-8.7,1.8-11.5l12-9.2
	c0.1-0.1,0.1-0.1,0.2-0.2c0.5-0.3,0.9-0.6,1.4-0.9c6.4-5,7.5-14.1,2.6-20.5l-2.8-3.6c-0.4-1.4-0.3-3.5,2.9-5.7
	c0.4-0.3,0.7-0.5,0.9-0.6c6.2-3.2,14-1.6,18.5,4l-14.2-18.3C254.8,120,236.2,117.7,223.3,127.7z"/>
<path class="st12" d="M499.4,142.4c-1.5-1.7-1.4-4.3,0.3-5.9l13-11.9c1.7-1.5,4.3-1.4,5.9,0.3l0,0c1.5,1.7,1.4,4.3-0.3,5.9l-13,11.9
	C503.5,144.2,500.9,144.1,499.4,142.4L499.4,142.4z"/>
<path class="st0" d="M535.4,155.3c0.6-1.1,1-2.4,1.1-3.7l1.9-22.8c0.4-5.2-3.4-9.7-8.6-10.1L522,118c-5.2-0.4-9.7,3.4-10.1,8.6
	l-1.9,22.8c-0.1,1.4,0.1,2.7,0.5,3.9L535.4,155.3z"/>
<path class="st0" d="M485.3,132c0.9-1.8,3-2.6,4.8-1.8l14,6.6c1.8,0.9,2.6,3,1.8,4.8l0,0c-0.9,1.8-3,2.6-4.8,1.8l-14-6.6
	C485.2,136,484.4,133.8,485.3,132L485.3,132z"/>
<path class="st13" d="M521.7,122c0,0-0.8,28.1-1.1,31.3"/>
<path class="st12" d="M536.4,152.7l2-23.9c0.3-4-1.9-7.6-5.3-9.2c2.5,1.9,3.9,4.9,3.7,8.2l-2.2,26.3"/>
<path class="st12" d="M534.9,126.5l-11.7,10.7l-10.8-5.1c-0.4-0.2-0.8-0.3-1.1-0.3v7.8l10.9,5.1c0.7,0.5,1.6,0.8,2.4,0.9
	c1,0.1,2.1-0.3,2.8-1c0,0,0.1,0,0.1-0.1l10.4-9.5v-7.8c0-0.6-0.1-1.2-0.2-1.7C536.7,125.4,535.7,125.8,534.9,126.5z"/>
<path class="st9" d="M506.3,130c0.5,0.7,1.6,0.9,2.3,0.3l0,0c0.7-0.5,0.9-1.6,0.3-2.3l-3.3-4.3c-0.5-0.7-1.6-0.9-2.3-0.3l0,0
	c-0.7,0.5-0.9,1.6-0.3,2.3L506.3,130z"/>
<path class="st9" d="M481.7,135.9c0.3,0.9,1.2,1.4,2.1,1.1l0,0c0.9-0.3,1.4-1.2,1.1-2.1l-1.7-5.5c-0.3-0.9-1.2-1.4-2.1-1.1l0,0
	c-0.9,0.3-1.4,1.2-1.1,2.1L481.7,135.9z"/>
<path class="st6" d="M506.4,136.5c0.8,3.1-0.9,5.9-3.7,6.3l-11.4,1.6c-2.8,0.4-5.7-1.8-6.5-4.9l-3.6-15c-0.8-3.1,0.9-5.9,3.7-6.3
	l11.4-1.6c2.8-0.4,5.7,1.8,6.5,4.9L506.4,136.5z"/>
<path class="st7" d="M506.4,136.6l-3.6-15c-0.6-2.5-2.6-4.4-4.8-4.8c1.4,0.9,2.6,2.3,3,4.1l3.6,15c0.8,3.1-0.9,5.9-3.7,6.3
	l-11.4,1.6c-0.6,0.1-1.1,0-1.7-0.1c1.1,0.6,2.3,1,3.5,0.8l11.4-1.6C505.5,142.5,507.2,139.7,506.4,136.6z"/>
<path class="st10" d="M508.5,127.8c1.8,0.9,2.5,3.1,1.6,4.8l-1,2c-0.9,1.8-3.1,2.5-4.8,1.6l-7.7-3.8c-1.8-0.9-2.5-3.1-1.6-4.8l1-2
	c0.9-1.8,3.1-2.5,4.8-1.6L508.5,127.8z"/>
<path class="st12" d="M522.4,121.9c0,0,0.4,5.2,2.8,4.8c2.4-0.4,10-4.6,10-5.7s-1-3-2.2-2.9C531.7,118.2,522.4,121.9,522.4,121.9z"
	/>
<path class="st12" d="M515.8,119.2c0,0-0.8,5.1,1.4,4.8c2.2-0.4,8.6-4,8.6-5c0-1-0.9-2.7-2-2.7C522.6,116.4,515.8,119.2,515.8,119.2
	z"/>
<path class="st10" d="M535.5,112.9c0,5.2-4.2,9.4-9.4,9.4h-3.7c-5.2,0-9.4-4.2-9.4-9.4V93.1c0-5.2,4.2-9.4,9.4-9.4h3.7
	c5.2,0,9.4,4.2,9.4,9.4V112.9z"/>
<path class="st14" d="M513.3,91.8l1,0.9c0,0,9.3,0,9.6,0.8c0.3,0.8,0.2,4.9,2.9,6.3c2.6,1.4,5.5,1.2,5.5,1.2l-3.7-11.8L513.3,91.8z"
	/>
<path class="st9" d="M527.5,121.5h-3.7c-5.2,0-9.4-4.2-9.4-9.4V92.3c0-3.2,1.6-6,4-7.7c-3.2,1.5-5.4,4.7-5.4,8.5v19.8
	c0,5.2,4.2,9.4,9.4,9.4h3.7c2,0,3.8-0.6,5.3-1.7C530.3,121.2,528.9,121.5,527.5,121.5z"/>
<path class="st15" d="M534.4,86.7c0,3.3-2.7,6-6,6h-16.7c-3.3,0-6-2.7-6-6l0,0c0-3.3,2.7-6,6-6h16.7
	C531.8,80.7,534.4,83.4,534.4,86.7L534.4,86.7z"/>
<path class="st15" d="M539.5,93.9c0,4-3.2,7.2-7.2,7.2l0,0c-4,0-7.2-3.2-7.2-7.2v-2.8c0-4,3.2-7.2,7.2-7.2l0,0c4,0,7.2,3.2,7.2,7.2
	V93.9z"/>
<path class="st15" d="M539.3,105c0,2.4-1.7,4.4-3.8,4.4l0,0c-2.1,0-3.8-2-3.8-4.4V80.8c0-2.4,1.7-4.4,3.8-4.4l0,0
	c2.1,0,3.8,2,3.8,4.4V105z"/>
<path class="st15" d="M539.4,80.3c0,3.1-2.5,5.6-5.6,5.6h-30.2c-3.1,0-5.6-2.5-5.6-5.6l0,0c0-3.1,2.5-5.6,5.6-5.6h30.2
	C536.8,74.6,539.4,77.2,539.4,80.3L539.4,80.3z"/>
<circle class="st15" cx="517.1" cy="99.9" r="1.1"/>
<circle class="st15" cx="523.2" cy="100.6" r="1.1"/>
<path class="st16" d="M516.3,108.8c0.2,2.7,1.6,4.8,3.3,4.8c1.7,0,3.1-2,3.3-4.7L516.3,108.8z"/>
<path class="st10" d="M534,104.3c0,0.9-0.8,1.7-1.7,1.7l0,0c-0.9,0-1.7-0.8-1.7-1.7v-1.5c0-0.9,0.8-1.7,1.7-1.7l0,0
	c0.9,0,1.7,0.8,1.7,1.7V104.3z"/>
<path class="st0" d="M520.3,143c-1.5-1.7-1.4-4.3,0.3-5.9l13-11.9c1.7-1.5,4.3-1.4,5.9,0.3l0,0c1.5,1.7,1.4,4.3-0.3,5.9l-13,11.9
	C524.5,144.8,521.9,144.7,520.3,143L520.3,143z"/>
<path class="st0" d="M506.2,132.6c0.9-1.8,3-2.6,4.8-1.8l14,6.6c1.8,0.9,2.6,3,1.8,4.8l0,0c-0.9,1.8-3,2.6-4.8,1.8l-14-6.6
	C506.2,136.6,505.4,134.4,506.2,132.6L506.2,132.6z"/>
<path class="st3" d="M546,153.6c0-1.4-1.1-2.6-2.6-2.6h-63.8c-1.4,0-2.6,1.1-2.6,2.6l0,0c0,1.4,1.1,2.6,2.6,2.6h63.8
	C544.8,156.2,546,155,546,153.6L546,153.6z"/>
<g>
	<path class="st0" d="M506.7,250.6c1.5-0.8,1.9-2.6,1.9-2.6l3.8-14.7L489,246.6c2.3,0.7,7.4,2.3,11.4,3.4c1,0.3,1.9,0.5,2.6,0.8
		C504.5,251.2,505.7,251.1,506.7,250.6z"/>
	<path class="st0" d="M509.4,248.2c0,0.1-0.4,2.1-2.3,3.2c-1.2,0.7-2.6,0.8-4.3,0.3c-0.7-0.2-1.4-0.4-2.2-0.6l-2.5,11.1l23.4-13.4
		l-11.5-2.9L509.4,248.2z"/>
	<path class="st0" d="M488.9,247.5l8.3,14.5l2.5-11.3C496,249.7,491.3,248.2,488.9,247.5z"/>
	<polygon class="st0" points="510.3,244.9 521.8,247.9 513.4,233.1 	"/>
</g>
<path class="st0" d="M569.7,229.5c-0.1,0-2.5,0.8-4.7-0.5c-1.4-0.8-2.3-2.3-2.8-4.4c-0.2-0.8-0.4-1.7-0.6-2.7l-13.1,3.9l27.7,16.7
	l-3.7-13.8L569.7,229.5z"/>
<path class="st0" d="M559.3,206.7L548,224.9l19-5.1C563.8,215.2,559.9,209.6,559.3,206.7z"/>
<polygon class="st0" points="572.1,222.6 577.2,242.3 587.8,224.9 "/>
<path class="st0" d="M559.8,225.2l1.7-3.2c0,0,6.2-2.4,7.9-0.5s3.2,8.1,3.2,8.1l-8.1,4L559.8,225.2z"/>
<path class="st7" d="M561.1,207.8c0,0,6.5,10.2,8.5,11.8s16.9,4.4,16.9,4.4l6.4-11.5l-26-14.1L561.1,207.8z"/>
<ellipse transform="matrix(0.8481 -0.5299 0.5299 0.8481 -107.0322 322.3551)" class="st6" cx="508.6" cy="347.8" rx="20.5" ry="20.5"/>
<ellipse transform="matrix(0.4925 -0.8703 0.8703 0.4925 -44.5832 619.1812)" class="st0" cx="508.6" cy="347.8" rx="16.7" ry="16.7"/>
<path class="st17" d="M508.3,347.1c0.1-0.3,0.4-0.5,0.7-0.4l0,0c0.3,0.1,0.5,0.4,0.4,0.7L506,360c-0.1,0.3-0.4,0.5-0.8,0.4l0,0
	c-0.3-0.1-0.5-0.4-0.4-0.8L508.3,347.1z"/>
<path class="st17" d="M509.8,348.5c0.1,0.2,0,0.5-0.3,0.7l0,0c-0.3,0.2-0.6,0.2-0.7,0l-4.8-6.9c-0.1-0.2,0-0.5,0.3-0.7l0,0
	c0.3-0.2,0.6-0.2,0.7,0L509.8,348.5z"/>
<path class="st8" d="M535.2,339.6c-1.7-3.6-6-5.2-9.6-3.5l-0.2,0.1l1.6,2.7c1.3,0.4,2.4,1.2,3,2.5c1.2,2.5-0.3,5.6-3.2,7l-30.3,14.1
	c-2.9,1.4-6.2,0.4-7.4-2.1c-0.7-1.5-0.5-3.3,0.5-4.7l-0.9-2.4l-0.8,0.4c-3.6,1.7-5.2,6-3.5,9.6c1.7,3.6,6,5.2,9.6,3.5l37.7-17.5
	C535.4,347.5,536.9,343.2,535.2,339.6z"/>
<path class="st8" d="M439.3,54.7c0,0.8-0.8,1.7-1.9,1.9L409.2,62c-1.1,0.2-1.2-0.8-1.2-1.6l-0.2-5.2c0-0.8-0.1-1.7,0.9-1.9l28.4-4.9
	c1.1-0.2,2,0.3,2,1.2L439.3,54.7z"/>
<path class="st2" d="M440.5,60.1c0.1,0.5-0.4,1.2-1.2,1.5l-20.3,8.2c-0.8,0.3-1.5,0.2-1.7-0.3l-0.9-3.2c-0.1-0.5,0.4-1.2,1.2-1.5
	l20.3-8.2c0.8-0.3,1.5-0.2,1.7,0.3L440.5,60.1z"/>
<path class="st18" d="M410.4,59.6c0.1,1.1-0.5,2.2-1.2,2.5l-6.9,2.2c-0.8,0.2-1.5-0.5-1.6-1.6l-0.4-4.8c-0.1-1.1,0.5-2.2,1.2-2.5
	l6.9-2.2c0.8-0.2,1.5,0.5,1.6,1.6L410.4,59.6z"/>
<path class="st7" d="M348.9,21l-43.9-9c-1-0.2-2,0.2-2.6,1c0.4-0.2,0.9-0.2,1.4-0.1l43.9,9c1.3,0.3,2.2,1.6,1.9,2.9l-6.2,30.1
	c-0.1,0.3-0.2,0.6-0.4,0.9c0.8-0.3,1.4-1,1.6-1.8l6.2-30.1C351.1,22.6,350.2,21.2,348.9,21z"/>
<path class="st0" d="M300.8,19.8l-5,24.2c-0.3,1.3,0.6,2.7,1.9,2.9l43.9,9c1.3,0.3,2.7-0.6,2.9-1.9l5-24.2L300.8,19.8z"/>
<path class="st2" d="M312.8,29.2c-0.2,1.2-1.4,1.9-2.5,1.7l-3.7-0.8c-1.2-0.2-1.9-1.4-1.7-2.5l0.4-2.1c0.2-1.2,1.4-1.9,2.5-1.7
	l3.7,0.8c1.2,0.2,1.9,1.4,1.7,2.5L312.8,29.2z"/>
<path class="st2" d="M322.3,31.2c-0.2,1.2-1.4,1.9-2.5,1.7l-3.7-0.8c-1.2-0.2-1.9-1.4-1.7-2.5l0.4-2.1c0.2-1.2,1.4-1.9,2.5-1.7
	l3.7,0.8c1.2,0.2,1.9,1.4,1.7,2.5L322.3,31.2z"/>
<path class="st2" d="M331.9,33.3c-0.2,1.2-1.4,1.9-2.5,1.7l-3.7-0.8c-1.2-0.2-1.9-1.4-1.7-2.5l0.4-2.1c0.2-1.2,1.4-1.9,2.5-1.7
	l3.7,0.8c1.2,0.2,1.9,1.4,1.7,2.5L331.9,33.3z"/>
<path class="st2" d="M341.4,35.3c-0.2,1.2-1.4,1.9-2.5,1.7l-3.7-0.8c-1.2-0.2-1.9-1.4-1.7-2.5l0.4-2.1c0.2-1.2,1.4-1.9,2.5-1.7
	l3.7,0.8c1.2,0.2,1.9,1.4,1.7,2.5L341.4,35.3z"/>
<path class="st2" d="M311.1,37c-0.2,1.2-1.4,1.9-2.5,1.7l-3.7-0.8c-1.2-0.2-1.9-1.4-1.7-2.5l0.4-2.1c0.2-1.2,1.4-1.9,2.5-1.7
	l3.7,0.8c1.2,0.2,1.9,1.4,1.7,2.5L311.1,37z"/>
<path class="st19" d="M320.6,39.1c-0.2,1.2-1.4,1.9-2.5,1.7l-3.7-0.8c-1.2-0.2-1.9-1.4-1.7-2.5l0.4-2.1c0.2-1.2,1.4-1.9,2.5-1.7
	l3.7,0.8c1.2,0.2,1.9,1.4,1.7,2.5L320.6,39.1z"/>
<path class="st2" d="M330.2,41.1c-0.2,1.2-1.4,1.9-2.5,1.7L324,42c-1.2-0.2-1.9-1.4-1.7-2.5l0.4-2.1c0.2-1.2,1.4-1.9,2.5-1.7
	l3.7,0.8c1.2,0.2,1.9,1.4,1.7,2.5L330.2,41.1z"/>
<path class="st2" d="M339.7,43.2c-0.2,1.2-1.4,1.9-2.5,1.7l-3.7-0.8c-1.2-0.2-1.9-1.4-1.7-2.5l0.4-2.1c0.2-1.2,1.4-1.9,2.5-1.7
	l3.7,0.8c1.2,0.2,1.9,1.4,1.7,2.5L339.7,43.2z"/>
<path class="st19" d="M309.7,44.4c-0.2,1.2-1.4,1.9-2.5,1.7l-3.7-0.8c-1.2-0.2-1.9-1.4-1.7-2.5l0.4-2.1c0.2-1.2,1.4-1.9,2.5-1.7
	l3.7,0.8c1.2,0.2,1.9,1.4,1.7,2.5L309.7,44.4z"/>
<path class="st2" d="M319.1,46.5c-0.2,1.2-1.4,1.9-2.5,1.7l-3.7-0.8c-1.2-0.2-1.9-1.4-1.7-2.5l0.4-2.1c0.2-1.2,1.4-1.9,2.5-1.7
	l3.7,0.8c1.2,0.2,1.9,1.4,1.7,2.5L319.1,46.5z"/>
<circle class="st7" cx="312.9" cy="15.8" r="1.8"/>
<circle class="st7" cx="325.2" cy="18.6" r="1.8"/>
<circle class="st7" cx="338.5" cy="21.2" r="1.8"/>
<path class="st15" d="M314,16c-0.3,0.8-1.2,1.1-1.9,0.8l0,0c-0.8-0.3-1.1-1.2-0.8-1.9l2-5.1c0.3-0.8,1.2-1.1,1.9-0.8l0,0
	c0.8,0.3,1.1,1.2,0.8,1.9L314,16z"/>
<path class="st15" d="M326.4,18.7c-0.3,0.8-1.2,1.1-1.9,0.8l0,0c-0.8-0.3-1.1-1.2-0.8-1.9l2-5.1c0.3-0.8,1.2-1.1,1.9-0.8l0,0
	c0.8,0.3,1.1,1.2,0.8,1.9L326.4,18.7z"/>
<path class="st15" d="M339.9,21.2c-0.3,0.8-1.2,1.1-1.9,0.8l0,0c-0.8-0.3-1.1-1.2-0.8-1.9l2-5.1c0.3-0.8,1.2-1.1,1.9-0.8l0,0
	c0.8,0.3,1.1,1.2,0.8,1.9L339.9,21.2z"/>
<path class="st3" d="M182.3,68.9c1.2,0.4,1.6,1.3,0.8,1.9l-23,17.9c-0.8,0.6-2.4,0.7-3.6,0.3l-25.3-9.2c-1.2-0.4-1.6-1.3-0.8-1.9
	l23-17.9c0.8-0.6,2.4-0.7,3.6-0.3L182.3,68.9z"/>
<path class="st2" d="M182.3,68.9L157,59.7c-1.2-0.4-2.8-0.3-3.6,0.3l-23,17.9c-0.7,0.5-0.4,1.3,0.5,1.7l21.9-18.4
	c0.7-0.6,2.3-0.8,3.5-0.4l25.6,8.2c1.2,0.4,1.6,1.2,0.9,1.8l-1.7,1.4l1.9-1.5C183.9,70.2,183.5,69.3,182.3,68.9z"/>
<polygon class="st15" points="189.4,81.7 186.9,80.7 187.4,82.4 189.8,82 "/>
<path class="st8" d="M166.5,67.5l-27.2-8.7l0,0c-3.7-1.1-8-0.3-12.3,2.8l-20,13.8c-8,5.8-12.8,17.5-11.6,27.3l-11,8.3l-1.3,0.9
	l-0.8,0.6l-2.1,1.5l-2.1,1.5c-2.2,1.6-3.4,5.7-2.5,9l1.9,7.3c-1.7,1.4-2.7,4.1-2.1,6.1c0.2,0.9,0.7,1.5,1.3,1.8l0,0.1l29.4,9.3
	l17.1-27.5l29.7-35.2l1.5-1.1c1.4-1,2.4-2.9,2.6-4.6L166.5,67.5z"/>
<path class="st20" d="M135.7,58.4c0,0-0.6,0-1,0.1c-2.1,0.5-4.1,1.5-6.2,3l-20.4,14.1c-4,2.9-7.4,7.4-9.6,12.7
	c-2.2,5.2-3,10.8-2.4,15.7l0.2,0c-1.3-10.2,3.9-22.3,12-28.3l20.4-14.1C130.9,59.9,133.3,58.8,135.7,58.4L135.7,58.4z"/>
<path class="st11" d="M172.8,95.8c1,4-0.9,8.6-4.4,10.4c-3.4,1.7-7-0.1-8-4.1c-1-4,0.9-8.6,4.4-10.4C168.2,90,171.8,91.8,172.8,95.8
	z"/>
<polygon class="st11" points="166.3,107.2 164.2,106.6 168.8,91.3 171.5,92.1 "/>
<path class="st21" d="M175.3,96.6c1,4-0.9,8.6-4.4,10.4c-3.4,1.7-7-0.1-8-4.1c-1-4,0.9-8.6,4.4-10.4
	C170.7,90.8,174.3,92.6,175.3,96.6z"/>
<path class="st22" d="M172.8,97.9c0.6,2.4-0.6,5.1-2.6,6.2c-2,1-4.2,0-4.8-2.4c-0.6-2.4,0.6-5.1,2.6-6.2
	C170.1,94.5,172.2,95.5,172.8,97.9z"/>
<path class="st11" d="M130.5,126.7c1,3.9-0.9,8.5-4.3,10.2c-3.4,1.7-7-0.1-8-4c-1-3.9,0.9-8.5,4.3-10.2
	C126,121,129.5,122.8,130.5,126.7z"/>
<polygon class="st11" points="124.1,138 122,137.3 126.6,122.2 129.2,123.1 "/>
<path class="st21" d="M133,127.5c1,3.9-0.9,8.5-4.3,10.2c-3.4,1.7-7-0.1-8-4c-1-3.9,0.9-8.5,4.3-10.2
	C128.4,121.8,132,123.6,133,127.5z"/>
<path class="st22" d="M130.5,128.8c0.6,2.3-0.6,5.1-2.6,6.1c-2,1-4.1,0-4.7-2.4c-0.6-2.3,0.6-5.1,2.6-6.1
	C127.8,125.3,129.9,126.4,130.5,128.8z"/>
<g>
	<path class="st23" d="M86.9,134.3c0.1,0.2,0,0.4-0.2,0.4l0,0c-0.2,0.1-0.4,0-0.4-0.2l-2.9-9.1c-0.1-0.2,0-0.4,0.2-0.4l0,0
		c0.2-0.1,0.4,0,0.4,0.2L86.9,134.3z"/>
	<path class="st23" d="M88.3,134.8c0.1,0.2,0,0.4-0.2,0.4l0,0c-0.2,0.1-0.4,0-0.4-0.2l-2.9-9.1c-0.1-0.2,0-0.4,0.2-0.4l0,0
		c0.2-0.1,0.4,0,0.4,0.2L88.3,134.8z"/>
	<path class="st23" d="M89.8,135.3c0.1,0.2,0,0.4-0.2,0.4l0,0c-0.2,0.1-0.4,0-0.4-0.2l-2.8-9.1c-0.1-0.2,0-0.4,0.2-0.4l0,0
		c0.2-0.1,0.4,0,0.4,0.2L89.8,135.3z"/>
	<path class="st23" d="M91.5,135.8c0.1,0.2,0,0.4-0.2,0.4l0,0c-0.2,0.1-0.4,0-0.4-0.2l-2.8-9.1c-0.1-0.2,0-0.4,0.2-0.4l0,0
		c0.2-0.1,0.4,0,0.4,0.2L91.5,135.8z"/>
	<path class="st23" d="M93.2,136.4c0.1,0.2,0,0.4-0.2,0.4l0,0c-0.2,0.1-0.4,0-0.4-0.2l-2.7-9.7c-0.1-0.2,0-0.4,0.2-0.4l0,0
		c0.2-0.1,0.4,0,0.4,0.2L93.2,136.4z"/>
	<path class="st23" d="M94.8,137c0.1,0.2,0,0.4-0.2,0.4l0,0c-0.2,0.1-0.4,0-0.4-0.2l-2.7-9.7c-0.1-0.2,0-0.4,0.2-0.4l0,0
		c0.2-0.1,0.4,0,0.4,0.2L94.8,137z"/>
</g>
<path class="st13" d="M77.6,132c0,0-0.5,1.1,1.4,1.7c2.6,0.8,2,0.7,25.6,7.3c0,0,1,0.3,1.5-0.4"/>
<path class="st24" d="M103.2,139.6c0.1,0.5-0.1,0.8-0.5,0.7l-2.5-0.7c-0.4-0.1-0.8-0.6-0.9-1.1l0,0c-0.1-0.5,0.1-0.8,0.5-0.7
	l2.5,0.7C102.7,138.6,103.1,139.1,103.2,139.6L103.2,139.6z"/>
<path class="st24" d="M82.7,133.6c0.1,0.5-0.1,0.8-0.5,0.7l-2.5-0.7c-0.4-0.1-0.8-0.6-0.9-1.1l0,0c-0.1-0.5,0.1-0.8,0.5-0.7l2.5,0.7
	C82.2,132.6,82.6,133.1,82.7,133.6L82.7,133.6z"/>
<path class="st20" d="M121.1,111l-1.7-0.5l-22.2-7c0,0-0.8,0-0.9-1.2c-0.1-1.2-0.3-5.9,1-10.3c0,0,2.1-4.7,5.6-3.7
	c1.4,0.5,18.2,5.8,18.2,5.8s4.7-0.1,2.9,6.7c-0.3,1.1-0.9,2.6-1.2,8.5C122.7,109.3,122.7,111.6,121.1,111z"/>
<path class="st23" d="M120.5,110.7l-1.6-0.5l-21.1-6.6c0,0-0.8,0-0.9-1.2c-0.1-1.1-0.3-5.6,1-9.8c0,0,2-4.4,5.3-3.4
	c1.4,0.4,17.3,5.5,17.3,5.5s4.5-0.2,2.8,6.3c-0.3,1-0.8,2.5-1.2,8.1C122,109.1,122.1,111.3,120.5,110.7z"/>
<path class="st25" d="M120.4,94.7c0,0-15.9-5.1-17.3-5.5c-0.3-0.1-0.5-0.1-0.8-0.1c0.1,0,0.2,0,0.3,0.1c1.3,0.4,16.8,5.6,16.8,5.6
	s4.4-0.2,2.6,6.1c-0.3,1-0.8,2.4-1.2,7.9c0,0,0,2.1-1.5,1.5l-1.6-0.5L97.2,103c0,0-0.1,0-0.3-0.1c0.3,0.6,0.7,0.6,0.7,0.6l21.1,6.6
	l1.6,0.5c1.6,0.6,1.5-1.6,1.5-1.6c0.3-5.6,0.9-7.1,1.2-8.1C124.9,94.5,120.4,94.7,120.4,94.7z"/>
<path class="st20" d="M162.4,66.2c-2.3,0.4-4.7,1.5-7,3.2l-12.1,8.8c-4,2.9-15.7,12.7-17.9,17.9c-1.5,3.5-2.3,7.1-2.6,10.6l0.2,0
	c0.6-8.9,13.6-23.5,20.4-28.4l12.1-8.8c2.4-1.7,4.8-2.8,7.2-3.2L162.4,66.2z"/>
<path class="st13" d="M111.2,146.2c1.7-1.1,1.5-3,1.5-3l-0.8-3.5c-1.1-4.3,7-14.6,10.8-17.4l2.7-1.8c3.8-2.8,7.8-1.5,8.8,2.8
	l0.9,3.6l27.2-19.6l-1-3.8c-1.1-4.4,1.1-10.2,4.9-13l2-1.5c3.8-2.8,7.9-1.5,9,2.8l0.9,3.5"/>
<path class="st11" d="M171.3,76.6c-1.3-2.7-3.2-4.5-5.5-5.4c-0.1,0-0.3,0-0.2,0.4l2.3,7.3c0.1,0.2,0.3,0.8,0.7,0.5l1-0.8
	c0.7-0.5,1.5-1.1,1.5-1.1s0,0,0,0l0.1-0.1C171.4,77.2,171.5,77,171.3,76.6z"/>
<path class="st26" d="M156.4,93.8c0.2,0.5,0,1.1-0.4,1.4l-2.2,1.6c-0.4,0.3-0.8,0.1-1-0.4l0,0c-0.2-0.5,0-1.1,0.4-1.4l2.2-1.6
	C155.8,93.1,156.2,93.3,156.4,93.8L156.4,93.8z"/>
<path class="st24" d="M155.6,93.3c0.2,0.1,0.3,0.2,0.4,0.5c0.2,0.5,0,1.1-0.4,1.4l-2.2,1.6c-0.1,0-0.1,0.1-0.2,0.1
	c0.2,0.1,0.4,0,0.6-0.1l2.2-1.6c0.4-0.3,0.6-0.9,0.4-1.4C156.2,93.4,155.9,93.2,155.6,93.3z"/>
<path class="st27" d="M142.9,60l0,0.2c0,0,10.2,4.2,11,5.2c0.8,1,4.2,3.6-6,11c-7.2,5.2,2.5,5.9,8.8,5.9c0.1-0.4,0.2-0.9,0.3-1.3
	l9.6-13.4L142.9,60z"/>
<rect x="159" y="88.4" transform="matrix(0.955 -0.2966 0.2966 0.955 -21.5457 51.562)" class="st20" width="0.3" height="16.8"/>
<polygon class="st27" points="176,89.1 175.7,89.2 172,77.2 172.3,77.1 "/>
<rect x="127.8" y="110.9" transform="matrix(0.9545 -0.2981 0.2981 0.9545 -28.477 43.3738)" class="st20" width="0.3" height="8.3"/>
<rect x="128.2" y="110.9" transform="matrix(0.9543 -0.299 0.299 0.9543 -28.5406 43.6264)" class="st8" width="0.3" height="8.3"/>
<path class="st20" d="M172.2,77.3c-0.1-0.2-0.2-0.2-0.4-0.2l-44.7,33.6c-0.1,0.1-0.1,0.2-0.1,0.3l-1.2,0.9c0.5,0.3,1,0.2,1.6-0.1
	l0,0c0,0,0,0,0,0l0,0l1.8-1.1c0.3-0.2,0.6-0.5,0.9-0.9l42-31.5C172.4,78.2,172.3,77.5,172.2,77.3z"/>
<path class="st25" d="M126,112l-0.1-1.1c-1.2-9.2,11.4-25.4,18.3-30.6l10-7.6c3.1-2.4,6.5-3.4,9.6-2.9v0l0.1,0c0.1,0,0.1,0,0.2,0
	l0.2,0c0,0,0.9,0.2,1.7,0.5l0.1,0c2.6,1.1,4.7,3.3,6.1,6.3l0.2,0.4L126,112z"/>
<path class="st23" d="M150,76.8L150,76.8l-5.5,4.2c-6.7,5-19,20.4-18.1,29.2c0.1,0.3,0.3,0.7,0.9,0.2c0.1,0,0.1-0.1,0.2-0.1
	l26.8-19.6c0,0,0.1-0.1,0.1-0.1c0.7-0.6,0.4-1.6,0.4-1.6l0,0L151,77C150.7,76.2,150,76.8,150,76.8z"/>
<path class="st23" d="M166.5,81.1c0.9-0.8,0.5-1.7,0.5-1.7l0,0l-2.3-7.4c0-0.1,0-0.1-0.1-0.2c-0.3-0.9-1.1-1.2-1.5-1.3
	c-2.7-0.3-5.7,0.7-8.6,2.8l-1,0.7c-0.2,0.2-0.5,0.6-0.4,1.2l3.7,11.9l0,0c0,0,0.3,1.1,1.3,0.3l8.2-6.3
	C166.3,81.2,166.4,81.1,166.5,81.1z"/>
<path class="st28" d="M130.4,106.9c0.3,1.3-0.4,3-1.4,3.7l-1.8,1.2c-1.1,0.7-2.1,0.2-2.4-1.2l0-0.1c-0.3-1.3,0.4-3,1.4-3.7l1.8-1.2
	c1.1-0.7,2.1-0.2,2.4,1.2L130.4,106.9z"/>
<path class="st29" d="M128,105.6l-1.8,1.2c-0.5,0.3-0.9,0.9-1.2,1.5c0.3-0.4,0.6-0.8,1-1.1l1.8-1.2c1.1-0.7,2.1-0.2,2.4,1.2l0,0.1
	c0.1,0.7,0,1.5-0.3,2.2c0.4-0.8,0.6-1.7,0.5-2.6l0-0.1C130.1,105.5,129,105,128,105.6z"/>
<path class="st28" d="M112.4,142.5c0.4,1.8-0.1,3.5-1.3,4.3l-2.7,2.1c-1.3,1-2.5,1.3-4.5-0.3l-0.3-1.7c-0.4-1.8,0.2-3.9,1.3-4.7
	l4.2-3.1c1.2-0.8,2.5,0,2.9,1.8L112.4,142.5z"/>
<path class="st28" d="M108.6,141.8l-2.9,2.1c-0.3,0.1-1,0.4-1.7,0.1c-0.1,0-0.1,0-0.2,0l-27.4-8.4c-0.9-0.3-1.4,0.6-1.2,2l0,0.3
	c0.1,1.4,0.8,2.3,1.7,2.6l28,8.9c0,0,0,0,0,0l1,0.3c0,0,0.4,0.1,0.8,0c0.5,0,0.9-0.3,1.3-0.6l2-1.5c0.9-0.6,1.2-1.8,0.9-3.2
	l-0.3-1.2C110.4,141.8,109.4,141.2,108.6,141.8z"/>
<path class="st2" d="M166.5,67.5l-27.2-8.7l0,0c-3.7-1.1-8-0.3-12.3,2.8l-20,13.8c-8,5.8-12.8,17.5-11.6,27.3l-11,8.3l-1.3,0.9
	l-0.8,0.6l-2.1,1.5l-2.1,1.5c-2.2,1.6-3.4,5.7-2.5,9l1.9,7.3c-1.7,1.4-2.7,4.1-2.1,6.1c0.2,0.9,0.7,1.5,1.3,1.8l0,0.1l29.4,9.3
	l17.1-27.5l29.7-35.2l1.5-1.1c1.4-1,2.4-2.9,2.6-4.6L166.5,67.5z"/>
<path class="st7" d="M172.8,95.8c1,4-0.9,8.6-4.4,10.4c-3.4,1.7-7-0.1-8-4.1c-1-4,0.9-8.6,4.4-10.4C168.2,90,171.8,91.8,172.8,95.8z
	"/>
<polygon class="st7" points="166.3,107.2 164.2,106.6 168.8,91.3 171.5,92.1 "/>
<path class="st7" d="M175.3,96.6c1,4-0.9,8.6-4.4,10.4c-3.4,1.7-7-0.1-8-4.1c-1-4,0.9-8.6,4.4-10.4
	C170.7,90.8,174.3,92.6,175.3,96.6z"/>
<path class="st0" d="M172.8,97.9c0.6,2.4-0.6,5.1-2.6,6.2c-2,1-4.2,0-4.8-2.4c-0.6-2.4,0.6-5.1,2.6-6.2
	C170.1,94.5,172.2,95.5,172.8,97.9z"/>
<path class="st7" d="M130.5,126.7c1,3.9-0.9,8.5-4.3,10.2c-3.4,1.7-7-0.1-8-4c-1-3.9,0.9-8.5,4.3-10.2
	C126,121,129.5,122.8,130.5,126.7z"/>
<polygon class="st7" points="124.1,138 122,137.3 126.6,122.2 129.2,123.1 "/>
<path class="st7" d="M133,127.5c1,3.9-0.9,8.5-4.3,10.2c-3.4,1.7-7-0.1-8-4c-1-3.9,0.9-8.5,4.3-10.2
	C128.4,121.8,132,123.6,133,127.5z"/>
<path class="st0" d="M130.5,128.8c0.6,2.3-0.6,5.1-2.6,6.1c-2,1-4.1,0-4.7-2.4c-0.6-2.3,0.6-5.1,2.6-6.1
	C127.8,125.3,129.9,126.4,130.5,128.8z"/>
<path class="st15" d="M86.4,133.7c0,0.2-0.1,0.4-0.2,0.4l0,0c-0.2,0-0.4-0.1-0.4-0.2l-2.6-9.2c0-0.2,0.1-0.4,0.2-0.4l0,0
	c0.2-0.1,0.4,0.1,0.4,0.2L86.4,133.7z"/>
<path class="st15" d="M87.8,134.3c0,0.2-0.1,0.4-0.2,0.4l0,0c-0.2,0.1-0.4-0.1-0.4-0.2l-2.6-9.2c-0.1-0.2,0.1-0.4,0.2-0.4l0,0
	c0.2,0,0.4,0.1,0.4,0.2L87.8,134.3z"/>
<path class="st15" d="M89.3,134.7c0.1,0.2-0.1,0.4-0.2,0.4l0,0c-0.2,0-0.4-0.1-0.4-0.2l-2.5-9.1c0-0.2,0.1-0.4,0.2-0.4l0,0
	c0.2,0,0.4,0.1,0.4,0.2L89.3,134.7z"/>
<path class="st15" d="M90.9,135.3c0.1,0.2-0.1,0.4-0.2,0.4l0,0c-0.2,0.1-0.4-0.1-0.4-0.2l-2.5-9.1c-0.1-0.2,0.1-0.4,0.2-0.4l0,0
	c0.2,0,0.4,0.1,0.4,0.2L90.9,135.3z"/>
<path class="st15" d="M92.6,136c0,0.2-0.1,0.4-0.2,0.4l0,0c-0.2,0-0.4-0.1-0.4-0.2l-2.4-9.7c0-0.2,0.1-0.4,0.2-0.4l0,0
	c0.2,0,0.4,0.1,0.4,0.2L92.6,136z"/>
<path class="st15" d="M94.2,136.6c0,0.2-0.1,0.4-0.2,0.4l0,0c-0.2,0-0.4-0.1-0.4-0.2l-2.4-9.7c-0.1-0.2,0.1-0.4,0.2-0.4l0,0
	c0.2-0.1,0.4,0.1,0.4,0.2L94.2,136.6z"/>
<path class="st15" d="M96.1,137c0.1,0.2-0.1,0.4-0.2,0.4l0,0c-0.2,0-0.4-0.1-0.4-0.2l-2.4-9.7c0-0.2,0.1-0.4,0.2-0.4l0,0
	c0.2,0,0.4,0.1,0.4,0.2L96.1,137z"/>
<g>
	<path class="st6" d="M105,141.7c-0.2,0-0.4,0-0.6-0.1l-8.9-2.5C81,135,81,135,78.9,134.3c-0.9-0.3-1.4-0.7-1.7-1.2
		c-0.3-0.6-0.1-1.1,0-1.2l0.9,0.4l-0.5-0.2l0.5,0.2c0,0-0.1,0.2,0,0.4c0.1,0.3,0.5,0.5,1,0.7c2.2,0.7,2.2,0.7,16.7,4.8l8.9,2.5
		c0,0,0.7,0.2,1-0.2l0.8,0.6C106.1,141.5,105.5,141.7,105,141.7z"/>
</g>
<path class="st13" d="M111.2,146.2c1.7-1.1,1.5-3,1.5-3l-0.8-3.5c-1.1-4.3,7-14.6,10.8-17.4l2.7-1.8c3.8-2.8,7.8-1.5,8.8,2.8
	l0.9,3.6l27.2-19.6l-1-3.8c-1.1-4.4,1.1-10.2,4.9-13l2-1.5c3.8-2.8,7.9-1.5,9,2.8l0.9,3.5"/>
<path class="st11" d="M171.3,76.6c-1.3-2.7-3.2-4.5-5.5-5.4c-0.1,0-0.3,0-0.2,0.4l2.3,7.3c0.1,0.2,0.3,0.8,0.7,0.5l1-0.8
	c0.7-0.5,1.5-1.1,1.5-1.1s0,0,0,0l0.1-0.1C171.4,77.2,171.5,77,171.3,76.6z"/>
<path class="st26" d="M156.4,93.8c0.2,0.5,0,1.1-0.4,1.4l-2.2,1.6c-0.4,0.3-0.8,0.1-1-0.4l0,0c-0.2-0.5,0-1.1,0.4-1.4l2.2-1.6
	C155.8,93.1,156.2,93.3,156.4,93.8L156.4,93.8z"/>
<path class="st24" d="M155.6,93.3c0.2,0.1,0.3,0.2,0.4,0.5c0.2,0.5,0,1.1-0.4,1.4l-2.2,1.6c-0.1,0-0.1,0.1-0.2,0.1
	c0.2,0.1,0.4,0,0.6-0.1l2.2-1.6c0.4-0.3,0.6-0.9,0.4-1.4C156.2,93.4,155.9,93.2,155.6,93.3z"/>
<path class="st8" d="M142.9,60l0,0.2c0,0,10.2,4.2,11,5.2c0.8,1,4.2,3.6-6,11c-7.2,5.2,2.5,5.9,8.8,5.9c0.1-0.4,0.2-0.9,0.3-1.3
	l9.6-13.4L142.9,60z"/>
<path class="st8" d="M187.4,81.7l-2.1-8.3c-0.8-3.3-8.2-0.6-10.3,0.7c-6-5.8-9.7-11-20.6-3.1l-11.4,8.4
	c-15.9,12.3-20.6,22.7-19.4,32.4l-5,3.7l-1.3,0.9l-0.8,0.6l-2,1.5l-7.9,6.1c-2.2,1.6-3.3,5.6-2.4,9l1.9,7.3
	c-1.7,1.4-2.6,4.1-2.1,6.1c0.6,2.1,2.5,2.8,4.3,1.4l12.6-9.5l-0.8-3c-0.9-3.6,0.8-8.3,3.9-10.5l1.6-1.2c3.1-2.3,6.3-1.2,7.2,2.3
	l0.8,3l9.3-6.9c0.5-0.3,1-0.6,1.5-1l19-13.2l-0.8-3.1c-0.9-3.6,0.8-8.3,3.9-10.5l1.6-1.2c3.1-2.3,6.3-1.2,7.2,2.3l0.7,2.9l0.6-0.4
	c0.3-0.1,0.5-0.3,0.8-0.5l4.1-3.1c1.8-1.4,8.1-6.6,7.6-8.7C188.6,84.7,188.7,81.5,187.4,81.7z"/>
<path class="st27" d="M185.6,89.6l-8.8,6.3l-0.9-3.5c-1.1-4.4-5.1-5.6-8.9-2.9l-2,1.5c-3.8,2.8-5.9,8.6-4.8,13l1,3.8l-26.7,19.5
	l-0.9-3.6c-1.1-4.3-5-5.6-8.7-2.8l-2.7,1.8c-3.7,2.7-6.6,9.2-5.5,13.5l0.9,3.6c0,0-5.3,3.8-7.9,5.5l0.4,1.9l10.5-8l-0.8-3
	c-0.9-3.6,0.8-8.3,3.9-10.5l1.6-1.2c3.1-2.3,6.3-1.2,7.2,2.3l0.8,3l9.3-6.9c0.5-0.3,1-0.6,1.5-1l19-13.2l-0.8-3.1
	c-0.9-3.6,0.8-8.3,3.9-10.5l1.6-1.2c3.1-2.3,6.3-1.2,7.2,2.3l0.7,2.9l0.6-0.4c0.3-0.1,0.5-0.3,0.8-0.5l4.1-3.1
	c0.6-0.4,5.2-2.8,5.6-3.5C186.6,90.7,185.6,89.6,185.6,89.6z"/>
<rect x="174.1" y="77.3" transform="matrix(0.9544 -0.2986 0.2986 0.9544 -18.0489 55.9855)" class="st27" width="0.3" height="19.5"/>
<rect x="151.5" y="94.5" transform="matrix(0.9535 -0.3015 0.3015 0.9535 -24.2399 50.5394)" class="st27" width="0.3" height="18.6"/>
<rect x="127.8" y="110.9" transform="matrix(0.9545 -0.2981 0.2981 0.9545 -28.477 43.3738)" class="st20" width="0.3" height="8.3"/>
<rect x="128.2" y="110.9" transform="matrix(0.9543 -0.299 0.299 0.9543 -28.5406 43.6264)" class="st8" width="0.3" height="8.3"/>
<path class="st27" d="M172.4,77.3c-0.1-0.2-0.2-0.2-0.4-0.2l-44.7,33.6c-0.1,0.1-0.1,0.2-0.1,0.3l-1.2,0.9c0.5,0.3,1,0.2,1.6-0.1
	l0,0c0,0,0,0,0,0l0,0l1.8-1.1c0.3-0.2,0.6-0.5,0.9-0.9l42-31.5C172.5,78.1,172.5,77.5,172.4,77.3z"/>
<path class="st7" d="M126,112l-0.1-1.1c-1.2-9.2,4-20,18.3-30.6l10-7.6c3.1-2.4,6.5-3.4,9.6-2.9v0l0.1,0c0.1,0,0.1,0,0.2,0l0.2,0
	c0,0,0.9,0.2,1.7,0.5l0.1,0c2.6,1.1,4.7,3.3,6.1,6.3l0.2,0.4L126,112z"/>
<path class="st28" d="M191.5,85.8c0.5,2-0.1,3.8-1.5,4.7l-4.7,3.5c-1.3,0.9-2.8,0.5-3.3-1.5l-0.4-1.8c-0.4-2,0.2-4.3,1.6-5.2
	l4.7-3.5c1.3-0.9,2.7,0,3.2,2L191.5,85.8z"/>
<path class="st15" d="M188,81.9c1,0,1.8,0.8,2.2,2.3l0.4,1.8c0.4,2-0.1,3.8-1.5,4.7l-4.7,3.5c-0.1,0.1-0.2,0.1-0.3,0.2
	c0.4,0,0.8-0.2,1.2-0.4l4.7-3.5c1.3-0.9,1.9-2.7,1.5-4.7L191,84C190.6,82,189.3,81.2,188,81.9z"/>
<path class="st3" d="M108.6,141.8l-2.9,2.1c-0.3,0.1-1,0.4-1.7,0.1c-0.1,0-0.1,0-0.2,0l-27.4-8.4c-0.9-0.3-1.4,0.6-1.2,2l0,0.3
	c0.1,1.4,0.8,2.3,1.7,2.6l28,8.9c0,0,0,0,0,0l1,0.3c0,0,0.4,0.1,0.8,0c0.5,0,0.9-0.3,1.3-0.6l2-1.5c0.9-0.6,1.2-1.8,0.9-3.2
	l-0.3-1.2C110.4,141.8,109.4,141.2,108.6,141.8z"/>
<path class="st8" d="M182.9,69.2c0,0,1.5,0.3,2.6,4.9c1.2,4.6-5.9,2.7-5.9,2.6c-0.1-0.1-4.6-2.5-4.6-2.5L182.9,69.2z"/>
<path class="st0" d="M149,94l13.8-10.4L159,71.4c-1.5,0.4-3.1,1.2-4.6,2.3l-8.9,6.8c-0.2,0.1-0.4,0.3-0.6,0.4L149,94z"/>
<path class="st0" d="M142.9,82.5c-11.9,9.2-16.3,18.5-15.2,26.5l0.1,1L147,95.5L142.9,82.5z"/>
<path class="st0" d="M165,71.7L165,71.7c-0.7-0.3-1.5-0.5-1.6-0.5l-0.2,0c-0.1,0-0.1,0-0.2,0l-0.1,0v0c-1.1-0.2-2.2-0.1-3.4,0.1
	l3.7,11.9l7.3-5.5l-0.2-0.4C169.2,74.6,167.3,72.7,165,71.7z"/>
<path class="st28" d="M130.4,106.9c0.3,1.3-0.4,3-1.4,3.7l-1.8,1.2c-1.1,0.7-2.1,0.2-2.4-1.2l0-0.1c-0.3-1.3,0.4-3,1.4-3.7l1.8-1.2
	c1.1-0.7,2.1-0.2,2.4,1.2L130.4,106.9z"/>
<path class="st25" d="M128,105.6l-1.8,1.2c-0.5,0.3-0.9,0.9-1.2,1.5c0.3-0.4,0.6-0.8,1-1.1l1.8-1.2c1.1-0.7,2.1-0.2,2.4,1.2l0,0.1
	c0.1,0.7,0,1.5-0.3,2.2c0.4-0.8,0.6-1.7,0.5-2.6l0-0.1C130.1,105.5,129,105,128,105.6z"/>
<path class="st6" d="M83.2,129.7c0.2,0.8-0.3,1.4-1.2,1.2l-2.2-0.5c-0.9-0.2-1.8-1-2-1.9l-1.4-5.6c-0.2-0.8,0.3-1.4,1.2-1.2l2.1,0.5
	c0.9,0.2,1.8,1,2,1.9L83.2,129.7z"/>
<path class="st6" d="M82.5,129c0.2,0.7-0.3,1.1-1,0.9l-1.7-0.4c-0.7-0.2-1.4-0.8-1.6-1.5l-1.1-4.4c-0.2-0.7,0.3-1.1,1-0.9l1.7,0.4
	c0.7,0.2,1.4,0.8,1.6,1.5L82.5,129z"/>
<path class="st6" d="M102.6,135.5c0.2,0.8-0.3,1.4-1.2,1.2l-2.2-0.5c-0.9-0.2-1.8-1-2-1.9l-1.4-5.6c-0.2-0.8,0.3-1.4,1.2-1.2
	l2.2,0.5c0.9,0.2,1.8,1,2,1.9L102.6,135.5z"/>
<path class="st3" d="M101.9,134.8c0.2,0.7-0.3,1.1-1,0.9l-1.7-0.4c-0.7-0.2-1.4-0.8-1.6-1.5l-1.1-4.4c-0.2-0.7,0.3-1.1,1-0.9
	l1.7,0.4c0.7,0.2,1.4,0.8,1.6,1.5L101.9,134.8z"/>
<path class="st3" d="M120.1,106.4c1,0.3,2.1,3.3,1.5,3.8l-19.3,15.2c-0.6,0.5-1.8,0.6-2.8,0.3l-20-6.6c-1-0.3-1.3-1-0.7-1.4l23.5-19
	c0.6-0.5,1.8-0.6,2.8-0.3L120.1,106.4z"/>
<path class="st3" d="M121.1,111l-1.7-0.5l-22.2-7c0,0-0.8,0-0.9-1.2c-0.1-1.2-0.3-5.9,1-10.3c0,0,2.1-4.7,5.6-3.7
	c1.4,0.5,18.2,5.8,18.2,5.8s4.4,1.2,2.6,8c-0.3,1.1-0.6,1.3-0.9,7.2C122.7,109.3,122.7,111.6,121.1,111z"/>
<path class="st6" d="M120.5,110.7l-1.6-0.5l-21.1-6.6c0,0-0.8,0-0.9-1.2c-0.1-1.1-0.3-5.6,1-9.8c0,0,2-4.4,5.3-3.4
	c1.4,0.4,17.3,5.5,17.3,5.5s3.5,1.2,2.8,6.3c-0.1,1.1-0.8,2.5-1.2,8.1C122,109.1,122.1,111.3,120.5,110.7z"/>
<path class="st7" d="M120.4,94.7c0,0-15.9-5.1-17.3-5.5c-0.3-0.1-0.5-0.1-0.8-0.1c0.1,0,0.2,0,0.3,0.1c1.3,0.4,16.8,5.6,16.8,5.6
	s4,1.1,2.3,7.4c-0.3,1-0.2,2.9-0.9,6.6c0,0,0,2.1-1.5,1.5l-1.6-0.5L97.2,103c0,0-0.1,0-0.3-0.1c0.3,0.6,0.7,0.6,0.7,0.6l21.1,6.6
	l1.6,0.5c1.6,0.6,1.5-1.6,1.5-1.6c0.3-4,0.6-5.8,0.8-6.8C124.6,95.8,120.4,94.7,120.4,94.7z"/>
<path class="st7" d="M186.2,77.3c0.2,0.8-0.3,1.6-1.1,1.8l0,0c-0.8,0.2-1.6-0.3-1.8-1.1l-1-4.1c-0.2-0.8,0.3-1.6,1.1-1.8l0,0
	c0.8-0.2,1.6,0.3,1.8,1.1L186.2,77.3z"/>
<path class="st30" d="M186.3,77.2c0.2,0.7-0.3,1.5-1,1.7l0,0c-0.7,0.2-1.5-0.3-1.7-1l-0.9-3.8c-0.2-0.7,0.3-1.5,1-1.6l0,0
	c0.7-0.2,1.5,0.3,1.7,1L186.3,77.2z"/>
<path class="st7" d="M177.6,58.1c0.7,0.9,2.1,1.1,3,0.3l52.3-43c0.9-0.7,1.5-1.5,0.8-2.4l0,0c-0.7-0.9-1.6-0.5-2.5,0.2L178,55.1
	C177.1,55.9,176.9,57.2,177.6,58.1L177.6,58.1z"/>
<path class="st0" d="M194.9,65.3c0.7,0.9,2.1,1.1,3,0.3l33-27.5c0.9-0.7,1.5-1.5,0.8-2.4l0,0c-0.7-0.9-1.6-0.5-2.5,0.2l-33.9,26.3
	C194.3,63,194.1,64.4,194.9,65.3L194.9,65.3z"/>
<path class="st7" d="M195.1,80.4c0.7,0.9,2.1,1.1,3,0.3l23-19.4c0.9-0.7,1.5-1.5,0.8-2.4l0,0c-0.7-0.9-1.6-0.5-2.5,0.2l-23.9,18.3
	C194.5,78.1,194.4,79.5,195.1,80.4L195.1,80.4z"/>
<path class="st0" d="M161.2,54.9c0.7,0.9,2.1,1.1,3,0.3l13.1-11.4c0.9-0.7,1.5-1.5,0.8-2.4l0,0c-0.7-0.9-1.6-0.5-2.5,0.2l-14,10.3
	C160.6,52.7,160.5,54,161.2,54.9L161.2,54.9z"/>
<polygon class="st31" points="50.2,300.2 51.7,306.6 44.6,306.7 "/>
<polygon class="st6" points="75,316.6 102.7,313.8 111.3,359.2 76.8,362.7 69.3,322.8 "/>
<polygon class="st31" points="75,316.6 76.2,322.9 69.3,322.8 "/>
<line class="st5" x1="49.6" y1="308.6" x2="78.1" y2="305.7"/>
<line class="st5" x1="50.5" y1="311.5" x2="78.9" y2="308.6"/>
<line class="st5" x1="73.1" y1="324.2" x2="101.5" y2="321.3"/>
<line class="st5" x1="73.8" y1="326.1" x2="102.3" y2="323.1"/>
<line class="st5" x1="76.3" y1="341.3" x2="104.8" y2="338.3"/>
<line class="st5" x1="77" y1="343.2" x2="105.5" y2="340.2"/>
<line class="st5" x1="77.2" y1="345.8" x2="105.7" y2="342.9"/>
<line class="st5" x1="77.9" y1="347.7" x2="106.4" y2="344.7"/>
<line class="st5" x1="78.1" y1="351.2" x2="106.6" y2="348.2"/>
<line class="st5" x1="78.9" y1="353.1" x2="107.3" y2="350.1"/>
<line class="st5" x1="79" y1="355.7" x2="107.5" y2="352.8"/>
<line class="st5" x1="79.8" y1="357.6" x2="108.2" y2="354.6"/>
<line class="st5" x1="78.5" y1="327.8" x2="97.9" y2="325.7"/>
<line class="st5" x1="78.9" y1="329.7" x2="98.4" y2="327.6"/>
<line class="st5" x1="79.5" y1="332.4" x2="98.9" y2="330.4"/>
<line class="st5" x1="80" y1="334.3" x2="99.4" y2="332.3"/>
<line class="st5" x1="50.8" y1="314.9" x2="79.2" y2="312"/>
<line class="st5" x1="51.6" y1="317.8" x2="80.1" y2="314.9"/>
<path class="st4" d="M75.1,211.6c0,0,18.9-0.2,29-11.2c0,0,4.4,7.3,4.6,13.3c0,0-14.4,10.5-32.2,10.9
	C76.5,224.4,78.5,218.3,75.1,211.6z"/>
<path class="st4" d="M107.1,201.4c0,0-7.6-1.2-15.4,5.8c-7.9,7-16.2,3.7-16.2,3.7l-0.8,13.3c0,0,10.5,2.7,20.1-5.6
	c9.6-8.3,16.6-5.7,16.6-5.7L107.1,201.4z"/>
<path class="st32" d="M107.9,199.2c0,0-7.8-1-15.8,6.4c-8,7.4-16.6,4.3-16.6,4.3l-0.5,13.8c0,0,10.9,2.5,20.6-6.3
	c9.7-8.8,17-6.4,17-6.4L107.9,199.2z"/>
<path class="st33" d="M99.6,211.1c0.4,2.7-2.6,5.5-6.7,6.2c-4.1,0.7-7.6-0.9-8-3.6c-0.4-2.7,2.6-5.5,6.7-6.2
	C95.7,206.7,99.3,208.4,99.6,211.1z"/>
<path class="st32" d="M95.7,209.5l-2.5,1.1c-0.3-0.2-0.7-0.3-1.1-0.4l3.1-1.3c0.3-0.1,0.4-0.4,0.3-0.6c-0.1-0.2-0.5-0.2-0.8-0.1
	l-7.7,3.3c-0.3,0.1-0.4,0.4-0.3,0.6c0.1,0.2,0.5,0.2,0.8,0.1l2.6-1.1c0,0,0.1,0,0.1,0c0.5-0.2,1.4-0.2,1.9,0l-4.1,1.8
	c-0.3,0.1-0.4,0.4-0.3,0.6c0.1,0.2,0.5,0.2,0.8,0.1l4-1.7c0,0.1-0.1,0.2-0.2,0.4c-0.4,0.6-1.4,1.1-2.1,1.5c-0.5,0.2-0.4,0.7,0.2,0.7
	c1.7,0,3.4-0.1,5.1-0.1c0.7,0,0.8-0.8,0.1-0.8c-1.2,0-2.3,0-3.5,0.1c0.9-0.6,1.7-1.3,1.6-2.1c0-0.1,0-0.1,0-0.2l2.5-1.1
	c0.3-0.1,0.4-0.4,0.3-0.6C96.4,209.4,96,209.4,95.7,209.5z"/>
<path class="st7" d="M141.4,35.7c0,3.6-2.9,6.5-6.5,6.5h0c-3.6,0-6.5-2.9-6.5-6.5l0,0c0-3.6,2.9-6.5,6.5-6.5h0
	C138.4,29.1,141.4,32.1,141.4,35.7L141.4,35.7z"/>
<path class="st21" d="M375.5,61.6c0,2.7-2.2,4.9-4.9,4.9h0c-2.7,0-4.9-2.2-4.9-4.9l0,0c0-2.7,2.2-4.9,4.9-4.9h0
	C373.3,56.7,375.5,58.9,375.5,61.6L375.5,61.6z"/>
<path class="st0" d="M534.3,190.2c0,1.8-1.5,3.3-3.3,3.3h0c-1.8,0-3.3-1.5-3.3-3.3l0,0c0-1.8,1.5-3.3,3.3-3.3h0
	C532.8,186.9,534.3,188.4,534.3,190.2L534.3,190.2z"/>
<path class="st6" d="M476.3,48.2c0,2.7-2.2,4.9-4.9,4.9h0c-2.7,0-4.9-2.2-4.9-4.9l0,0c0-2.7,2.2-4.9,4.9-4.9h0
	C474,43.3,476.3,45.5,476.3,48.2L476.3,48.2z"/>
<path class="st7" d="M180.3,15.9c0,1-0.8,1.7-1.7,1.7l0,0c-1,0-1.7-0.8-1.7-1.7v-0.1c0-1,0.8-1.7,1.7-1.7l0,0c1,0,1.7,0.8,1.7,1.7
	V15.9z"/>
<path class="st7" d="M349.6,8.9c0,1-0.8,1.7-1.7,1.7l0,0c-1,0-1.7-0.8-1.7-1.7V8.8c0-1,0.8-1.7,1.7-1.7l0,0c1,0,1.7,0.8,1.7,1.7V8.9
	z"/>
<path class="st7" d="M284,66.6c0,1-0.8,1.7-1.7,1.7l0,0c-1,0-1.7-0.8-1.7-1.7v-0.1c0-1,0.8-1.7,1.7-1.7l0,0c1,0,1.7,0.8,1.7,1.7
	V66.6z"/>
<path class="st7" d="M585.8,107.5c0,1-0.8,1.7-1.7,1.7l0,0c-1,0-1.7-0.8-1.7-1.7v-0.1c0-1,0.8-1.7,1.7-1.7l0,0c1,0,1.7,0.8,1.7,1.7
	V107.5z"/>
<path class="st0" d="M478.4,83.8c0,1-0.8,1.7-1.7,1.7l0,0c-1,0-1.7-0.8-1.7-1.7v-0.1c0-1,0.8-1.7,1.7-1.7l0,0c1,0,1.7,0.8,1.7,1.7
	V83.8z"/>
<path class="st7" d="M482.1,187.9c0,1-0.8,1.7-1.7,1.7l0,0c-1,0-1.7-0.8-1.7-1.7v-0.1c0-1,0.8-1.7,1.7-1.7l0,0c1,0,1.7,0.8,1.7,1.7
	V187.9z"/>
<path class="st7" d="M562.8,99.4c0,1-0.8,1.7-1.7,1.7l0,0c-1,0-1.7-0.8-1.7-1.7v-0.1c0-1,0.8-1.7,1.7-1.7l0,0c1,0,1.7,0.8,1.7,1.7
	V99.4z"/>
<path class="st7" d="M464.4,166.9c0,0.5-0.4,0.9-0.9,0.9l0,0c-0.5,0-0.9-0.4-0.9-0.9v-0.1c0-0.5,0.4-0.9,0.9-0.9l0,0
	C464,165.9,464.4,166.3,464.4,166.9L464.4,166.9z"/>
<path class="st7" d="M478.1,212.4c0,0.5-0.4,0.9-0.9,0.9l0,0c-0.5,0-0.9-0.4-0.9-0.9v-0.1c0-0.5,0.4-0.9,0.9-0.9l0,0
	C477.7,211.4,478.1,211.8,478.1,212.4L478.1,212.4z"/>
<path class="st7" d="M551.7,237c0,0.5-0.4,0.9-0.9,0.9l0,0c-0.5,0-0.9-0.4-0.9-0.9V237c0-0.5,0.4-0.9,0.9-0.9l0,0
	C551.3,236,551.7,236.5,551.7,237L551.7,237z"/>
<path class="st7" d="M1.8,214.1c0,0.5-0.4,0.9-0.9,0.9l0,0c-0.5,0-0.9-0.4-0.9-0.9V214c0-0.5,0.4-0.9,0.9-0.9l0,0
	C1.4,213.1,1.8,213.5,1.8,214.1L1.8,214.1z"/>
<path class="st7" d="M454.9,409.9c0,0.5-0.4,0.9-0.9,0.9l0,0c-0.5,0-0.9-0.4-0.9-0.9v-0.1c0-0.5,0.4-0.9,0.9-0.9l0,0
	C454.4,408.9,454.9,409.3,454.9,409.9L454.9,409.9z"/>
<path class="st7" d="M389,381.7c0,0.5-0.4,0.9-0.9,0.9l0,0c-0.5,0-0.9-0.4-0.9-0.9v-0.1c0-0.5,0.4-0.9,0.9-0.9l0,0
	C388.6,380.7,389,381.1,389,381.7L389,381.7z"/>
<path class="st7" d="M376.6,391.7c0,0.5-0.4,0.9-0.9,0.9l0,0c-0.5,0-0.9-0.4-0.9-0.9v-0.1c0-0.5,0.4-0.9,0.9-0.9l0,0
	C376.2,390.7,376.6,391.1,376.6,391.7L376.6,391.7z"/>
<path class="st0" d="M168.8,324.2c0,0.5-0.4,0.9-0.9,0.9l0,0c-0.5,0-0.9-0.4-0.9-0.9v-0.1c0-0.5,0.4-0.9,0.9-0.9l0,0
	C168.4,323.2,168.8,323.6,168.8,324.2L168.8,324.2z"/>
<path class="st7" d="M255.8,7.1c0,0.5-0.4,0.9-0.9,0.9l0,0c-0.5,0-0.9-0.4-0.9-0.9V7c0-0.5,0.4-0.9,0.9-0.9l0,0
	C255.4,6.1,255.8,6.5,255.8,7.1L255.8,7.1z"/>
<path class="st7" d="M388.1,8.9c0,0.5-0.4,0.9-0.9,0.9l0,0c-0.5,0-0.9-0.4-0.9-0.9V8.8c0-0.5,0.4-0.9,0.9-0.9l0,0
	C387.6,7.9,388.1,8.3,388.1,8.9L388.1,8.9z"/>
<path class="st7" d="M499,48.2c0,0.5-0.4,0.9-0.9,0.9l0,0c-0.5,0-0.9-0.4-0.9-0.9v-0.1c0-0.5,0.4-0.9,0.9-0.9l0,0
	C498.5,47.2,499,47.7,499,48.2L499,48.2z"/>
<path class="st7" d="M418.8,33c0,0.5-0.4,0.9-0.9,0.9l0,0c-0.5,0-0.9-0.4-0.9-0.9v-0.1c0-0.5,0.4-0.9,0.9-0.9l0,0
	C418.3,32,418.8,32.4,418.8,33L418.8,33z"/>
<path class="st7" d="M147.6,288.2c0,0.5-0.4,0.9-0.9,0.9l0,0c-0.5,0-0.9-0.4-0.9-0.9v-0.1c0-0.5,0.4-0.9,0.9-0.9l0,0
	C147.2,287.2,147.6,287.6,147.6,288.2L147.6,288.2z"/>
<path class="st7" d="M151.3,348.3c0,0.5-0.4,0.9-0.9,0.9l0,0c-0.5,0-0.9-0.4-0.9-0.9v-0.1c0-0.5,0.4-0.9,0.9-0.9l0,0
	C150.9,347.3,151.3,347.7,151.3,348.3L151.3,348.3z"/>
<path class="st7" d="M123,382.7c0,0.5-0.4,0.9-0.9,0.9l0,0c-0.5,0-0.9-0.4-0.9-0.9v-0.1c0-0.5,0.4-0.9,0.9-0.9l0,0
	C122.6,381.7,123,382.1,123,382.7L123,382.7z"/>
<path class="st7" d="M22.3,132.3c0,0.5-0.4,0.9-0.9,0.9l0,0c-0.5,0-0.9-0.4-0.9-0.9v-0.1c0-0.5,0.4-0.9,0.9-0.9l0,0
	C21.8,131.3,22.3,131.7,22.3,132.3L22.3,132.3z"/>
<path class="st7" d="M546.9,163.9c0,0.5-0.4,0.9-0.9,0.9l0,0c-0.5,0-0.9-0.4-0.9-0.9v-0.1c0-0.5,0.4-0.9,0.9-0.9l0,0
	C546.5,162.9,546.9,163.3,546.9,163.9L546.9,163.9z"/>
<path class="st7" d="M446.7,75.4c0,0.5-0.4,0.9-0.9,0.9l0,0c-0.5,0-0.9-0.4-0.9-0.9v-0.1c0-0.5,0.4-0.9,0.9-0.9l0,0
	C446.3,74.4,446.7,74.8,446.7,75.4L446.7,75.4z"/>
<path class="st7" d="M288,30.9c0,0.5-0.4,0.9-0.9,0.9l0,0c-0.5,0-0.9-0.4-0.9-0.9v-0.1c0-0.5,0.4-0.9,0.9-0.9l0,0
	C287.6,29.9,288,30.3,288,30.9L288,30.9z"/>
<path class="st7" d="M254.9,50.6c0,0.5-0.4,0.9-0.9,0.9l0,0c-0.5,0-0.9-0.4-0.9-0.9v-0.1c0-0.5,0.4-0.9,0.9-0.9l0,0
	C254.4,49.7,254.9,50.1,254.9,50.6L254.9,50.6z"/>
<path class="st7" d="M91.7,72.1c0,0.5-0.4,0.9-0.9,0.9l0,0c-0.5,0-0.9-0.4-0.9-0.9V72c0-0.5,0.4-0.9,0.9-0.9l0,0
	C91.3,71.1,91.7,71.5,91.7,72.1L91.7,72.1z"/>
<path class="st7" d="M56.4,273c0,0.5-0.4,0.9-0.9,0.9l0,0c-0.5,0-0.9-0.4-0.9-0.9v-0.1c0-0.5,0.4-0.9,0.9-0.9l0,0
	C56,272,56.4,272.4,56.4,273L56.4,273z"/>
<path class="st7" d="M341.5,70.5c0,0.5-0.4,0.9-0.9,0.9l0,0c-0.5,0-0.9-0.4-0.9-0.9v-0.1c0-0.5,0.4-0.9,0.9-0.9l0,0
	C341.1,69.5,341.5,69.9,341.5,70.5L341.5,70.5z"/>
<path class="st7" d="M314.5,58.3c0,0.5-0.4,0.9-0.9,0.9l0,0c-0.5,0-0.9-0.4-0.9-0.9v-0.1c0-0.5,0.4-0.9,0.9-0.9l0,0
	C314.1,57.3,314.5,57.7,314.5,58.3L314.5,58.3z"/>
<path class="st7" d="M29.5,318.7c0,0.5-0.4,0.9-0.9,0.9l0,0c-0.5,0-0.9-0.4-0.9-0.9v-0.1c0-0.5,0.4-0.9,0.9-0.9l0,0
	C29.1,317.7,29.5,318.1,29.5,318.7L29.5,318.7z"/>
<path class="st7" d="M312,404.2c0,0.5-0.4,0.9-0.9,0.9l0,0c-0.5,0-0.9-0.4-0.9-0.9v-0.1c0-0.5,0.4-0.9,0.9-0.9l0,0
	C311.6,403.2,312,403.6,312,404.2L312,404.2z"/>
<path class="st7" d="M441.4,335.3c0,0.5-0.4,0.9-0.9,0.9l0,0c-0.5,0-0.9-0.4-0.9-0.9v-0.1c0-0.5,0.4-0.9,0.9-0.9l0,0
	C441,334.3,441.4,334.7,441.4,335.3L441.4,335.3z"/>
<path class="st7" d="M538.5,308.2c0,0.5-0.4,0.9-0.9,0.9l0,0c-0.5,0-0.9-0.4-0.9-0.9v-0.1c0-0.5,0.4-0.9,0.9-0.9l0,0
	C538.1,307.2,538.5,307.6,538.5,308.2L538.5,308.2z"/>
<path class="st7" d="M483,322.7c0,0.5-0.4,0.9-0.9,0.9l0,0c-0.5,0-0.9-0.4-0.9-0.9v-0.1c0-0.5,0.4-0.9,0.9-0.9l0,0
	C482.6,321.7,483,322.1,483,322.7L483,322.7z"/>
<path class="st7" d="M492.2,379c0,0.5-0.4,0.9-0.9,0.9l0,0c-0.5,0-0.9-0.4-0.9-0.9v-0.1c0-0.5,0.4-0.9,0.9-0.9l0,0
	C491.8,378,492.2,378.4,492.2,379L492.2,379z"/>
<path class="st7" d="M464.4,381.7c0,0.5-0.4,0.9-0.9,0.9l0,0c-0.5,0-0.9-0.4-0.9-0.9v-0.1c0-0.5,0.4-0.9,0.9-0.9l0,0
	C464,380.7,464.4,381.1,464.4,381.7L464.4,381.7z"/>
<path class="st7" d="M525.3,275.9c0,0.5-0.4,0.9-0.9,0.9l0,0c-0.5,0-0.9-0.4-0.9-0.9v-0.1c0-0.5,0.4-0.9,0.9-0.9l0,0
	C524.9,274.9,525.3,275.3,525.3,275.9L525.3,275.9z"/>
<path class="st7" d="M532.8,276.9c0,0.5-0.4,0.9-0.9,0.9l0,0c-0.5,0-0.9-0.4-0.9-0.9v-0.1c0-0.5,0.4-0.9,0.9-0.9l0,0
	C532.4,275.9,532.8,276.3,532.8,276.9L532.8,276.9z"/>
<path class="st7" d="M513.3,179.4c0,0.5-0.4,0.9-0.9,0.9l0,0c-0.5,0-0.9-0.4-0.9-0.9v-0.1c0-0.5,0.4-0.9,0.9-0.9l0,0
	C512.9,178.4,513.3,178.8,513.3,179.4L513.3,179.4z"/>
<path class="st7" d="M567.9,174.9c0,0.5-0.4,0.9-0.9,0.9l0,0c-0.5,0-0.9-0.4-0.9-0.9v-0.1c0-0.5,0.4-0.9,0.9-0.9l0,0
	C567.5,173.9,567.9,174.3,567.9,174.9L567.9,174.9z"/>
<path class="st7" d="M532.8,50.6c0,0.5-0.4,0.9-0.9,0.9l0,0c-0.5,0-0.9-0.4-0.9-0.9v-0.1c0-0.5,0.4-0.9,0.9-0.9l0,0
	C532.4,49.7,532.8,50.1,532.8,50.6L532.8,50.6z"/>
<path class="st7" d="M492.8,102c0,0.5-0.4,0.9-0.9,0.9l0,0c-0.5,0-0.9-0.4-0.9-0.9V102c0-0.5,0.4-0.9,0.9-0.9l0,0
	C492.4,101.1,492.8,101.5,492.8,102L492.8,102z"/>
<path class="st7" d="M545.3,121.5c0,0.5-0.4,0.9-0.9,0.9l0,0c-0.5,0-0.9-0.4-0.9-0.9v-0.1c0-0.5,0.4-0.9,0.9-0.9l0,0
	C544.9,120.5,545.3,120.9,545.3,121.5L545.3,121.5z"/>
<path class="st7" d="M568.8,130.1c0,0.5-0.4,0.9-0.9,0.9l0,0c-0.5,0-0.9-0.4-0.9-0.9v-0.1c0-0.5,0.4-0.9,0.9-0.9l0,0
	C568.4,129.2,568.8,129.6,568.8,130.1L568.8,130.1z"/>
<path class="st7" d="M493.2,162.9c0,0.5-0.4,0.9-0.9,0.9l0,0c-0.5,0-0.9-0.4-0.9-0.9v-0.1c0-0.5,0.4-0.9,0.9-0.9l0,0
	C492.8,161.9,493.2,162.3,493.2,162.9L493.2,162.9z"/>
<path class="st7" d="M433,120.9c0,0.5-0.4,0.9-0.9,0.9l0,0c-0.5,0-0.9-0.4-0.9-0.9v-0.1c0-0.5,0.4-0.9,0.9-0.9l0,0
	C432.6,119.9,433,120.3,433,120.9L433,120.9z"/>
<path class="st7" d="M472.2,241.4c0,0.5-0.4,0.9-0.9,0.9l0,0c-0.5,0-0.9-0.4-0.9-0.9v-0.1c0-0.5,0.4-0.9,0.9-0.9l0,0
	C471.8,240.4,472.2,240.8,472.2,241.4L472.2,241.4z"/>
<path class="st7" d="M585,294.9c0,0.5-0.4,0.9-0.9,0.9l0,0c-0.5,0-0.9-0.4-0.9-0.9v-0.1c0-0.5,0.4-0.9,0.9-0.9l0,0
	C584.6,293.9,585,294.3,585,294.9L585,294.9z"/>
<path class="st7" d="M456.7,303.5c0,0.5-0.4,0.9-0.9,0.9l0,0c-0.5,0-0.9-0.4-0.9-0.9v-0.1c0-0.5,0.4-0.9,0.9-0.9l0,0
	C456.2,302.5,456.7,302.9,456.7,303.5L456.7,303.5z"/>
<path class="st7" d="M491.3,74.4c0,0.5-0.4,0.9-0.9,0.9l0,0c-0.5,0-0.9-0.4-0.9-0.9v-0.1c0-0.5,0.4-0.9,0.9-0.9l0,0
	C490.9,73.4,491.3,73.8,491.3,74.4L491.3,74.4z"/>
<path class="st7" d="M464.4,120c0,0.5-0.4,0.9-0.9,0.9l0,0c-0.5,0-0.9-0.4-0.9-0.9v-0.1c0-0.5,0.4-0.9,0.9-0.9l0,0
	C464,119,464.4,119.4,464.4,120L464.4,120z"/>
<path class="st7" d="M538.5,195.2c0,0.5-0.4,0.9-0.9,0.9l0,0c-0.5,0-0.9-0.4-0.9-0.9v-0.1c0-0.5,0.4-0.9,0.9-0.9l0,0
	C538.1,194.2,538.5,194.6,538.5,195.2L538.5,195.2z"/>
<path class="st7" d="M531.2,270.3c0,0.5-0.4,0.9-0.9,0.9l0,0c-0.5,0-0.9-0.4-0.9-0.9v-0.1c0-0.5,0.4-0.9,0.9-0.9l0,0
	C530.8,269.3,531.2,269.7,531.2,270.3L531.2,270.3z"/>
<path class="st7" d="M591.2,150.3c0,1-0.8,1.7-1.7,1.7l0,0c-1,0-1.7-0.8-1.7-1.7v-0.1c0-1,0.8-1.7,1.7-1.7l0,0c1,0,1.7,0.8,1.7,1.7
	V150.3z"/>
<path class="st7" d="M501.5,214.4c0,1-0.8,1.7-1.7,1.7l0,0c-1,0-1.7-0.8-1.7-1.7v-0.1c0-1,0.8-1.7,1.7-1.7l0,0c1,0,1.7,0.8,1.7,1.7
	V214.4z"/>
<path class="st7" d="M400.3,86.3c0,1-0.8,1.7-1.7,1.7l0,0c-1,0-1.7-0.8-1.7-1.7v-0.1c0-1,0.8-1.7,1.7-1.7l0,0c1,0,1.7,0.8,1.7,1.7
	V86.3z"/>
<path class="st7" d="M595.1,193.4c0,0.7-0.6,1.3-1.3,1.3l0,0c-0.7,0-1.3-0.6-1.3-1.3v-0.1c0-0.7,0.6-1.3,1.3-1.3l0,0
	c0.7,0,1.3,0.6,1.3,1.3V193.4z"/>
<path class="st7" d="M602.3,255.8c0,0.7-0.6,1.3-1.3,1.3l0,0c-0.7,0-1.3-0.6-1.3-1.3v-0.1c0-0.7,0.6-1.3,1.3-1.3l0,0
	c0.7,0,1.3,0.6,1.3,1.3V255.8z"/>
<path class="st7" d="M530.4,219.1c0,0.7-0.6,1.3-1.3,1.3l0,0c-0.7,0-1.3-0.6-1.3-1.3V219c0-0.7,0.6-1.3,1.3-1.3l0,0
	c0.7,0,1.3,0.6,1.3,1.3V219.1z"/>
<path class="st0" d="M564.4,310.7c0,0.7-0.6,1.3-1.3,1.3l0,0c-0.7,0-1.3-0.6-1.3-1.3v-0.1c0-0.7,0.6-1.3,1.3-1.3l0,0
	c0.7,0,1.3,0.6,1.3,1.3V310.7z"/>
<path class="st21" d="M559,355.9c0,0.7-0.6,1.3-1.3,1.3l0,0c-0.7,0-1.3-0.6-1.3-1.3v-0.1c0-0.7,0.6-1.3,1.3-1.3l0,0
	c0.7,0,1.3,0.6,1.3,1.3V355.9z"/>
<path class="st0" d="M581.2,335.3c0,0.7-0.6,1.3-1.3,1.3l0,0c-0.7,0-1.3-0.6-1.3-1.3v-0.1c0-0.7,0.6-1.3,1.3-1.3l0,0
	c0.7,0,1.3,0.6,1.3,1.3V335.3z"/>
<path class="st21" d="M498.4,313.3c0,0.7-0.6,1.3-1.3,1.3l0,0c-0.7,0-1.3-0.6-1.3-1.3v-0.1c0-0.7,0.6-1.3,1.3-1.3l0,0
	c0.7,0,1.3,0.6,1.3,1.3V313.3z"/>
<path class="st21" d="M444.9,380.4c0,0.7-0.6,1.3-1.3,1.3l0,0c-0.7,0-1.3-0.6-1.3-1.3v-0.1c0-0.7,0.6-1.3,1.3-1.3l0,0
	c0.7,0,1.3,0.6,1.3,1.3V380.4z"/>
<path class="st21" d="M422.4,370c0,0.7-0.6,1.3-1.3,1.3l0,0c-0.7,0-1.3-0.6-1.3-1.3v-0.1c0-0.7,0.6-1.3,1.3-1.3l0,0
	c0.7,0,1.3,0.6,1.3,1.3V370z"/>
<path class="st21" d="M362.6,432.9c0,0.7-0.6,1.3-1.3,1.3l0,0c-0.7,0-1.3-0.6-1.3-1.3v-0.1c0-0.7,0.6-1.3,1.3-1.3l0,0
	c0.7,0,1.3,0.6,1.3,1.3V432.9z"/>
<path class="st21" d="M420.5,416.1c0,0.7-0.6,1.3-1.3,1.3l0,0c-0.7,0-1.3-0.6-1.3-1.3V416c0-0.7,0.6-1.3,1.3-1.3l0,0
	c0.7,0,1.3,0.6,1.3,1.3V416.1z"/>
<path class="st21" d="M398.4,402.9c0,0.7-0.6,1.3-1.3,1.3l0,0c-0.7,0-1.3-0.6-1.3-1.3v-0.1c0-0.7,0.6-1.3,1.3-1.3l0,0
	c0.7,0,1.3,0.6,1.3,1.3V402.9z"/>
<path class="st21" d="M284.1,429.1c0,0.7-0.6,1.3-1.3,1.3l0,0c-0.7,0-1.3-0.6-1.3-1.3V429c0-0.7,0.6-1.3,1.3-1.3l0,0
	c0.7,0,1.3,0.6,1.3,1.3V429.1z"/>
<path class="st21" d="M269.7,393.7c0,0.7-0.6,1.3-1.3,1.3l0,0c-0.7,0-1.3-0.6-1.3-1.3v-0.1c0-0.7,0.6-1.3,1.3-1.3l0,0
	c0.7,0,1.3,0.6,1.3,1.3V393.7z"/>
<path class="st0" d="M204.6,390.4c0,0.7-0.6,1.3-1.3,1.3l0,0c-0.7,0-1.3-0.6-1.3-1.3v-0.1c0-0.7,0.6-1.3,1.3-1.3l0,0
	c0.7,0,1.3,0.6,1.3,1.3V390.4z"/>
<path class="st21" d="M153,376c0,0.7-0.6,1.3-1.3,1.3l0,0c-0.7,0-1.3-0.6-1.3-1.3v-0.1c0-0.7,0.6-1.3,1.3-1.3l0,0
	c0.7,0,1.3,0.6,1.3,1.3V376z"/>
<path class="st21" d="M166.4,395c0,0.7-0.6,1.3-1.3,1.3l0,0c-0.7,0-1.3-0.6-1.3-1.3v-0.1c0-0.7,0.6-1.3,1.3-1.3l0,0
	c0.7,0,1.3,0.6,1.3,1.3V395z"/>
<path class="st21" d="M164.6,402.9c0,0.7-0.6,1.3-1.3,1.3l0,0c-0.7,0-1.3-0.6-1.3-1.3v-0.1c0-0.7,0.6-1.3,1.3-1.3l0,0
	c0.7,0,1.3,0.6,1.3,1.3V402.9z"/>
<path class="st21" d="M189.9,356.4c0,0.7-0.6,1.3-1.3,1.3l0,0c-0.7,0-1.3-0.6-1.3-1.3v-0.1c0-0.7,0.6-1.3,1.3-1.3l0,0
	c0.7,0,1.3,0.6,1.3,1.3V356.4z"/>
<path class="st21" d="M178.9,344.9c0,0.7-0.6,1.3-1.3,1.3l0,0c-0.7,0-1.3-0.6-1.3-1.3v-0.1c0-0.7,0.6-1.3,1.3-1.3l0,0
	c0.7,0,1.3,0.6,1.3,1.3V344.9z"/>
<path class="st21" d="M142.4,322.2c0,0.7-0.6,1.3-1.3,1.3l0,0c-0.7,0-1.3-0.6-1.3-1.3v-0.1c0-0.7,0.6-1.3,1.3-1.3l0,0
	c0.7,0,1.3,0.6,1.3,1.3V322.2z"/>
<path class="st21" d="M107,300.2c0,0.7-0.6,1.3-1.3,1.3l0,0c-0.7,0-1.3-0.6-1.3-1.3v-0.1c0-0.7,0.6-1.3,1.3-1.3l0,0
	c0.7,0,1.3,0.6,1.3,1.3V300.2z"/>
<path class="st21" d="M105.7,257.1c0,0.7-0.6,1.3-1.3,1.3l0,0c-0.7,0-1.3-0.6-1.3-1.3V257c0-0.7,0.6-1.3,1.3-1.3l0,0
	c0.7,0,1.3,0.6,1.3,1.3V257.1z"/>
<path class="st21" d="M141.1,234c0,0.7-0.6,1.3-1.3,1.3l0,0c-0.7,0-1.3-0.6-1.3-1.3v-0.1c0-0.7,0.6-1.3,1.3-1.3l0,0
	c0.7,0,1.3,0.6,1.3,1.3V234z"/>
<path class="st21" d="M70,248.1c0,0.7-0.6,1.3-1.3,1.3l0,0c-0.7,0-1.3-0.6-1.3-1.3V248c0-0.7,0.6-1.3,1.3-1.3l0,0
	c0.7,0,1.3,0.6,1.3,1.3V248.1z"/>
<path class="st0" d="M28.6,174.4c0,0.7-0.6,1.3-1.3,1.3l0,0c-0.7,0-1.3-0.6-1.3-1.3v-0.1c0-0.7,0.6-1.3,1.3-1.3l0,0
	c0.7,0,1.3,0.6,1.3,1.3V174.4z"/>
<path class="st0" d="M13.1,271.6c0,0.7-0.6,1.3-1.3,1.3l0,0c-0.7,0-1.3-0.6-1.3-1.3v-0.1c0-0.7,0.6-1.3,1.3-1.3l0,0
	c0.7,0,1.3,0.6,1.3,1.3V271.6z"/>
<path class="st21" d="M37.1,219.4c0,0.7-0.6,1.3-1.3,1.3l0,0c-0.7,0-1.3-0.6-1.3-1.3v-0.1c0-0.7,0.6-1.3,1.3-1.3l0,0
	C36.6,218,37.1,218.6,37.1,219.4L37.1,219.4z"/>
<path class="st21" d="M68.6,154.4c0,0.7-0.6,1.3-1.3,1.3l0,0c-0.7,0-1.3-0.6-1.3-1.3v-0.1c0-0.7,0.6-1.3,1.3-1.3l0,0
	C68.1,153,68.6,153.6,68.6,154.4L68.6,154.4z"/>
<path class="st21" d="M78.9,182.6c0,0.7-0.6,1.3-1.3,1.3l0,0c-0.7,0-1.3-0.6-1.3-1.3v-0.1c0-0.7,0.6-1.3,1.3-1.3l0,0
	C78.3,181.2,78.9,181.8,78.9,182.6L78.9,182.6z"/>
<path class="st0" d="M117.1,153c0,0.7-0.6,1.3-1.3,1.3l0,0c-0.7,0-1.3-0.6-1.3-1.3v-0.1c0-0.7,0.6-1.3,1.3-1.3l0,0
	C116.5,151.6,117.1,152.2,117.1,153L117.1,153z"/>
<path class="st21" d="M158.1,134.7c0,0.7-0.6,1.3-1.3,1.3l0,0c-0.7,0-1.3-0.6-1.3-1.3v-0.1c0-0.7,0.6-1.3,1.3-1.3l0,0
	C157.5,133.3,158.1,133.9,158.1,134.7L158.1,134.7z"/>
<path class="st21" d="M53.4,114.1c0,0.7-0.6,1.3-1.3,1.3l0,0c-0.7,0-1.3-0.6-1.3-1.3V114c0-0.7,0.6-1.3,1.3-1.3l0,0
	C52.8,112.7,53.4,113.3,53.4,114.1L53.4,114.1z"/>
<path class="st0" d="M67.3,96.2c0,0.7-0.6,1.3-1.3,1.3l0,0c-0.7,0-1.3-0.6-1.3-1.3v-0.1c0-0.7,0.6-1.3,1.3-1.3l0,0
	C66.7,94.8,67.3,95.4,67.3,96.2L67.3,96.2z"/>
<path class="st21" d="M50.8,146.3c0,0.7-0.6,1.3-1.3,1.3l0,0c-0.7,0-1.3-0.6-1.3-1.3v-0.1c0-0.7,0.6-1.3,1.3-1.3l0,0
	C50.2,144.9,50.8,145.4,50.8,146.3L50.8,146.3z"/>
<path class="st21" d="M128.8,205c0,0.7-0.6,1.3-1.3,1.3l0,0c-0.7,0-1.3-0.6-1.3-1.3v-0.1c0-0.7,0.6-1.3,1.3-1.3l0,0
	C128.3,203.6,128.8,204.2,128.8,205L128.8,205z"/>
<path class="st21" d="M188.7,126.7c0,0.7-0.6,1.3-1.3,1.3l0,0c-0.7,0-1.3-0.6-1.3-1.3v-0.1c0-0.7,0.6-1.3,1.3-1.3l0,0
	C188.1,125.3,188.7,125.9,188.7,126.7L188.7,126.7z"/>
<path class="st21" d="M76.5,396.4c0,0.7-0.6,1.3-1.3,1.3l0,0c-0.7,0-1.3-0.6-1.3-1.3v-0.1c0-0.7,0.6-1.3,1.3-1.3l0,0
	c0.7,0,1.3,0.6,1.3,1.3V396.4z"/>
<path class="st21" d="M39,358.7c0,0.7-0.6,1.3-1.3,1.3l0,0c-0.7,0-1.3-0.6-1.3-1.3v-0.1c0-0.7,0.6-1.3,1.3-1.3l0,0
	c0.7,0,1.3,0.6,1.3,1.3V358.7z"/>
<path class="st7" d="M578.3,266.1c0,0.7-0.6,1.3-1.3,1.3l0,0c-0.7,0-1.3-0.6-1.3-1.3V266c0-0.7,0.6-1.3,1.3-1.3l0,0
	c0.7,0,1.3,0.6,1.3,1.3V266.1z"/>
<path class="st7" d="M476.6,279.2c0,0.7-0.6,1.3-1.3,1.3l0,0c-0.7,0-1.3-0.6-1.3-1.3v-0.1c0-0.7,0.6-1.3,1.3-1.3l0,0
	c0.7,0,1.3,0.6,1.3,1.3V279.2z"/>
<path class="st7" d="M461.9,314.7c0,0.7-0.6,1.3-1.3,1.3l0,0c-0.7,0-1.3-0.6-1.3-1.3v-0.1c0-0.7,0.6-1.3,1.3-1.3l0,0
	c0.7,0,1.3,0.6,1.3,1.3V314.7z"/>
<path class="st0" d="M464.3,362.4c0,0.7-0.6,1.3-1.3,1.3l0,0c-0.7,0-1.3-0.6-1.3-1.3v-0.1c0-0.7,0.6-1.3,1.3-1.3l0,0
	c0.7,0,1.3,0.6,1.3,1.3V362.4z"/>
<path class="st7" d="M247.4,417.5c0,0.7-0.6,1.3-1.3,1.3l0,0c-0.7,0-1.3-0.6-1.3-1.3v-0.1c0-0.7,0.6-1.3,1.3-1.3l0,0
	c0.7,0,1.3,0.6,1.3,1.3V417.5z"/>
<path class="st7" d="M228.7,395c0,0.7-0.6,1.3-1.3,1.3l0,0c-0.7,0-1.3-0.6-1.3-1.3v-0.1c0-0.7,0.6-1.3,1.3-1.3l0,0
	c0.7,0,1.3,0.6,1.3,1.3V395z"/>
<path class="st7" d="M318.2,416.1c0,0.7-0.6,1.3-1.3,1.3l0,0c-0.7,0-1.3-0.6-1.3-1.3V416c0-0.7,0.6-1.3,1.3-1.3l0,0
	c0.7,0,1.3,0.6,1.3,1.3V416.1z"/>
<path class="st7" d="M204.6,418.9c0,0.7-0.6,1.3-1.3,1.3l0,0c-0.7,0-1.3-0.6-1.3-1.3v-0.1c0-0.7,0.6-1.3,1.3-1.3l0,0
	c0.7,0,1.3,0.6,1.3,1.3V418.9z"/>
<path class="st7" d="M248.7,441.1c0,0.7-0.6,1.3-1.3,1.3l0,0c-0.7,0-1.3-0.6-1.3-1.3V441c0-0.7,0.6-1.3,1.3-1.3l0,0
	c0.7,0,1.3,0.6,1.3,1.3V441.1z"/>
<path class="st7" d="M83.1,365.8c0,0.7-0.6,1.3-1.3,1.3l0,0c-0.7,0-1.3-0.6-1.3-1.3v-0.1c0-0.7,0.6-1.3,1.3-1.3l0,0
	c0.7,0,1.3,0.6,1.3,1.3V365.8z"/>
<path class="st7" d="M549.2,379c0,0.7-0.6,1.3-1.3,1.3l0,0c-0.7,0-1.3-0.6-1.3-1.3v-0.1c0-0.7,0.6-1.3,1.3-1.3l0,0
	c0.7,0,1.3,0.6,1.3,1.3V379z"/>
<path class="st0" d="M573.5,270.6c0,1.5-1.2,2.7-2.7,2.7l0,0c-1.5,0-2.7-1.2-2.7-2.7v-0.2c0-1.5,1.2-2.7,2.7-2.7l0,0
	c1.5,0,2.7,1.2,2.7,2.7V270.6z"/>
<path class="st6" d="M508,401.6c0,1.5-1.2,2.7-2.7,2.7l0,0c-1.5,0-2.7-1.2-2.7-2.7v-0.2c0-1.5,1.2-2.7,2.7-2.7l0,0
	c1.5,0,2.7,1.2,2.7,2.7V401.6z"/>
<path class="st0" d="M343.1,407.2c0,1.5-1.2,2.7-2.7,2.7l0,0c-1.5,0-2.7-1.2-2.7-2.7V407c0-1.5,1.2-2.7,2.7-2.7l0,0
	c1.5,0,2.7,1.2,2.7,2.7V407.2z"/>
<path class="st7" d="M130.4,412.8c0,1.5-1.2,2.7-2.7,2.7l0,0c-1.5,0-2.7-1.2-2.7-2.7v-0.2c0-1.5,1.2-2.7,2.7-2.7l0,0
	c1.5,0,2.7,1.2,2.7,2.7V412.8z"/>
<path class="st3" d="M111.1,314.7c0,1.5-1.2,2.7-2.7,2.7l0,0c-1.5,0-2.7-1.2-2.7-2.7v-0.2c0-1.5,1.2-2.7,2.7-2.7l0,0
	c1.5,0,2.7,1.2,2.7,2.7V314.7z"/>
<path class="st7" d="M147.4,169c0,1.5-1.2,2.7-2.7,2.7l0,0c-1.5,0-2.7-1.2-2.7-2.7v-0.2c0-1.5,1.2-2.7,2.7-2.7l0,0
	c1.5,0,2.7,1.2,2.7,2.7V169z"/>
<path class="st0" d="M132.5,267.4c0,2.1-1.7,3.8-3.8,3.8l0,0c-2.1,0-3.8-1.7-3.8-3.8v-0.3c0-2.1,1.7-3.8,3.8-3.8l0,0
	c2.1,0,3.8,1.7,3.8,3.8V267.4z"/>
<path class="st7" d="M502.5,282.3c0,1.5-1.2,2.7-2.7,2.7l0,0c-1.5,0-2.7-1.2-2.7-2.7v-0.2c0-1.5,1.2-2.7,2.7-2.7l0,0
	c1.5,0,2.7,1.2,2.7,2.7V282.3z"/>
<path class="st0" d="M377.4,63.3c0,1-0.8,1.7-1.7,1.7l0,0c-1,0-1.7-0.8-1.7-1.7v-0.1c0-1,0.8-1.7,1.7-1.7l0,0c1,0,1.7,0.8,1.7,1.7
	V63.3z"/>
<path class="st7" d="M388.1,33c0,1-0.8,1.7-1.7,1.7l0,0c-1,0-1.7-0.8-1.7-1.7v-0.1c0-1,0.8-1.7,1.7-1.7l0,0c1,0,1.7,0.8,1.7,1.7V33z
	"/>
<path class="st21" d="M97.8,56.4c0,1.4-1.1,2.4-2.4,2.4h-0.3c-1.4,0-2.4-1.1-2.4-2.4l0,0c0-1.4,1.1-2.4,2.4-2.4h0.3
	C96.7,54,97.8,55.1,97.8,56.4L97.8,56.4z"/>
<path class="st21" d="M213.8,90c0,1.2-1,2.2-2.2,2.2h-0.3c-1.2,0-2.2-1-2.2-2.2l0,0c0-1.2,1-2.2,2.2-2.2h0.3
	C212.9,87.9,213.8,88.8,213.8,90L213.8,90z"/>
<path class="st21" d="M236.5,80.7c0,0.9-0.8,1.7-1.7,1.7h-0.2c-0.9,0-1.7-0.8-1.7-1.7l0,0c0-0.9,0.8-1.7,1.7-1.7h0.2
	C235.7,79,236.5,79.7,236.5,80.7L236.5,80.7z"/>
<path class="st21" d="M422.3,398.7c0,0.9-0.8,1.7-1.7,1.7h-0.2c-0.9,0-1.7-0.8-1.7-1.7l0,0c0-0.9,0.8-1.7,1.7-1.7h0.2
	C421.5,397,422.3,397.7,422.3,398.7L422.3,398.7z"/>
<path class="st21" d="M457.5,105.7c0,0.9-0.8,1.7-1.7,1.7h-0.2c-0.9,0-1.7-0.8-1.7-1.7l0,0c0-0.9,0.8-1.7,1.7-1.7h0.2
	C456.8,104,457.5,104.8,457.5,105.7L457.5,105.7z"/>
<path class="st21" d="M455.7,137.4c0,0.9-0.8,1.7-1.7,1.7h-0.2c-0.9,0-1.7-0.8-1.7-1.7l0,0c0-0.9,0.8-1.7,1.7-1.7h0.2
	C455,135.7,455.7,136.5,455.7,137.4L455.7,137.4z"/>
<path class="st21" d="M442.3,27.3c0,0.9-0.8,1.7-1.7,1.7h-0.2c-0.9,0-1.7-0.8-1.7-1.7l0,0c0-0.9,0.8-1.7,1.7-1.7h0.2
	C441.5,25.6,442.3,26.4,442.3,27.3L442.3,27.3z"/>
<path class="st21" d="M535,67c0,0.9-0.8,1.7-1.7,1.7h-0.2c-0.9,0-1.7-0.8-1.7-1.7l0,0c0-0.9,0.8-1.7,1.7-1.7h0.2
	C534.3,65.3,535,66.1,535,67L535,67z"/>
<path class="st21" d="M432.1,96.5c0,0.9-0.8,1.7-1.7,1.7h-0.2c-0.9,0-1.7-0.8-1.7-1.7l0,0c0-0.9,0.8-1.7,1.7-1.7h0.2
	C431.3,94.8,432.1,95.6,432.1,96.5L432.1,96.5z"/>
<path class="st0" d="M240.1,29.4c0,0.9-0.8,1.7-1.7,1.7h-0.2c-0.9,0-1.7-0.8-1.7-1.7l0,0c0-0.9,0.8-1.7,1.7-1.7h0.2
	C239.3,27.7,240.1,28.4,240.1,29.4L240.1,29.4z"/>
<path class="st21" d="M280.7,23c0,0.9-0.8,1.7-1.7,1.7h-0.2c-0.9,0-1.7-0.8-1.7-1.7l0,0c0-0.9,0.8-1.7,1.7-1.7h0.2
	C280,21.3,280.7,22.1,280.7,23L280.7,23z"/>
<path class="st30" d="M112.4,142.5c0.4,1.8-0.1,3.5-1.3,4.3l-2.7,2.1c-1.3,1-2.5,1.3-4.5-0.3l-0.3-1.7c-0.4-1.8,0.2-3.9,1.3-4.7
	l4.2-3.1c1.2-0.8,2.5,0,2.9,1.8L112.4,142.5z"/>
<path class="st1" d="M528.2,341.8c-0.6,1-1.6,2-2.8,2.5l-30.3,14.1c-1.2,0.6-2.5,0.7-3.6,0.5c0.7,1.1,1.6,2.2,2.5,3.1l35.1-16.3
	C528.9,344.4,528.6,343.1,528.2,341.8z"/>
<path class="st3" d="M82.5,129c0.2,0.7-0.3,1.1-1,0.9l-1.7-0.4c-0.7-0.2-1.4-0.8-1.6-1.5l-1.1-4.4c-0.2-0.7,0.3-1.1,1-0.9l1.7,0.4
	c0.7,0.2,1.4,0.8,1.6,1.5L82.5,129z"/>
<path class="st19" d="M82.4,128.9c0.2,0.6-0.2,1-0.9,0.8l-1.5-0.3c-0.6-0.1-1.3-0.7-1.4-1.3l-1-4c-0.2-0.6,0.2-1,0.9-0.8l1.5,0.3
	c0.6,0.1,1.3,0.7,1.4,1.3L82.4,128.9z"/>
<path class="st19" d="M101.8,134.5c0.2,0.6-0.2,1-0.9,0.8l-1.5-0.3c-0.6-0.1-1.3-0.7-1.4-1.3l-1-4c-0.2-0.6,0.2-1,0.9-0.8l1.5,0.3
	c0.6,0.1,1.3,0.7,1.4,1.3L101.8,134.5z"/>
<path class="st10" d="M264.8,211l0.7,0.2c0,0,0.8,1.8,1.5,0.1c0.7-1.7,1.7,2.1,1.7,2.1l-3.1,0.7l-1-1.3L264.8,211z"/>
<g>
	<path class="st11" d="M260.7,213.5L260.7,213.5C260.7,213.5,260.7,213.4,260.7,213.5z"/>
	<path class="st11" d="M262.1,215.3L262.1,215.3c-0.2-0.2-0.4-0.4-0.6-0.8c-0.5-0.7-0.7-1-0.8-1.1l0,0c-0.6-1-0.3-2.3,0.6-2.9
		c1-0.7,2.3-0.4,3,0.6c0.1,0.1,0.1,0.2,0.2,0.3l0.7,1.1c0,0,1.4,1.8,2-0.5c0-0.1,0-0.1,0-0.1l0,0l0,0c0,0,0,0,0,0l0.5-0.5l1.9,4
		c0,0-1.5,2.6-3.7,2.5C263.7,217.7,262.1,215.3,262.1,215.3z"/>
</g>
<path class="st11" d="M296.2,192.3c3.3,4.3,2.6,10.5-1.8,13.9l-12.2,9.5c-4.3,3.4-10.5,2.6-13.9-1.7l0,0c-3.3-4.3-2.6-10.5,1.8-13.9
	l12.2-9.5C286.6,187.2,292.8,188,296.2,192.3L296.2,192.3z"/>
<path class="st10" d="M298.3,184.5h0.7c0,0,3.4,4,2.4,6.1c-1.1,2-2.2,1.4-2.2,1.3c0-0.1-2.1-5.2-2.1-5.2L298.3,184.5z"/>
<ellipse transform="matrix(0.7895 -0.6137 0.6137 0.7895 -51.9596 221.0927)" class="st11" cx="296.3" cy="186.3" rx="2.1" ry="2.2"/>
<path class="st11" d="M295.1,187.2l-0.2,0.7l0.8,1c0,0,1.3,1.9-1.1,1.7c-1.3-0.1,5.4,1.5,5.4,1.5l-0.4-4.2c0,0,0.1-0.7-0.9-2
	c-1-1.4-0.8-1.1-0.8-1.1L295.1,187.2z"/>
<path class="st11" d="M297.9,186.7h1.3c0,0,1.9,2.3,1.3,4.4c-0.5,2.2-3.5,2.8-3.5,2.8l-3.2-3l0.7-0.3l2.7,0.3L297.9,186.7z"/>
<path class="st11" d="M303.9,182.5l1.1,1.4c1,1.2,0.7,3-0.5,4l-5.1,4c-1,0.8-2.5,0.7-3.5,0l-27.3,21.2c0.1,0.1-0.1,0.2-0.1,0.3
	l-0.2,0.6l-0.1-0.1c0.3,1.1-0.2,2.4-1.2,3.1l-5,3.9c-1.3,1-3.1,0.8-4-0.5l-0.6-0.8l0,0l6.2,7.9c10,12.9,28.7,15.2,41.6,5.1
	c13-10.1,15.3-28.7,5.3-41.6L303.9,182.5L303.9,182.5z"/>
<path class="st34" d="M288.8,197.2l-13.5,10.3c2.5,2.9,7.4,3,11,0.2C289.9,205,290.9,200.4,288.8,197.2z"/>
</svg>
