<?xml version="1.0" encoding="utf-8"?>
<!-- Generator: Adobe Illustrator 21.1.0, SVG Export Plug-In . SVG Version: 6.00 Build 0)  -->
<svg version="1.1" id="Layer_1" xmlns="http://www.w3.org/2000/svg" xmlns:xlink="http://www.w3.org/1999/xlink" x="0px" y="0px"
	 viewBox="0 0 692.1 431.6" style="enable-background:new 0 0 692.1 431.6;" xml:space="preserve">
<style type="text/css">
	.st0{fill:#D0D2D3;}
	.st1{fill:#38A878;}
	.st2{fill:#1C1651;}
	.st3{fill:#4900DE;}
	.st4{fill:#E5816B;}
	.st5{fill:#CE6F5F;}
	.st6{fill:#EC2C8E;}
	.st7{fill:#B32C8E;}
	.st8{fill:#F4CA19;}
	.st9{fill:#5E22E0;}
	.st10{fill:#1E1F56;}
	.st11{fill:#38BDA8;}
	.st12{fill:#473593;}
	.st13{fill:#F5B419;}
	.st14{opacity:0.8;fill:#F5B419;}
	.st15{fill:#F8F7FB;}
	.st16{fill:#069472;}
	.st17{fill:#F6931D;}
	.st18{fill:#F59F15;}
	.st19{fill:#DBDCDE;}
	.st20{fill:#231F20;}
</style>
<path class="st0" d="M521.6,309.6c0,0-13.4,0-10.4,2.7c2.9,2.7,13,32.6,24.5,32.1c11.6-0.5,87.7,4.2,112.3-5
	c7.2-2.7-17.1-30.6-25.8-30.3C613.6,309.3,521.6,309.6,521.6,309.6z"/>
<path class="st0" d="M525.6,316.2c0,2.9-2.4,5.3-5.3,5.3h-63.1c-2.9,0-5.3-2.4-5.3-5.3l0,0c0-2.9,2.4-5.3,5.3-5.3h63.1
	C523.3,310.9,525.6,313.3,525.6,316.2L525.6,316.2z"/>
<path class="st0" d="M533.4,331.1c0,3.4-2.8,6.1-6.3,6.1h-67.5c-3.5,0-6.3-2.7-6.3-6.1l0,0c0-3.4,2.8-6.1,6.3-6.1h67.5
	C530.6,324.9,533.4,327.7,533.4,331.1L533.4,331.1z"/>
<path class="st1" d="M511.4,309.4c-0.7,1.6,0.1,3.5,1.7,4.2l0,0c1.6,0.7,3.5-0.1,4.2-1.7l27.3-64.4c0.7-1.6-0.1-3.5-1.7-4.2l0,0
	c-1.6-0.7-3.5,0.1-4.2,1.7L511.4,309.4z"/>
<path class="st1" d="M602.4,310.8c0.3,1.7,2,2.8,3.7,2.5l0,0c1.7-0.3,2.8-2,2.5-3.7L594.8,241c-0.3-1.7-2-2.8-3.7-2.5l0,0
	c-1.7,0.3-2.8,2-2.5,3.7L602.4,310.8z"/>
<path class="st1" d="M608.9,300.3c6.7,4.7,5.3,8.6-3.3,8.6l-49.2,0.2c-8.6,0-21-3.8-27.7-8.5l-21.8-15.3c-6.7-4.7-5.3-8.6,3.3-8.6
	l49.2-0.2c8.6,0,21,3.8,27.7,8.5L608.9,300.3z"/>
<path class="st2" d="M608.9,296.8c6.7,4.7,5.3,8.6-3.3,8.6l-49.2,0.2c-8.6,0-21-3.8-27.7-8.5l-21.8-15.3c-6.7-4.7-5.3-8.6,3.3-8.6
	l49.2-0.2c8.6,0,21,3.8,27.7,8.5L608.9,296.8z"/>
<path class="st1" d="M577.8,309.1c-3.5,0.2-6.8,0.2-12.3,0.1l-32,0.4c-5.5-0.1-13.5-4-17.9-8.8l-14.2-15.6c-4.4-4.8-3.5-8.6,2-8.6
	L535,277c5.5,0.1,13.5,4,17.9,8.8L577.8,309.1z"/>
<path class="st2" d="M577.1,305.5c-3.6,0.4-10.5,0.4-16,0.7l-27.6,0c-5.5-0.1-13.5-4-17.9-8.8l-14.2-15.6c-4.4-4.8-3.5-8.6,2-8.6
	l31.5,0.4c5.5,0.1,13.5,4,17.9,8.8L577.1,305.5z"/>
<path class="st3" d="M481.1,316.4c-1.5,3.2-5.4,4.5-8.5,2.9l-16.8-8.1c-3.2-1.5-4.5-5.4-2.9-8.5l0,0c1.5-3.2,5.4-4.5,8.5-2.9
	l16.8,8.1C481.3,309.4,482.6,313.2,481.1,316.4L481.1,316.4z"/>
<path class="st4" d="M480.7,315.2c-1.4,2.9-4.9,4.1-7.7,2.7l-15.2-7.4c-2.9-1.4-4.1-4.9-2.7-7.7l0,0c1.4-2.9,4.9-4.1,7.7-2.7
	l15.2,7.4C480.9,308.9,482.1,312.3,480.7,315.2L480.7,315.2z"/>
<path class="st4" d="M484.7,301.2c-3.3-3.2-3.4-8.5-0.2-11.8l23.8-24.7c3.2-3.3,8.5-3.4,11.8-0.2l0,0c3.3,3.2,3.4,8.5,0.2,11.8
	l-23.8,24.7C493.3,304.3,488,304.4,484.7,301.2L484.7,301.2z"/>
<path class="st4" d="M470.9,315.6c-3.3-3.2-3.4-8.5-0.2-11.8l23.8-24.7c3.2-3.3,8.5-3.4,11.8-0.2l0,0c3.3,3.2,3.4,8.5,0.2,11.8
	l-23.8,24.7C479.5,318.7,474.2,318.8,470.9,315.6L470.9,315.6z"/>
<path class="st5" d="M520.1,264.5C520.1,264.5,520,264.5,520.1,264.5c0.1,2.3-0.6,4.6-2.3,6.4l-13,13.5c-0.2,0.3-0.5,0.6-0.7,0.9
	L480.2,310c-2,2-4.7,2.9-7.3,2.5c-1.1,0.2-2.2,0-3.3-0.5l-14.5-7c-0.2-0.1-0.3-0.2-0.5-0.3c-0.3,2.3,0.9,4.6,3,5.7l14.5,7
	c1.1,0.5,2.2,0.7,3.3,0.5c2.6,0.4,5.4-0.4,7.3-2.5l23.8-24.7c0.3-0.3,0.5-0.6,0.7-0.9l13-13.5C523.5,273,523.4,267.7,520.1,264.5z"
	/>
<path class="st6" d="M576.8,268c0.6,6.5-4.3,12.3-10.8,12.9l-48.7,4.3c-6.5,0.6-12.3-4.3-12.9-10.8l0,0c-0.6-6.5,4.3-12.3,10.8-12.9
	l48.7-4.3C570.4,256.7,576.2,261.5,576.8,268L576.8,268z"/>
<path class="st7" d="M576.8,268c-0.4-4.7-3.5-8.5-7.6-10.1c0.8,1.5,1.4,3.1,1.5,4.9c0.6,6.5-4.3,12.3-10.8,12.9l-48.7,4.3
	c-1.9,0.2-3.7-0.1-5.3-0.7c2.2,3.9,6.6,6.4,11.4,5.9l48.7-4.3C572.5,280.4,577.4,274.6,576.8,268z"/>
<path class="st1" d="M626.8,297.8c-5.2,7.4-11.4,10.2-13.9,6.3l-13.8-21.4c-2.5-3.9-0.3-13,4.9-20.4l42-59.7
	c5.2-7.4,11.4-10.2,13.9-6.3l13.8,21.4c2.5,3.9,0.3,13-4.9,20.4L626.8,297.8z"/>
<path class="st2" d="M622.9,296.5c-5.2,7.4-11.4,10.2-13.9,6.3l-13.8-21.4c-2.5-3.9-0.3-13,4.9-20.4l42-59.7
	c5.2-7.4,11.4-10.2,13.9-6.3l13.8,21.4c2.5,3.9,0.3,13-4.9,20.4L622.9,296.5z"/>
<path class="st8" d="M625.1,202c-1.5-3.8-5.8-5.6-9.6-4.1l-34.8,14c-3.8,1.5-5.6,5.8-4.1,9.6l0,0c1.5,3.8,5.8,5.6,9.6,4.1l34.8-14
	C624.8,210.1,626.6,205.8,625.1,202L625.1,202z"/>
<path class="st1" d="M574.6,242.6c-0.1,3.3-2.8,5.9-6.1,5.8l-48.6-1.4c-3.3-0.1-5.9-2.8-5.8-6.1l0,0c0.1-3.3,2.8-5.9,6.1-5.8
	l48.6,1.4C572.1,236.6,574.7,239.3,574.6,242.6L574.6,242.6z"/>
<path class="st1" d="M602.9,243.6c-0.1,3.3-2.8,5.9-6.1,5.8l-48.6-1.4c-3.3-0.1-5.9-2.8-5.8-6.1l0,0c0.1-3.3,2.8-5.9,6.1-5.8
	l48.6,1.4C600.4,237.6,603,240.3,602.9,243.6L602.9,243.6z"/>
<path class="st9" d="M603.6,294.8c4.7-3.3,14.2-11.2,28.4-28.7l9.5-12.5c20.1-29,7.1-39.1,7.1-39.1l0.4,0.1
	c-0.8-0.8-1.7-1.6-2.7-2.4l-11.9-9.1c-9.3-7.1-21.5-6.9-27.2,0.5l-38.7,50.6c-5.7,7.4-2.7,19.2,6.6,26.4l11.9,9.1
	C592.3,293.7,598.3,295.4,603.6,294.8z"/>
<path class="st6" d="M603.9,285.7c0.3,6.1-4.3,11.4-10.5,11.7l-45.6,2.6c-6.1,0.3-11.4-4.3-11.7-10.5l0,0
	c-0.3-6.1,4.3-11.4,10.5-11.7l45.6-2.6C598.3,274.9,603.5,279.5,603.9,285.7L603.9,285.7z"/>
<path class="st3" d="M480,333.3c-1.7,3.4-5.8,4.9-9.2,3.2l-18.2-8.8c-3.4-1.7-4.9-5.8-3.2-9.2l0,0c1.7-3.4,5.8-4.9,9.2-3.2l18.2,8.8
	C480.2,325.7,481.7,329.8,480,333.3L480,333.3z"/>
<path class="st4" d="M479.6,331.9c-1.6,3.2-5.5,4.6-8.7,3l-17.1-8.3c-3.2-1.6-4.6-5.5-3-8.7l0,0c1.6-3.2,5.4-4.6,8.7-3l17.1,8.3
	C479.8,324.8,481.2,328.7,479.6,331.9L479.6,331.9z"/>
<path class="st4" d="M483,319.5c-2.8-3.8-2.1-9.2,1.8-12.1l28.4-21.3c3.8-2.9,9.2-2.1,12.1,1.7l0,0c2.8,3.8,2.1,9.2-1.8,12.1
	l-28.4,21.3C491.3,324.1,485.9,323.3,483,319.5L483,319.5z"/>
<path class="st4" d="M466.5,331.8c-2.8-3.8-2.1-9.2,1.7-12.1l28.3-21.2c3.8-2.8,9.2-2.1,12.1,1.7l0,0c2.8,3.8,2.1,9.2-1.7,12.1
	l-28.3,21.2C474.8,336.4,469.4,335.6,466.5,331.8L466.5,331.8z"/>
<path class="st5" d="M526,289c0.3,2.9-0.9,6-3.4,7.8l-28.4,21.3c-0.2,0.2-0.5,0.4-0.8,0.5l-15.8,11.8c-0.1,0.1-0.2,0.1-0.3,0.2
	c-1.9,1.8-4.8,2.4-7.3,1.1l-0.2-0.1c-0.7-0.2-1.4-0.6-2.1-1l-14.8-7.2c-1.1-0.6-2-1.4-2.7-2.4c0.1,2.3,1.4,4.5,3.7,5.6l14.8,7.2
	c0.7,0.4,1.4,0.8,2.1,1l0.2,0.1c2.5,1.2,5.4,0.7,7.3-1.1c0.1-0.1,0.2-0.1,0.3-0.2l15.8-11.8c0.3-0.2,0.5-0.3,0.8-0.5l28.4-21.3
	C527,297.4,528,292.7,526,289z"/>
<path class="st6" d="M580.1,287.1c0.3,6.1-4.3,11.4-10.5,11.7l-45.6,2.6c-6.1,0.3-11.4-4.3-11.7-10.5l0,0
	c-0.3-6.1,4.3-11.4,10.5-11.7l45.6-2.6C574.5,276.3,579.7,281,580.1,287.1L580.1,287.1z"/>
<path class="st4" d="M549.3,236.1c0,0,3,0.3,6.3,2c3.3,1.6-3.7-3.2-3.7-3.2L549.3,236.1z"/>
<path class="st5" d="M542.6,230.5c-0.6-0.9-0.4-2.1,0.5-2.6l0,0c0.9-0.6,2.1-0.4,2.7,0.5l2.5,3.7c0.6,0.9,0.4,2.1-0.5,2.6l0,0
	c-0.9,0.6-2.1,0.4-2.6-0.5L542.6,230.5z"/>
<path class="st10" d="M554.6,215.3c2.3,0.9,4.3,3.2,4.5,5.1l1.3,11.3c0.2,1.9-1.4,2.8-3.7,1.9L522,219.7c-2.3-0.9-4.3-3.2-4.5-5.1
	l-1.3-11.3c-0.2-1.9,1.4-2.8,3.7-1.9L554.6,215.3z"/>
<path class="st4" d="M587.5,221.4c1.2-3.2-0.5-6.7-3.6-7.8l-29.1-10.7c-3.2-1.2-6.7,0.5-7.8,3.6l0,0c-1.2,3.2,0.5,6.7,3.6,7.8
	l29.1,10.7C582.8,226.2,586.3,224.6,587.5,221.4L587.5,221.4z"/>
<path class="st5" d="M547.8,208.6c0.2-1.4-0.8-2.8-2.2-3l-13.2-1.9c-1.4-0.2-2.8,0.8-3,2.2l0,0c-0.2,1.4,0.8,2.8,2.2,3l13.2,1.9
	C546.2,211.1,547.6,210.1,547.8,208.6L547.8,208.6z"/>
<path class="st11" d="M555.5,214c2.3,0.9,4.3,3.2,4.5,5.1l1.3,11.3c0.2,1.9-1.4,2.8-3.7,1.9l-34.7-13.8c-2.3-0.9-4.3-3.2-4.5-5.1
	l-1.3-11.3c-0.2-1.9,1.4-2.8,3.7-1.9L555.5,214z"/>
<path class="st9" d="M561.3,230.4l-1.3-11.3c-0.2-1.9-2.2-4.2-4.5-5.1l-1.3-0.5c1.3,1.1,2.2,2.6,2.4,3.9l1.4,12
	c0.2,1.4-0.6,2.2-1.8,2.3l1.5,0.6C559.9,233.2,561.5,232.4,561.3,230.4z"/>
<path class="st9" d="M522,214.9l-1.4-11.7c-0.2-1.4,0.6-2.2,1.9-2.3l-1.8-0.7c-2.3-0.9-3.9-0.1-3.7,1.9l1.3,11.3
	c0.2,1.9,2.2,4.2,4.5,5.1l2.7,1.1C523.7,218.5,522.2,216.5,522,214.9z"/>
<path class="st4" d="M565.7,230.8l-3.6-6.9c0,0-4.6-2.1-10.7-1c-6.1,1.2-4.1,4.7-0.2,4.8C555,227.8,565.7,230.8,565.7,230.8z"/>
<path class="st4" d="M546.8,235.4c-1.4-0.3-2.2-1.7-1.9-3l0,0c0.3-1.4,1.7-2.2,3-1.9l5.7,1.3c1.4,0.3,2.2,1.7,1.9,3l0,0
	c-0.3,1.4-1.7,2.2-3,1.9L546.8,235.4z"/>
<path class="st4" d="M565.6,225.8l-3.5-1.9c-3.8-2.1-8.5-0.7-10.5,3.1c-0.1,0.2-0.3,0.5-0.4,0.8l1.7,0.2c0,0,2.9,1,2.8,2.3
	c-0.1,1.3-1.6,1.8-3.2,1.4c-0.8-0.2-1.5-0.3-2-0.5c0.1,2.6,1.6,5,4,6.4l3.5,1.9c3.8,2.1,8.5,0.7,10.5-3.1
	C570.7,232.6,569.3,227.9,565.6,225.8z"/>
<path class="st12" d="M538.8,210.1c1.1,0.3,2.1,1.4,2.2,2.4l0.9,6.1c0.1,1-0.6,1.5-1.7,1.2l0,0c-1.1-0.3-2.1-1.4-2.2-2.4l-0.9-6.1
	C537,210.3,537.8,209.8,538.8,210.1L538.8,210.1z"/>
<path class="st1" d="M538.9,210.5c1,0.3,1.8,1.2,2,2.1c0.1,0.9-0.5,1.4-1.5,1.1c-1-0.3-1.8-1.2-2-2.1
	C537.3,210.7,538,210.2,538.9,210.5z"/>
<path class="st4" d="M553.9,202.6c0,0-4.6-0.9-11.6,1.9c-7,2.8-4.8,6.2-3.8,6.9c1,0.6,2.8,1.7,8.3-0.8c5.5-2.4,9.8-1.4,9.8-1.4
	L553.9,202.6z"/>
<path class="st8" d="M583.8,213.6l-23.2-8.6c1.1,1.9,2.4,6-1,12.6l20,7.4c3.2,1.2,6.7-0.5,7.8-3.6
	C588.6,218.3,587,214.8,583.8,213.6z"/>
<path class="st4" d="M597.9,247.5c1.3-3.1-0.2-6.7-3.3-8l-28.7-11.9c-3.1-1.3-6.7,0.2-8,3.3l0,0c-1.3,3.1,0.2,6.7,3.3,8l28.7,11.9
	C593,252.1,596.6,250.6,597.9,247.5L597.9,247.5z"/>
<path class="st5" d="M618.1,203.5c4.9-2.2,12-0.7,15.7,3.3c3.7,4,2.8,9-2.2,11.2c-4.9,2.2-12,0.7-15.7-3.3
	C612.2,210.7,613.2,205.7,618.1,203.5z"/>
<path class="st13" d="M564.9,266.8c6.8-11.2,29.3-32.3,41.5-48.5c10.7-14.3,23.3-15.2,28.7-14.8l-0.5-0.4
	c-9.3-7.1-21.5-6.9-27.2,0.5l-38.7,50.6C564.7,259.5,562.7,261.2,564.9,266.8z"/>
<path class="st1" d="M596.2,273.4c-0.1,3.3-2.8,5.9-6.1,5.8l-48.6-1.4c-3.3-0.1-5.9-2.8-5.8-6.1l0,0c0.1-3.3,2.8-5.9,6.1-5.8
	l48.6,1.4C593.7,267.3,596.3,270.1,596.2,273.4L596.2,273.4z"/>
<path class="st8" d="M565.2,240.6l26.4,10.9c3.1,1.3,6.7-0.2,8-3.3c1.3-3.1-0.2-6.7-3.3-8l-26.2-10.8
	C569.8,231.7,568.8,237.3,565.2,240.6z"/>
<path class="st8" d="M638.1,258.4c25-32.7,10.6-43.9,10.6-43.9l0.2,0c-0.4-0.4-0.8-0.8-1.2-1.1l-18.5,3.5c0,0-14.1,0.7-52.1,62.5
	c0,0-1.3,1.9-2.2,4.3l10.3,7.9c4.7,3.6,10.1,5.4,15,5.3C600.7,296.7,613.5,290.5,638.1,258.4z"/>
<path class="st14" d="M647.2,232.1c-1.9-4.5-7.2-6.7-11.7-4.7l-19,8c0.1,0.3,0.3,0.8,0.4,1.2l-18.5,7.8c-1.1,0.5-2,1.1-2.8,1.9
	l-17.2-4.8l-8,10.4l28,7.9c0.9,0.3,1.8,0.3,2.7,0.1c1.2,0.1,2.4-0.1,3.6-0.6l20-8.5c0.2-0.1,0.2-0.1,0.4-0.1l17.2-6.9
	C647,241.9,649.1,236.7,647.2,232.1z"/>
<path class="st8" d="M649.4,231.1c-1.5-4.2-6.1-6.4-10.3-5l-39,13.7c-4.2,1.5-6.4,6.1-5,10.3l0,0c1.5,4.2,6.1,6.4,10.3,5l39-13.7
	C648.7,240,650.9,235.3,649.4,231.1L649.4,231.1z"/>
<path class="st8" d="M607.8,251.7c1.3-3.1-0.2-6.7-3.3-8l-28.7-11.9c-3.1-1.3-6.7,0.2-8,3.3l0,0c-1.3,3.1,0.2,6.7,3.3,8l28.7,11.9
	C603,256.3,606.5,254.8,607.8,251.7L607.8,251.7z"/>
<path class="st1" d="M652.5,275c-0.1,3.3-2.8,5.9-6.1,5.8l-48.6-1.4c-3.3-0.1-5.9-2.8-5.8-6.1l0,0c0.1-3.3,2.8-5.9,6.1-5.8l48.6,1.4
	C650,269,652.6,271.7,652.5,275L652.5,275z"/>
<path class="st1" d="M624.5,274.3c-0.1,3.3-2.8,5.9-6.1,5.8l-48.6-1.4c-3.3-0.1-5.9-2.8-5.8-6.1l0,0c0.1-3.3,2.8-5.9,6.1-5.8
	l48.6,1.4C622,268.3,624.6,271,624.5,274.3L624.5,274.3z"/>
<path class="st10" d="M664.9,205c-2.5,4.8-8.4,6.7-13,4.2l-14.6-7.9c-4.7-2.5-6.4-8.5-3.9-13.3l0,0c2.5-4.8,8.4-6.7,13.1-4.2
	l14.6,7.9C665.7,194.2,667.4,200.1,664.9,205L664.9,205z"/>
<path class="st4" d="M655.9,205.2c-5.7,11-19.2,15.3-30.2,9.6l0,0c-11-5.7-15.3-19.2-9.6-30.2l17-32.7c5.7-11,19.2-15.3,30.2-9.6
	l0,0c11,5.7,15.3,19.2,9.6,30.2L655.9,205.2z"/>
<path class="st5" d="M667.2,141.7c-11.8-6.1-26.3-1.5-32.4,10.3l-7.6,14.7c0.8,2.3,2.4,4.4,4.6,5.7l16,9.5
	c4.8,2.9,10.9,1.4,14.2-3.2c0.1-0.1,1.6-2.2,4.3-0.6c2.7,1.6,1.3,3.7,1.3,3.7l5.3,1.6l4.7-9.1C683.6,162.4,679,147.8,667.2,141.7z"
	/>
<path class="st5" d="M663.3,142.3c-1.5-0.8-3.1-1.4-4.8-1.8c0.6,0.2,1.2,0.5,1.8,0.8c11,5.7,15.3,19.2,9.6,30.2l-17,32.7
	c-4.9,9.4-15.6,13.9-25.5,11.4c10.6,4.4,23.1,0,28.4-10.4l17-32.7C678.6,161.5,674.3,148,663.3,142.3z"/>
<path class="st10" d="M661.4,176.5c-2.7,5.2-9,7.2-14,4.5l-15.7-8.5c-5-2.7-6.9-9.1-4.1-14.4l0,0c2.7-5.2,9-7.2,14-4.5l15.7,8.5
	C662.3,164.9,664.2,171.3,661.4,176.5L661.4,176.5z"/>
<path class="st10" d="M633.6,199.8l-10.1-6.2c-1.6-0.9-3.8-0.1-5,1.9l-5.2,8.6c-1.2,2-0.9,4.4,0.6,5.3l10.1,6.2
	c1.6,0.9,3.8,0.1,5-1.9l5.2-8.6C635.5,203.2,635.2,200.8,633.6,199.8z"/>
<path class="st10" d="M651.2,211.4l-3-1.5c0,0-4.8,2.3-13.6-5.9l-15.5-9.5c0,0-5.5-1.4-4.6-5.8c0-0.2,0.1-0.4,0-0.5
	c-3.2,10.2,1.3,21.5,11.1,26.6C634.3,219.3,644.4,217.6,651.2,211.4z"/>
<path class="st15" d="M622.3,196.8l8.3,4.7c0,0-2.1,4.5-6.7,1.7C619.7,200.7,622.3,196.8,622.3,196.8z"/>
<path class="st1" d="M531,339.3c-0.7,1.6,0.1,3.5,1.7,4.2l0,0c1.6,0.7,3.5-0.1,4.2-1.7l27.3-64.4c0.7-1.6-0.1-3.5-1.7-4.2l0,0
	c-1.6-0.7-3.5,0.1-4.2,1.7L531,339.3z"/>
<path class="st1" d="M619,340.8c0.3,1.7,2,2.8,3.7,2.5l0,0c1.7-0.3,2.8-2,2.5-3.7L611.3,271c-0.3-1.7-2-2.8-3.7-2.5l0,0
	c-1.7,0.3-2.8,2-2.5,3.7L619,340.8z"/>
<path class="st5" d="M456.3,327.3c0,0,1.1-9.7,7.2-10.9c0,0,2.5,1.4,3.5,2.3c0,0-3.8,1.8-5.2,5.1c-1.5,3.3-1.7,5.8-1.7,5.8
	L456.3,327.3"/>
<path class="st3" d="M455.3,327.3c0,0,1.2-10.3,7.7-11.6c0,0,2.7,1.4,3.7,2.4c0,0-4,2-5.5,5.5c-1.6,3.5-1.8,6.2-1.8,6.2L455.3,327.3
	"/>
<path class="st5" d="M459.6,311.6c0,0,0-8.8,5.3-10.6c0,0,2.4,0.9,3.4,1.7c0,0-3.2,2.1-4.1,5.2c-0.9,3.1-0.9,5.4-0.9,5.4
	L459.6,311.6"/>
<path class="st3" d="M458.6,311.7c0,0,0-9.4,5.6-11.3c0,0,2.5,1,3.6,1.8c0,0-3.4,2.2-4.4,5.5c-1,3.3-0.9,5.8-0.9,5.8L458.6,311.7"/>
<path class="st16" d="M217,120.5c0,0,5.6,6.3,8.1,6.9c2.6,0.6,102.5-48.6,102.5-48.6l-6.6-6.5l-91,30.4l-1.8-6.7l-5-4.9L217,120.5z"
	/>
<path class="st16" d="M323.7,76.4c-1.5-4.6-6.2-7-10.4-5.4l-83.6,31.7l-3.6-7.8c-2.4-5.2-8.3-7.3-13.1-4.7c-4.8,2.6-6.8,9-4.4,14.2
	l6,12.9c1.6,3.4,4.7,5.5,8,5.8c1.3,0.2,2.7,0.1,4-0.4l92.1-34.9C322.9,86.1,325.2,81,323.7,76.4z"/>
<path class="st1" d="M329,81.5c-1.5-4.6-6.2-7-10.4-5.4L226.4,111c-4.3,1.6-6.5,6.7-5,11.3l0,0c1.5,4.6,6.2,7,10.4,5.4L324,92.8
	C328.2,91.1,330.5,86.1,329,81.5L329,81.5z"/>
<path class="st1" d="M232.9,127c-4.8,2.6-10.7,0.5-13.1-4.7l-6-12.9c-2.4-5.2-0.5-11.6,4.4-14.2l0,0c4.8-2.6,10.7-0.5,13.1,4.7
	l6,12.9C239.7,118,237.8,124.4,232.9,127L232.9,127z"/>
<path class="st16" d="M258.8,384.1c0,0,1.7,1.9,2.5,2.1c0.8,0.2,31.6-15,31.6-15l-2-2l-28,9.4l-0.5-2.1l-1.6-1.5L258.8,384.1z"/>
<path class="st16" d="M291.6,370.5c-0.5-1.4-1.9-2.2-3.2-1.7l-25.8,9.8l-1.1-2.4c-0.7-1.6-2.6-2.3-4-1.5c-1.5,0.8-2.1,2.8-1.3,4.4
	l1.8,4c0.5,1.1,1.4,1.7,2.5,1.8c0.4,0.1,0.8,0,1.2-0.1l28.4-10.8C291.4,373.5,292.1,371.9,291.6,370.5z"/>
<path class="st1" d="M293.3,372c-0.5-1.4-1.9-2.2-3.2-1.7l-28.4,10.8c-1.3,0.5-2,2.1-1.5,3.5l0,0c0.5,1.4,1.9,2.2,3.2,1.7l28.4-10.8
	C293,375,293.7,373.5,293.3,372L293.3,372z"/>
<path class="st1" d="M263.7,386.1c-1.5,0.8-3.3,0.2-4-1.5l-1.8-4c-0.7-1.6-0.1-3.6,1.3-4.4l0,0c1.5-0.8,3.3-0.2,4,1.5l1.8,4
	C265.8,383.3,265.2,385.3,263.7,386.1L263.7,386.1z"/>
<g>
	<path class="st16" d="M37.7,124.5c0,0,1.5,1.6,2.1,1.8c0.7,0.2,26.7-12.7,26.7-12.7l-1.7-1.7l-23.7,7.9l-0.5-1.8l-1.3-1.3
		L37.7,124.5z"/>
	<path class="st16" d="M65.5,113c-0.4-1.2-1.6-1.8-2.7-1.4L41,119.9l-0.9-2c-0.6-1.4-2.2-1.9-3.4-1.2c-1.3,0.7-1.8,2.3-1.1,3.7
		l1.6,3.4c0.4,0.9,1.2,1.4,2.1,1.5c0.3,0.1,0.7,0,1-0.1l24-9.1C65.4,115.5,65.9,114.2,65.5,113z"/>
	<path class="st1" d="M66.9,114.4c-0.4-1.2-1.6-1.8-2.7-1.4l-24,9.1c-1.1,0.4-1.7,1.7-1.3,2.9l0,0c0.4,1.2,1.6,1.8,2.7,1.4l24-9.1
		C66.7,116.9,67.3,115.6,66.9,114.4L66.9,114.4z"/>
	<path class="st1" d="M41.9,126.2c-1.3,0.7-2.8,0.1-3.4-1.2l-1.6-3.4c-0.6-1.4-0.1-3,1.1-3.7l0,0c1.3-0.7,2.8-0.1,3.4,1.2l1.6,3.4
		C43.6,123.9,43.1,125.5,41.9,126.2L41.9,126.2z"/>
</g>
<path class="st16" d="M347.8,206.5c0,0,1.4,1.6,2.1,1.7c0.7,0.1,25.8-12.2,25.8-12.2l-1.7-1.6l-22.9,7.7l-0.4-1.7l-1.3-1.2
	L347.8,206.5z"/>
<path class="st17" d="M374.6,195.3c-0.4-1.2-1.6-1.8-2.6-1.4l-21.1,8l-0.9-2c-0.6-1.3-2.1-1.8-3.3-1.2c-1.2,0.7-1.7,2.3-1.1,3.6
	l1.5,3.2c0.4,0.9,1.2,1.4,2,1.5c0.3,0.1,0.7,0,1-0.1l23.2-8.8C374.5,197.8,375,196.5,374.6,195.3z"/>
<path class="st13" d="M376,196.6c-0.4-1.2-1.6-1.8-2.6-1.4l-23.2,8.8c-1.1,0.4-1.6,1.7-1.3,2.8l0,0c0.4,1.2,1.6,1.8,2.6,1.4
	l23.2-8.8C375.8,199,376.4,197.8,376,196.6L376,196.6z"/>
<path class="st13" d="M351.8,208.1c-1.2,0.7-2.7,0.1-3.3-1.2l-1.5-3.2c-0.6-1.3-0.1-2.9,1.1-3.6l0,0c1.2-0.7,2.7-0.1,3.3,1.2
	l1.5,3.2C353.5,205.8,353,207.4,351.8,208.1L351.8,208.1z"/>
<path class="st16" d="M128.8,36.4c0,0,1.4,1.6,2.1,1.7c0.7,0.1,25.8-12.2,25.8-12.2l-1.7-1.6l-22.9,7.7l-0.4-1.7l-1.3-1.2
	L128.8,36.4z"/>
<path class="st17" d="M155.7,25.3c-0.4-1.2-1.6-1.8-2.6-1.4l-21.1,8l-0.9-2c-0.6-1.3-2.1-1.8-3.3-1.2c-1.2,0.7-1.7,2.3-1.1,3.6
	l1.5,3.2c0.4,0.9,1.2,1.4,2,1.5c0.3,0.1,0.7,0,1-0.1l23.2-8.8C155.5,27.7,156,26.4,155.7,25.3z"/>
<path class="st13" d="M157,26.5c-0.4-1.2-1.6-1.8-2.6-1.4L131.2,34c-1.1,0.4-1.6,1.7-1.3,2.8l0,0c0.4,1.2,1.6,1.8,2.6,1.4l23.2-8.8
	C156.8,29,157.4,27.7,157,26.5L157,26.5z"/>
<path class="st13" d="M132.8,38c-1.2,0.7-2.7,0.1-3.3-1.2l-1.5-3.2c-0.6-1.3-0.1-2.9,1.1-3.6l0,0c1.2-0.7,2.7-0.1,3.3,1.2l1.5,3.2
	C134.5,35.7,134,37.3,132.8,38L132.8,38z"/>
<path class="st18" d="M106.3,357.4c0,0,1.4,1.6,2.1,1.7c0.7,0.1,25.8-12.2,25.8-12.2l-1.7-1.6l-22.9,7.7l-0.4-1.7l-1.3-1.2
	L106.3,357.4z"/>
<path class="st18" d="M133.2,346.3c-0.4-1.2-1.6-1.8-2.6-1.4l-21.1,8l-0.9-2c-0.6-1.3-2.1-1.8-3.3-1.2c-1.2,0.7-1.7,2.3-1.1,3.6
	l1.5,3.2c0.4,0.9,1.2,1.4,2,1.5c0.3,0.1,0.7,0,1-0.1l23.2-8.8C133,348.7,133.6,347.4,133.2,346.3z"/>
<path class="st13" d="M134.5,347.6c-0.4-1.2-1.6-1.8-2.6-1.4l-23.2,8.8c-1.1,0.4-1.6,1.7-1.3,2.8l0,0c0.4,1.2,1.6,1.8,2.6,1.4
	l23.2-8.8C134.3,350,134.9,348.7,134.5,347.6L134.5,347.6z"/>
<path class="st13" d="M110.3,359c-1.2,0.7-2.7,0.1-3.3-1.2l-1.5-3.2c-0.6-1.3-0.1-2.9,1.1-3.6l0,0c1.2-0.7,2.7-0.1,3.3,1.2l1.5,3.2
	C112,356.8,111.5,358.4,110.3,359L110.3,359z"/>
<path class="st16" d="M96.2,206.4c0,0,2.7,3.1,4,3.4c1.3,0.3,50.1-23.8,50.1-23.8l-3.2-3.2l-44.5,14.9l-0.9-3.3l-2.5-2.4L96.2,206.4
	z"/>
<path class="st16" d="M148.4,184.8c-0.7-2.3-3-3.4-5.1-2.6l-40.9,15.5l-1.8-3.8c-1.2-2.6-4.1-3.6-6.4-2.3c-2.4,1.3-3.3,4.4-2.1,6.9
	l2.9,6.3c0.8,1.7,2.3,2.7,3.9,2.8c0.6,0.1,1.3,0.1,2-0.2l45-17.1C148,189.6,149.1,187.1,148.4,184.8z"/>
<path class="st1" d="M150.9,187.3c-0.7-2.3-3-3.4-5.1-2.6l-45,17.1c-2.1,0.8-3.2,3.3-2.5,5.5l0,0c0.7,2.3,3,3.4,5.1,2.6l45-17.1
	C150.6,192,151.7,189.6,150.9,187.3L150.9,187.3z"/>
<path class="st1" d="M104,209.6c-2.4,1.3-5.2,0.2-6.4-2.3l-2.9-6.3c-1.2-2.5-0.2-5.7,2.1-6.9l0,0c2.4-1.3,5.2-0.2,6.4,2.3l2.9,6.3
	C107.3,205.2,106.3,208.3,104,209.6L104,209.6z"/>
<polygon class="st13" points="339.7,136.7 352.8,157.5 401.8,159.9 386,142.8 378.5,139.9 "/>
<polygon class="st6" points="404,204.6 417.1,225.4 466.1,227.9 450.2,210.7 442.8,207.8 "/>
<polygon class="st10" points="442.8,207.8 443.6,210.9 450.2,210.7 "/>
<polygon class="st13" points="369,319.2 383.2,339 431.9,338.4 415.1,322.4 407.6,320 "/>
<polygon class="st10" points="407.6,320 408.5,322.9 415.1,322.4 "/>
<polygon class="st6" points="14.9,245.6 24.5,262.9 69.7,263.1 57.1,249.1 50.5,246.9 "/>
<polygon class="st10" points="50.5,246.9 50.9,249.5 57.1,249.1 "/>
<polygon class="st13" points="182.6,414 192.2,431.3 237.4,431.6 224.8,417.5 218.2,415.3 "/>
<polygon class="st10" points="218.2,415.3 218.5,417.9 224.8,417.5 "/>
<polygon class="st13" points="158.3,153.5 169.2,173.1 220.3,173.4 206.1,157.5 198.6,155 "/>
<polygon class="st10" points="198.6,155 199,157.9 206.1,157.5 "/>
<polygon class="st10" points="378.5,139.9 379.3,142.9 386,142.8 "/>
<path class="st19" d="M432.5,258.6c-0.5,3.5-3.8,6-7.3,5.5l-9.5-1.4c-3.5-0.5-6-3.8-5.5-7.3l0,0c0.5-3.5,3.8-6,7.3-5.5l9.5,1.4
	C430.6,251.8,433,255,432.5,258.6L432.5,258.6z"/>
<polygon class="st19" points="425.3,252.3 430.7,253.1 433.6,256.1 414.8,263.6 411.9,260.7 "/>
<path class="st0" d="M434.9,261c-0.5,3.5-3.8,6-7.3,5.5l-9.5-1.4c-3.5-0.5-6-3.8-5.5-7.3l0,0c0.5-3.5,3.8-6,7.3-5.5l9.5,1.4
	C433,254.2,435.4,257.5,434.9,261L434.9,261z"/>
<g>
	<path class="st19" d="M69.9,307.5c-0.6,4.2-4.5,7.2-8.7,6.6l-11.4-1.6c-4.2-0.6-7.2-4.5-6.6-8.7l0,0c0.6-4.2,4.5-7.2,8.7-6.6
		l11.4,1.6C67.5,299.4,70.5,303.3,69.9,307.5L69.9,307.5z"/>
	<polygon class="st19" points="61.2,300 67.7,300.9 71.1,304.5 48.6,313.5 45.2,310.1 	"/>
	<path class="st0" d="M72.7,310.4c-0.6,4.2-4.5,7.2-8.7,6.6l-11.4-1.6c-4.2-0.6-7.2-4.5-6.6-8.7l0,0c0.6-4.2,4.5-7.2,8.7-6.6
		l11.4,1.6C70.4,302.2,73.3,306.1,72.7,310.4L72.7,310.4z"/>
</g>
<path class="st19" d="M331.4,381.7c-0.5,3.5-3.8,6-7.3,5.5l-9.5-1.4c-3.5-0.5-6-3.8-5.5-7.3l0,0c0.5-3.5,3.8-6,7.3-5.5l9.5,1.4
	C329.4,374.9,331.9,378.1,331.4,381.7L331.4,381.7z"/>
<polygon class="st19" points="324.1,375.4 329.5,376.2 332.4,379.1 313.6,386.7 310.7,383.8 "/>
<path class="st0" d="M333.8,384.1c-0.5,3.5-3.8,6-7.3,5.5l-9.5-1.4c-3.5-0.5-6-3.8-5.5-7.3l0,0c0.5-3.5,3.8-6,7.3-5.5l9.5,1.4
	C331.8,377.3,334.3,380.5,333.8,384.1L333.8,384.1z"/>
<g>
	<path class="st19" d="M97.4,368.5c-0.5,3.5-3.8,6-7.3,5.5l-9.5-1.4c-3.5-0.5-6-3.8-5.5-7.3l0,0c0.5-3.5,3.8-6,7.3-5.5l9.5,1.4
		C95.4,361.7,97.9,365,97.4,368.5L97.4,368.5z"/>
	<polygon class="st19" points="90.2,362.2 95.5,363 98.5,366 79.6,373.5 76.8,370.6 	"/>
	<path class="st0" d="M99.8,370.9c-0.5,3.5-3.8,6-7.3,5.5L83,375c-3.5-0.5-6-3.8-5.5-7.3l0,0c0.5-3.5,3.8-6,7.3-5.5l9.5,1.4
		C97.8,364.1,100.3,367.4,99.8,370.9L99.8,370.9z"/>
</g>
<g>
	<path class="st19" d="M62.9,336.3c-0.5,3.5-3.8,6-7.3,5.5l-9.5-1.4c-3.5-0.5-6-3.8-5.5-7.3l0,0c0.5-3.5,3.8-6,7.3-5.5l9.5,1.4
		C60.9,329.5,63.4,332.8,62.9,336.3L62.9,336.3z"/>
	<polygon class="st19" points="55.7,330.1 61.1,330.8 64,333.8 45.1,341.3 42.3,338.5 	"/>
	<path class="st0" d="M65.3,338.7c-0.5,3.5-3.8,6-7.3,5.5l-9.5-1.4c-3.5-0.5-6-3.8-5.5-7.3l0,0c0.5-3.5,3.8-6,7.3-5.5l9.5,1.4
		C63.4,331.9,65.8,335.2,65.3,338.7L65.3,338.7z"/>
</g>
<g>
	<path class="st19" d="M159.7,397.8c-0.5,3.5-3.8,6-7.3,5.5l-9.5-1.4c-3.5-0.5-6-3.8-5.5-7.3l0,0c0.5-3.5,3.8-6,7.3-5.5l9.5,1.4
		C157.8,391,160.2,394.2,159.7,397.8L159.7,397.8z"/>
	<polygon class="st19" points="152.5,391.5 157.9,392.3 160.8,395.3 142,402.8 139.1,399.9 	"/>
	<path class="st0" d="M162.2,400.2c-0.5,3.5-3.8,6-7.3,5.5l-9.5-1.4c-3.5-0.5-6-3.8-5.5-7.3l0,0c0.5-3.5,3.8-6,7.3-5.5l9.5,1.4
		C160.2,393.4,162.7,396.7,162.2,400.2L162.2,400.2z"/>
</g>
<path class="st19" d="M412.8,262c-0.5,3.5-3.8,6-7.3,5.5l-9.5-1.4c-3.5-0.5-6-3.8-5.5-7.3l0,0c0.5-3.5,3.8-6,7.3-5.5l9.5,1.4
	C410.8,255.2,413.3,258.5,412.8,262L412.8,262z"/>
<polygon class="st19" points="405.6,255.8 410.9,256.6 413.8,259.5 395,267 392.1,264.2 "/>
<path class="st0" d="M415.2,264.5c-0.5,3.5-3.8,6-7.3,5.5l-9.5-1.4c-3.5-0.5-6-3.8-5.5-7.3l0,0c0.5-3.5,3.8-6,7.3-5.5l9.5,1.4
	C413.2,257.7,415.7,260.9,415.2,264.5L415.2,264.5z"/>
<g>
	<path class="st19" d="M383.7,115.8c-0.5,3.6-3.9,6.2-7.5,5.6l-9.8-1.4c-3.6-0.5-6.2-3.9-5.6-7.5l0,0c0.5-3.6,3.9-6.2,7.5-5.6
		l9.8,1.4C381.7,108.8,384.3,112.2,383.7,115.8L383.7,115.8z"/>
	<polygon class="st19" points="376.3,109.4 381.8,110.2 384.8,113.2 365.5,121 362.5,118 	"/>
	<path class="st0" d="M386.2,118.3c-0.5,3.6-3.9,6.2-7.5,5.6l-9.8-1.4c-3.6-0.5-6.2-3.9-5.6-7.5l0,0c0.5-3.6,3.9-6.2,7.5-5.6
		l9.8,1.4C384.2,111.3,386.7,114.7,386.2,118.3L386.2,118.3z"/>
</g>
<g>
	<path class="st19" d="M90.5,151.1c-0.6,4.2-4.5,7.2-8.7,6.6l-11.4-1.6c-4.2-0.6-7.2-4.5-6.6-8.7l0,0c0.6-4.2,4.5-7.2,8.7-6.6
		l11.4,1.6C88.2,143,91.1,146.9,90.5,151.1L90.5,151.1z"/>
	<polygon class="st19" points="81.9,143.6 88.3,144.6 91.8,148.1 69.3,157.1 65.9,153.7 	"/>
	<path class="st0" d="M93.4,154c-0.6,4.2-4.5,7.2-8.7,6.6l-11.4-1.6c-4.2-0.6-7.2-4.5-6.6-8.7l0,0c0.6-4.2,4.5-7.2,8.7-6.6l11.4,1.6
		C91.1,145.9,94,149.8,93.4,154L93.4,154z"/>
</g>
<g>
	<path class="st19" d="M106.2,330.7c-0.6,4.2-4.5,7.2-8.7,6.6l-11.4-1.6c-4.2-0.6-7.2-4.5-6.6-8.7l0,0c0.6-4.2,4.5-7.2,8.7-6.6
		l11.4,1.6C103.8,322.6,106.8,326.5,106.2,330.7L106.2,330.7z"/>
	<polygon class="st19" points="97.5,323.2 104,324.1 107.4,327.7 84.9,336.7 81.5,333.3 	"/>
	<path class="st0" d="M109,333.6c-0.6,4.2-4.5,7.2-8.7,6.6l-11.4-1.6c-4.2-0.6-7.2-4.5-6.6-8.7l0,0c0.6-4.2,4.5-7.2,8.7-6.6
		l11.4,1.6C106.7,325.4,109.6,329.3,109,333.6L109,333.6z"/>
</g>
<path class="st19" d="M49.1,205.1c-0.6,4.2-4.5,7.2-8.7,6.6L29,210c-4.2-0.6-7.2-4.5-6.6-8.7l0,0c0.6-4.2,4.5-7.2,8.7-6.6l11.4,1.6
	C46.8,196.9,49.7,200.9,49.1,205.1L49.1,205.1z"/>
<polygon class="st19" points="40.5,197.6 46.9,198.5 50.4,202.1 27.9,211 24.5,207.7 "/>
<path class="st0" d="M52,208c-0.6,4.2-4.5,7.2-8.7,6.6l-11.4-1.6c-4.2-0.6-7.2-4.5-6.6-8.7l0,0c0.6-4.2,4.5-7.2,8.7-6.6l11.4,1.6
	C49.7,199.8,52.6,203.7,52,208L52,208z"/>
<path class="st19" d="M26.6,210.4c-0.6,4.2-4.5,7.2-8.7,6.6l-11.4-1.6c-4.2-0.6-7.2-4.5-6.6-8.7l0,0c0.6-4.2,4.5-7.2,8.7-6.6
	l11.4,1.6C24.3,202.3,27.2,206.2,26.6,210.4L26.6,210.4z"/>
<path class="st0" d="M29.5,213.3c-0.6,4.2-4.5,7.2-8.7,6.6l-11.4-1.6c-4.2-0.6-7.2-4.5-6.6-8.7l0,0c0.6-4.2,4.5-7.2,8.7-6.6
	l11.4,1.6C27.2,205.2,30.1,209.1,29.5,213.3L29.5,213.3z"/>
<g>
	<path class="st19" d="M171,123c-0.6,4.2-4.5,7.2-8.7,6.6l-11.4-1.6c-4.2-0.6-7.2-4.5-6.6-8.7l0,0c0.6-4.2,4.5-7.2,8.7-6.6l11.4,1.6
		C168.6,114.9,171.6,118.8,171,123L171,123z"/>
	<polygon class="st19" points="162.3,115.6 168.8,116.5 172.2,120 149.7,129 146.3,125.6 	"/>
	<path class="st0" d="M173.8,125.9c-0.6,4.2-4.5,7.2-8.7,6.6l-11.4-1.6c-4.2-0.6-7.2-4.5-6.6-8.7l0,0c0.6-4.2,4.5-7.2,8.7-6.6
		l11.4,1.6C171.5,117.8,174.4,121.7,173.8,125.9L173.8,125.9z"/>
</g>
<g>
	<path class="st19" d="M243.4,56.5c-0.6,4.2-4.5,7.2-8.7,6.6l-11.4-1.6c-4.2-0.6-7.2-4.5-6.6-8.7l0,0c0.6-4.2,4.5-7.2,8.7-6.6
		l11.4,1.6C241,48.4,244,52.3,243.4,56.5L243.4,56.5z"/>
	<polygon class="st19" points="234.7,49 241.2,49.9 244.6,53.5 223.8,62.5 218.7,59.1 	"/>
	<path class="st0" d="M246.4,58.4c-0.6,4.2-4.5,7.2-8.7,6.6l-11.4-1.6c-4.2-0.6-7.2-4.5-6.6-8.7l0,0c0.6-4.2,4.5-7.2,8.7-6.6
		l11.4,1.6C244,50.3,247,54.2,246.4,58.4L246.4,58.4z"/>
</g>
<g>
	<path class="st19" d="M273.5,47.5c-0.6,4.2-4.5,7.2-8.7,6.6l-11.4-1.6c-4.2-0.6-7.2-4.5-6.6-8.7l0,0c0.6-4.2,4.5-7.2,8.7-6.6
		l11.4,1.6C271.1,39.3,274.1,43.2,273.5,47.5L273.5,47.5z"/>
	<polygon class="st19" points="264.8,40 271.3,40.9 274.7,44.5 253.9,53.5 248.8,50.1 	"/>
	<path class="st0" d="M276.5,49.4c-0.6,4.2-4.5,7.2-8.7,6.6l-11.4-1.6c-4.2-0.6-7.2-4.5-6.6-8.7l0,0c0.6-4.2,4.5-7.2,8.7-6.6
		l11.4,1.6C274.2,41.2,277.1,45.1,276.5,49.4L276.5,49.4z"/>
</g>
<g>
	<path class="st19" d="M247.1,41.4c-0.6,4.2-4.5,7.2-8.7,6.6l-11.4-1.6c-4.2-0.6-7.2-4.5-6.6-8.7l0,0c0.6-4.2,4.5-7.2,8.7-6.6
		l11.4,1.6C244.8,33.3,247.7,37.2,247.1,41.4L247.1,41.4z"/>
	<polygon class="st19" points="238.5,34 244.9,34.9 248.4,38.4 225.9,47.4 222.5,44 	"/>
	<path class="st0" d="M250,44.3c-0.6,4.2-4.5,7.2-8.7,6.6l-11.4-1.6c-4.2-0.6-7.2-4.5-6.6-8.7l0,0c0.6-4.2,4.5-7.2,8.7-6.6l11.4,1.6
		C247.7,36.2,250.6,40.1,250,44.3L250,44.3z"/>
</g>
<g>
	<path class="st19" d="M147.8,131.4c-0.6,4.2-4.5,7.2-8.7,6.6l-11.4-1.6c-4.2-0.6-7.2-4.5-6.6-8.7l0,0c0.6-4.2,4.5-7.2,8.7-6.6
		l11.4,1.6C145.4,123.3,148.4,127.2,147.8,131.4L147.8,131.4z"/>
	<polygon class="st19" points="139.1,123.9 145.6,124.8 149,128.4 126.5,137.4 123.1,134 	"/>
	<path class="st0" d="M150.6,134.3c-0.6,4.2-4.5,7.2-8.7,6.6l-11.4-1.6c-4.2-0.6-7.2-4.5-6.6-8.7l0,0c0.6-4.2,4.5-7.2,8.7-6.6
		l11.4,1.6C148.3,126.2,151.2,130.1,150.6,134.3L150.6,134.3z"/>
</g>
<g>
	<path class="st19" d="M153.1,87.5c-0.6,4.2-4.5,7.2-8.7,6.6L133,92.4c-4.2-0.6-7.2-4.5-6.6-8.7l0,0c0.6-4.2,4.5-7.2,8.7-6.6
		l11.4,1.6C150.7,79.4,153.7,83.3,153.1,87.5L153.1,87.5z"/>
	<polygon class="st19" points="144.4,80 150.9,80.9 154.3,84.5 131.8,93.5 128.4,90.1 	"/>
	<path class="st0" d="M155.9,90.4c-0.6,4.2-4.5,7.2-8.7,6.6l-11.4-1.6c-4.2-0.6-7.2-4.5-6.6-8.7l0,0c0.6-4.2,4.5-7.2,8.7-6.6
		l11.4,1.6C153.6,82.3,156.5,86.2,155.9,90.4L155.9,90.4z"/>
</g>
<path class="st19" d="M125.8,84.3c-0.6,4.2-4.5,7.2-8.7,6.6l-11.4-1.6c-4.2-0.6-7.2-4.5-6.6-8.7l0,0c0.6-4.2,4.5-7.2,8.7-6.6
	l11.4,1.6C123.5,76.1,126.4,80,125.8,84.3L125.8,84.3z"/>
<polygon class="st19" points="117.2,76.8 123.6,77.7 127.1,81.3 104.6,90.2 101.2,86.8 "/>
<path class="st0" d="M128.7,87.1c-0.6,4.2-4.5,7.2-8.7,6.6l-11.4-1.6c-4.2-0.6-7.2-4.5-6.6-8.7l0,0c0.6-4.2,4.5-7.2,8.7-6.6
	l11.4,1.6C126.4,79,129.3,82.9,128.7,87.1L128.7,87.1z"/>
<g>
	<path class="st19" d="M112.3,272.7c-0.6,4-4.3,6.8-8.3,6.2l-10.8-1.5c-4-0.6-6.8-4.3-6.2-8.3l0,0c0.6-4,4.3-6.8,8.3-6.2l10.8,1.5
		C110.1,265,112.9,268.7,112.3,272.7L112.3,272.7z"/>
	<polygon class="st19" points="104.1,265.7 110.2,266.5 113.5,269.9 92.2,278.4 88.9,275.2 	"/>
	<path class="st0" d="M115,275.5c-0.6,4-4.3,6.8-8.3,6.2L96,280.1c-4-0.6-6.8-4.3-6.2-8.3l0,0c0.6-4,4.3-6.8,8.3-6.2l10.8,1.5
		C112.8,267.8,115.6,271.5,115,275.5L115,275.5z"/>
</g>
<path class="st19" d="M115.1,257.1c-0.6,4-4.3,6.8-8.3,6.2L96,261.8c-4-0.6-6.8-4.3-6.2-8.3l0,0c0.6-4,4.3-6.8,8.3-6.2l10.8,1.5
	C112.8,249.4,115.6,253.1,115.1,257.1L115.1,257.1z"/>
<polygon class="st19" points="106.9,250 113,250.9 116.3,254.3 94.9,262.8 91.7,259.6 "/>
<path class="st0" d="M117.8,259.8c-0.6,4-4.3,6.8-8.3,6.2l-10.8-1.5c-4-0.6-6.8-4.3-6.2-8.3l0,0c0.6-4,4.3-6.8,8.3-6.2l10.8,1.5
	C115.6,252.1,118.4,255.8,117.8,259.8L117.8,259.8z"/>
<g>
	<path class="st19" d="M128.3,68.2c-0.6,4.2-4.5,7.2-8.7,6.6l-11.4-1.6c-4.2-0.6-7.2-4.5-6.6-8.7l0,0c0.6-4.2,4.5-7.2,8.7-6.6
		l11.4,1.6C126,60.1,128.9,64,128.3,68.2L128.3,68.2z"/>
	<polygon class="st19" points="119.7,60.7 126.1,61.6 129.6,65.2 107.1,74.2 103.7,70.8 	"/>
	<path class="st0" d="M131.2,71.1c-0.6,4.2-4.5,7.2-8.7,6.6L111.1,76c-4.2-0.6-7.2-4.5-6.6-8.7l0,0c0.6-4.2,4.5-7.2,8.7-6.6
		l11.4,1.6C128.9,62.9,131.8,66.8,131.2,71.1L131.2,71.1z"/>
</g>
<g>
	<path class="st19" d="M101.4,63.1c-0.6,4.2-4.5,7.2-8.7,6.6L81.3,68c-4.2-0.6-7.2-4.5-6.6-8.7l0,0c0.6-4.2,4.5-7.2,8.7-6.6
		l11.4,1.6C99.1,55,102,58.9,101.4,63.1L101.4,63.1z"/>
	<polygon class="st19" points="92.8,55.6 99.2,56.5 102.7,60.1 80.2,69.1 76.8,65.7 	"/>
	<path class="st0" d="M104.3,66c-0.6,4.2-4.5,7.2-8.7,6.6l-11.4-1.6c-4.2-0.6-7.2-4.5-6.6-8.7l0,0c0.6-4.2,4.5-7.2,8.7-6.6l11.4,1.6
		C101.9,57.8,104.9,61.7,104.3,66L104.3,66z"/>
</g>
<g>
	<path class="st19" d="M121.8,127.8c-0.6,4.2-4.5,7.2-8.7,6.6l-11.4-1.6c-4.2-0.6-7.2-4.5-6.6-8.7l0,0c0.6-4.2,4.5-7.2,8.7-6.6
		l11.4,1.6C119.5,119.7,122.4,123.6,121.8,127.8L121.8,127.8z"/>
	<polygon class="st19" points="113.2,120.4 119.6,121.3 123.1,124.8 100.6,133.8 97.2,130.4 	"/>
	<path class="st0" d="M124.7,130.7c-0.6,4.2-4.5,7.2-8.7,6.6l-11.4-1.6c-4.2-0.6-7.2-4.5-6.6-8.7l0,0c0.6-4.2,4.5-7.2,8.7-6.6
		l11.4,1.6C122.4,122.6,125.3,126.5,124.7,130.7L124.7,130.7z"/>
</g>
<path class="st19" d="M288.8,173.4c-0.5,3.6-3.9,6.2-7.5,5.6l-9.8-1.4c-3.6-0.5-6.2-3.9-5.6-7.5l0,0c0.5-3.6,3.9-6.2,7.5-5.6
	l9.8,1.4C286.8,166.4,289.3,169.8,288.8,173.4L288.8,173.4z"/>
<polygon class="st19" points="281.4,167 286.9,167.8 289.9,170.8 270.6,178.5 267.6,175.6 "/>
<path class="st0" d="M291.3,175.9c-0.5,3.6-3.9,6.2-7.5,5.6l-9.8-1.4c-3.6-0.5-6.2-3.9-5.6-7.5l0,0c0.5-3.6,3.9-6.2,7.5-5.6l9.8,1.4
	C289.3,168.9,291.8,172.2,291.3,175.9L291.3,175.9z"/>
<g>
	<path class="st19" d="M322.5,164.4c-0.5,3.6-3.9,6.2-7.5,5.6l-9.8-1.4c-3.6-0.5-6.2-3.9-5.6-7.5l0,0c0.5-3.6,3.9-6.2,7.5-5.6
		l9.8,1.4C320.5,157.4,323,160.8,322.5,164.4L322.5,164.4z"/>
	<polygon class="st19" points="315.1,158 320.6,158.8 323.6,161.8 304.2,169.5 301.3,166.6 	"/>
	<path class="st0" d="M325,166.9c-0.5,3.6-3.9,6.2-7.5,5.6l-9.8-1.4c-3.6-0.5-6.2-3.9-5.6-7.5l0,0c0.5-3.6,3.9-6.2,7.5-5.6l9.8,1.4
		C323,159.9,325.5,163.2,325,166.9L325,166.9z"/>
</g>
<g>
	<path class="st19" d="M367.6,103.9c-0.5,3.6-3.9,6.2-7.5,5.6l-9.8-1.4c-3.6-0.5-6.2-3.9-5.6-7.5l0,0c0.5-3.6,3.9-6.2,7.5-5.6
		l9.8,1.4C365.6,96.9,368.1,100.3,367.6,103.9L367.6,103.9z"/>
	<polygon class="st19" points="360.2,97.5 365.7,98.2 368.7,101.3 349.3,109 346.4,106.1 	"/>
	<path class="st0" d="M370.1,106.4c-0.5,3.6-3.9,6.2-7.5,5.6l-9.8-1.4c-3.6-0.5-6.2-3.9-5.6-7.5l0,0c0.5-3.6,3.9-6.2,7.5-5.6
		l9.8,1.4C368.1,99.4,370.6,102.7,370.1,106.4L370.1,106.4z"/>
</g>
<g>
	<path class="st19" d="M290.8,159.8c-0.5,3.6-3.9,6.2-7.5,5.6l-9.8-1.4c-3.6-0.5-6.2-3.9-5.6-7.5l0,0c0.5-3.6,3.9-6.2,7.5-5.6
		l9.8,1.4C288.7,152.8,291.3,156.1,290.8,159.8L290.8,159.8z"/>
	<polygon class="st19" points="283.3,153.3 288.9,154.1 291.9,157.2 272.5,164.9 269.6,162 	"/>
	<path class="st0" d="M293.2,162.3c-0.5,3.6-3.9,6.2-7.5,5.6l-9.8-1.4c-3.6-0.5-6.2-3.9-5.6-7.5l0,0c0.5-3.6,3.9-6.2,7.5-5.6
		l9.8,1.4C291.2,155.3,293.8,158.6,293.2,162.3L293.2,162.3z"/>
</g>
<path class="st10" d="M280.1,305.5c0.1,6.9-4.8,13.8-11.2,15.4c-6.3,1.6-11.5-2.8-11.7-9.8c-0.1-6.9,4.8-13.8,11.2-15.4
	C274.7,294.2,279.9,298.6,280.1,305.5z"/>
<polygon class="st20" points="264.9,321.8 261.8,319.9 275.2,296.6 279.3,298.9 "/>
<path class="st2" d="M283.9,307.8c0.1,7-4.8,13.8-11.2,15.4c-6.3,1.6-11.5-2.8-11.7-9.8c-0.1-6.9,4.8-13.8,11.2-15.4
	C278.5,296.4,283.7,300.8,283.9,307.8z"/>
<path class="st9" d="M279.2,308.9c0.1,4.1-2.9,8.2-6.6,9.1c-3.7,0.9-6.9-1.7-6.9-5.8c-0.1-4.1,2.9-8.2,6.6-9.1
	C276,302.2,279.1,304.8,279.2,308.9z"/>
<path class="st10" d="M312.6,331.7l-39.9-22.3c-0.6-0.4-1.5-0.1-1.8,0.5c-0.4,0.6-0.1,1.5,0.5,1.8l39.9,22.3L312.6,331.7z"/>
<path class="st10" d="M315.7,325.5c0.5,7.8-4.8,15.7-11.8,17.7c-7,2-13.1-2.7-13.5-10.4c-0.5-7.8,4.8-15.7,11.8-17.7
	C309.2,313,315.2,317.7,315.7,325.5z"/>
<polygon class="st20" points="299.4,344.4 295.8,342.5 309.9,315.7 314.5,318.2 "/>
<path class="st2" d="M320.1,327.9c0.5,7.8-4.8,15.7-11.8,17.7c-7,2-13.1-2.7-13.5-10.4c-0.5-7.8,4.8-15.7,11.8-17.7
	C313.5,315.4,319.6,320.1,320.1,327.9z"/>
<path class="st1" d="M314.9,329.4c0.3,4.6-2.9,9.3-7,10.5c-4.2,1.2-7.8-1.6-8-6.2c-0.3-4.6,2.9-9.3,7-10.5
	C311,322,314.6,324.7,314.9,329.4z"/>
<path class="st3" d="M343.2,233.1l-18.5-17.8c-2.4-2.4-5.8-4.2-10.1-4.4l-40.4-4.7l-22.4-2.2l-1.4-0.1c-0.7-0.1-1.3-0.1-2-0.1
	c-21.5-0.5-42.1,13.6-49.9,33.6l-26.1-2.5c-6.6-0.6-13,4.1-14.4,10.6l-3.1,14.3c-1,4.8,1,9.2,4.8,11.4l0,0l18.7,18.1l22.1-13.1
	l33.7,3.3l1.1,0.1l73.1,7.1c8.7,0.8,17.3-5.5,19.2-14.1l1.7-34l11.2-1.9L343.2,233.1z"/>
<polygon class="st10" points="230.7,295.4 204.1,277.9 212.5,272 235.5,282 232.8,294.5 "/>
<polygon class="st10" points="324.7,304.5 298,287 306.5,281.1 329.5,291 326.7,303.5 "/>
<path class="st9" d="M323.9,225.7c-12-0.5-35.6-1.8-35.6-1.8l52.4,12.4l2.5-3.2l-18.5-17.8c-2.4-2.4-5.6-4-9.7-4.4
	c1.2,0.1,5.1,0.9,8.5,4.2C327.6,219.2,335.8,226.2,323.9,225.7z"/>
<path class="st9" d="M348.8,245.7c-0.2-6.9-4.8-16-15.2-16.6l-40.4-4.7l-22.4-2.2l-1.4-0.1c-0.7-0.1-1.3-0.1-2-0.1
	c-21.5-0.5-42.1,13.6-49.9,33.6l-26.1-2.5c-6.6-0.6-13,4.1-14.4,10.6l-3.1,14.3c-1.4,6.5,2.8,12.3,9.4,12.9l14.5,1.4
	c0-0.3,0-0.6,0-0.8c0.9-9.6,9.2-16.6,18.5-15.7c9.3,0.9,16.1,9.4,15.2,18.9c0,0.3-0.1,0.6-0.1,0.8l21.9,2.1l1.1,0.1l37.4,3.6
	c0-0.3,0-0.6,0-0.8c0.9-9.6,9.2-16.6,18.5-15.7c9.3,0.9,16.1,9.4,15.2,18.9c0,0.3-0.1,0.5-0.1,0.8l2.1,0.2
	c8.7,0.8,17.3-5.5,19.2-14.1L348.8,245.7z"/>
<g>
	<path class="st9" d="M327,304.9l-2.6-0.3l0.1-0.8c0-0.2,0.1-0.3,0.1-0.5c0.9-9.3-5.7-17.6-14.8-18.4c-9-0.8-17.1,6-18,15.3
		c0,0.2,0,0.3,0,0.5l0,0.3l0,0.5l-61.2-5.9l0.1-0.8c0-0.2,0.1-0.3,0.1-0.5c0.4-4.5-0.9-8.9-3.7-12.4c-2.8-3.5-6.7-5.6-11.1-6.1
		c-4.4-0.4-8.7,0.9-12.1,3.8c-3.4,2.9-5.5,7-6,11.5c0,0.2,0,0.3,0,0.5l0,0.3l-0.9,0l0-0.3c0-0.2,0-0.4,0-0.6c0.5-4.7,2.7-9,6.3-12.1
		c3.6-3,8.1-4.5,12.7-4c4.6,0.4,8.8,2.7,11.7,6.4c2.9,3.7,4.3,8.3,3.8,13c0,0.1,0,0.3,0,0.4l59.3,5.7c0-0.1,0-0.3,0-0.4
		c0.9-9.8,9.5-17,19-16.1c9.5,0.9,16.5,9.6,15.6,19.4c0,0.1,0,0.3,0,0.4l1.6,0.2L327,304.9z"/>
</g>
<g>
	<path class="st3" d="M176.6,285.7l-0.9-0.2l3.5-19.2c1.4-6.6,7.9-11.3,14.5-10.7l25.5,2.5l128.2,12.3l-0.1,0.9L219.2,259l-25.5-2.5
		c-6.2-0.6-12.3,3.9-13.6,10L176.6,285.7z"/>
</g>
<rect x="213.1" y="267" transform="matrix(0.1697 -0.9855 0.9855 0.1697 -79.1092 441.1121)" class="st3" width="18.3" height="0.9"/>
<rect x="295.4" y="274.5" transform="matrix(0.1694 -0.9855 0.9855 0.1694 -17.1227 529.6517)" class="st3" width="20.5" height="0.9"/>
<polygon class="st3" points="264.5,293.3 263.6,293.2 269.1,261.1 270,261.3 "/>
<path class="st3" d="M177,263.7c0.1-0.5,0.3-1,0.4-1.5l-3.7-2.8c-1.5-1.1-3.3,0.4-4.1,3.3c-0.8,2.9-0.2,6.1,1.2,7.2l4.2,3.1
	L177,263.7z"/>
<path class="st3" d="M179,262.3l-1.6-0.2c-0.2,0.5-0.3,1-0.4,1.5l-2,9.3l3,0.3c3,0.3,5.7-1.9,6-5C184.2,265.3,182,262.6,179,262.3z"
	/>
<path class="st1" d="M176.8,264.2c0.1-0.5,0.2-0.9,0.4-1.3l-3.2-2.4c-1.3-1-2.9,0.3-3.6,2.9c-0.7,2.5-0.2,5.3,1.1,6.3l3.6,2.7
	L176.8,264.2z"/>
<path class="st1" d="M178.6,263l-1.4-0.1c-0.2,0.4-0.3,0.9-0.4,1.3l-1.7,8.1l2.6,0.2c2.6,0.3,5-1.7,5.2-4.3
	C183.2,265.6,181.2,263.2,178.6,263z"/>
<path class="st3" d="M161.4,249.3l-3.6-2.7l-2,9.5l3.1,2.3c1.3,1,2.9-0.3,3.6-2.9C163.2,253.1,162.7,250.3,161.4,249.3z"/>
<path class="st9" d="M202,238.6l-1.8,0.4l-26.4-2c0,0-8.8-0.1-8.7,4.2c0.1,4.3,10.2,10.2,10.2,10.2s4.3,3.3,6.1,2.1
	c7.7-5.2,34.6,0.2,34.6,0.2l-1.6-9.5L202,238.6z"/>
<path class="st3" d="M200.2,239.1l15.9,14.8c0,0,5-14.1,22.2-26.2c0,0,3.7-2-2.8-7.2c-6.6-5.1-9.3-6.8-9.3-6.8s-3-2.1-8.5,2.1
	C211.5,220.4,203.6,229.6,200.2,239.1z"/>
<path class="st1" d="M200.8,239.2l14.4,13.4c0,0,4-12.9,19.5-23.9c0,0,5.4-2.6-0.6-7.3c-5.9-4.6-8.8-5.9-8.8-5.9s-3.2-2.6-8.7,2.5
	C211.5,222.8,203.9,230.6,200.8,239.2z"/>
<path class="st10" d="M170,256.9c-0.1,0.2-0.3,0.2-0.4,0.1l-5.6-4.1c-0.1-0.1-0.2-0.3,0-0.5l0,0c0.1-0.2,0.3-0.2,0.4-0.1l5.6,4.1
	C170,256.6,170.1,256.8,170,256.9L170,256.9z"/>
<path class="st10" d="M169.6,258.8c-0.1,0.2-0.3,0.2-0.4,0.1l-5.6-4.1c-0.1-0.1-0.2-0.3,0-0.5l0,0c0.1-0.2,0.3-0.2,0.4-0.1l5.6,4.1
	C169.7,258.4,169.7,258.6,169.6,258.8L169.6,258.8z"/>
<path class="st10" d="M169.3,260.2c-0.1,0.1-0.3,0.2-0.4,0.1l-5.6-4.1c-0.1-0.1-0.2-0.3,0-0.5l0,0c0.1-0.2,0.3-0.2,0.4-0.1l5.6,4.1
	C169.4,259.8,169.4,260.1,169.3,260.2L169.3,260.2z"/>
<path class="st10" d="M169,262c-0.1,0.2-0.3,0.2-0.4,0.1l-5.6-4.1c-0.1-0.1-0.2-0.3,0-0.5l0,0c0.1-0.2,0.3-0.2,0.4-0.1l5.6,4.1
	C169.1,261.7,169.1,261.9,169,262L169,262z"/>
<path class="st10" d="M168.7,263.7c-0.1,0.2-0.3,0.2-0.4,0.1l-5.6-4.1c-0.1-0.1-0.2-0.3-0.1-0.5l0,0c0.1-0.1,0.3-0.2,0.4-0.1
	l5.6,4.1C168.7,263.3,168.8,263.5,168.7,263.7L168.7,263.7z"/>
<path class="st10" d="M168.3,265.5c-0.1,0.2-0.3,0.2-0.4,0.1l-5.6-4.1c-0.1-0.1-0.2-0.3,0-0.5l0,0c0.1-0.1,0.3-0.2,0.4-0.1l5.6,4.1
	C168.4,265.1,168.4,265.3,168.3,265.5L168.3,265.5z"/>
<path class="st10" d="M168,266.9c-0.1,0.2-0.3,0.2-0.4,0.1l-5.6-4.1c-0.1-0.1-0.2-0.3,0-0.4l0,0c0.1-0.2,0.3-0.2,0.4-0.1l5.6,4.1
	C168.1,266.6,168.1,266.8,168,266.9L168,266.9z"/>
<path class="st9" d="M148.9,261.9c-1.7,1.8-1.7,4.5,0,6l22.3,20.7c1.6,1.5,4.3,1.3,6-0.5l0,0c1.7-1.8,1.7-4.5,0-6l-22.3-20.7
	C153.2,259.9,150.5,260.1,148.9,261.9L148.9,261.9z"/>
<g>
	<path class="st3" d="M231,289.9c0.3,1.5,0.3,3.1,0.2,4.7c0,0.3-0.1,0.6-0.1,0.8l21.9,2.1l1.1,0.1l37.4,3.6c0-0.3,0-0.6,0-0.8
		c0.2-1.6,0.5-3.1,1.1-4.6L231,289.9z"/>
	<path class="st3" d="M324.9,299c0.3,1.5,0.3,3.1,0.2,4.7c0,0.3-0.1,0.5-0.1,0.8l2.1,0.2c4.8,0.5,9.5-1.2,13.1-4.3L324.9,299z"/>
	<path class="st3" d="M175.2,284.5c-0.3,0-0.6,0-1,0c1.4,3.4,4.6,5.9,8.8,6.3l14.5,1.4c0-0.3,0-0.6,0-0.8c0.2-1.6,0.5-3.1,1.1-4.6
		L175.2,284.5z"/>
</g>
<path class="st9" d="M186.1,285.9c-0.3,2.9-2.8,5-5.7,4.7l-6.9-0.7c-2.9-0.3-5-2.8-4.7-5.7l0,0c0.3-2.9,2.8-5,5.7-4.7l6.9,0.7
	C184.3,280.5,186.4,283,186.1,285.9L186.1,285.9z"/>
<path class="st3" d="M350,299.5c-0.4,4.1-4,7.1-8.1,6.7l-9.9-1c-4.1-0.4-7.1-4-6.7-8.1l0,0c0.4-4.1,4-7.1,8.1-6.7l9.9,1
	C347.4,291.7,350.4,295.4,350,299.5L350,299.5z"/>
<path class="st3" d="M265.6,267.8c0,0.4-0.4,0.8-0.9,0.7l-4.7-0.5c-0.4,0-0.8-0.4-0.7-0.9l0,0c0-0.4,0.4-0.8,0.9-0.7l4.7,0.5
	C265.3,267,265.6,267.4,265.6,267.8L265.6,267.8z"/>
<path class="st3" d="M303.6,271.5c0,0.4-0.4,0.8-0.9,0.7l-4.7-0.5c-0.4,0-0.8-0.4-0.7-0.9l0,0c0-0.4,0.4-0.8,0.9-0.7l4.7,0.5
	C303.4,270.7,303.7,271.1,303.6,271.5L303.6,271.5z"/>
<path class="st10" d="M348.1,257.9c-0.3-0.1-0.6-0.2-0.9-0.2c-1.9-0.1-3.6,1.3-3.7,3.3l-0.2,3c-0.1,1.9,1.3,3.6,3.3,3.7
	c0.3,0,0.7,0,1-0.1L348.1,257.9z"/>
<path class="st6" d="M348.1,258.8c-0.2-0.1-0.5-0.1-0.7-0.2c-1.6-0.1-3,1.1-3.1,2.8l-0.2,2.6c-0.1,1.6,1.1,3,2.8,3.1
	c0.3,0,0.6,0,0.8-0.1L348.1,258.8z"/>
<path class="st10" d="M348.5,249.2c-0.2-0.1-0.5-0.1-0.7-0.1c-1.6-0.1-3,1.1-3.1,2.7l-0.2,2.5c-0.1,1.6,1.1,3,2.7,3
	c0.3,0,0.5,0,0.8-0.1L348.5,249.2z"/>
<path class="st17" d="M348.5,249.9c-0.2-0.1-0.4-0.1-0.6-0.1c-1.4-0.1-2.5,0.9-2.6,2.3l-0.1,2.1c-0.1,1.4,0.9,2.5,2.3,2.6
	c0.2,0,0.5,0,0.7-0.1L348.5,249.9z"/>
<path class="st9" d="M255.9,223.1c-8,1.4-16-4.2-23.5-10.8c-7.5-6.6,18.5-8.3,18.5-8.3c-11.2-0.8-20.3,2.5-24.6,4.4l0,0l0,0
	c-1.8,0.8-2.8,1.4-2.8,1.4s0,0,0.1,0c-1.5,0.8-3,1.6-3.3,1.8c0,0,3.5-1.9,5.4-0.9c0,0,0,0,0,0c1.8,0.9,4.7,2.7,8.7,5.5
	c4.2,3,7.5,6,9.5,7.9c2,1.9-3.1,4.7-3.1,4.7l5.2-2.6C245.9,226.3,259.4,222.5,255.9,223.1z"/>
<path class="st1" d="M160.7,249.7l-3.1-2.3l-1.8,8.2l2.7,2c1.1,0.8,2.5-0.3,3.1-2.5C162.2,253,161.8,250.6,160.7,249.7z"/>
<path class="st3" d="M182.5,280.4c1.4,1,2.3,2.8,2.1,4.7c-0.3,2.9-2.8,5-5.7,4.7l-6.9-0.7c-0.4,0-0.8-0.1-1.1-0.2
	c0.7,0.5,1.6,0.9,2.6,1l6.9,0.7c2.9,0.3,5.4-1.8,5.7-4.7C186.3,283.4,184.8,281.2,182.5,280.4z"/>
<path class="st9" d="M345,291.6c2.3,1.4,3.8,4.1,3.5,7.1c-0.4,4.1-4,7.1-8.1,6.7l-9.9-1c-0.5,0-1-0.1-1.4-0.3c0.9,0.6,2,1,3.2,1.1
	l9.9,1c4.1,0.4,7.7-2.6,8.1-6.7C350.6,295.9,348.4,292.6,345,291.6z"/>
<path class="st10" d="M183.3,314c-0.7,7.5-7,14.3-14,15.2c-7,0.9-12.1-4.5-11.4-12c0.7-7.5,7-14.3,14-15.2
	C178.9,301.2,184,306.5,183.3,314z"/>
<polygon class="st20" points="164.9,329.7 161.8,327.3 179.2,303.8 183.2,306.9 "/>
<path class="st2" d="M187.1,317c-0.7,7.5-7,14.3-14,15.2c-7,0.9-12.1-4.5-11.4-12c0.7-7.5,7-14.3,14-15.2
	C182.7,304.1,187.8,309.5,187.1,317z"/>
<path class="st9" d="M181.9,317.6c-0.4,4.5-4.1,8.5-8.3,9c-4.2,0.5-7.2-2.7-6.8-7.1c0.4-4.5,4.1-8.5,8.3-9
	C179.3,310,182.4,313.1,181.9,317.6z"/>
<path class="st10" d="M215.4,348l-40.1-29.2c-0.7-0.5-1.6-0.3-2,0.3c-0.5,0.6-0.3,1.6,0.3,2l40.2,29.2L215.4,348z"/>
<path class="st10" d="M220.1,342.1c-0.9,9.4-8.7,17.9-17.5,19c-8.8,1.1-15.1-5.6-14.2-15c0.9-9.4,8.7-17.9,17.5-19
	C214.6,326,221,332.7,220.1,342.1z"/>
<polygon class="st20" points="197.1,361.7 193.2,358.7 215,329.3 220.1,333.1 "/>
<path class="st2" d="M224.9,345.8c-0.9,9.4-8.7,17.9-17.5,19c-8.8,1.1-15.1-5.6-14.2-15c0.9-9.4,8.7-17.9,17.5-19
	C219.4,329.6,225.8,336.4,224.9,345.8z"/>
<path class="st1" d="M218.4,346.6c-0.5,5.6-5.2,10.6-10.4,11.3c-5.2,0.7-9-3.3-8.5-8.9c0.5-5.6,5.2-10.6,10.4-11.3
	C215.2,337,219,341,218.4,346.6z"/>
<path class="st3" d="M175.3,280.4l-20.5-19c-0.5-0.5-1.1-0.7-1.7-0.9c-1.1,0.6-1.4,1.6-0.5,2.4l15.3,14.3c0.1,0.1,0.2,0.1,0.2,0.2
	l2.1,2C171.3,280.3,173.4,280.7,175.3,280.4z"/>
<path class="st3" d="M175,280.4c0,0,7.7,0.4,9,1.7c1.3,1.4-0.1-1.1-0.4-1.3c-0.3-0.2,0.3-0.9-9.3-1.4l-0.5,0.6L175,280.4z"/>
<path class="st3" d="M339.9,268.3l0.9-18.8c-0.1-6.3-4.4-14.6-13.9-15.1l-36.9-4.3l-20.5-2l-1.3-0.1c-0.6-0.1-1.2-0.1-1.8,0
	c-19-0.5-37.2,11.6-44.8,29L339.9,268.3z"/>
<path class="st1" d="M336.9,266.8l0.8-16.7c-0.2-5.6-4.2-13-13.1-13.6l-34.6-4l-19.2-1.9l-1.2-0.1c-0.6-0.1-1.1-0.1-1.7-0.1
	c-17.9-0.5-34.9,10.2-42,25.6L336.9,266.8z"/>
<polygon class="st3" points="272.1,261.4 268.9,260.9 274.2,230.1 277.5,230.6 "/>
<polygon class="st3" points="308.8,265.3 306.7,264.9 312.1,233.9 314.2,234.2 "/>
<path class="st3" d="M240.2,258c-0.3,3.1-3,5.3-6.1,5l-7.4-0.7c-3.1-0.3-5.3-3-5-6.1l0,0c0.3-3.1,3-5.3,6.1-5l7.4,0.7
	C238.2,252.2,240.5,254.9,240.2,258L240.2,258z"/>
<path class="st9" d="M235.9,252c1.2,1.1,2,2.8,1.8,4.6c-0.3,3.1-3,5.3-6.1,5l-7.4-0.7c-0.3,0-0.5-0.1-0.8-0.1c0.9,0.8,2,1.3,3.2,1.4
	l7.4,0.7c3.1,0.3,5.8-1.9,6.1-5C240.5,255.2,238.6,252.6,235.9,252z"/>
<g>
	<g>
		<path class="st0" d="M415.8,299.5c10.4-7.4,20.6-15.1,30.7-23c0.6-0.5-0.3-1.4-0.9-0.9c-9.9,7.9-20.1,15.5-30.4,22.8
			C414.6,298.8,415.2,299.9,415.8,299.5L415.8,299.5z"/>
	</g>
</g>
<g>
	<g>
		<path class="st0" d="M369.5,220.5c11.2-0.8,22.4,0,33.5-1.3c0.8-0.1,0.8-1.3,0-1.2c-11.1,1.3-22.4,0.5-33.5,1.3
			C368.7,219.3,368.6,220.5,369.5,220.5L369.5,220.5z"/>
	</g>
</g>
<g>
	<g>
		<path class="st0" d="M363.5,174c8.7,2.4,16.7,6.7,25.5,8.7c0.8,0.2,1.1-1,0.3-1.2c-8.8-2-16.8-6.3-25.5-8.7
			C363.1,172.6,362.7,173.8,363.5,174L363.5,174z"/>
	</g>
</g>
<g>
	<g>
		<path class="st0" d="M309.8,182c7.7,1.1,15.2,2.7,22.5,5.2c0.8,0.3,1.1-0.9,0.3-1.2c-7.3-2.5-14.8-4.1-22.5-5.2
			C309.4,180.7,309,181.9,309.8,182L309.8,182z"/>
	</g>
</g>
<g>
	<g>
		<path class="st0" d="M190,144.3c10.2,2.7,19.5,8.1,29.8,10.3c0.8,0.2,1.1-1,0.3-1.2c-10.4-2.2-19.6-7.6-29.8-10.3
			C189.5,142.9,189.2,144.1,190,144.3L190,144.3z"/>
	</g>
</g>
<g>
	<g>
		<path class="st0" d="M177.4,0.5c10.2,7.6,21,14.4,32.5,19.8c0.7,0.3,1.4-0.7,0.6-1.1C199,13.9,188.3,7,178-0.5
			C177.4-1,176.7,0.1,177.4,0.5L177.4,0.5z"/>
	</g>
</g>
<g>
	<g>
		<path class="st0" d="M325.8,100.9c6.3,3.5,12.5,7.3,18.6,11.2c0.7,0.4,1.3-0.6,0.6-1.1c-6.1-3.9-12.3-7.7-18.6-11.2
			C325.7,99.4,325,100.5,325.8,100.9L325.8,100.9z"/>
	</g>
</g>
<g>
	<g>
		<path class="st0" d="M276.4,126.2c9,2,17.3,6,25.7,9.7c0.7,0.3,1.4-0.8,0.6-1.1c-8.5-3.8-16.9-7.8-26-9.8
			C275.9,124.9,275.6,126.1,276.4,126.2L276.4,126.2z"/>
	</g>
</g>
<g>
	<g>
		<path class="st0" d="M162.7,211.4c9.6-0.8,19.3-1,28.9-1.8c0.8-0.1,0.8-1.3,0-1.2c-9.6,0.8-19.3,1-28.9,1.8
			C161.9,210.2,161.9,211.4,162.7,211.4L162.7,211.4z"/>
	</g>
</g>
<g>
	<g>
		<path class="st0" d="M63.3,234c14.2-1.8,28.6-1,42.9-1.3c0.8,0,0.8-1.3,0-1.2c-14.3,0.3-28.7-0.6-42.9,1.3
			C62.6,232.9,62.5,234.1,63.3,234L63.3,234z"/>
	</g>
</g>
<g>
	<g>
		<path class="st0" d="M88.9,307.1c10.4-2.2,20.5-5.6,30.9-7.7c0.8-0.2,0.5-1.4-0.3-1.2c-10.4,2.2-20.5,5.6-30.9,7.7
			C87.8,306.1,88.1,307.3,88.9,307.1L88.9,307.1z"/>
	</g>
</g>
<g>
	<g>
		<path class="st0" d="M96.8,383.9c12-5.3,24.3-9.5,36.7-13.9c0.8-0.3,0.4-1.5-0.3-1.2c-12.4,4.4-24.9,8.6-37,14
			C95.4,383.2,96.1,384.3,96.8,383.9L96.8,383.9z"/>
	</g>
</g>
<g>
	<g>
		<path class="st0" d="M223.1,322.2c9.7-3.2,19.4-6.3,29.1-9.5c0.8-0.3,0.4-1.5-0.3-1.2c-9.7,3.2-19.4,6.3-29.1,9.5
			C222,321.2,222.3,322.4,223.1,322.2L223.1,322.2z"/>
	</g>
</g>
<g>
	<g>
		<path class="st0" d="M163,415.6c9.1-5.9,18.7-10.9,28.5-15.6c0.7-0.4,0.1-1.4-0.6-1.1c-9.8,4.7-19.4,9.8-28.5,15.6
			C161.7,414.9,162.3,416,163,415.6L163,415.6z"/>
	</g>
</g>
<g>
	<g>
		<path class="st0" d="M252,408.9c8.6-5.5,17.3-10.9,25.3-17.2c0.6-0.5-0.3-1.4-0.9-0.9c-7.9,6.3-16.5,11.6-25,17
			C250.7,408.3,251.3,409.3,252,408.9L252,408.9z"/>
	</g>
</g>
<g>
	<g>
		<path class="st0" d="M326.3,408.3c7.6-6.2,15.2-12.4,22.4-19c0.6-0.6-0.3-1.4-0.9-0.9c-7.2,6.7-14.8,12.9-22.4,19
			C324.8,407.9,325.6,408.8,326.3,408.3L326.3,408.3z"/>
	</g>
</g>
<g>
	<g>
		<path class="st0" d="M337.9,336.4c5.1-3.4,10-7.1,15.1-10.5c0.7-0.4,0-1.5-0.6-1.1c-5.1,3.4-10,7.1-15.1,10.5
			C336.6,335.7,337.2,336.8,337.9,336.4L337.9,336.4z"/>
	</g>
</g>
<g>
	<g>
		<path class="st0" d="M351.5,368c4.1-3.9,9-6.9,13.1-10.8c0.6-0.6-0.3-1.4-0.9-0.9c-4.1,3.9-9,6.9-13.1,10.8
			C350.1,367.7,350.9,368.6,351.5,368L351.5,368z"/>
	</g>
</g>
<g>
	<g>
		<path class="st0" d="M495.5,208.3c3.8,0.2,7.4,1.1,11.2,0.9c0.8,0,0.8-1.3,0-1.2c-3.8,0.2-7.5-0.7-11.2-0.9
			C494.7,207,494.7,208.3,495.5,208.3L495.5,208.3z"/>
	</g>
</g>
<g>
	<g>
		<path class="st0" d="M424.4,191.5c3.5,1.3,6.8,3.3,10.5,4.2c0.8,0.2,1.1-1,0.3-1.2c-3.7-1-6.9-2.9-10.5-4.2
			C424,190,423.7,191.2,424.4,191.5L424.4,191.5z"/>
	</g>
</g>
<g>
	<g>
		<path class="st0" d="M495.7,197.9c5.2,2.3,10.6,4.1,16,5.8c0.8,0.3,1.1-1,0.3-1.2c-5.3-1.7-10.6-3.5-15.7-5.7
			C495.6,196.5,495,197.6,495.7,197.9L495.7,197.9z"/>
	</g>
</g>
<g>
	<g>
		<path class="st0" d="M433.1,238.5c6.4-1.7,12.7-3.7,19.1-5.1c0.8-0.2,0.5-1.4-0.3-1.2c-6.5,1.3-12.8,3.3-19.1,5.1
			C432,237.6,432.3,238.8,433.1,238.5L433.1,238.5z"/>
	</g>
</g>
<g>
	<g>
		<path class="st0" d="M15,152.8c12.9,1.8,25.7,3.7,38.6,5.5c0.8,0.1,1.1-1.1,0.3-1.2c-12.9-1.8-25.7-3.7-38.6-5.5
			C14.6,151.4,14.2,152.6,15,152.8L15,152.8z"/>
	</g>
</g>
<g>
	<g>
		<path class="st0" d="M38.2,75.2c18,7.5,36.7,13.4,54.3,21.8c0.7,0.3,1.4-0.7,0.6-1.1C75.3,87.6,56.6,81.6,38.5,74
			C37.7,73.7,37.4,74.9,38.2,75.2L38.2,75.2z"/>
	</g>
</g>
<g>
	<g>
		<path class="st0" d="M9.5,290.3c8.2-2.3,16.6-3.5,24.9-5.4c0.8-0.2,0.5-1.4-0.3-1.2c-8.3,1.9-16.7,3.1-24.9,5.4
			C8.4,289.3,8.7,290.5,9.5,290.3L9.5,290.3z"/>
	</g>
</g>
<g>
	<g>
		<path class="st0" d="M173.3,68.1c8.5,4.2,17,8.5,25.5,12.7c0.7,0.4,1.4-0.7,0.6-1.1c-8.5-4.2-17-8.5-25.5-12.7
			C173.3,66.7,172.6,67.8,173.3,68.1L173.3,68.1z"/>
	</g>
</g>
<g>
	<g>
		<path class="st0" d="M422.9,138.6c11.8,8.5,23.7,16.7,36.3,24c0.7,0.4,1.3-0.7,0.6-1.1c-12.6-7.3-24.5-15.5-36.3-24
			C422.9,137.1,422.3,138.1,422.9,138.6L422.9,138.6z"/>
	</g>
</g>
<g>
	<g>
		<path class="st0" d="M415.8,160.5c8.7,5.9,18.1,10.7,27.4,15.3c0.7,0.4,1.4-0.7,0.6-1.1c-9.4-4.7-18.7-9.4-27.4-15.3
			C415.7,158.9,415.1,160,415.8,160.5L415.8,160.5z"/>
	</g>
</g>
<g>
	<g>
		<path class="st0" d="M238.2,183.4c8.2,1.6,16.5,2.6,24.8,3.6c0.8,0.1,0.8-1.2,0-1.2c-8.2-0.9-16.4-2-24.5-3.5
			C237.7,182.1,237.4,183.3,238.2,183.4L238.2,183.4z"/>
	</g>
</g>
<g>
	<g>
		<path class="st0" d="M374.8,251.7c6.9-2.2,14.1-3.5,21-5.8c0.8-0.2,0.4-1.5-0.3-1.2c-6.9,2.2-14.1,3.5-21,5.8
			C373.7,250.8,374,252,374.8,251.7L374.8,251.7z"/>
	</g>
</g>
<g>
	<g>
		<path class="st0" d="M232.6,364c5.7-2.5,11.2-5.4,16.7-8.4c0.7-0.4,0.1-1.5-0.6-1.1c-5.5,3-11,5.9-16.7,8.4
			C231.3,363.2,231.9,364.3,232.6,364L232.6,364z"/>
	</g>
</g>
<g>
	<g>
		<path class="st0" d="M195.6,300.9c5.1-1.4,10.2-3.1,15-5.4c0.7-0.3,0.1-1.4-0.6-1.1c-4.7,2.2-9.7,3.8-14.7,5.2
			C194.5,299.9,194.9,301.1,195.6,300.9L195.6,300.9z"/>
	</g>
</g>
<g>
	<g>
		<path class="st0" d="M448.8,257c6.9-4.7,14-9.2,21.1-13.7c0.7-0.4,0.1-1.5-0.6-1.1c-7.1,4.5-14.2,8.9-21.1,13.7
			C447.5,256.4,448.1,257.5,448.8,257L448.8,257z"/>
	</g>
</g>
<g>
	<g>
		<path class="st0" d="M373.2,292.8c6.5-3.6,12.9-7.5,19.3-11.4c0.7-0.4,0.1-1.5-0.6-1.1c-6.4,3.9-12.8,7.8-19.3,11.4
			C371.8,292.2,372.5,293.2,373.2,292.8L373.2,292.8z"/>
	</g>
</g>
<g>
	<g>
		<path class="st0" d="M244.3,66.1c7.9,4,15.7,8.2,23.5,12.4c0.7,0.4,1.3-0.7,0.6-1.1C260.7,73.2,252.9,69,245,65
			C244.2,64.7,243.6,65.7,244.3,66.1L244.3,66.1z"/>
	</g>
</g>
<g>
	<g>
		<path class="st0" d="M489.5,228.6c7.1-5.3,14.7-9.8,21.8-15.1c0.6-0.5,0-1.6-0.6-1.1c-7.1,5.3-14.7,9.8-21.8,15.1
			C488.2,228,488.8,229.1,489.5,228.6L489.5,228.6z"/>
	</g>
</g>
<g>
	<g>
		<path class="st0" d="M460.7,178.1c7,4,14.4,7,22,9.7c0.8,0.3,1.1-0.9,0.3-1.2c-7.5-2.7-14.8-5.7-21.7-9.6
			C460.7,176.7,460,177.8,460.7,178.1L460.7,178.1z"/>
	</g>
</g>
<g>
	<g>
		<path class="st0" d="M468.7,199.7c3.9,1.2,7.6,2.7,11.7,3c0.8,0.1,0.8-1.2,0-1.2c-4-0.3-7.6-1.8-11.4-3
			C468.3,198.2,467.9,199.4,468.7,199.7L468.7,199.7z"/>
	</g>
</g>
<g>
	<g>
		<path class="st0" d="M469.8,223.7c3.3-1.4,6.9-2,10.2-3.4c0.7-0.3,0.1-1.4-0.6-1.1c-3.3,1.4-6.9,2-10.2,3.4
			C468.4,222.9,469.1,224,469.8,223.7L469.8,223.7z"/>
	</g>
</g>
<path class="st5" d="M629.9,158.1l-11.1,21.4c5.9,4.1,13.1,8.2,21.2,11.9c6.8,3.1,13.4,5.4,19.5,7.1l11.5-22.1
	c-5.5-3.7-12.1-7.3-19.4-10.6C643.9,162.3,636.5,159.7,629.9,158.1z"/>
<path class="st10" d="M628.2,181.6c-0.3,1-1.5,1.6-2.5,1.3l0,0c-1-0.3-1.6-1.5-1.3-2.5l0,0c0.3-1,1.5-1.6,2.5-1.3l0,0
	C627.9,179.4,628.5,180.5,628.2,181.6L628.2,181.6z"/>
<path class="st10" d="M643.7,190.2c-0.3,1-1.5,1.6-2.5,1.3l0,0c-1-0.3-1.6-1.5-1.3-2.5l0,0c0.3-1,1.5-1.6,2.5-1.3l0,0
	C643.4,188,644,189.2,643.7,190.2L643.7,190.2z"/>
<path class="st10" d="M665.6,203.4c-1.4,2.7-4.6,3.8-7.2,2.4l0,0c-2.6-1.4-3.6-4.7-2.2-7.3l11.2-22c1.4-2.7,4.6-3.8,7.2-2.4l0,0
	c2.6,1.4,3.6,4.7,2.2,7.3L665.6,203.4z"/>
<path class="st5" d="M661.8,204c-1.1,1.9-3.5,2.6-5.4,1.6l0,0c-1.9-1.1-2.6-3.5-1.6-5.4l2.3-4.1c1.1-1.9,3.5-2.6,5.4-1.6l0,0
	c1.9,1.1,2.6,3.5,1.6,5.4L661.8,204z"/>
<path class="st9" d="M626.7,175.4c-3.8-2-7.9-3.9-10.9,0.6c-3,4.6,2.2,7.6,5.5,9.4c3.7,2,7.7,3.8,10.7-0.4c0.1-0.1,0.1-0.1,0.2-0.3
	c0.1-0.1,0.1-0.2,0.1-0.3C634.2,179.8,630.4,177.5,626.7,175.4z M622,184.2c-2.9-1.6-6.7-3.2-4.9-7.4c1.8-4.2,6.3-1.4,8.9,0
	c2.9,1.6,6.7,3.2,4.9,7.4C628.4,188,624.9,185.8,622,184.2z"/>
<path class="st9" d="M644.5,185c-3.8-2-7.9-3.9-10.9,0.6c-3,4.6,2.2,7.6,5.5,9.4c3.7,2,7.7,3.8,10.7-0.4c0.1-0.1,0.1-0.1,0.2-0.3
	c0.1-0.1,0.1-0.2,0.1-0.3C651.9,189.3,648.2,187,644.5,185z M639.8,193.7c-2.9-1.6-6.7-3.2-4.9-7.4c1.8-4.2,6.3-1.4,8.9,0
	c2.9,1.6,6.7,3.2,4.9,7.4C646.1,197.5,642.7,195.3,639.8,193.7z"/>
<ellipse transform="matrix(0.4111 -0.9116 0.9116 0.4111 225.1841 694.2086)" class="st13" cx="649.9" cy="172.8" rx="14" ry="45.8"/>
<path class="st8" d="M665.8,138.2c-12.8-5.7-27.8,0.5-33.6,13.7l-3.7,8.4c0,0,0,10,17.8,16.6c17.7,6.6,28.3,7.3,29.2,5.2l4-9.1
	C685.1,159.6,678.6,143.9,665.8,138.2z"/>
</svg>
