<?xml version="1.0" encoding="UTF-8"?>
<svg width="35px" height="35px" viewBox="0 0 35 35" version="1.1" xmlns="http://www.w3.org/2000/svg" xmlns:xlink="http://www.w3.org/1999/xlink">
    <!-- Generator: Sketch 47.1 (45422) - http://www.bohemiancoding.com/sketch -->
    <title>Instagram Copy</title>
    <desc>Created with Sketch.</desc>
    <defs></defs>
    <g id="Page-1" stroke="none" stroke-width="1" fill="none" fill-rule="evenodd">
        <g id="Footer_Web" transform="translate(-172.000000, -894.000000)">
            <g id="Instagram-Copy" transform="translate(172.000000, 894.000000)">
                <circle id="Oval-Copy-3" fill="#4A4A4A" cx="17.5" cy="17.5" r="17.5"></circle>
                <g id="noun_1382442_cc" transform="translate(8.166667, 8.166667)" fill-rule="nonzero" fill="#DEDEDE">
                    <g id="Group" transform="translate(0.000000, 0.156658)">
                        <path d="M5.40350877,0.0889540351 C2.42697295,0.0889540351 0,2.51591789 0,5.49246526 L0,13.3521193 C0,16.3286667 2.42697295,18.7556281 5.40350877,18.7556281 L13.2631579,18.7556281 C16.2396937,18.7556281 18.6666667,16.3286667 18.6666667,13.3521193 L18.6666667,5.49246526 C18.6666667,2.51591544 16.2396937,0.0889540351 13.2631579,0.0889540351 L5.40350877,0.0889540351 L5.40350877,0.0889540351 Z M5.40350877,2.05386632 L13.2631579,2.05386632 C15.1851199,2.05386632 16.7017544,3.57050842 16.7017544,5.49246526 L16.7017544,13.3521193 C16.7017544,15.2740737 15.1851199,16.7907158 13.2631579,16.7907158 L5.40350877,16.7907158 C3.48154677,16.7907158 1.96491228,15.2740737 1.96491228,13.3521193 L1.96491228,5.49246526 C1.96491228,3.57050842 3.48154677,2.05386632 5.40350877,2.05386632 L5.40350877,2.05386632 Z M14.245614,3.52755053 C13.7030035,3.52755053 13.2631579,3.96739614 13.2631579,4.51000912 C13.2631579,5.05259509 13.7030035,5.49246526 14.245614,5.49246526 C14.7882,5.49246526 15.2280702,5.05259509 15.2280702,4.51000912 C15.2280702,3.96739614 14.7882,3.52755053 14.245614,3.52755053 Z M9.33333333,4.26439263 C6.49633133,4.26439263 4.1754386,6.58532491 4.1754386,9.42229474 C4.1754386,12.2592596 6.49633133,14.5801895 9.33333333,14.5801895 C12.1703348,14.5801895 14.4912281,12.2592596 14.4912281,9.42229474 C14.4912281,6.58532491 12.1703348,4.26439263 9.33333333,4.26439263 Z M9.33333333,6.22930737 C11.1084098,6.22930737 12.5263158,7.64723719 12.5263158,9.42229474 C12.5263158,11.1973474 11.1084098,12.6152772 9.33333333,12.6152772 C7.55825639,12.6152772 6.14035088,11.1973474 6.14035088,9.42229474 C6.14035088,7.64723719 7.55825639,6.22930737 9.33333333,6.22930737 Z" id="Shape"></path>
                    </g>
                </g>
            </g>
        </g>
    </g>
</svg>