<?xml version="1.0" encoding="UTF-8"?>
<svg width="35px" height="35px" viewBox="0 0 35 35" version="1.1" xmlns="http://www.w3.org/2000/svg" xmlns:xlink="http://www.w3.org/1999/xlink">
    <!-- Generator: Sketch 47.1 (45422) - http://www.bohemiancoding.com/sketch -->
    <title>Linkedin Copy</title>
    <desc>Created with Sketch.</desc>
    <defs>
        <polygon id="path-1" points="16.2910176 -1.42108547e-14 0 -1.42108547e-14 0 16.2910176 16.2910176 16.2910176 16.2910176 -1.42108547e-14"></polygon>
    </defs>
    <g id="Page-1" stroke="none" stroke-width="1" fill="none" fill-rule="evenodd">
        <g id="Footer_Web" transform="translate(-264.000000, -894.000000)">
            <g id="Linkedin-Copy" transform="translate(264.000000, 894.000000)">
                <circle id="Oval-Copy-4" fill="#4A4A4A" cx="17.5" cy="17.5" r="17.5"></circle>
                <g id="Page-1" transform="translate(9.333333, 9.333333)">
                    <mask id="mask-2" fill="white">
                        <use xlink:href="#path-1"></use>
                    </mask>
                    <g id="Clip-2"></g>
                    <path d="M3.73425294,2.73421373 C3.00858627,2.7629 2.56374314,3.0821549 2.37748824,3.67180196 C2.20756667,4.20984118 2.49182157,4.86976275 3.00035098,5.11558627 C3.41678235,5.31680196 3.84611569,5.33135098 4.27599804,5.17707647 C5.01086078,4.9134098 5.31899804,4.07368431 4.93729216,3.39317451 C4.66223333,2.9029 4.21244902,2.74025294 3.73425294,2.73421373 L3.73425294,2.73421373 Z M2.47288039,6.28746863 L2.47288039,6.41799804 C2.47288039,8.77699804 2.47356667,11.1358608 2.47027255,13.494998 C2.47013529,13.6094686 2.50046863,13.6422725 2.61562549,13.641449 C3.34403725,13.6365078 4.07258627,13.6365078 4.80099804,13.641449 C4.91766471,13.6422725 4.94621373,13.6059 4.94607647,13.4932137 C4.94305686,11.1386059 4.94388039,8.78399804 4.94346863,6.42925294 C4.94346863,6.38368431 4.93825294,6.33825294 4.93537059,6.28746863 L2.47288039,6.28746863 Z M8.76944902,7.27007647 C8.76684118,7.21531176 8.76354706,7.17372353 8.7634098,7.13213529 C8.76286078,6.89372353 8.75819412,6.65503725 8.76533137,6.41676275 C8.76876275,6.3076451 8.73197843,6.27744902 8.62491961,6.27813529 C7.89637059,6.28225294 7.16795882,6.28019412 6.43954706,6.28060588 C6.39713529,6.28060588 6.35499804,6.28472353 6.30791961,6.28705686 L6.30791961,13.6288216 C6.33688039,13.6323902 6.35774314,13.6371941 6.37874314,13.6371941 C7.13748824,13.6378804 7.89637059,13.6366451 8.65525294,13.6396647 C8.74611569,13.6400765 8.76354706,13.5998608 8.76299804,13.5216255 C8.76080196,13.1530961 8.76121373,12.7844294 8.76217451,12.4159 C8.76478235,11.3882725 8.7564098,10.3605078 8.77548824,9.3331549 C8.78866471,8.61599804 9.36280196,8.06025294 10.0796843,8.04309608 C10.5786059,8.0311549 10.9599,8.22756667 11.1699,8.70480196 C11.3204686,9.04711569 11.3455863,9.40823333 11.3461353,9.77360588 C11.3476451,11.0137039 11.3481941,12.253802 11.3442137,13.4940373 C11.3439392,13.6080961 11.3750961,13.6421353 11.4902529,13.6413118 C12.2186647,13.6365078 12.9472137,13.6363706 13.6756255,13.641449 C13.7916059,13.6422725 13.8205667,13.6076843 13.8202922,13.4941745 C13.816449,12.1456451 13.8211157,10.7971157 13.8160373,9.44858627 C13.8141157,8.93552745 13.7574294,8.42837059 13.5909392,7.93809608 C13.3956255,7.36354706 13.072802,6.88370392 12.5605667,6.54523333 C12.0896451,6.23393922 11.5623118,6.11562549 11.0060176,6.10972353 C10.3456843,6.10272353 9.74395882,6.27333137 9.25286078,6.7346451 C9.0839,6.89344902 8.94019412,7.07929216 8.76944902,7.27007647 L8.76944902,7.27007647 Z M-4.11764706e-05,15.2760176 L-4.11764706e-05,1.01495882 C0.0786058824,0.702429412 0.2079,0.414056863 0.490507843,0.239605882 C0.659194118,0.135703922 0.856429412,0.0783313725 1.04103725,-4.11764706e-05 L15.2500765,-4.11764706e-05 C15.4415471,0.083272549 15.6470176,0.144488235 15.8213314,0.254841176 C16.0933706,0.427096078 16.2142922,0.7119 16.2910176,1.01495882 L16.2910176,15.2760176 C16.2119588,15.5830569 16.0889784,15.8706059 15.8104882,16.0434098 C15.6386451,16.1500569 15.4379784,16.2100373 15.2500765,16.2910176 L1.04103725,16.2910176 C0.856429412,16.2126451 0.659331373,16.1547235 0.490507843,16.0508216 C0.20762549,15.8767824 0.0787431373,15.5884098 -4.11764706e-05,15.2760176 L-4.11764706e-05,15.2760176 Z" id="Fill-1" fill="#DEDEDE" mask="url(#mask-2)"></path>
                </g>
            </g>
        </g>
    </g>
</svg>