<?xml version="1.0" encoding="UTF-8"?>
<svg width="31px" height="24px" viewBox="0 0 31 24" version="1.1" xmlns="http://www.w3.org/2000/svg" xmlns:xlink="http://www.w3.org/1999/xlink">
    <!-- Generator: Sketch 49.3 (51167) - http://www.bohemiancoding.com/sketch -->
    <title>inverted_quotes</title>
    <desc>Created with Sketch.</desc>
    <defs></defs>
    <g id="Page-1" stroke="none" stroke-width="1" fill="none" fill-rule="evenodd" fill-opacity="0.256397192" opacity="0.568917411">
        <g id="Components-/-Testimonial-/-Center" transform="translate(-4.000000, -54.000000)" fill="#9A7AF6">
            <g id="Group-14" transform="translate(4.000000, 0.000000)">
                <path d="M30.6777344,58.203125 C26.7063604,60.1562598 24.7207031,62.4511587 24.7207031,65.0878906 C26.4134199,65.2832041 27.8131455,65.974929 28.9199219,67.1630859 C30.0266982,68.3512429 30.5800781,69.7265547 30.5800781,71.2890625 C30.5800781,72.9492271 30.0429741,74.3489526 28.96875,75.4882812 C27.8945259,76.6276099 26.5436279,77.1972656 24.9160156,77.1972656 C23.0930898,77.1972656 21.5143296,76.4567131 20.1796875,74.9755859 C18.8450454,73.4944587 18.1777344,71.6959741 18.1777344,69.5800781 C18.1777344,63.2323901 21.725876,58.2682471 28.8222656,54.6875 L30.6777344,58.203125 Z M12.8066406,58.203125 C8.80271436,60.1562598 6.80078125,62.4511587 6.80078125,65.0878906 C8.52605029,65.2832041 9.94205176,65.974929 11.0488281,67.1630859 C12.1556045,68.3512429 12.7089844,69.7265547 12.7089844,71.2890625 C12.7089844,72.9492271 12.1637424,74.3489526 11.0732422,75.4882812 C9.98274194,76.6276099 8.62370605,77.1972656 6.99609375,77.1972656 C5.17316797,77.1972656 3.60254565,76.4567131 2.28417969,74.9755859 C0.965813721,73.4944587 0.306640625,71.6959741 0.306640625,69.5800781 C0.306640625,63.2323901 3.83850635,58.2682471 10.9023438,54.6875 L12.8066406,58.203125 Z" id="inverted_quotes"></path>
            </g>
        </g>
    </g>
</svg>