<?xml version="1.0" encoding="UTF-8"?>
<svg width="36px" height="45px" viewBox="0 0 36 45" version="1.1" xmlns="http://www.w3.org/2000/svg" xmlns:xlink="http://www.w3.org/1999/xlink">
    <!-- Generator: Sketch 47.1 (45422) - http://www.bohemiancoding.com/sketch -->
    <title>3</title>
    <desc>Created with Sketch.</desc>
    <defs></defs>
    <g id="Page-1" stroke="none" stroke-width="1" fill="none" fill-rule="evenodd" fill-opacity="0">
        <g id="purchase/quote/index_one_plan.web" transform="translate(-226.000000, -607.000000)" stroke="#E9AA5F" stroke-width="1.5" fill="#DEDEDE">
            <path d="M249.33,625.22 C252.730017,625.700002 255.45999,626.94999 257.52,628.97 C259.58001,630.99001 260.61,633.579984 260.61,636.74 C260.61,639.420013 259.910007,641.79999 258.51,643.88 C257.109993,645.96001 255.130013,647.579994 252.57,648.74 C250.009987,649.900006 247.010017,650.48 243.57,650.48 C240.489985,650.48 237.460015,650.010005 234.48,649.07 C231.499985,648.129995 228.99001,646.880008 226.95,645.32 L231.03,637.58 C232.790009,639.060007 234.66999,640.179996 236.67,640.94 C238.67001,641.700004 240.66999,642.08 242.67,642.08 C244.990012,642.08 246.769994,641.630005 248.01,640.73 C249.250006,639.829995 249.87,638.540008 249.87,636.86 C249.87,635.179992 249.250006,633.900004 248.01,633.02 C246.769994,632.139996 244.970012,631.7 242.61,631.7 L235.53,631.7 L235.53,625.7 L245.25,616.34 L229.17,616.34 L229.17,607.94 L258.57,607.94 L258.57,614.3 L247.11,624.8 L249.33,625.22 Z" id="3"></path>
        </g>
    </g>
</svg>