<?xml version="1.0" encoding="UTF-8"?>
<svg width="35px" height="35px" viewBox="0 0 35 35" version="1.1" xmlns="http://www.w3.org/2000/svg" xmlns:xlink="http://www.w3.org/1999/xlink">
    <!-- Generator: Sketch 47.1 (45422) - http://www.bohemiancoding.com/sketch -->
    <title>Twitter Copy</title>
    <desc>Created with Sketch.</desc>
    <defs>
        <polygon id="path-1" points="0 14.9013214 0 1.37129381e-05 18.1064991 1.37129381e-05 18.1064991 14.9013214"></polygon>
    </defs>
    <g id="Page-1" stroke="none" stroke-width="1" fill="none" fill-rule="evenodd">
        <g id="Footer_Web" transform="translate(-126.000000, -894.000000)">
            <g id="Twitter-Copy" transform="translate(126.000000, 894.000000)">
                <circle id="Oval-Copy-2" fill="#4A4A4A" cx="17.5" cy="17.5" r="17.5"></circle>
                <g id="Page-1" transform="translate(9.333333, 10.500000)">
                    <mask id="mask-2" fill="white">
                        <use xlink:href="#path-1"></use>
                    </mask>
                    <g id="Clip-2"></g>
                    <path d="M0.55128208,5.31030397 C1.07931987,5.46126356 1.55758773,5.59801627 2.03594725,5.73476899 C0.563014216,4.27338477 0.156055743,2.65031706 1.07821998,0.678768238 C3.13849308,3.07844837 5.68601646,4.39483071 8.83123719,4.62498223 C8.63674037,3.57110643 8.78238384,2.63051908 9.32655331,1.76545735 C10.5569611,-0.19005144 13.2362877,-0.596093341 14.9797015,0.925693042 C15.22296,1.13797138 15.4354216,1.18746633 15.7204759,1.07885241 C16.3414542,0.842101571 16.9657321,0.61387486 17.5707621,0.388856154 C17.4580236,0.959606248 17.3258537,1.14906192 16.136875,2.37855312 C16.8408032,2.18717265 17.4300681,2.02695567 18.0194246,1.86673868 C18.04848,1.89350262 18.0775354,1.92035821 18.1064991,1.94712215 C17.6466543,2.42557333 17.2126569,2.93335484 16.7171575,3.37138515 C16.4184463,3.63544987 16.2818769,3.88384119 16.2799521,4.29199121 C16.2547464,9.39959502 12.3793835,14.7270847 6.01909914,14.8968341 C3.99924691,14.9508202 2.11688066,14.5187477 0.354035541,13.5431472 C0.229473251,13.4742209 0.114076693,13.3887046 -3.66629256e-05,13.2692752 C1.93512421,13.3762392 3.68412907,12.9128199 5.17099401,11.8054162 C4.51399439,11.5071633 3.81244931,11.2661962 3.19550393,10.8872849 C2.54867826,10.4901337 2.13557875,9.85302376 1.88159633,9.04854751 L3.34325552,9.04854751 C1.62669734,8.36386738 0.656504676,7.18423775 0.55128208,5.31030397" id="Fill-1" fill="#DEDEDE" mask="url(#mask-2)"></path>
                </g>
            </g>
        </g>
    </g>
</svg>