<?xml version="1.0" encoding="UTF-8"?>
<svg width="36px" height="45px" viewBox="0 0 36 45" version="1.1" xmlns="http://www.w3.org/2000/svg" xmlns:xlink="http://www.w3.org/1999/xlink">
    <!-- Generator: Sketch 47.1 (45422) - http://www.bohemiancoding.com/sketch -->
    <title>2</title>
    <desc>Created with Sketch.</desc>
    <defs></defs>
    <g id="Page-1" stroke="none" stroke-width="1" fill="none" fill-rule="evenodd" fill-opacity="0">
        <g id="purchase/quote/index_one_plan.web" transform="translate(-490.000000, -606.000000)" stroke="#53D1A1" stroke-width="1.5" fill="#DEDEDE">
            <path d="M524.67,641.18 L524.67,650 L492.63,650 L492.57,642.74 L507.87,627.02 C509.070006,625.779994 510.049996,624.540006 510.81,623.3 C511.570004,622.059994 511.95,621.000004 511.95,620.12 C511.95,618.959994 511.530004,618.070003 510.69,617.45 C509.849996,616.829997 508.670008,616.52 507.15,616.52 C505.469992,616.52 503.60001,616.989995 501.54,617.93 C499.47999,618.870005 497.49001,620.179992 495.57,621.86 L491.37,613.76 C497.170029,609.559979 502.989971,607.46 508.83,607.46 C511.630014,607.46 514.139989,607.919995 516.36,608.84 C518.580011,609.760005 520.319994,611.059992 521.58,612.74 C522.840006,614.420008 523.47,616.339989 523.47,618.5 C523.47,620.660011 522.760007,622.889988 521.34,625.19 C519.919993,627.490012 517.910013,629.939987 515.31,632.54 L506.73,641.18 L524.67,641.18 Z" id="2"></path>
        </g>
    </g>
</svg>