<?xml version="1.0" encoding="UTF-8"?>
<svg width="35px" height="35px" viewBox="0 0 35 35" version="1.1" xmlns="http://www.w3.org/2000/svg" xmlns:xlink="http://www.w3.org/1999/xlink">
    <!-- Generator: Sketch 47.1 (45422) - http://www.bohemiancoding.com/sketch -->
    <title>YouTube Copy</title>
    <desc>Created with Sketch.</desc>
    <defs></defs>
    <g id="Page-1" stroke="none" stroke-width="1" fill="none" fill-rule="evenodd">
        <g id="Footer_Web" transform="translate(-218.000000, -894.000000)">
            <g id="YouTube-Copy" transform="translate(218.000000, 894.000000)">
                <circle id="Oval" fill="#4A4A4A" cx="17.5" cy="17.5" r="17.5"></circle>
                <g id="noun_897674_cc" transform="translate(8.166667, 10.500000)" fill-rule="nonzero" fill="#DEDEDE">
                    <path d="M15.3896672,0.183006536 L3.28065964,0.183006536 C1.56987307,0.183006536 0.183006536,1.56987307 0.183006536,3.28065964 L0.183006536,9.75757068 C0.183006536,11.4683573 1.56987307,12.8552238 3.28065964,12.8552238 L15.3896672,12.8552238 C17.1004538,12.8552238 18.4873203,11.4683573 18.4873203,9.75757068 L18.4873203,3.28065964 C18.4873203,1.56987307 17.1004538,0.183006536 15.3896672,0.183006536 Z M12.9199929,6.64302129 L7.42869876,9.45906956 C7.38522585,9.48159331 7.33317345,9.47991661 7.29124022,9.45464179 C7.24930699,9.42936696 7.22351416,9.38412325 7.22312723,9.33516344 L7.22312723,3.70306688 C7.22351416,3.65410708 7.24930699,3.60886336 7.29124022,3.58358854 C7.33317345,3.55831371 7.38522585,3.55663702 7.42869876,3.57916076 L12.9199929,6.39520904 C12.9670161,6.41929976 12.996595,6.46768807 12.996595,6.52052319 C12.996595,6.5733583 12.9670161,6.62174661 12.9199929,6.64583733 L12.9199929,6.64302129 Z" id="Shape"></path>
                </g>
            </g>
        </g>
    </g>
</svg>