<?xml version="1.0" encoding="UTF-8"?>
<svg width="39px" height="46px" viewBox="0 0 39 46" version="1.1" xmlns="http://www.w3.org/2000/svg" xmlns:xlink="http://www.w3.org/1999/xlink">
    <!-- Generator: Sketch 47.1 (45422) - http://www.bohemiancoding.com/sketch -->
    <title>0</title>
    <desc>Created with Sketch.</desc>
    <defs></defs>
    <g id="Page-1" stroke="none" stroke-width="1" fill="none" fill-rule="evenodd" fill-opacity="0">
        <g id="purchase/quote/index_one_plan.web" transform="translate(-1018.000000, -606.000000)" stroke="#8DB1FF" stroke-width="1.5" fill="#DEDEDE">
            <path d="M1037.59,607.58 C1043.55003,607.58 1048.13998,609.419982 1051.36,613.1 C1054.58002,616.780018 1056.19,622.059966 1056.19,628.94 C1056.19,635.820034 1054.58002,641.109982 1051.36,644.81 C1048.13998,648.510019 1043.55003,650.36 1037.59,650.36 C1031.54997,650.36 1026.92002,648.510019 1023.7,644.81 C1020.47998,641.109982 1018.87,635.820034 1018.87,628.94 C1018.87,622.059966 1020.47998,616.780018 1023.7,613.1 C1026.92002,609.419982 1031.54997,607.58 1037.59,607.58 Z M1037.59,615.74 C1034.94999,615.74 1033.05001,616.76999 1031.89,618.83 C1030.72999,620.89001 1030.15,624.259977 1030.15,628.94 C1030.15,633.660024 1030.72999,637.04999 1031.89,639.11 C1033.05001,641.17001 1034.94999,642.2 1037.59,642.2 C1040.15001,642.2 1042.01999,641.16001 1043.2,639.08 C1044.38001,636.99999 1044.97,633.620023 1044.97,628.94 C1044.97,624.259977 1044.38001,620.89001 1043.2,618.83 C1042.01999,616.76999 1040.15001,615.74 1037.59,615.74 Z" id="0"></path>
        </g>
    </g>
</svg>